<svg width="373" height="203" viewBox="0 0 373 203" fill="none" xmlns="http://www.w3.org/2000/svg">
<rect width="373" height="203" fill="#121212"/>
<path fill-rule="evenodd" clip-rule="evenodd" d="M168 91C168 89.3431 169.343 88 171 88H201C202.657 88 204 89.3431 204 91V115C204 116.657 202.657 118 201 118H171C169.343 118 168 116.657 168 115V91ZM172 112L181 100L190 112H172ZM200 100C200 103.314 197.314 106 194 106C190.686 106 188 103.314 188 100C188 96.6863 190.686 94 194 94C197.314 94 200 96.6863 200 100Z" fill="white" fill-opacity="0.1"/>
</svg>
