<svg width="30" height="30" viewBox="0 0 30 30" fill="none" xmlns="http://www.w3.org/2000/svg">
<path fill-rule="evenodd" clip-rule="evenodd" d="M14.2832 21.401C14.6081 21.4296 14.943 21.4446 15.2882 21.4446C20.7428 21.4446 25.2882 14.7779 25.2882 14.7779C25.2882 14.7779 24.5442 13.6867 23.297 12.3872L14.2832 21.401Z" fill="white" fill-opacity="0.3"/>
<path fill-rule="evenodd" clip-rule="evenodd" d="M17.7836 8.66118C16.8974 8.31906 15.9629 8.11133 15 8.11133C7.72727 8.11133 5 14.778 5 14.778C5 14.778 5.83342 16.8152 7.80739 18.6374L11.6667 14.7781C11.6667 14.778 11.6667 14.778 11.6667 14.778C11.6667 12.937 13.1591 11.4447 15 11.4447C15 11.4447 15.0001 11.4447 15.0001 11.4447L17.7836 8.66118Z" fill="white" fill-opacity="0.3"/>
<rect opacity="0.3" x="7.7832" y="21.9277" width="21.1111" height="2.22222" transform="rotate(-45 7.7832 21.9277)" fill="white" fill-opacity="0.3"/>
</svg>
