<svg width="107" height="104" viewBox="0 0 107 104" fill="none" xmlns="http://www.w3.org/2000/svg">
<path opacity="0.3" fill-rule="evenodd" clip-rule="evenodd" d="M15.959 57C12.6704 57 10.7868 53.2522 12.7492 50.6132L33.7902 22.3167C35.3896 20.1658 38.6104 20.1658 40.2099 22.3167L61.2508 50.6132C63.2132 53.2522 61.3296 57 58.041 57H15.959Z" fill="white"/>
<path opacity="0.3" fill-rule="evenodd" clip-rule="evenodd" d="M79 39C89.4934 39 98 30.2696 98 19.5C98 8.73045 89.4934 0 79 0C68.5066 0 60 8.73045 60 19.5C60 30.2696 68.5066 39 79 39Z" fill="white"/>
<path opacity="0.3" d="M8.48398 97H10.36V88.46H13.146V86.99H5.69798V88.46H8.48398V97ZM16.6821 95.796C15.6601 95.796 14.8481 95.026 14.8481 93.416V93.304C14.8481 91.722 15.6041 90.854 16.7661 90.854C17.9001 90.854 18.6561 91.638 18.6561 93.262V93.374C18.6561 95.012 17.7741 95.796 16.6821 95.796ZM16.2761 97.14C17.2841 97.14 18.1941 96.51 18.6001 95.796V97H20.2941V89.678H18.6001V90.784C18.1801 90.056 17.4661 89.524 16.3461 89.524C14.5821 89.524 13.1121 91.008 13.1121 93.346V93.458C13.1121 95.838 14.5681 97.14 16.2761 97.14ZM25.9787 95.796C24.7467 95.796 23.9487 95.026 23.9487 93.388V93.276C23.9487 91.652 24.7887 90.854 25.9647 90.854C27.0707 90.854 27.9107 91.652 27.9107 93.276V93.388C27.9107 94.956 27.2247 95.796 25.9787 95.796ZM22.3107 99.506H24.0047V95.852C24.3967 96.566 25.2367 97.14 26.3987 97.14C28.2887 97.14 29.6467 95.712 29.6467 93.36V93.248C29.6467 90.882 28.2327 89.524 26.3987 89.524C25.3207 89.524 24.4107 90.154 24.0047 90.854V89.678H22.3107V99.506ZM36.998 97.126C37.516 97.126 37.88 97.042 38.146 96.944V95.6C37.908 95.698 37.656 95.74 37.32 95.74C36.788 95.74 36.48 95.446 36.48 94.802V90.952H38.09V89.678H36.48V88.068H34.786V89.678H33.806V90.952H34.786V94.956C34.786 96.342 35.542 97.126 36.998 97.126ZM42.936 97.14C45.092 97.14 46.702 95.656 46.702 93.374V93.262C46.702 91.022 45.092 89.524 42.95 89.524C40.794 89.524 39.184 91.036 39.184 93.304V93.416C39.184 95.642 40.78 97.14 42.936 97.14ZM42.95 95.824C41.662 95.824 40.92 94.886 40.92 93.388V93.276C40.92 91.764 41.69 90.854 42.95 90.854C44.21 90.854 44.966 91.778 44.966 93.29V93.388C44.966 94.886 44.21 95.824 42.95 95.824ZM51.5685 97H53.2625V93.192C53.2625 91.638 54.1585 91.162 55.6425 91.148V89.566C54.4105 89.58 53.7245 90.126 53.2625 91.05V89.678H51.5685V97ZM60.2163 97.14C62.0923 97.14 63.3383 96.3 63.5763 94.76H61.9383C61.8123 95.474 61.2803 95.88 60.2583 95.88C58.9983 95.88 58.2983 95.096 58.2423 93.71H63.6043V93.22C63.6043 90.602 61.9663 89.524 60.1463 89.524C58.0603 89.524 56.5063 91.036 56.5063 93.304V93.416C56.5063 95.726 58.0603 97.14 60.2163 97.14ZM58.2703 92.576C58.4383 91.442 59.1243 90.756 60.1463 90.756C61.1963 90.756 61.8403 91.316 61.9243 92.576H58.2703ZM68.7854 95.796C67.5534 95.796 66.7554 95.026 66.7554 93.388V93.276C66.7554 91.652 67.5954 90.854 68.7714 90.854C69.8774 90.854 70.7174 91.652 70.7174 93.276V93.388C70.7174 94.956 70.0314 95.796 68.7854 95.796ZM65.1174 99.506H66.8114V95.852C67.2034 96.566 68.0434 97.14 69.2054 97.14C71.0954 97.14 72.4534 95.712 72.4534 93.36V93.248C72.4534 90.882 71.0394 89.524 69.2054 89.524C68.1274 89.524 67.2174 90.154 66.8114 90.854V89.678H65.1174V99.506ZM74.0188 97H75.7128V86.29H74.0188V97ZM80.8715 95.796C79.8495 95.796 79.0375 95.026 79.0375 93.416V93.304C79.0375 91.722 79.7935 90.854 80.9555 90.854C82.0895 90.854 82.8455 91.638 82.8455 93.262V93.374C82.8455 95.012 81.9635 95.796 80.8715 95.796ZM80.4655 97.14C81.4735 97.14 82.3835 96.51 82.7895 95.796V97H84.4835V89.678H82.7895V90.784C82.3695 90.056 81.6555 89.524 80.5355 89.524C78.7715 89.524 77.3015 91.008 77.3015 93.346V93.458C77.3015 95.838 78.7575 97.14 80.4655 97.14ZM89.7062 97.14C91.6942 97.14 92.9682 95.95 93.0942 94.27H91.5402C91.4422 95.306 90.6722 95.838 89.7762 95.838C88.5302 95.838 87.7462 94.998 87.7462 93.402V93.29C87.7462 91.778 88.5722 90.882 89.7342 90.882C90.6302 90.882 91.2742 91.288 91.4142 92.268H93.0522C92.8562 90.252 91.3302 89.524 89.7062 89.524C87.6622 89.524 86.0102 90.994 86.0102 93.318V93.43C86.0102 95.768 87.6062 97.14 89.7062 97.14ZM97.7729 97.14C99.6489 97.14 100.895 96.3 101.133 94.76H99.4949C99.3689 95.474 98.8369 95.88 97.8149 95.88C96.5549 95.88 95.8549 95.096 95.7989 93.71H101.161V93.22C101.161 90.602 99.5229 89.524 97.7029 89.524C95.6169 89.524 94.0629 91.036 94.0629 93.304V93.416C94.0629 95.726 95.6169 97.14 97.7729 97.14ZM95.8269 92.576C95.9949 91.442 96.6809 90.756 97.7029 90.756C98.7529 90.756 99.3969 91.316 99.4809 92.576H95.8269Z" fill="white"/>
</svg>
