<svg width="540" height="335" viewBox="0 0 540 335" fill="none" xmlns="http://www.w3.org/2000/svg">
<path opacity="0.3" d="M206.82 317.996C206.932 316.484 207.002 314.692 207.044 313.474H210.334V320.502H206.19C206.568 319.886 206.736 319.018 206.82 317.996ZM205.112 322H211.692L211.762 323.82H213.372V320.502H212.182V311.99H205.378C205.378 313.306 205.322 315.882 205.154 317.87C205 319.354 204.748 320.25 204.076 320.502H203.446V323.82H205.042L205.112 322ZM217.874 322.14C220.03 322.14 221.64 320.656 221.64 318.374V318.262C221.64 316.022 220.03 314.524 217.888 314.524C215.732 314.524 214.122 316.036 214.122 318.304V318.416C214.122 320.642 215.718 322.14 217.874 322.14ZM217.888 320.824C216.6 320.824 215.858 319.886 215.858 318.388V318.276C215.858 316.764 216.628 315.854 217.888 315.854C219.148 315.854 219.904 316.778 219.904 318.29V318.388C219.904 319.886 219.148 320.824 217.888 320.824ZM226.502 322.14C228.644 322.14 230.268 320.712 230.268 318.374V318.29C230.268 316.19 228.91 314.636 226.88 314.636C225.494 314.636 224.612 315.294 224.122 316.246H224.052C224.234 314.188 224.99 312.9 227.048 312.788L227.412 312.76C228.63 312.69 229.176 312.578 229.61 312.396V311.066C229.176 311.22 228.49 311.276 227.44 311.332L226.992 311.346C223.8 311.5 222.75 313.922 222.75 317.156V317.674C222.75 320.754 224.248 322.14 226.502 322.14ZM226.516 320.824C225.228 320.824 224.486 319.9 224.486 318.444V318.374C224.486 316.862 225.284 315.966 226.586 315.966C227.86 315.966 228.532 316.848 228.532 318.332V318.388C228.532 319.928 227.776 320.824 226.516 320.824ZM234.891 320.796C233.869 320.796 233.057 320.026 233.057 318.416V318.304C233.057 316.722 233.813 315.854 234.975 315.854C236.109 315.854 236.865 316.638 236.865 318.262V318.374C236.865 320.012 235.983 320.796 234.891 320.796ZM234.485 322.14C235.493 322.14 236.403 321.51 236.809 320.796V322H238.503V314.678H236.809V315.784C236.389 315.056 235.675 314.524 234.555 314.524C232.791 314.524 231.321 316.008 231.321 318.346V318.458C231.321 320.838 232.777 322.14 234.485 322.14ZM240.506 322H243.726C245.476 322 246.456 321.244 246.456 319.844V319.802C246.456 318.85 245.84 318.346 244.832 318.15C245.728 317.94 246.134 317.31 246.134 316.54V316.512C246.134 315.168 245 314.678 243.46 314.678H240.506V322ZM243.166 315.812C243.964 315.812 244.398 316.008 244.398 316.68V316.708C244.398 317.38 244.034 317.674 243.222 317.674H242.2V315.812H243.166ZM243.46 318.808C244.314 318.808 244.72 319.13 244.72 319.83V319.858C244.72 320.572 244.272 320.866 243.404 320.866H242.2V318.808H243.46ZM249.706 322L252.87 316.82V322H254.55V314.678H252.87L249.706 319.858V314.678H248.012V322H249.706ZM261.976 314.678H255.802V315.938H258.042V322H259.736V315.938H261.976V314.678ZM263.297 322H266.265C267.973 322 269.121 321.258 269.121 319.606V319.564C269.121 317.926 267.945 317.086 266.307 317.086H264.991V314.678H263.297V322ZM264.991 320.782V318.318H266.055C266.979 318.318 267.413 318.724 267.413 319.55V319.592C267.413 320.39 267.007 320.782 266.055 320.782H264.991ZM278.303 322H280.263L277.183 318.066L280.025 314.678H278.177L275.559 317.926V314.678H273.865V322H275.559V318.416L278.303 322ZM284.247 320.796C283.225 320.796 282.413 320.026 282.413 318.416V318.304C282.413 316.722 283.169 315.854 284.331 315.854C285.465 315.854 286.221 316.638 286.221 318.262V318.374C286.221 320.012 285.339 320.796 284.247 320.796ZM283.841 322.14C284.849 322.14 285.759 321.51 286.165 320.796V322H287.859V314.678H286.165V315.784C285.745 315.056 285.031 314.524 283.911 314.524C282.147 314.524 280.677 316.008 280.677 318.346V318.458C280.677 320.838 282.133 322.14 283.841 322.14ZM293.53 320.796C292.298 320.796 291.5 320.026 291.5 318.388V318.276C291.5 316.652 292.34 315.854 293.516 315.854C294.622 315.854 295.462 316.652 295.462 318.276V318.388C295.462 319.956 294.776 320.796 293.53 320.796ZM289.862 324.506H291.556V320.852C291.948 321.566 292.788 322.14 293.95 322.14C295.84 322.14 297.198 320.712 297.198 318.36V318.248C297.198 315.882 295.784 314.524 293.95 314.524C292.872 314.524 291.962 315.154 291.556 315.854V314.678H289.862V324.506ZM304.058 314.678H297.884V315.938H300.124V322H301.818V315.938H304.058V314.678ZM307.073 322L310.237 316.82V322H311.917V314.678H310.237L307.073 319.858V314.678H305.379V322H307.073ZM318.601 322H320.295V314.678H318.601V317.632H315.563V314.678H313.869V322H315.563V318.892H318.601V322ZM326.743 322H328.703L325.623 318.066L328.465 314.678H326.617L323.999 317.926V314.678H322.305V322H323.999V318.416L326.743 322ZM330.677 324.506H332.343L336.333 314.678H334.681L332.889 319.396L330.943 314.678H329.109L332.007 321.258L330.677 324.506Z" fill="white"/>
<g opacity="0.3">
<path fill-rule="evenodd" clip-rule="evenodd" d="M270.695 263.057C342.805 263.057 401.262 204.617 401.262 132.528C401.262 60.4395 342.805 2 270.695 2C198.584 2 140.127 60.4395 140.127 132.528C140.127 204.617 198.584 263.057 270.695 263.057Z" stroke="white" stroke-width="4"/>
<path d="M170.259 132.528C170.259 187.981 215.226 232.935 270.696 232.935C326.166 232.935 371.133 187.981 371.133 132.528" stroke="white" stroke-width="4" stroke-linecap="round" stroke-linejoin="round"/>
<path fill-rule="evenodd" clip-rule="evenodd" d="M270.695 43.5977L309.435 103.842L270.695 164.085L231.955 103.842L270.695 43.5977Z" fill="white"/>
</g>
</svg>
