<svg width="253" height="144" viewBox="0 0 253 144" fill="none" xmlns="http://www.w3.org/2000/svg">
<rect width="253" height="144" rx="3" fill="white" fill-opacity="0.05"/>
<rect x="31" y="57" width="189" height="35" rx="3" fill="white" fill-opacity="0.08"/>
<path opacity="0.3" fill-rule="evenodd" clip-rule="evenodd" d="M46.625 79.9165C44.3074 79.9165 42.9844 77.2706 44.375 75.4165V75.4165C45.5 73.9165 47.75 73.9165 48.875 75.4165V75.4165C50.2656 77.2706 48.9426 79.9165 46.625 79.9165V79.9165Z" fill="white"/>
<path opacity="0.3" fill-rule="evenodd" clip-rule="evenodd" d="M54.75 76.1665C56.8211 76.1665 58.5 74.4876 58.5 72.4165C58.5 70.3454 56.8211 68.6665 54.75 68.6665C52.6789 68.6665 51 70.3454 51 72.4165C51 74.4876 52.6789 76.1665 54.75 76.1665Z" fill="white"/>
<path opacity="0.6" d="M75.224 68H75.986L76.856 64.874L77.702 68H78.5L79.574 63.71H78.83L78.062 66.878L77.21 63.71H76.55L75.716 66.86L74.972 63.71H74.156L75.224 68ZM80.2225 68H83.0065V67.37H81.0205V66.116H82.5325V65.516H81.0205V64.34H82.9045V63.71H80.2225V68ZM83.7264 68H85.3764C86.3184 68 86.8464 67.598 86.8464 66.8V66.776C86.8464 66.206 86.5704 65.888 85.9884 65.762C86.4744 65.612 86.6664 65.276 86.6664 64.85V64.826C86.6664 64.046 86.1444 63.71 85.2624 63.71H83.7264V68ZM84.5064 65.516V64.28H85.1544C85.6644 64.28 85.8984 64.454 85.8984 64.862V64.886C85.8984 65.324 85.6944 65.516 85.1664 65.516H84.5064ZM84.5064 67.43V66.056H85.2264C85.8144 66.056 86.0604 66.278 86.0604 66.722V66.746C86.0604 67.19 85.8144 67.43 85.2804 67.43H84.5064ZM89.0233 68H90.6733C91.6152 68 92.1433 67.598 92.1433 66.8V66.776C92.1433 66.206 91.8673 65.888 91.2853 65.762C91.7713 65.612 91.9633 65.276 91.9633 64.85V64.826C91.9633 64.046 91.4413 63.71 90.5593 63.71H89.0233V68ZM89.8033 65.516V64.28H90.4513C90.9613 64.28 91.1953 64.454 91.1953 64.862V64.886C91.1953 65.324 90.9913 65.516 90.4633 65.516H89.8033ZM89.8033 67.43V66.056H90.5233C91.1113 66.056 91.3573 66.278 91.3573 66.722V66.746C91.3573 67.19 91.1113 67.43 90.5773 67.43H89.8033ZM94.8464 68.06C96.1484 68.06 97.0064 67.118 97.0064 65.864V65.816C97.0064 64.556 96.1244 63.65 94.8464 63.65C93.5744 63.65 92.6744 64.58 92.6744 65.834V65.882C92.6744 67.118 93.5324 68.06 94.8464 68.06ZM94.8584 67.418C94.0784 67.418 93.5084 66.812 93.5084 65.876V65.828C93.5084 64.904 94.0064 64.286 94.8464 64.286C95.6864 64.286 96.1784 64.94 96.1784 65.822V65.87C96.1784 66.8 95.6684 67.418 94.8584 67.418ZM99.7332 68.06C101.035 68.06 101.893 67.118 101.893 65.864V65.816C101.893 64.556 101.011 63.65 99.7332 63.65C98.4612 63.65 97.5612 64.58 97.5612 65.834V65.882C97.5612 67.118 98.4192 68.06 99.7332 68.06ZM99.7452 67.418C98.9652 67.418 98.3952 66.812 98.3952 65.876V65.828C98.3952 64.904 98.8932 64.286 99.7332 64.286C100.573 64.286 101.065 64.94 101.065 65.822V65.87C101.065 66.8 100.555 67.418 99.7452 67.418ZM102.664 68H103.462V65.996L105.112 68H106.054L104.188 65.756L105.964 63.704H105.106L103.462 65.654V63.71H102.664V68ZM106.619 68H107.339V64.76L108.641 68H108.899L110.177 64.76V68H110.975V63.71H109.919L108.815 66.638L107.687 63.71H106.619V68ZM113.535 64.364L114.165 66.356H112.899L113.535 64.364ZM111.627 68H112.377L112.713 66.938H114.351L114.693 68H115.521L114.105 63.71H113.061L111.627 68ZM116.974 65.696V64.328H117.616C118.126 64.328 118.432 64.496 118.432 64.988V65.012C118.432 65.468 118.15 65.696 117.616 65.696H116.974ZM116.176 68H116.974V66.266H117.484L118.606 68H119.47L118.264 66.146C118.798 66.008 119.218 65.666 119.218 64.994V64.97C119.218 64.094 118.558 63.71 117.616 63.71H116.176V68ZM120.107 68H120.905V65.996L122.555 68H123.497L121.631 65.756L123.407 63.704H122.549L120.905 65.654V63.71H120.107V68Z" fill="white"/>
<path opacity="0.6" d="M74.66 76H74.897L75.398 74.305L75.884 76H76.124L76.682 73.855H76.439L75.998 75.592L75.494 73.855H75.308L74.804 75.586L74.369 73.855H74.102L74.66 76ZM77.5571 76.027C77.9111 76.027 78.1721 75.862 78.2261 75.547H77.9771C77.9441 75.73 77.8031 75.82 77.5601 75.82C77.2391 75.82 77.0681 75.622 77.0561 75.265H78.2381V75.184C78.2381 74.623 77.8961 74.404 77.5331 74.404C77.1011 74.404 76.7981 74.734 76.7981 75.208V75.232C76.7981 75.715 77.1131 76.027 77.5571 76.027ZM77.0651 75.064C77.1071 74.785 77.2781 74.611 77.5331 74.611C77.7911 74.611 77.9591 74.74 77.9831 75.064H77.0651ZM79.4681 76H79.7171V74.641H80.1011V74.431H79.7171V74.149C79.7171 73.99 79.7831 73.879 79.9451 73.879C80.0141 73.879 80.0771 73.894 80.1221 73.912V73.702C80.0591 73.681 80.0171 73.672 79.9361 73.672C79.6241 73.672 79.4681 73.858 79.4681 74.176V74.431H79.2431V74.641H79.4681V76ZM81.026 76.027C81.473 76.027 81.8 75.7 81.8 75.226V75.202C81.8 74.731 81.473 74.404 81.029 74.404C80.585 74.404 80.258 74.734 80.258 75.205V75.229C80.258 75.688 80.579 76.027 81.026 76.027ZM81.029 75.82C80.711 75.82 80.516 75.586 80.516 75.229V75.205C80.516 74.845 80.714 74.611 81.029 74.611C81.341 74.611 81.542 74.845 81.542 75.208V75.229C81.542 75.583 81.344 75.82 81.029 75.82ZM82.8366 76.027C83.2146 76.027 83.4876 75.775 83.5206 75.436H83.2896C83.2626 75.691 83.0616 75.82 82.8396 75.82C82.5366 75.82 82.3266 75.616 82.3266 75.232V75.208C82.3266 74.839 82.5456 74.611 82.8306 74.611C83.0466 74.611 83.2266 74.704 83.2656 74.953H83.5116C83.4636 74.554 83.1576 74.404 82.8306 74.404C82.4106 74.404 82.0686 74.728 82.0686 75.208V75.232C82.0686 75.718 82.3986 76.027 82.8366 76.027ZM84.4275 76.027C84.6795 76.027 84.8535 75.898 84.9255 75.751V76H85.1745V74.431H84.9255V75.382C84.9255 75.664 84.7155 75.811 84.4935 75.811C84.2475 75.811 84.1305 75.688 84.1305 75.412V74.431H83.8815V75.424C83.8815 75.856 84.1155 76.027 84.4275 76.027ZM86.1638 76.027C86.5448 76.027 86.7398 75.835 86.7398 75.55C86.7398 75.217 86.5118 75.145 86.1878 75.085C85.8998 75.034 85.8218 74.977 85.8218 74.836C85.8218 74.701 85.9388 74.611 86.1188 74.611C86.3168 74.611 86.4128 74.686 86.4488 74.857H86.6888C86.6468 74.518 86.4038 74.404 86.1218 74.404C85.8758 74.404 85.5908 74.554 85.5908 74.845C85.5908 75.118 85.7288 75.232 86.1368 75.307C86.3798 75.352 86.5028 75.406 86.5028 75.571C86.5028 75.739 86.3978 75.82 86.1608 75.82C85.9088 75.82 85.8098 75.703 85.7918 75.517H85.5488C85.5638 75.838 85.7888 76.027 86.1638 76.027ZM87.7612 76.027C88.1152 76.027 88.3762 75.862 88.4302 75.547H88.1812C88.1482 75.73 88.0072 75.82 87.7642 75.82C87.4432 75.82 87.2722 75.622 87.2602 75.265H88.4422V75.184C88.4422 74.623 88.1002 74.404 87.7372 74.404C87.3052 74.404 87.0022 74.734 87.0022 75.208V75.232C87.0022 75.715 87.3172 76.027 87.7612 76.027ZM87.2692 75.064C87.3112 74.785 87.4822 74.611 87.7372 74.611C87.9952 74.611 88.1632 74.74 88.1872 75.064H87.2692ZM89.4423 75.82C89.1783 75.82 88.9653 75.631 88.9653 75.235V75.211C88.9653 74.83 89.1513 74.611 89.4633 74.611C89.7693 74.611 89.9613 74.8 89.9613 75.202V75.226C89.9613 75.628 89.7333 75.82 89.4423 75.82ZM89.4153 76.027C89.6433 76.027 89.8623 75.883 89.9523 75.73V76H90.2013V73.681H89.9523V74.683C89.8623 74.53 89.7003 74.404 89.4393 74.404C89.0073 74.404 88.7073 74.743 88.7073 75.223V75.247C88.7073 75.736 89.0043 76.027 89.4153 76.027ZM92.1501 76.027C92.5971 76.027 92.9241 75.7 92.9241 75.226V75.202C92.9241 74.731 92.5971 74.404 92.1531 74.404C91.7091 74.404 91.3821 74.734 91.3821 75.205V75.229C91.3821 75.688 91.7031 76.027 92.1501 76.027ZM92.1531 75.82C91.8351 75.82 91.6401 75.586 91.6401 75.229V75.205C91.6401 74.845 91.8381 74.611 92.1531 74.611C92.4651 74.611 92.6661 74.845 92.6661 75.208V75.229C92.6661 75.583 92.4681 75.82 92.1531 75.82ZM93.3096 76H93.5586V75.049C93.5586 74.767 93.7656 74.62 93.9966 74.62C94.2486 74.62 94.3656 74.743 94.3656 75.019V76H94.6146V75.037C94.6146 74.581 94.3866 74.404 94.0626 74.404C93.8046 74.404 93.6306 74.533 93.5586 74.68V74.431H93.3096V76ZM96.3825 76.027C96.7635 76.027 96.9585 75.835 96.9585 75.55C96.9585 75.217 96.7305 75.145 96.4065 75.085C96.1185 75.034 96.0405 74.977 96.0405 74.836C96.0405 74.701 96.1575 74.611 96.3375 74.611C96.5355 74.611 96.6315 74.686 96.6675 74.857H96.9075C96.8655 74.518 96.6225 74.404 96.3405 74.404C96.0945 74.404 95.8095 74.554 95.8095 74.845C95.8095 75.118 95.9475 75.232 96.3555 75.307C96.5985 75.352 96.7215 75.406 96.7215 75.571C96.7215 75.739 96.6165 75.82 96.3795 75.82C96.1275 75.82 96.0285 75.703 96.0105 75.517H95.7675C95.7825 75.838 96.0075 76.027 96.3825 76.027ZM97.4639 74.104C97.5539 74.104 97.6289 74.029 97.6289 73.939C97.6289 73.849 97.5539 73.774 97.4639 73.774C97.3739 73.774 97.2989 73.849 97.2989 73.939C97.2989 74.029 97.3739 74.104 97.4639 74.104ZM97.3439 76H97.5929V74.431H97.3439V76ZM98.1026 76H98.3516V75.04C98.3516 74.758 98.5616 74.62 98.7656 74.62C98.9816 74.62 99.0986 74.734 99.0986 75.01V76H99.3476V75.04C99.3476 74.758 99.5576 74.62 99.7616 74.62C99.9776 74.62 100.095 74.734 100.095 75.01V76H100.344V75.028C100.344 74.572 100.098 74.404 99.8156 74.404C99.6206 74.404 99.3866 74.494 99.2786 74.698C99.1976 74.488 99.0206 74.404 98.8196 74.404C98.5946 74.404 98.4236 74.524 98.3516 74.671V74.431H98.1026V76ZM100.959 74.104C101.049 74.104 101.124 74.029 101.124 73.939C101.124 73.849 101.049 73.774 100.959 73.774C100.869 73.774 100.794 73.849 100.794 73.939C100.794 74.029 100.869 74.104 100.959 74.104ZM100.839 76H101.088V74.431H100.839V76ZM101.604 76H101.856V73.681H101.604V76ZM102.968 75.82C102.722 75.82 102.506 75.631 102.506 75.235V75.211C102.506 74.83 102.701 74.611 102.989 74.611C103.271 74.611 103.466 74.8 103.466 75.202V75.226C103.466 75.628 103.235 75.82 102.968 75.82ZM102.941 76.027C103.151 76.027 103.367 75.889 103.457 75.736V76H103.706V74.431H103.457V74.677C103.367 74.524 103.208 74.404 102.965 74.404C102.569 74.404 102.248 74.743 102.248 75.223V75.247C102.248 75.736 102.566 76.027 102.941 76.027ZM104.211 76H104.46V75.139C104.46 74.752 104.661 74.653 104.976 74.638V74.404C104.694 74.413 104.559 74.536 104.46 74.713V74.431H104.211V76ZM105.465 74.104C105.555 74.104 105.63 74.029 105.63 73.939C105.63 73.849 105.555 73.774 105.465 73.774C105.375 73.774 105.3 73.849 105.3 73.939C105.3 74.029 105.375 74.104 105.465 74.104ZM105.345 76H105.594V74.431H105.345V76ZM106.581 76.021C106.683 76.021 106.743 76.006 106.794 75.988V75.778C106.74 75.799 106.68 75.811 106.602 75.811C106.476 75.811 106.407 75.736 106.407 75.583V74.641H106.773V74.431H106.407V74.074H106.158V74.431H105.933V74.641H106.158V75.607C106.158 75.853 106.296 76.021 106.581 76.021ZM107.296 74.104C107.386 74.104 107.461 74.029 107.461 73.939C107.461 73.849 107.386 73.774 107.296 73.774C107.206 73.774 107.131 73.849 107.131 73.939C107.131 74.029 107.206 74.104 107.296 74.104ZM107.176 76H107.425V74.431H107.176V76ZM108.577 76.027C108.931 76.027 109.192 75.862 109.246 75.547H108.997C108.964 75.73 108.823 75.82 108.58 75.82C108.259 75.82 108.088 75.622 108.076 75.265H109.258V75.184C109.258 74.623 108.916 74.404 108.553 74.404C108.121 74.404 107.818 74.734 107.818 75.208V75.232C107.818 75.715 108.133 76.027 108.577 76.027ZM108.085 75.064C108.127 74.785 108.298 74.611 108.553 74.611C108.811 74.611 108.979 74.74 109.003 75.064H108.085ZM110.14 76.027C110.521 76.027 110.716 75.835 110.716 75.55C110.716 75.217 110.488 75.145 110.164 75.085C109.876 75.034 109.798 74.977 109.798 74.836C109.798 74.701 109.915 74.611 110.095 74.611C110.293 74.611 110.389 74.686 110.425 74.857H110.665C110.623 74.518 110.38 74.404 110.098 74.404C109.852 74.404 109.567 74.554 109.567 74.845C109.567 75.118 109.705 75.232 110.113 75.307C110.356 75.352 110.479 75.406 110.479 75.571C110.479 75.739 110.374 75.82 110.137 75.82C109.885 75.82 109.786 75.703 109.768 75.517H109.525C109.54 75.838 109.765 76.027 110.14 76.027ZM112.67 76.027C113.102 76.027 113.384 75.697 113.384 75.217V75.193C113.384 74.704 113.081 74.404 112.67 74.404C112.442 74.404 112.229 74.542 112.139 74.695V73.681H111.89V76H112.139V75.742C112.229 75.898 112.415 76.027 112.67 76.027ZM112.646 75.82C112.34 75.82 112.13 75.631 112.13 75.229V75.205C112.13 74.803 112.352 74.611 112.643 74.611C112.907 74.611 113.126 74.809 113.126 75.205V75.229C113.126 75.61 112.958 75.82 112.646 75.82ZM114.413 76.027C114.767 76.027 115.028 75.862 115.082 75.547H114.833C114.8 75.73 114.659 75.82 114.416 75.82C114.095 75.82 113.924 75.622 113.912 75.265H115.094V75.184C115.094 74.623 114.752 74.404 114.389 74.404C113.957 74.404 113.654 74.734 113.654 75.208V75.232C113.654 75.715 113.969 76.027 114.413 76.027ZM113.921 75.064C113.963 74.785 114.134 74.611 114.389 74.611C114.647 74.611 114.815 74.74 114.839 75.064H113.921ZM115.953 76.021C116.055 76.021 116.115 76.006 116.166 75.988V75.778C116.112 75.799 116.052 75.811 115.974 75.811C115.848 75.811 115.779 75.736 115.779 75.583V74.641H116.145V74.431H115.779V74.074H115.53V74.431H115.305V74.641H115.53V75.607C115.53 75.853 115.668 76.021 115.953 76.021ZM116.857 76H117.13L117.496 74.824L117.823 76H118.099L118.588 74.431H118.333L117.964 75.694L117.607 74.431H117.391L117.01 75.694L116.644 74.431H116.374L116.857 76ZM119.537 76.027C119.891 76.027 120.152 75.862 120.206 75.547H119.957C119.924 75.73 119.783 75.82 119.54 75.82C119.219 75.82 119.048 75.622 119.036 75.265H120.218V75.184C120.218 74.623 119.876 74.404 119.513 74.404C119.081 74.404 118.778 74.734 118.778 75.208V75.232C118.778 75.715 119.093 76.027 119.537 76.027ZM119.045 75.064C119.087 74.785 119.258 74.611 119.513 74.611C119.771 74.611 119.939 74.74 119.963 75.064H119.045ZM121.242 76.027C121.596 76.027 121.857 75.862 121.911 75.547H121.662C121.629 75.73 121.488 75.82 121.245 75.82C120.924 75.82 120.753 75.622 120.741 75.265H121.923V75.184C121.923 74.623 121.581 74.404 121.218 74.404C120.786 74.404 120.483 74.734 120.483 75.208V75.232C120.483 75.715 120.798 76.027 121.242 76.027ZM120.75 75.064C120.792 74.785 120.963 74.611 121.218 74.611C121.476 74.611 121.644 74.74 121.668 75.064H120.75ZM122.305 76H122.554V75.049C122.554 74.767 122.761 74.62 122.992 74.62C123.244 74.62 123.361 74.743 123.361 75.019V76H123.61V75.037C123.61 74.581 123.382 74.404 123.058 74.404C122.8 74.404 122.626 74.533 122.554 74.68V74.431H122.305V76ZM125.378 76.027C125.759 76.027 125.954 75.835 125.954 75.55C125.954 75.217 125.726 75.145 125.402 75.085C125.114 75.034 125.036 74.977 125.036 74.836C125.036 74.701 125.153 74.611 125.333 74.611C125.531 74.611 125.627 74.686 125.663 74.857H125.903C125.861 74.518 125.618 74.404 125.336 74.404C125.09 74.404 124.805 74.554 124.805 74.845C124.805 75.118 124.943 75.232 125.351 75.307C125.594 75.352 125.717 75.406 125.717 75.571C125.717 75.739 125.612 75.82 125.375 75.82C125.123 75.82 125.024 75.703 125.006 75.517H124.763C124.778 75.838 125.003 76.027 125.378 76.027ZM126.975 76.027C127.329 76.027 127.59 75.862 127.644 75.547H127.395C127.362 75.73 127.221 75.82 126.978 75.82C126.657 75.82 126.486 75.622 126.474 75.265H127.656V75.184C127.656 74.623 127.314 74.404 126.951 74.404C126.519 74.404 126.216 74.734 126.216 75.208V75.232C126.216 75.715 126.531 76.027 126.975 76.027ZM126.483 75.064C126.525 74.785 126.696 74.611 126.951 74.611C127.209 74.611 127.377 74.74 127.401 75.064H126.483ZM128.662 75.742C128.398 75.742 128.179 75.538 128.179 75.196V75.172C128.179 74.842 128.365 74.611 128.677 74.611C128.983 74.611 129.175 74.815 129.175 75.166V75.187C129.175 75.538 128.953 75.742 128.662 75.742ZM128.665 76.573C129.103 76.573 129.412 76.351 129.415 75.895V74.431H129.166V74.683C129.076 74.53 128.914 74.404 128.653 74.404C128.221 74.404 127.921 74.758 127.921 75.184V75.205C127.921 75.637 128.224 75.949 128.635 75.949C128.863 75.949 129.076 75.805 129.166 75.652V75.88C129.166 76.216 128.971 76.363 128.662 76.363C128.395 76.363 128.245 76.27 128.209 76.09H127.954C127.996 76.354 128.2 76.573 128.665 76.573ZM129.919 76H130.168V75.04C130.168 74.758 130.378 74.62 130.582 74.62C130.798 74.62 130.915 74.734 130.915 75.01V76H131.164V75.04C131.164 74.758 131.374 74.62 131.578 74.62C131.794 74.62 131.911 74.734 131.911 75.01V76H132.16V75.028C132.16 74.572 131.914 74.404 131.632 74.404C131.437 74.404 131.203 74.494 131.095 74.698C131.014 74.488 130.837 74.404 130.636 74.404C130.411 74.404 130.24 74.524 130.168 74.671V74.431H129.919V76ZM133.291 76.027C133.645 76.027 133.906 75.862 133.96 75.547H133.711C133.678 75.73 133.537 75.82 133.294 75.82C132.973 75.82 132.802 75.622 132.79 75.265H133.972V75.184C133.972 74.623 133.63 74.404 133.267 74.404C132.835 74.404 132.532 74.734 132.532 75.208V75.232C132.532 75.715 132.847 76.027 133.291 76.027ZM132.799 75.064C132.841 74.785 133.012 74.611 133.267 74.611C133.525 74.611 133.693 74.74 133.717 75.064H132.799ZM134.355 76H134.604V75.049C134.604 74.767 134.811 74.62 135.042 74.62C135.294 74.62 135.411 74.743 135.411 75.019V76H135.66V75.037C135.66 74.581 135.432 74.404 135.108 74.404C134.85 74.404 134.676 74.533 134.604 74.68V74.431H134.355V76ZM136.625 76.021C136.727 76.021 136.787 76.006 136.838 75.988V75.778C136.784 75.799 136.724 75.811 136.646 75.811C136.52 75.811 136.451 75.736 136.451 75.583V74.641H136.817V74.431H136.451V74.074H136.202V74.431H135.977V74.641H136.202V75.607C136.202 75.853 136.34 76.021 136.625 76.021ZM137.7 76.027C138.081 76.027 138.276 75.835 138.276 75.55C138.276 75.217 138.048 75.145 137.724 75.085C137.436 75.034 137.358 74.977 137.358 74.836C137.358 74.701 137.475 74.611 137.655 74.611C137.853 74.611 137.949 74.686 137.985 74.857H138.225C138.183 74.518 137.94 74.404 137.658 74.404C137.412 74.404 137.127 74.554 137.127 74.845C137.127 75.118 137.265 75.232 137.673 75.307C137.916 75.352 138.039 75.406 138.039 75.571C138.039 75.739 137.934 75.82 137.697 75.82C137.445 75.82 137.346 75.703 137.328 75.517H137.085C137.1 75.838 137.325 76.027 137.7 76.027ZM139.926 76.021C140.028 76.021 140.088 76.006 140.139 75.988V75.778C140.085 75.799 140.025 75.811 139.947 75.811C139.821 75.811 139.752 75.736 139.752 75.583V74.641H140.118V74.431H139.752V74.074H139.503V74.431H139.278V74.641H139.503V75.607C139.503 75.853 139.641 76.021 139.926 76.021ZM140.516 76H140.765V75.049C140.765 74.767 140.972 74.62 141.203 74.62C141.455 74.62 141.572 74.743 141.572 75.019V76H141.821V75.037C141.821 74.581 141.593 74.404 141.269 74.404C141.011 74.404 140.837 74.533 140.765 74.68V73.681H140.516V76ZM142.912 75.82C142.666 75.82 142.45 75.631 142.45 75.235V75.211C142.45 74.83 142.645 74.611 142.933 74.611C143.215 74.611 143.41 74.8 143.41 75.202V75.226C143.41 75.628 143.179 75.82 142.912 75.82ZM142.885 76.027C143.095 76.027 143.311 75.889 143.401 75.736V76H143.65V74.431H143.401V74.677C143.311 74.524 143.152 74.404 142.909 74.404C142.513 74.404 142.192 74.743 142.192 75.223V75.247C142.192 75.736 142.51 76.027 142.885 76.027ZM144.631 76.021C144.733 76.021 144.793 76.006 144.844 75.988V75.778C144.79 75.799 144.73 75.811 144.652 75.811C144.526 75.811 144.457 75.736 144.457 75.583V74.641H144.823V74.431H144.457V74.074H144.208V74.431H143.983V74.641H144.208V75.607C144.208 75.853 144.346 76.021 144.631 76.021ZM146.015 76H146.264V75.049C146.264 74.767 146.471 74.62 146.702 74.62C146.954 74.62 147.071 74.743 147.071 75.019V76H147.32V75.037C147.32 74.581 147.092 74.404 146.768 74.404C146.51 74.404 146.336 74.533 146.264 74.68V73.681H146.015V76ZM148.45 76.027C148.804 76.027 149.065 75.862 149.119 75.547H148.87C148.837 75.73 148.696 75.82 148.453 75.82C148.132 75.82 147.961 75.622 147.949 75.265H149.131V75.184C149.131 74.623 148.789 74.404 148.426 74.404C147.994 74.404 147.691 74.734 147.691 75.208V75.232C147.691 75.715 148.006 76.027 148.45 76.027ZM147.958 75.064C148 74.785 148.171 74.611 148.426 74.611C148.684 74.611 148.852 74.74 148.876 75.064H147.958ZM149.519 76H149.771V73.681H149.519V76ZM151.036 75.82C150.73 75.82 150.52 75.631 150.52 75.229V75.205C150.52 74.803 150.742 74.611 151.033 74.611C151.297 74.611 151.516 74.809 151.516 75.205V75.229C151.516 75.61 151.348 75.82 151.036 75.82ZM150.28 76.546H150.529V75.742C150.619 75.898 150.802 76.027 151.06 76.027C151.492 76.027 151.774 75.697 151.774 75.217V75.193C151.774 74.704 151.471 74.404 151.06 74.404C150.832 74.404 150.619 74.542 150.529 74.695V74.431H150.28V76.546ZM152.803 76.027C153.157 76.027 153.418 75.862 153.472 75.547H153.223C153.19 75.73 153.049 75.82 152.806 75.82C152.485 75.82 152.314 75.622 152.302 75.265H153.484V75.184C153.484 74.623 153.142 74.404 152.779 74.404C152.347 74.404 152.044 74.734 152.044 75.208V75.232C152.044 75.715 152.359 76.027 152.803 76.027ZM152.311 75.064C152.353 74.785 152.524 74.611 152.779 74.611C153.037 74.611 153.205 74.74 153.229 75.064H152.311ZM154.484 75.82C154.22 75.82 154.007 75.631 154.007 75.235V75.211C154.007 74.83 154.193 74.611 154.505 74.611C154.811 74.611 155.003 74.8 155.003 75.202V75.226C155.003 75.628 154.775 75.82 154.484 75.82ZM154.457 76.027C154.685 76.027 154.904 75.883 154.994 75.73V76H155.243V73.681H154.994V74.683C154.904 74.53 154.742 74.404 154.481 74.404C154.049 74.404 153.749 74.743 153.749 75.223V75.247C153.749 75.736 154.046 76.027 154.457 76.027ZM157.018 76.021C157.12 76.021 157.18 76.006 157.231 75.988V75.778C157.177 75.799 157.117 75.811 157.039 75.811C156.913 75.811 156.844 75.736 156.844 75.583V74.641H157.21V74.431H156.844V74.074H156.595V74.431H156.37V74.641H156.595V75.607C156.595 75.853 156.733 76.021 157.018 76.021ZM158.258 76.027C158.705 76.027 159.032 75.7 159.032 75.226V75.202C159.032 74.731 158.705 74.404 158.261 74.404C157.817 74.404 157.49 74.734 157.49 75.205V75.229C157.49 75.688 157.811 76.027 158.258 76.027ZM158.261 75.82C157.943 75.82 157.748 75.586 157.748 75.229V75.205C157.748 74.845 157.946 74.611 158.261 74.611C158.573 74.611 158.774 74.845 158.774 75.208V75.229C158.774 75.583 158.576 75.82 158.261 75.82ZM160.815 75.82C160.569 75.82 160.353 75.631 160.353 75.235V75.211C160.353 74.83 160.548 74.611 160.836 74.611C161.118 74.611 161.313 74.8 161.313 75.202V75.226C161.313 75.628 161.082 75.82 160.815 75.82ZM160.788 76.027C160.998 76.027 161.214 75.889 161.304 75.736V76H161.553V74.431H161.304V74.677C161.214 74.524 161.055 74.404 160.812 74.404C160.416 74.404 160.095 74.743 160.095 75.223V75.247C160.095 75.736 160.413 76.027 160.788 76.027ZM162.709 76.027C163.087 76.027 163.36 75.775 163.393 75.436H163.162C163.135 75.691 162.934 75.82 162.712 75.82C162.409 75.82 162.199 75.616 162.199 75.232V75.208C162.199 74.839 162.418 74.611 162.703 74.611C162.919 74.611 163.099 74.704 163.138 74.953H163.384C163.336 74.554 163.03 74.404 162.703 74.404C162.283 74.404 161.941 74.728 161.941 75.208V75.232C161.941 75.718 162.271 76.027 162.709 76.027ZM163.769 76H164.018V75.049C164.018 74.767 164.225 74.62 164.456 74.62C164.708 74.62 164.825 74.743 164.825 75.019V76H165.074V75.037C165.074 74.581 164.846 74.404 164.522 74.404C164.264 74.404 164.09 74.533 164.018 74.68V73.681H163.769V76ZM165.688 74.104C165.778 74.104 165.853 74.029 165.853 73.939C165.853 73.849 165.778 73.774 165.688 73.774C165.598 73.774 165.523 73.849 165.523 73.939C165.523 74.029 165.598 74.104 165.688 74.104ZM165.568 76H165.817V74.431H165.568V76ZM166.968 76.027C167.322 76.027 167.583 75.862 167.637 75.547H167.388C167.355 75.73 167.214 75.82 166.971 75.82C166.65 75.82 166.479 75.622 166.467 75.265H167.649V75.184C167.649 74.623 167.307 74.404 166.944 74.404C166.512 74.404 166.209 74.734 166.209 75.208V75.232C166.209 75.715 166.524 76.027 166.968 76.027ZM166.476 75.064C166.518 74.785 166.689 74.611 166.944 74.611C167.202 74.611 167.37 74.74 167.394 75.064H166.476ZM168.41 76H168.728L169.292 74.431H169.034L168.575 75.748L168.11 74.431H167.84L168.41 76ZM170.217 76.027C170.571 76.027 170.832 75.862 170.886 75.547H170.637C170.604 75.73 170.463 75.82 170.22 75.82C169.899 75.82 169.728 75.622 169.716 75.265H170.898V75.184C170.898 74.623 170.556 74.404 170.193 74.404C169.761 74.404 169.458 74.734 169.458 75.208V75.232C169.458 75.715 169.773 76.027 170.217 76.027ZM169.725 75.064C169.767 74.785 169.938 74.611 170.193 74.611C170.451 74.611 170.619 74.74 170.643 75.064H169.725ZM172.83 75.82C172.524 75.82 172.314 75.631 172.314 75.229V75.205C172.314 74.803 172.536 74.611 172.827 74.611C173.091 74.611 173.31 74.809 173.31 75.205V75.229C173.31 75.61 173.142 75.82 172.83 75.82ZM172.074 76.546H172.323V75.742C172.413 75.898 172.596 76.027 172.854 76.027C173.286 76.027 173.568 75.697 173.568 75.217V75.193C173.568 74.704 173.265 74.404 172.854 74.404C172.626 74.404 172.413 74.542 172.323 74.695V74.431H172.074V76.546ZM174.597 76.027C174.951 76.027 175.212 75.862 175.266 75.547H175.017C174.984 75.73 174.843 75.82 174.6 75.82C174.279 75.82 174.108 75.622 174.096 75.265H175.278V75.184C175.278 74.623 174.936 74.404 174.573 74.404C174.141 74.404 173.838 74.734 173.838 75.208V75.232C173.838 75.715 174.153 76.027 174.597 76.027ZM174.105 75.064C174.147 74.785 174.318 74.611 174.573 74.611C174.831 74.611 174.999 74.74 175.023 75.064H174.105ZM175.66 76H175.909V75.139C175.909 74.752 176.11 74.653 176.425 74.638V74.404C176.143 74.413 176.008 74.536 175.909 74.713V74.431H175.66V76ZM176.871 76H177.12V74.641H177.504V74.431H177.12V74.149C177.12 73.99 177.186 73.879 177.348 73.879C177.417 73.879 177.48 73.894 177.525 73.912V73.702C177.462 73.681 177.42 73.672 177.339 73.672C177.027 73.672 176.871 73.858 176.871 74.176V74.431H176.646V74.641H176.871V76ZM178.42 76.027C178.774 76.027 179.035 75.862 179.089 75.547H178.84C178.807 75.73 178.666 75.82 178.423 75.82C178.102 75.82 177.931 75.622 177.919 75.265H179.101V75.184C179.101 74.623 178.759 74.404 178.396 74.404C177.964 74.404 177.661 74.734 177.661 75.208V75.232C177.661 75.715 177.976 76.027 178.42 76.027ZM177.928 75.064C177.97 74.785 178.141 74.611 178.396 74.611C178.654 74.611 178.822 74.74 178.846 75.064H177.928ZM180.134 76.027C180.512 76.027 180.785 75.775 180.818 75.436H180.587C180.56 75.691 180.359 75.82 180.137 75.82C179.834 75.82 179.624 75.616 179.624 75.232V75.208C179.624 74.839 179.843 74.611 180.128 74.611C180.344 74.611 180.524 74.704 180.563 74.953H180.809C180.761 74.554 180.455 74.404 180.128 74.404C179.708 74.404 179.366 74.728 179.366 75.208V75.232C179.366 75.718 179.696 76.027 180.134 76.027ZM181.671 76.021C181.773 76.021 181.833 76.006 181.884 75.988V75.778C181.83 75.799 181.77 75.811 181.692 75.811C181.566 75.811 181.497 75.736 181.497 75.583V74.641H181.863V74.431H181.497V74.074H181.248V74.431H181.023V74.641H181.248V75.607C181.248 75.853 181.386 76.021 181.671 76.021ZM183.679 75.742C183.415 75.742 183.196 75.538 183.196 75.196V75.172C183.196 74.842 183.382 74.611 183.694 74.611C184 74.611 184.192 74.815 184.192 75.166V75.187C184.192 75.538 183.97 75.742 183.679 75.742ZM183.682 76.573C184.12 76.573 184.429 76.351 184.432 75.895V74.431H184.183V74.683C184.093 74.53 183.931 74.404 183.67 74.404C183.238 74.404 182.938 74.758 182.938 75.184V75.205C182.938 75.637 183.241 75.949 183.652 75.949C183.88 75.949 184.093 75.805 184.183 75.652V75.88C184.183 76.216 183.988 76.363 183.679 76.363C183.412 76.363 183.262 76.27 183.226 76.09H182.971C183.013 76.354 183.217 76.573 183.682 76.573ZM184.936 76H185.185V75.139C185.185 74.752 185.386 74.653 185.701 74.638V74.404C185.419 74.413 185.284 74.536 185.185 74.713V74.431H184.936V76ZM186.671 76.027C187.118 76.027 187.445 75.7 187.445 75.226V75.202C187.445 74.731 187.118 74.404 186.674 74.404C186.23 74.404 185.903 74.734 185.903 75.205V75.229C185.903 75.688 186.224 76.027 186.671 76.027ZM186.674 75.82C186.356 75.82 186.161 75.586 186.161 75.229V75.205C186.161 74.845 186.359 74.611 186.674 74.611C186.986 74.611 187.187 74.845 187.187 75.208V75.229C187.187 75.583 186.989 75.82 186.674 75.82ZM188.361 76.027C188.613 76.027 188.787 75.898 188.859 75.751V76H189.108V74.431H188.859V75.382C188.859 75.664 188.649 75.811 188.427 75.811C188.181 75.811 188.064 75.688 188.064 75.412V74.431H187.815V75.424C187.815 75.856 188.049 76.027 188.361 76.027ZM190.367 75.82C190.061 75.82 189.851 75.631 189.851 75.229V75.205C189.851 74.803 190.073 74.611 190.364 74.611C190.628 74.611 190.847 74.809 190.847 75.205V75.229C190.847 75.61 190.679 75.82 190.367 75.82ZM189.611 76.546H189.86V75.742C189.95 75.898 190.133 76.027 190.391 76.027C190.823 76.027 191.105 75.697 191.105 75.217V75.193C191.105 74.704 190.802 74.404 190.391 74.404C190.163 74.404 189.95 74.542 189.86 74.695V74.431H189.611V76.546ZM191.618 74.104C191.708 74.104 191.783 74.029 191.783 73.939C191.783 73.849 191.708 73.774 191.618 73.774C191.528 73.774 191.453 73.849 191.453 73.939C191.453 74.029 191.528 74.104 191.618 74.104ZM191.498 76H191.747V74.431H191.498V76ZM192.257 76H192.506V75.049C192.506 74.767 192.713 74.62 192.944 74.62C193.196 74.62 193.313 74.743 193.313 75.019V76H193.562V75.037C193.562 74.581 193.334 74.404 193.01 74.404C192.752 74.404 192.578 74.533 192.506 74.68V74.431H192.257V76ZM194.674 75.742C194.41 75.742 194.191 75.538 194.191 75.196V75.172C194.191 74.842 194.377 74.611 194.689 74.611C194.995 74.611 195.187 74.815 195.187 75.166V75.187C195.187 75.538 194.965 75.742 194.674 75.742ZM194.677 76.573C195.115 76.573 195.424 76.351 195.427 75.895V74.431H195.178V74.683C195.088 74.53 194.926 74.404 194.665 74.404C194.233 74.404 193.933 74.758 193.933 75.184V75.205C193.933 75.637 194.236 75.949 194.647 75.949C194.875 75.949 195.088 75.805 195.178 75.652V75.88C195.178 76.216 194.983 76.363 194.674 76.363C194.407 76.363 194.257 76.27 194.221 76.09H193.966C194.008 76.354 194.212 76.573 194.677 76.573ZM197.505 76.027C197.937 76.027 198.219 75.697 198.219 75.217V75.193C198.219 74.704 197.916 74.404 197.505 74.404C197.277 74.404 197.064 74.542 196.974 74.695V73.681H196.725V76H196.974V75.742C197.064 75.898 197.25 76.027 197.505 76.027ZM197.481 75.82C197.175 75.82 196.965 75.631 196.965 75.229V75.205C196.965 74.803 197.187 74.611 197.478 74.611C197.742 74.611 197.961 74.809 197.961 75.205V75.229C197.961 75.61 197.793 75.82 197.481 75.82ZM199.209 75.82C198.963 75.82 198.747 75.631 198.747 75.235V75.211C198.747 74.83 198.942 74.611 199.23 74.611C199.512 74.611 199.707 74.8 199.707 75.202V75.226C199.707 75.628 199.476 75.82 199.209 75.82ZM199.182 76.027C199.392 76.027 199.608 75.889 199.698 75.736V76H199.947V74.431H199.698V74.677C199.608 74.524 199.449 74.404 199.206 74.404C198.81 74.404 198.489 74.743 198.489 75.223V75.247C198.489 75.736 198.807 76.027 199.182 76.027ZM200.937 76.027C201.318 76.027 201.513 75.835 201.513 75.55C201.513 75.217 201.285 75.145 200.961 75.085C200.673 75.034 200.595 74.977 200.595 74.836C200.595 74.701 200.712 74.611 200.892 74.611C201.09 74.611 201.186 74.686 201.222 74.857H201.462C201.42 74.518 201.177 74.404 200.895 74.404C200.649 74.404 200.364 74.554 200.364 74.845C200.364 75.118 200.502 75.232 200.91 75.307C201.153 75.352 201.276 75.406 201.276 75.571C201.276 75.739 201.171 75.82 200.934 75.82C200.682 75.82 200.583 75.703 200.565 75.517H200.322C200.337 75.838 200.562 76.027 200.937 76.027ZM202.535 76.027C202.889 76.027 203.15 75.862 203.204 75.547H202.955C202.922 75.73 202.781 75.82 202.538 75.82C202.217 75.82 202.046 75.622 202.034 75.265H203.216V75.184C203.216 74.623 202.874 74.404 202.511 74.404C202.079 74.404 201.776 74.734 201.776 75.208V75.232C201.776 75.715 202.091 76.027 202.535 76.027ZM202.043 75.064C202.085 74.785 202.256 74.611 202.511 74.611C202.769 74.611 202.937 74.74 202.961 75.064H202.043ZM204.216 75.82C203.952 75.82 203.739 75.631 203.739 75.235V75.211C203.739 74.83 203.925 74.611 204.237 74.611C204.543 74.611 204.735 74.8 204.735 75.202V75.226C204.735 75.628 204.507 75.82 204.216 75.82ZM204.189 76.027C204.417 76.027 204.636 75.883 204.726 75.73V76H204.975V73.681H204.726V74.683C204.636 74.53 204.474 74.404 204.213 74.404C203.781 74.404 203.481 74.743 203.481 75.223V75.247C203.481 75.736 203.778 76.027 204.189 76.027ZM74.903 81.027C75.35 81.027 75.677 80.7 75.677 80.226V80.202C75.677 79.731 75.35 79.404 74.906 79.404C74.462 79.404 74.135 79.734 74.135 80.205V80.229C74.135 80.688 74.456 81.027 74.903 81.027ZM74.906 80.82C74.588 80.82 74.393 80.586 74.393 80.229V80.205C74.393 79.845 74.591 79.611 74.906 79.611C75.218 79.611 75.419 79.845 75.419 80.208V80.229C75.419 80.583 75.221 80.82 74.906 80.82ZM76.0625 81H76.3115V80.049C76.3115 79.767 76.5185 79.62 76.7495 79.62C77.0015 79.62 77.1185 79.743 77.1185 80.019V81H77.3675V80.037C77.3675 79.581 77.1395 79.404 76.8155 79.404C76.5575 79.404 76.3835 79.533 76.3115 79.68V79.431H76.0625V81ZM79.3005 81.027C79.6785 81.027 79.9515 80.775 79.9845 80.436H79.7535C79.7265 80.691 79.5255 80.82 79.3035 80.82C79.0005 80.82 78.7905 80.616 78.7905 80.232V80.208C78.7905 79.839 79.0095 79.611 79.2945 79.611C79.5105 79.611 79.6905 79.704 79.7295 79.953H79.9755C79.9275 79.554 79.6215 79.404 79.2945 79.404C78.8745 79.404 78.5325 79.728 78.5325 80.208V80.232C78.5325 80.718 78.8625 81.027 79.3005 81.027ZM81.0114 81.027C81.4584 81.027 81.7854 80.7 81.7854 80.226V80.202C81.7854 79.731 81.4584 79.404 81.0144 79.404C80.5704 79.404 80.2434 79.734 80.2434 80.205V80.229C80.2434 80.688 80.5644 81.027 81.0114 81.027ZM81.0144 80.82C80.6964 80.82 80.5014 80.586 80.5014 80.229V80.205C80.5014 79.845 80.6994 79.611 81.0144 79.611C81.3264 79.611 81.5274 79.845 81.5274 80.208V80.229C81.5274 80.583 81.3294 80.82 81.0144 80.82ZM82.1709 81H82.4199V80.049C82.4199 79.767 82.6269 79.62 82.8579 79.62C83.1099 79.62 83.2269 79.743 83.2269 80.019V81H83.4759V80.037C83.4759 79.581 83.2479 79.404 82.9239 79.404C82.6659 79.404 82.4919 79.533 82.4199 79.68V79.431H82.1709V81ZM84.4409 81.021C84.5429 81.021 84.6029 81.006 84.6539 80.988V80.778C84.5999 80.799 84.5399 80.811 84.4619 80.811C84.3359 80.811 84.2669 80.736 84.2669 80.583V79.641H84.6329V79.431H84.2669V79.074H84.0179V79.431H83.7929V79.641H84.0179V80.607C84.0179 80.853 84.1559 81.021 84.4409 81.021ZM85.6723 81.027C86.0263 81.027 86.2873 80.862 86.3413 80.547H86.0923C86.0593 80.73 85.9183 80.82 85.6753 80.82C85.3543 80.82 85.1833 80.622 85.1713 80.265H86.3533V80.184C86.3533 79.623 86.0113 79.404 85.6483 79.404C85.2163 79.404 84.9133 79.734 84.9133 80.208V80.232C84.9133 80.715 85.2283 81.027 85.6723 81.027ZM85.1803 80.064C85.2223 79.785 85.3933 79.611 85.6483 79.611C85.9063 79.611 86.0743 79.74 86.0983 80.064H85.1803ZM86.5235 81H86.7905L87.2225 80.367L87.6455 81H87.9395L87.3665 80.175L87.8855 79.431H87.6155L87.2345 80.001L86.8505 79.431H86.5595L87.0845 80.193L86.5235 81ZM88.7534 81.021C88.8554 81.021 88.9154 81.006 88.9664 80.988V80.778C88.9124 80.799 88.8524 80.811 88.7744 80.811C88.6484 80.811 88.5794 80.736 88.5794 80.583V79.641H88.9454V79.431H88.5794V79.074H88.3304V79.431H88.1054V79.641H88.3304V80.607C88.3304 80.853 88.4684 81.021 88.7534 81.021ZM89.5138 81.015C89.6188 81.015 89.7058 80.931 89.7058 80.823C89.7058 80.715 89.6188 80.631 89.5138 80.631C89.4088 80.631 89.3218 80.715 89.3218 80.823C89.3218 80.931 89.4088 81.015 89.5138 81.015ZM91.5504 81H91.8624L92.6034 78.855H92.3574L91.7184 80.748L91.0794 78.855H90.8214L91.5504 81ZM93.043 79.104C93.133 79.104 93.208 79.029 93.208 78.939C93.208 78.849 93.133 78.774 93.043 78.774C92.953 78.774 92.878 78.849 92.878 78.939C92.878 79.029 92.953 79.104 93.043 79.104ZM92.923 81H93.172V79.431H92.923V81ZM94.1677 81.027C94.5487 81.027 94.7437 80.835 94.7437 80.55C94.7437 80.217 94.5157 80.145 94.1917 80.085C93.9037 80.034 93.8257 79.977 93.8257 79.836C93.8257 79.701 93.9427 79.611 94.1227 79.611C94.3207 79.611 94.4167 79.686 94.4527 79.857H94.6927C94.6507 79.518 94.4077 79.404 94.1257 79.404C93.8797 79.404 93.5947 79.554 93.5947 79.845C93.5947 80.118 93.7327 80.232 94.1407 80.307C94.3837 80.352 94.5067 80.406 94.5067 80.571C94.5067 80.739 94.4017 80.82 94.1647 80.82C93.9127 80.82 93.8137 80.703 93.7957 80.517H93.5527C93.5677 80.838 93.7927 81.027 94.1677 81.027ZM95.6541 81.027C95.9061 81.027 96.0801 80.898 96.1521 80.751V81H96.4011V79.431H96.1521V80.382C96.1521 80.664 95.9421 80.811 95.7201 80.811C95.4741 80.811 95.3571 80.688 95.3571 80.412V79.431H95.1081V80.424C95.1081 80.856 95.3421 81.027 95.6541 81.027ZM97.5073 80.82C97.2613 80.82 97.0453 80.631 97.0453 80.235V80.211C97.0453 79.83 97.2403 79.611 97.5283 79.611C97.8103 79.611 98.0053 79.8 98.0053 80.202V80.226C98.0053 80.628 97.7743 80.82 97.5073 80.82ZM97.4803 81.027C97.6903 81.027 97.9063 80.889 97.9963 80.736V81H98.2453V79.431H97.9963V79.677C97.9063 79.524 97.7473 79.404 97.5043 79.404C97.1083 79.404 96.7873 79.743 96.7873 80.223V80.247C96.7873 80.736 97.1053 81.027 97.4803 81.027ZM98.756 81H99.008V78.681H98.756V81ZM99.5356 81.369L99.9046 80.742L99.6616 80.628L99.3736 81.285L99.5356 81.369ZM101.8 81.027C102.154 81.027 102.415 80.862 102.469 80.547H102.22C102.187 80.73 102.046 80.82 101.803 80.82C101.482 80.82 101.311 80.622 101.299 80.265H102.481V80.184C102.481 79.623 102.139 79.404 101.776 79.404C101.344 79.404 101.041 79.734 101.041 80.208V80.232C101.041 80.715 101.356 81.027 101.8 81.027ZM101.308 80.064C101.35 79.785 101.521 79.611 101.776 79.611C102.034 79.611 102.202 79.74 102.226 80.064H101.308ZM103.466 80.82C103.22 80.82 103.004 80.631 103.004 80.235V80.211C103.004 79.83 103.199 79.611 103.487 79.611C103.769 79.611 103.964 79.8 103.964 80.202V80.226C103.964 80.628 103.733 80.82 103.466 80.82ZM103.439 81.027C103.649 81.027 103.865 80.889 103.955 80.736V81H104.204V79.431H103.955V79.677C103.865 79.524 103.706 79.404 103.463 79.404C103.067 79.404 102.746 79.743 102.746 80.223V80.247C102.746 80.736 103.064 81.027 103.439 81.027ZM105.195 81.027C105.576 81.027 105.771 80.835 105.771 80.55C105.771 80.217 105.543 80.145 105.219 80.085C104.931 80.034 104.853 79.977 104.853 79.836C104.853 79.701 104.97 79.611 105.15 79.611C105.348 79.611 105.444 79.686 105.48 79.857H105.72C105.678 79.518 105.435 79.404 105.153 79.404C104.907 79.404 104.622 79.554 104.622 79.845C104.622 80.118 104.76 80.232 105.168 80.307C105.411 80.352 105.534 80.406 105.534 80.571C105.534 80.739 105.429 80.82 105.192 80.82C104.94 80.82 104.841 80.703 104.823 80.517H104.58C104.595 80.838 104.82 81.027 105.195 81.027ZM106.262 81.546H106.514L107.381 79.431H107.126L106.691 80.556L106.211 79.431H105.944L106.559 80.838L106.262 81.546ZM107.578 80.292H108.22V80.058H107.578V80.292ZM109.129 81.021C109.231 81.021 109.291 81.006 109.342 80.988V80.778C109.288 80.799 109.228 80.811 109.15 80.811C109.024 80.811 108.955 80.736 108.955 80.583V79.641H109.321V79.431H108.955V79.074H108.706V79.431H108.481V79.641H108.706V80.607C108.706 80.853 108.844 81.021 109.129 81.021ZM110.37 81.027C110.817 81.027 111.144 80.7 111.144 80.226V80.202C111.144 79.731 110.817 79.404 110.373 79.404C109.929 79.404 109.602 79.734 109.602 80.205V80.229C109.602 80.688 109.923 81.027 110.37 81.027ZM110.373 80.82C110.055 80.82 109.86 80.586 109.86 80.229V80.205C109.86 79.845 110.058 79.611 110.373 79.611C110.685 79.611 110.886 79.845 110.886 80.208V80.229C110.886 80.583 110.688 80.82 110.373 80.82ZM111.457 80.292H112.099V80.058H111.457V80.292ZM112.531 81H112.78V80.049C112.78 79.767 112.987 79.62 113.218 79.62C113.47 79.62 113.587 79.743 113.587 80.019V81H113.836V80.037C113.836 79.581 113.608 79.404 113.284 79.404C113.026 79.404 112.852 79.533 112.78 79.68V79.431H112.531V81ZM114.927 80.82C114.681 80.82 114.465 80.631 114.465 80.235V80.211C114.465 79.83 114.66 79.611 114.948 79.611C115.23 79.611 115.425 79.8 115.425 80.202V80.226C115.425 80.628 115.194 80.82 114.927 80.82ZM114.9 81.027C115.11 81.027 115.326 80.889 115.416 80.736V81H115.665V79.431H115.416V79.677C115.326 79.524 115.167 79.404 114.924 79.404C114.528 79.404 114.207 79.743 114.207 80.223V80.247C114.207 80.736 114.525 81.027 114.9 81.027ZM116.563 81H116.881L117.445 79.431H117.187L116.728 80.748L116.263 79.431H115.993L116.563 81ZM117.899 79.104C117.989 79.104 118.064 79.029 118.064 78.939C118.064 78.849 117.989 78.774 117.899 78.774C117.809 78.774 117.734 78.849 117.734 78.939C117.734 79.029 117.809 79.104 117.899 79.104ZM117.779 81H118.028V79.431H117.779V81ZM119.161 80.742C118.897 80.742 118.678 80.538 118.678 80.196V80.172C118.678 79.842 118.864 79.611 119.176 79.611C119.482 79.611 119.674 79.815 119.674 80.166V80.187C119.674 80.538 119.452 80.742 119.161 80.742ZM119.164 81.573C119.602 81.573 119.911 81.351 119.914 80.895V79.431H119.665V79.683C119.575 79.53 119.413 79.404 119.152 79.404C118.72 79.404 118.42 79.758 118.42 80.184V80.205C118.42 80.637 118.723 80.949 119.134 80.949C119.362 80.949 119.575 80.805 119.665 80.652V80.88C119.665 81.216 119.47 81.363 119.161 81.363C118.894 81.363 118.744 81.27 118.708 81.09H118.453C118.495 81.354 118.699 81.573 119.164 81.573ZM121.021 80.82C120.775 80.82 120.559 80.631 120.559 80.235V80.211C120.559 79.83 120.754 79.611 121.042 79.611C121.324 79.611 121.519 79.8 121.519 80.202V80.226C121.519 80.628 121.288 80.82 121.021 80.82ZM120.994 81.027C121.204 81.027 121.42 80.889 121.51 80.736V81H121.759V79.431H121.51V79.677C121.42 79.524 121.261 79.404 121.018 79.404C120.622 79.404 120.301 79.743 120.301 80.223V80.247C120.301 80.736 120.619 81.027 120.994 81.027ZM122.741 81.021C122.843 81.021 122.903 81.006 122.954 80.988V80.778C122.9 80.799 122.84 80.811 122.762 80.811C122.636 80.811 122.567 80.736 122.567 80.583V79.641H122.933V79.431H122.567V79.074H122.318V79.431H122.093V79.641H122.318V80.607C122.318 80.853 122.456 81.021 122.741 81.021ZM123.972 81.027C124.326 81.027 124.587 80.862 124.641 80.547H124.392C124.359 80.73 124.218 80.82 123.975 80.82C123.654 80.82 123.483 80.622 123.471 80.265H124.653V80.184C124.653 79.623 124.311 79.404 123.948 79.404C123.516 79.404 123.213 79.734 123.213 80.208V80.232C123.213 80.715 123.528 81.027 123.972 81.027ZM123.48 80.064C123.522 79.785 123.693 79.611 123.948 79.611C124.206 79.611 124.374 79.74 124.398 80.064H123.48ZM126.315 81.027C126.696 81.027 126.891 80.835 126.891 80.55C126.891 80.217 126.663 80.145 126.339 80.085C126.051 80.034 125.973 79.977 125.973 79.836C125.973 79.701 126.09 79.611 126.27 79.611C126.468 79.611 126.564 79.686 126.6 79.857H126.84C126.798 79.518 126.555 79.404 126.273 79.404C126.027 79.404 125.742 79.554 125.742 79.845C125.742 80.118 125.88 80.232 126.288 80.307C126.531 80.352 126.654 80.406 126.654 80.571C126.654 80.739 126.549 80.82 126.312 80.82C126.06 80.82 125.961 80.703 125.943 80.517H125.7C125.715 80.838 125.94 81.027 126.315 81.027ZM127.748 81.021C127.85 81.021 127.91 81.006 127.961 80.988V80.778C127.907 80.799 127.847 80.811 127.769 80.811C127.643 80.811 127.574 80.736 127.574 80.583V79.641H127.94V79.431H127.574V79.074H127.325V79.431H127.1V79.641H127.325V80.607C127.325 80.853 127.463 81.021 127.748 81.021ZM128.337 81H128.586V80.139C128.586 79.752 128.787 79.653 129.102 79.638V79.404C128.82 79.413 128.685 79.536 128.586 79.713V79.431H128.337V81ZM129.996 81.027C130.248 81.027 130.422 80.898 130.494 80.751V81H130.743V79.431H130.494V80.382C130.494 80.664 130.284 80.811 130.062 80.811C129.816 80.811 129.699 80.688 129.699 80.412V79.431H129.45V80.424C129.45 80.856 129.684 81.027 129.996 81.027ZM131.897 81.027C132.275 81.027 132.548 80.775 132.581 80.436H132.35C132.323 80.691 132.122 80.82 131.9 80.82C131.597 80.82 131.387 80.616 131.387 80.232V80.208C131.387 79.839 131.606 79.611 131.891 79.611C132.107 79.611 132.287 79.704 132.326 79.953H132.572C132.524 79.554 132.218 79.404 131.891 79.404C131.471 79.404 131.129 79.728 131.129 80.208V80.232C131.129 80.718 131.459 81.027 131.897 81.027ZM133.434 81.021C133.536 81.021 133.596 81.006 133.647 80.988V80.778C133.593 80.799 133.533 80.811 133.455 80.811C133.329 80.811 133.26 80.736 133.26 80.583V79.641H133.626V79.431H133.26V79.074H133.011V79.431H132.786V79.641H133.011V80.607C133.011 80.853 133.149 81.021 133.434 81.021ZM134.554 81.027C134.806 81.027 134.98 80.898 135.052 80.751V81H135.301V79.431H135.052V80.382C135.052 80.664 134.842 80.811 134.62 80.811C134.374 80.811 134.257 80.688 134.257 80.412V79.431H134.008V80.424C134.008 80.856 134.242 81.027 134.554 81.027ZM135.805 81H136.054V80.139C136.054 79.752 136.255 79.653 136.57 79.638V79.404C136.288 79.413 136.153 79.536 136.054 79.713V79.431H135.805V81ZM137.531 81.027C137.885 81.027 138.146 80.862 138.2 80.547H137.951C137.918 80.73 137.777 80.82 137.534 80.82C137.213 80.82 137.042 80.622 137.03 80.265H138.212V80.184C138.212 79.623 137.87 79.404 137.507 79.404C137.075 79.404 136.772 79.734 136.772 80.208V80.232C136.772 80.715 137.087 81.027 137.531 81.027ZM137.039 80.064C137.081 79.785 137.252 79.611 137.507 79.611C137.765 79.611 137.933 79.74 137.957 80.064H137.039ZM139.832 79.338C139.832 79.128 139.958 79.038 140.108 79.038C140.252 79.038 140.351 79.14 140.351 79.278C140.351 79.485 140.258 79.593 140.018 79.701C139.901 79.554 139.832 79.446 139.832 79.338ZM139.976 80.817C139.706 80.817 139.541 80.667 139.541 80.409C139.541 80.157 139.688 80.034 139.898 79.932L140.432 80.583C140.303 80.739 140.147 80.817 139.976 80.817ZM141.068 79.893H140.837L140.576 80.388L140.126 79.839C140.399 79.722 140.585 79.545 140.585 79.284C140.585 79.026 140.381 78.843 140.117 78.843C139.847 78.843 139.592 79.011 139.592 79.335C139.592 79.479 139.655 79.626 139.781 79.788C139.505 79.923 139.289 80.094 139.289 80.433C139.289 80.787 139.574 81.021 139.967 81.021C140.237 81.021 140.426 80.898 140.561 80.742L140.774 81H141.077L140.717 80.562L141.068 79.893ZM142.238 81H142.487V80.049C142.487 79.767 142.694 79.62 142.925 79.62C143.177 79.62 143.294 79.743 143.294 80.019V81H143.543V80.037C143.543 79.581 143.315 79.404 142.991 79.404C142.733 79.404 142.559 79.533 142.487 79.68V78.681H142.238V81ZM144.562 81.027C144.814 81.027 144.988 80.898 145.06 80.751V81H145.309V79.431H145.06V80.382C145.06 80.664 144.85 80.811 144.628 80.811C144.382 80.811 144.265 80.688 144.265 80.412V79.431H144.016V80.424C144.016 80.856 144.25 81.027 144.562 81.027ZM145.813 81H146.062V80.04C146.062 79.758 146.272 79.62 146.476 79.62C146.692 79.62 146.809 79.734 146.809 80.01V81H147.058V80.04C147.058 79.758 147.268 79.62 147.472 79.62C147.688 79.62 147.805 79.734 147.805 80.01V81H148.054V80.028C148.054 79.572 147.808 79.404 147.526 79.404C147.331 79.404 147.097 79.494 146.989 79.698C146.908 79.488 146.731 79.404 146.53 79.404C146.305 79.404 146.134 79.524 146.062 79.671V79.431H145.813V81ZM149.146 80.82C148.9 80.82 148.684 80.631 148.684 80.235V80.211C148.684 79.83 148.879 79.611 149.167 79.611C149.449 79.611 149.644 79.8 149.644 80.202V80.226C149.644 80.628 149.413 80.82 149.146 80.82ZM149.119 81.027C149.329 81.027 149.545 80.889 149.635 80.736V81H149.884V79.431H149.635V79.677C149.545 79.524 149.386 79.404 149.143 79.404C148.747 79.404 148.426 79.743 148.426 80.223V80.247C148.426 80.736 148.744 81.027 149.119 81.027ZM150.389 81H150.638V80.049C150.638 79.767 150.845 79.62 151.076 79.62C151.328 79.62 151.445 79.743 151.445 80.019V81H151.694V80.037C151.694 79.581 151.466 79.404 151.142 79.404C150.884 79.404 150.71 79.533 150.638 79.68V79.431H150.389V81ZM153.627 81.027C154.074 81.027 154.401 80.7 154.401 80.226V80.202C154.401 79.731 154.074 79.404 153.63 79.404C153.186 79.404 152.859 79.734 152.859 80.205V80.229C152.859 80.688 153.18 81.027 153.627 81.027ZM153.63 80.82C153.312 80.82 153.117 80.586 153.117 80.229V80.205C153.117 79.845 153.315 79.611 153.63 79.611C153.942 79.611 154.143 79.845 154.143 80.208V80.229C154.143 80.583 153.945 80.82 153.63 80.82ZM154.786 81H155.035V80.139C155.035 79.752 155.236 79.653 155.551 79.638V79.404C155.269 79.413 155.134 79.536 155.035 79.713V79.431H154.786V81ZM156.04 79.104C156.13 79.104 156.205 79.029 156.205 78.939C156.205 78.849 156.13 78.774 156.04 78.774C155.95 78.774 155.875 78.849 155.875 78.939C155.875 79.029 155.95 79.104 156.04 79.104ZM155.92 81H156.169V79.431H155.92V81ZM157.321 81.027C157.675 81.027 157.936 80.862 157.99 80.547H157.741C157.708 80.73 157.567 80.82 157.324 80.82C157.003 80.82 156.832 80.622 156.82 80.265H158.002V80.184C158.002 79.623 157.66 79.404 157.297 79.404C156.865 79.404 156.562 79.734 156.562 80.208V80.232C156.562 80.715 156.877 81.027 157.321 81.027ZM156.829 80.064C156.871 79.785 157.042 79.611 157.297 79.611C157.555 79.611 157.723 79.74 157.747 80.064H156.829ZM158.384 81H158.633V80.049C158.633 79.767 158.84 79.62 159.071 79.62C159.323 79.62 159.44 79.743 159.44 80.019V81H159.689V80.037C159.689 79.581 159.461 79.404 159.137 79.404C158.879 79.404 158.705 79.533 158.633 79.68V79.431H158.384V81ZM160.654 81.021C160.756 81.021 160.816 81.006 160.867 80.988V80.778C160.813 80.799 160.753 80.811 160.675 80.811C160.549 80.811 160.48 80.736 160.48 80.583V79.641H160.846V79.431H160.48V79.074H160.231V79.431H160.006V79.641H160.231V80.607C160.231 80.853 160.369 81.021 160.654 81.021ZM161.885 81.027C162.239 81.027 162.5 80.862 162.554 80.547H162.305C162.272 80.73 162.131 80.82 161.888 80.82C161.567 80.82 161.396 80.622 161.384 80.265H162.566V80.184C162.566 79.623 162.224 79.404 161.861 79.404C161.429 79.404 161.126 79.734 161.126 80.208V80.232C161.126 80.715 161.441 81.027 161.885 81.027ZM161.393 80.064C161.435 79.785 161.606 79.611 161.861 79.611C162.119 79.611 162.287 79.74 162.311 80.064H161.393ZM163.566 80.82C163.302 80.82 163.089 80.631 163.089 80.235V80.211C163.089 79.83 163.275 79.611 163.587 79.611C163.893 79.611 164.085 79.8 164.085 80.202V80.226C164.085 80.628 163.857 80.82 163.566 80.82ZM163.539 81.027C163.767 81.027 163.986 80.883 164.076 80.73V81H164.325V78.681H164.076V79.683C163.986 79.53 163.824 79.404 163.563 79.404C163.131 79.404 162.831 79.743 162.831 80.223V80.247C162.831 80.736 163.128 81.027 163.539 81.027ZM166.241 80.82C165.977 80.82 165.764 80.631 165.764 80.235V80.211C165.764 79.83 165.95 79.611 166.262 79.611C166.568 79.611 166.76 79.8 166.76 80.202V80.226C166.76 80.628 166.532 80.82 166.241 80.82ZM166.214 81.027C166.442 81.027 166.661 80.883 166.751 80.73V81H167V78.681H166.751V79.683C166.661 79.53 166.499 79.404 166.238 79.404C165.806 79.404 165.506 79.743 165.506 80.223V80.247C165.506 80.736 165.803 81.027 166.214 81.027ZM168.146 81.027C168.5 81.027 168.761 80.862 168.815 80.547H168.566C168.533 80.73 168.392 80.82 168.149 80.82C167.828 80.82 167.657 80.622 167.645 80.265H168.827V80.184C168.827 79.623 168.485 79.404 168.122 79.404C167.69 79.404 167.387 79.734 167.387 80.208V80.232C167.387 80.715 167.702 81.027 168.146 81.027ZM167.654 80.064C167.696 79.785 167.867 79.611 168.122 79.611C168.38 79.611 168.548 79.74 168.572 80.064H167.654ZM169.71 81.027C170.091 81.027 170.286 80.835 170.286 80.55C170.286 80.217 170.058 80.145 169.734 80.085C169.446 80.034 169.368 79.977 169.368 79.836C169.368 79.701 169.485 79.611 169.665 79.611C169.863 79.611 169.959 79.686 169.995 79.857H170.235C170.193 79.518 169.95 79.404 169.668 79.404C169.422 79.404 169.137 79.554 169.137 79.845C169.137 80.118 169.275 80.232 169.683 80.307C169.926 80.352 170.049 80.406 170.049 80.571C170.049 80.739 169.944 80.82 169.707 80.82C169.455 80.82 169.356 80.703 169.338 80.517H169.095C169.11 80.838 169.335 81.027 169.71 81.027ZM170.791 79.104C170.881 79.104 170.956 79.029 170.956 78.939C170.956 78.849 170.881 78.774 170.791 78.774C170.701 78.774 170.626 78.849 170.626 78.939C170.626 79.029 170.701 79.104 170.791 79.104ZM170.671 81H170.92V79.431H170.671V81ZM172.054 80.742C171.79 80.742 171.571 80.538 171.571 80.196V80.172C171.571 79.842 171.757 79.611 172.069 79.611C172.375 79.611 172.567 79.815 172.567 80.166V80.187C172.567 80.538 172.345 80.742 172.054 80.742ZM172.057 81.573C172.495 81.573 172.804 81.351 172.807 80.895V79.431H172.558V79.683C172.468 79.53 172.306 79.404 172.045 79.404C171.613 79.404 171.313 79.758 171.313 80.184V80.205C171.313 80.637 171.616 80.949 172.027 80.949C172.255 80.949 172.468 80.805 172.558 80.652V80.88C172.558 81.216 172.363 81.363 172.054 81.363C171.787 81.363 171.637 81.27 171.601 81.09H171.346C171.388 81.354 171.592 81.573 172.057 81.573ZM173.311 81H173.56V80.049C173.56 79.767 173.767 79.62 173.998 79.62C174.25 79.62 174.367 79.743 174.367 80.019V81H174.616V80.037C174.616 79.581 174.388 79.404 174.064 79.404C173.806 79.404 173.632 79.533 173.56 79.68V79.431H173.311V81ZM176.549 81.027C176.927 81.027 177.2 80.775 177.233 80.436H177.002C176.975 80.691 176.774 80.82 176.552 80.82C176.249 80.82 176.039 80.616 176.039 80.232V80.208C176.039 79.839 176.258 79.611 176.543 79.611C176.759 79.611 176.939 79.704 176.978 79.953H177.224C177.176 79.554 176.87 79.404 176.543 79.404C176.123 79.404 175.781 79.728 175.781 80.208V80.232C175.781 80.718 176.111 81.027 176.549 81.027ZM177.608 81H177.857V80.139C177.857 79.752 178.058 79.653 178.373 79.638V79.404C178.091 79.413 177.956 79.536 177.857 79.713V79.431H177.608V81ZM179.334 81.027C179.688 81.027 179.949 80.862 180.003 80.547H179.754C179.721 80.73 179.58 80.82 179.337 80.82C179.016 80.82 178.845 80.622 178.833 80.265H180.015V80.184C180.015 79.623 179.673 79.404 179.31 79.404C178.878 79.404 178.575 79.734 178.575 80.208V80.232C178.575 80.715 178.89 81.027 179.334 81.027ZM178.842 80.064C178.884 79.785 179.055 79.611 179.31 79.611C179.568 79.611 179.736 79.74 179.76 80.064H178.842ZM181.001 80.82C180.755 80.82 180.539 80.631 180.539 80.235V80.211C180.539 79.83 180.734 79.611 181.022 79.611C181.304 79.611 181.499 79.8 181.499 80.202V80.226C181.499 80.628 181.268 80.82 181.001 80.82ZM180.974 81.027C181.184 81.027 181.4 80.889 181.49 80.736V81H181.739V79.431H181.49V79.677C181.4 79.524 181.241 79.404 180.998 79.404C180.602 79.404 180.281 79.743 180.281 80.223V80.247C180.281 80.736 180.599 81.027 180.974 81.027ZM182.72 81.021C182.822 81.021 182.882 81.006 182.933 80.988V80.778C182.879 80.799 182.819 80.811 182.741 80.811C182.615 80.811 182.546 80.736 182.546 80.583V79.641H182.912V79.431H182.546V79.074H182.297V79.431H182.072V79.641H182.297V80.607C182.297 80.853 182.435 81.021 182.72 81.021ZM183.952 81.027C184.306 81.027 184.567 80.862 184.621 80.547H184.372C184.339 80.73 184.198 80.82 183.955 80.82C183.634 80.82 183.463 80.622 183.451 80.265H184.633V80.184C184.633 79.623 184.291 79.404 183.928 79.404C183.496 79.404 183.193 79.734 183.193 80.208V80.232C183.193 80.715 183.508 81.027 183.952 81.027ZM183.46 80.064C183.502 79.785 183.673 79.611 183.928 79.611C184.186 79.611 184.354 79.74 184.378 80.064H183.46ZM185.515 81.027C185.896 81.027 186.091 80.835 186.091 80.55C186.091 80.217 185.863 80.145 185.539 80.085C185.251 80.034 185.173 79.977 185.173 79.836C185.173 79.701 185.29 79.611 185.47 79.611C185.668 79.611 185.764 79.686 185.8 79.857H186.04C185.998 79.518 185.755 79.404 185.473 79.404C185.227 79.404 184.942 79.554 184.942 79.845C184.942 80.118 185.08 80.232 185.488 80.307C185.731 80.352 185.854 80.406 185.854 80.571C185.854 80.739 185.749 80.82 185.512 80.82C185.26 80.82 185.161 80.703 185.143 80.517H184.9C184.915 80.838 185.14 81.027 185.515 81.027ZM187.907 81.027C188.261 81.027 188.522 80.862 188.576 80.547H188.327C188.294 80.73 188.153 80.82 187.91 80.82C187.589 80.82 187.418 80.622 187.406 80.265H188.588V80.184C188.588 79.623 188.246 79.404 187.883 79.404C187.451 79.404 187.148 79.734 187.148 80.208V80.232C187.148 80.715 187.463 81.027 187.907 81.027ZM187.415 80.064C187.457 79.785 187.628 79.611 187.883 79.611C188.141 79.611 188.309 79.74 188.333 80.064H187.415ZM188.97 81H189.219V80.049C189.219 79.767 189.426 79.62 189.657 79.62C189.909 79.62 190.026 79.743 190.026 80.019V81H190.275V80.037C190.275 79.581 190.047 79.404 189.723 79.404C189.465 79.404 189.291 79.533 189.219 79.68V79.431H188.97V81ZM190.889 79.104C190.979 79.104 191.054 79.029 191.054 78.939C191.054 78.849 190.979 78.774 190.889 78.774C190.799 78.774 190.724 78.849 190.724 78.939C190.724 79.029 190.799 79.104 190.889 79.104ZM190.538 81.573C190.886 81.561 191.018 81.399 191.018 81.099V79.431H190.769V81.12C190.769 81.258 190.715 81.348 190.538 81.363V81.573ZM192.178 81.027C192.625 81.027 192.952 80.7 192.952 80.226V80.202C192.952 79.731 192.625 79.404 192.181 79.404C191.737 79.404 191.41 79.734 191.41 80.205V80.229C191.41 80.688 191.731 81.027 192.178 81.027ZM192.181 80.82C191.863 80.82 191.668 80.586 191.668 80.229V80.205C191.668 79.845 191.866 79.611 192.181 79.611C192.493 79.611 192.694 79.845 192.694 80.208V80.229C192.694 80.583 192.496 80.82 192.181 80.82ZM193.435 81.546H193.687L194.554 79.431H194.299L193.864 80.556L193.384 79.431H193.117L193.732 80.838L193.435 81.546ZM195.456 80.82C195.21 80.82 194.994 80.631 194.994 80.235V80.211C194.994 79.83 195.189 79.611 195.477 79.611C195.759 79.611 195.954 79.8 195.954 80.202V80.226C195.954 80.628 195.723 80.82 195.456 80.82ZM195.429 81.027C195.639 81.027 195.855 80.889 195.945 80.736V81H196.194V79.431H195.945V79.677C195.855 79.524 195.696 79.404 195.453 79.404C195.057 79.404 194.736 79.743 194.736 80.223V80.247C194.736 80.736 195.054 81.027 195.429 81.027ZM197.478 81.027C197.91 81.027 198.192 80.697 198.192 80.217V80.193C198.192 79.704 197.889 79.404 197.478 79.404C197.25 79.404 197.037 79.542 196.947 79.695V78.681H196.698V81H196.947V80.742C197.037 80.898 197.223 81.027 197.478 81.027ZM197.454 80.82C197.148 80.82 196.938 80.631 196.938 80.229V80.205C196.938 79.803 197.16 79.611 197.451 79.611C197.715 79.611 197.934 79.809 197.934 80.205V80.229C197.934 80.61 197.766 80.82 197.454 80.82ZM198.585 81H198.837V78.681H198.585V81ZM199.989 81.027C200.343 81.027 200.604 80.862 200.658 80.547H200.409C200.376 80.73 200.235 80.82 199.992 80.82C199.671 80.82 199.5 80.622 199.488 80.265H200.67V80.184C200.67 79.623 200.328 79.404 199.965 79.404C199.533 79.404 199.23 79.734 199.23 80.208V80.232C199.23 80.715 199.545 81.027 199.989 81.027ZM199.497 80.064C199.539 79.785 199.71 79.611 199.965 79.611C200.223 79.611 200.391 79.74 200.415 80.064H199.497ZM74.378 84.104C74.468 84.104 74.543 84.029 74.543 83.939C74.543 83.849 74.468 83.774 74.378 83.774C74.288 83.774 74.213 83.849 74.213 83.939C74.213 84.029 74.288 84.104 74.378 84.104ZM74.027 86.573C74.375 86.561 74.507 86.399 74.507 86.099V84.431H74.258V86.12C74.258 86.258 74.204 86.348 74.027 86.363V86.573ZM75.6676 86.027C76.1146 86.027 76.4416 85.7 76.4416 85.226V85.202C76.4416 84.731 76.1146 84.404 75.6706 84.404C75.2266 84.404 74.8996 84.734 74.8996 85.205V85.229C74.8996 85.688 75.2206 86.027 75.6676 86.027ZM75.6706 85.82C75.3526 85.82 75.1576 85.586 75.1576 85.229V85.205C75.1576 84.845 75.3556 84.611 75.6706 84.611C75.9826 84.611 76.1836 84.845 76.1836 85.208V85.229C76.1836 85.583 75.9856 85.82 75.6706 85.82ZM77.3582 86.027C77.6102 86.027 77.7842 85.898 77.8562 85.751V86H78.1052V84.431H77.8562V85.382C77.8562 85.664 77.6462 85.811 77.4242 85.811C77.1782 85.811 77.0612 85.688 77.0612 85.412V84.431H76.8122V85.424C76.8122 85.856 77.0462 86.027 77.3582 86.027ZM78.6084 86H78.8574V85.139C78.8574 84.752 79.0584 84.653 79.3734 84.638V84.404C79.0914 84.413 78.9564 84.536 78.8574 84.713V84.431H78.6084V86ZM79.7364 86H79.9854V85.049C79.9854 84.767 80.1924 84.62 80.4234 84.62C80.6754 84.62 80.7924 84.743 80.7924 85.019V86H81.0414V85.037C81.0414 84.581 80.8134 84.404 80.4894 84.404C80.2314 84.404 80.0574 84.533 79.9854 84.68V84.431H79.7364V86ZM82.1713 86.027C82.5253 86.027 82.7863 85.862 82.8403 85.547H82.5913C82.5583 85.73 82.4173 85.82 82.1743 85.82C81.8533 85.82 81.6823 85.622 81.6703 85.265H82.8523V85.184C82.8523 84.623 82.5103 84.404 82.1473 84.404C81.7153 84.404 81.4123 84.734 81.4123 85.208V85.232C81.4123 85.715 81.7273 86.027 82.1713 86.027ZM81.6793 85.064C81.7213 84.785 81.8923 84.611 82.1473 84.611C82.4053 84.611 82.5733 84.74 82.5973 85.064H81.6793ZM83.3608 86.546H83.6128L84.4798 84.431H84.2248L83.7898 85.556L83.3098 84.431H83.0428L83.6578 85.838L83.3608 86.546ZM86.2046 85.82C85.9586 85.82 85.7426 85.631 85.7426 85.235V85.211C85.7426 84.83 85.9376 84.611 86.2256 84.611C86.5076 84.611 86.7026 84.8 86.7026 85.202V85.226C86.7026 85.628 86.4716 85.82 86.2046 85.82ZM86.1776 86.027C86.3876 86.027 86.6036 85.889 86.6936 85.736V86H86.9426V84.431H86.6936V84.677C86.6036 84.524 86.4446 84.404 86.2016 84.404C85.8056 84.404 85.4846 84.743 85.4846 85.223V85.247C85.4846 85.736 85.8026 86.027 86.1776 86.027ZM88.0983 86.027C88.4763 86.027 88.7493 85.775 88.7823 85.436H88.5513C88.5243 85.691 88.3233 85.82 88.1013 85.82C87.7983 85.82 87.5883 85.616 87.5883 85.232V85.208C87.5883 84.839 87.8073 84.611 88.0923 84.611C88.3083 84.611 88.4883 84.704 88.5273 84.953H88.7733C88.7253 84.554 88.4193 84.404 88.0923 84.404C87.6723 84.404 87.3303 84.728 87.3303 85.208V85.232C87.3303 85.718 87.6603 86.027 88.0983 86.027ZM89.1583 86H89.4073V85.139C89.4073 84.752 89.6083 84.653 89.9233 84.638V84.404C89.6413 84.413 89.5063 84.536 89.4073 84.713V84.431H89.1583V86ZM90.8932 86.027C91.3402 86.027 91.6672 85.7 91.6672 85.226V85.202C91.6672 84.731 91.3402 84.404 90.8962 84.404C90.4522 84.404 90.1252 84.734 90.1252 85.205V85.229C90.1252 85.688 90.4462 86.027 90.8932 86.027ZM90.8962 85.82C90.5782 85.82 90.3832 85.586 90.3832 85.229V85.205C90.3832 84.845 90.5812 84.611 90.8962 84.611C91.2082 84.611 91.4092 84.845 91.4092 85.208V85.229C91.4092 85.583 91.2112 85.82 90.8962 85.82ZM92.5388 86.027C92.9198 86.027 93.1148 85.835 93.1148 85.55C93.1148 85.217 92.8868 85.145 92.5628 85.085C92.2748 85.034 92.1968 84.977 92.1968 84.836C92.1968 84.701 92.3138 84.611 92.4938 84.611C92.6918 84.611 92.7878 84.686 92.8238 84.857H93.0638C93.0218 84.518 92.7788 84.404 92.4968 84.404C92.2508 84.404 91.9658 84.554 91.9658 84.845C91.9658 85.118 92.1038 85.232 92.5118 85.307C92.7548 85.352 92.8778 85.406 92.8778 85.571C92.8778 85.739 92.7728 85.82 92.5358 85.82C92.2838 85.82 92.1848 85.703 92.1668 85.517H91.9238C91.9388 85.838 92.1638 86.027 92.5388 86.027ZM93.9802 86.027C94.3612 86.027 94.5562 85.835 94.5562 85.55C94.5562 85.217 94.3282 85.145 94.0042 85.085C93.7162 85.034 93.6382 84.977 93.6382 84.836C93.6382 84.701 93.7552 84.611 93.9352 84.611C94.1332 84.611 94.2292 84.686 94.2652 84.857H94.5052C94.4632 84.518 94.2202 84.404 93.9382 84.404C93.6922 84.404 93.4072 84.554 93.4072 84.845C93.4072 85.118 93.5452 85.232 93.9532 85.307C94.1962 85.352 94.3192 85.406 94.3192 85.571C94.3192 85.739 94.2142 85.82 93.9772 85.82C93.7252 85.82 93.6262 85.703 93.6082 85.517H93.3652C93.3802 85.838 93.6052 86.027 93.9802 86.027ZM96.2065 86.021C96.3085 86.021 96.3685 86.006 96.4195 85.988V85.778C96.3655 85.799 96.3055 85.811 96.2275 85.811C96.1015 85.811 96.0325 85.736 96.0325 85.583V84.641H96.3985V84.431H96.0325V84.074H95.7835V84.431H95.5585V84.641H95.7835V85.607C95.7835 85.853 95.9215 86.021 96.2065 86.021ZM96.7959 86H97.0449V85.049C97.0449 84.767 97.2519 84.62 97.4829 84.62C97.7349 84.62 97.8519 84.743 97.8519 85.019V86H98.1009V85.037C98.1009 84.581 97.8729 84.404 97.5489 84.404C97.2909 84.404 97.1169 84.533 97.0449 84.68V83.681H96.7959V86ZM99.2309 86.027C99.5849 86.027 99.8459 85.862 99.8999 85.547H99.6509C99.6179 85.73 99.4769 85.82 99.2339 85.82C98.9129 85.82 98.7419 85.622 98.7299 85.265H99.9119V85.184C99.9119 84.623 99.5699 84.404 99.2069 84.404C98.7749 84.404 98.4719 84.734 98.4719 85.208V85.232C98.4719 85.715 98.7869 86.027 99.2309 86.027ZM98.7389 85.064C98.7809 84.785 98.9519 84.611 99.2069 84.611C99.4649 84.611 99.6329 84.74 99.6569 85.064H98.7389ZM101.403 86H101.676L102.042 84.824L102.369 86H102.645L103.134 84.431H102.879L102.51 85.694L102.153 84.431H101.937L101.556 85.694L101.19 84.431H100.92L101.403 86ZM104.082 86.027C104.436 86.027 104.697 85.862 104.751 85.547H104.502C104.469 85.73 104.328 85.82 104.085 85.82C103.764 85.82 103.593 85.622 103.581 85.265H104.763V85.184C104.763 84.623 104.421 84.404 104.058 84.404C103.626 84.404 103.323 84.734 103.323 85.208V85.232C103.323 85.715 103.638 86.027 104.082 86.027ZM103.59 85.064C103.632 84.785 103.803 84.611 104.058 84.611C104.316 84.611 104.484 84.74 104.508 85.064H103.59ZM105.926 86.027C106.358 86.027 106.64 85.697 106.64 85.217V85.193C106.64 84.704 106.337 84.404 105.926 84.404C105.698 84.404 105.485 84.542 105.395 84.695V83.681H105.146V86H105.395V85.742C105.485 85.898 105.671 86.027 105.926 86.027ZM105.902 85.82C105.596 85.82 105.386 85.631 105.386 85.229V85.205C105.386 84.803 105.608 84.611 105.899 84.611C106.163 84.611 106.382 84.809 106.382 85.205V85.229C106.382 85.61 106.214 85.82 105.902 85.82ZM107.512 86.027C107.893 86.027 108.088 85.835 108.088 85.55C108.088 85.217 107.86 85.145 107.536 85.085C107.248 85.034 107.17 84.977 107.17 84.836C107.17 84.701 107.287 84.611 107.467 84.611C107.665 84.611 107.761 84.686 107.797 84.857H108.037C107.995 84.518 107.752 84.404 107.47 84.404C107.224 84.404 106.939 84.554 106.939 84.845C106.939 85.118 107.077 85.232 107.485 85.307C107.728 85.352 107.851 85.406 107.851 85.571C107.851 85.739 107.746 85.82 107.509 85.82C107.257 85.82 107.158 85.703 107.14 85.517H106.897C106.912 85.838 107.137 86.027 107.512 86.027ZM108.594 84.104C108.684 84.104 108.759 84.029 108.759 83.939C108.759 83.849 108.684 83.774 108.594 83.774C108.504 83.774 108.429 83.849 108.429 83.939C108.429 84.029 108.504 84.104 108.594 84.104ZM108.474 86H108.723V84.431H108.474V86ZM109.709 86.021C109.811 86.021 109.871 86.006 109.922 85.988V85.778C109.868 85.799 109.808 85.811 109.73 85.811C109.604 85.811 109.535 85.736 109.535 85.583V84.641H109.901V84.431H109.535V84.074H109.286V84.431H109.061V84.641H109.286V85.607C109.286 85.853 109.424 86.021 109.709 86.021ZM110.941 86.027C111.295 86.027 111.556 85.862 111.61 85.547H111.361C111.328 85.73 111.187 85.82 110.944 85.82C110.623 85.82 110.452 85.622 110.44 85.265H111.622V85.184C111.622 84.623 111.28 84.404 110.917 84.404C110.485 84.404 110.182 84.734 110.182 85.208V85.232C110.182 85.715 110.497 86.027 110.941 86.027ZM110.449 85.064C110.491 84.785 110.662 84.611 110.917 84.611C111.175 84.611 111.343 84.74 111.367 85.064H110.449ZM113.401 85.82C113.155 85.82 112.939 85.631 112.939 85.235V85.211C112.939 84.83 113.134 84.611 113.422 84.611C113.704 84.611 113.899 84.8 113.899 85.202V85.226C113.899 85.628 113.668 85.82 113.401 85.82ZM113.374 86.027C113.584 86.027 113.8 85.889 113.89 85.736V86H114.139V84.431H113.89V84.677C113.8 84.524 113.641 84.404 113.398 84.404C113.002 84.404 112.681 84.743 112.681 85.223V85.247C112.681 85.736 112.999 86.027 113.374 86.027ZM114.644 86H114.893V85.049C114.893 84.767 115.1 84.62 115.331 84.62C115.583 84.62 115.7 84.743 115.7 85.019V86H115.949V85.037C115.949 84.581 115.721 84.404 115.397 84.404C115.139 84.404 114.965 84.533 114.893 84.68V84.431H114.644V86ZM117.055 85.82C116.791 85.82 116.578 85.631 116.578 85.235V85.211C116.578 84.83 116.764 84.611 117.076 84.611C117.382 84.611 117.574 84.8 117.574 85.202V85.226C117.574 85.628 117.346 85.82 117.055 85.82ZM117.028 86.027C117.256 86.027 117.475 85.883 117.565 85.73V86H117.814V83.681H117.565V84.683C117.475 84.53 117.313 84.404 117.052 84.404C116.62 84.404 116.32 84.743 116.32 85.223V85.247C116.32 85.736 116.617 86.027 117.028 86.027ZM119.729 85.82C119.465 85.82 119.252 85.631 119.252 85.235V85.211C119.252 84.83 119.438 84.611 119.75 84.611C120.056 84.611 120.248 84.8 120.248 85.202V85.226C120.248 85.628 120.02 85.82 119.729 85.82ZM119.702 86.027C119.93 86.027 120.149 85.883 120.239 85.73V86H120.488V83.681H120.239V84.683C120.149 84.53 119.987 84.404 119.726 84.404C119.294 84.404 118.994 84.743 118.994 85.223V85.247C118.994 85.736 119.291 86.027 119.702 86.027ZM121.634 86.027C121.988 86.027 122.249 85.862 122.303 85.547H122.054C122.021 85.73 121.88 85.82 121.637 85.82C121.316 85.82 121.145 85.622 121.133 85.265H122.315V85.184C122.315 84.623 121.973 84.404 121.61 84.404C121.178 84.404 120.875 84.734 120.875 85.208V85.232C120.875 85.715 121.19 86.027 121.634 86.027ZM121.142 85.064C121.184 84.785 121.355 84.611 121.61 84.611C121.868 84.611 122.036 84.74 122.06 85.064H121.142ZM122.703 86H122.955V83.681H122.703V86ZM123.591 84.104C123.681 84.104 123.756 84.029 123.756 83.939C123.756 83.849 123.681 83.774 123.591 83.774C123.501 83.774 123.426 83.849 123.426 83.939C123.426 84.029 123.501 84.104 123.591 84.104ZM123.471 86H123.72V84.431H123.471V86ZM124.623 86H124.941L125.505 84.431H125.247L124.788 85.748L124.323 84.431H124.053L124.623 86ZM126.43 86.027C126.784 86.027 127.045 85.862 127.099 85.547H126.85C126.817 85.73 126.676 85.82 126.433 85.82C126.112 85.82 125.941 85.622 125.929 85.265H127.111V85.184C127.111 84.623 126.769 84.404 126.406 84.404C125.974 84.404 125.671 84.734 125.671 85.208V85.232C125.671 85.715 125.986 86.027 126.43 86.027ZM125.938 85.064C125.98 84.785 126.151 84.611 126.406 84.611C126.664 84.611 126.832 84.74 126.856 85.064H125.938ZM127.493 86H127.742V85.139C127.742 84.752 127.943 84.653 128.258 84.638V84.404C127.976 84.413 127.841 84.536 127.742 84.713V84.431H127.493V86ZM129.219 86.027C129.573 86.027 129.834 85.862 129.888 85.547H129.639C129.606 85.73 129.465 85.82 129.222 85.82C128.901 85.82 128.73 85.622 128.718 85.265H129.9V85.184C129.9 84.623 129.558 84.404 129.195 84.404C128.763 84.404 128.46 84.734 128.46 85.208V85.232C128.46 85.715 128.775 86.027 129.219 86.027ZM128.727 85.064C128.769 84.785 128.94 84.611 129.195 84.611C129.453 84.611 129.621 84.74 129.645 85.064H128.727ZM130.783 86.027C131.164 86.027 131.359 85.835 131.359 85.55C131.359 85.217 131.131 85.145 130.807 85.085C130.519 85.034 130.441 84.977 130.441 84.836C130.441 84.701 130.558 84.611 130.738 84.611C130.936 84.611 131.032 84.686 131.068 84.857H131.308C131.266 84.518 131.023 84.404 130.741 84.404C130.495 84.404 130.21 84.554 130.21 84.845C130.21 85.118 130.348 85.232 130.756 85.307C130.999 85.352 131.122 85.406 131.122 85.571C131.122 85.739 131.017 85.82 130.78 85.82C130.528 85.82 130.429 85.703 130.411 85.517H130.168C130.183 85.838 130.408 86.027 130.783 86.027ZM133.135 85.82C132.889 85.82 132.673 85.631 132.673 85.235V85.211C132.673 84.83 132.868 84.611 133.156 84.611C133.438 84.611 133.633 84.8 133.633 85.202V85.226C133.633 85.628 133.402 85.82 133.135 85.82ZM133.108 86.027C133.318 86.027 133.534 85.889 133.624 85.736V86H133.873V84.431H133.624V84.677C133.534 84.524 133.375 84.404 133.132 84.404C132.736 84.404 132.415 84.743 132.415 85.223V85.247C132.415 85.736 132.733 86.027 133.108 86.027ZM134.996 85.82C134.732 85.82 134.519 85.631 134.519 85.235V85.211C134.519 84.83 134.705 84.611 135.017 84.611C135.323 84.611 135.515 84.8 135.515 85.202V85.226C135.515 85.628 135.287 85.82 134.996 85.82ZM134.969 86.027C135.197 86.027 135.416 85.883 135.506 85.73V86H135.755V83.681H135.506V84.683C135.416 84.53 135.254 84.404 134.993 84.404C134.561 84.404 134.261 84.743 134.261 85.223V85.247C134.261 85.736 134.558 86.027 134.969 86.027ZM136.652 86H136.97L137.534 84.431H137.276L136.817 85.748L136.352 84.431H136.082L136.652 86ZM138.435 85.82C138.189 85.82 137.973 85.631 137.973 85.235V85.211C137.973 84.83 138.168 84.611 138.456 84.611C138.738 84.611 138.933 84.8 138.933 85.202V85.226C138.933 85.628 138.702 85.82 138.435 85.82ZM138.408 86.027C138.618 86.027 138.834 85.889 138.924 85.736V86H139.173V84.431H138.924V84.677C138.834 84.524 138.675 84.404 138.432 84.404C138.036 84.404 137.715 84.743 137.715 85.223V85.247C137.715 85.736 138.033 86.027 138.408 86.027ZM139.678 86H139.927V85.049C139.927 84.767 140.134 84.62 140.365 84.62C140.617 84.62 140.734 84.743 140.734 85.019V86H140.983V85.037C140.983 84.581 140.755 84.404 140.431 84.404C140.173 84.404 139.999 84.533 139.927 84.68V84.431H139.678V86ZM142.122 86.027C142.5 86.027 142.773 85.775 142.806 85.436H142.575C142.548 85.691 142.347 85.82 142.125 85.82C141.822 85.82 141.612 85.616 141.612 85.232V85.208C141.612 84.839 141.831 84.611 142.116 84.611C142.332 84.611 142.512 84.704 142.551 84.953H142.797C142.749 84.554 142.443 84.404 142.116 84.404C141.696 84.404 141.354 84.728 141.354 85.208V85.232C141.354 85.718 141.684 86.027 142.122 86.027ZM143.824 86.027C144.178 86.027 144.439 85.862 144.493 85.547H144.244C144.211 85.73 144.07 85.82 143.827 85.82C143.506 85.82 143.335 85.622 143.323 85.265H144.505V85.184C144.505 84.623 144.163 84.404 143.8 84.404C143.368 84.404 143.065 84.734 143.065 85.208V85.232C143.065 85.715 143.38 86.027 143.824 86.027ZM143.332 85.064C143.374 84.785 143.545 84.611 143.8 84.611C144.058 84.611 144.226 84.74 144.25 85.064H143.332ZM145.505 85.82C145.241 85.82 145.028 85.631 145.028 85.235V85.211C145.028 84.83 145.214 84.611 145.526 84.611C145.832 84.611 146.024 84.8 146.024 85.202V85.226C146.024 85.628 145.796 85.82 145.505 85.82ZM145.478 86.027C145.706 86.027 145.925 85.883 146.015 85.73V86H146.264V83.681H146.015V84.683C145.925 84.53 145.763 84.404 145.502 84.404C145.07 84.404 144.77 84.743 144.77 85.223V85.247C144.77 85.736 145.067 86.027 145.478 86.027ZM148.093 86.027C148.345 86.027 148.519 85.898 148.591 85.751V86H148.84V84.431H148.591V85.382C148.591 85.664 148.381 85.811 148.159 85.811C147.913 85.811 147.796 85.688 147.796 85.412V84.431H147.547V85.424C147.547 85.856 147.781 86.027 148.093 86.027ZM149.829 86.027C150.21 86.027 150.405 85.835 150.405 85.55C150.405 85.217 150.177 85.145 149.853 85.085C149.565 85.034 149.487 84.977 149.487 84.836C149.487 84.701 149.604 84.611 149.784 84.611C149.982 84.611 150.078 84.686 150.114 84.857H150.354C150.312 84.518 150.069 84.404 149.787 84.404C149.541 84.404 149.256 84.554 149.256 84.845C149.256 85.118 149.394 85.232 149.802 85.307C150.045 85.352 150.168 85.406 150.168 85.571C150.168 85.739 150.063 85.82 149.826 85.82C149.574 85.82 149.475 85.703 149.457 85.517H149.214C149.229 85.838 149.454 86.027 149.829 86.027ZM151.426 86.027C151.78 86.027 152.041 85.862 152.095 85.547H151.846C151.813 85.73 151.672 85.82 151.429 85.82C151.108 85.82 150.937 85.622 150.925 85.265H152.107V85.184C152.107 84.623 151.765 84.404 151.402 84.404C150.97 84.404 150.667 84.734 150.667 85.208V85.232C150.667 85.715 150.982 86.027 151.426 86.027ZM150.934 85.064C150.976 84.785 151.147 84.611 151.402 84.611C151.66 84.611 151.828 84.74 151.852 85.064H150.934ZM152.489 86H152.738V85.139C152.738 84.752 152.939 84.653 153.254 84.638V84.404C152.972 84.413 152.837 84.536 152.738 84.713V84.431H152.489V86ZM155.053 86.027C155.407 86.027 155.668 85.862 155.722 85.547H155.473C155.44 85.73 155.299 85.82 155.056 85.82C154.735 85.82 154.564 85.622 154.552 85.265H155.734V85.184C155.734 84.623 155.392 84.404 155.029 84.404C154.597 84.404 154.294 84.734 154.294 85.208V85.232C154.294 85.715 154.609 86.027 155.053 86.027ZM154.561 85.064C154.603 84.785 154.774 84.611 155.029 84.611C155.287 84.611 155.455 84.74 155.479 85.064H154.561ZM155.904 86H156.171L156.603 85.367L157.026 86H157.32L156.747 85.175L157.266 84.431H156.996L156.615 85.001L156.231 84.431H155.94L156.465 85.193L155.904 86ZM158.413 85.82C158.107 85.82 157.897 85.631 157.897 85.229V85.205C157.897 84.803 158.119 84.611 158.41 84.611C158.674 84.611 158.893 84.809 158.893 85.205V85.229C158.893 85.61 158.725 85.82 158.413 85.82ZM157.657 86.546H157.906V85.742C157.996 85.898 158.179 86.027 158.437 86.027C158.869 86.027 159.151 85.697 159.151 85.217V85.193C159.151 84.704 158.848 84.404 158.437 84.404C158.209 84.404 157.996 84.542 157.906 84.695V84.431H157.657V86.546ZM160.18 86.027C160.534 86.027 160.795 85.862 160.849 85.547H160.6C160.567 85.73 160.426 85.82 160.183 85.82C159.862 85.82 159.691 85.622 159.679 85.265H160.861V85.184C160.861 84.623 160.519 84.404 160.156 84.404C159.724 84.404 159.421 84.734 159.421 85.208V85.232C159.421 85.715 159.736 86.027 160.18 86.027ZM159.688 85.064C159.73 84.785 159.901 84.611 160.156 84.611C160.414 84.611 160.582 84.74 160.606 85.064H159.688ZM161.243 86H161.492V85.139C161.492 84.752 161.693 84.653 162.008 84.638V84.404C161.726 84.413 161.591 84.536 161.492 84.713V84.431H161.243V86ZM162.497 84.104C162.587 84.104 162.662 84.029 162.662 83.939C162.662 83.849 162.587 83.774 162.497 83.774C162.407 83.774 162.332 83.849 162.332 83.939C162.332 84.029 162.407 84.104 162.497 84.104ZM162.377 86H162.626V84.431H162.377V86ZM163.778 86.027C164.132 86.027 164.393 85.862 164.447 85.547H164.198C164.165 85.73 164.024 85.82 163.781 85.82C163.46 85.82 163.289 85.622 163.277 85.265H164.459V85.184C164.459 84.623 164.117 84.404 163.754 84.404C163.322 84.404 163.019 84.734 163.019 85.208V85.232C163.019 85.715 163.334 86.027 163.778 86.027ZM163.286 85.064C163.328 84.785 163.499 84.611 163.754 84.611C164.012 84.611 164.18 84.74 164.204 85.064H163.286ZM164.841 86H165.09V85.049C165.09 84.767 165.297 84.62 165.528 84.62C165.78 84.62 165.897 84.743 165.897 85.019V86H166.146V85.037C166.146 84.581 165.918 84.404 165.594 84.404C165.336 84.404 165.162 84.533 165.09 84.68V84.431H164.841V86ZM167.285 86.027C167.663 86.027 167.936 85.775 167.969 85.436H167.738C167.711 85.691 167.51 85.82 167.288 85.82C166.985 85.82 166.775 85.616 166.775 85.232V85.208C166.775 84.839 166.994 84.611 167.279 84.611C167.495 84.611 167.675 84.704 167.714 84.953H167.96C167.912 84.554 167.606 84.404 167.279 84.404C166.859 84.404 166.517 84.728 166.517 85.208V85.232C166.517 85.718 166.847 86.027 167.285 86.027ZM168.987 86.027C169.341 86.027 169.602 85.862 169.656 85.547H169.407C169.374 85.73 169.233 85.82 168.99 85.82C168.669 85.82 168.498 85.622 168.486 85.265H169.668V85.184C169.668 84.623 169.326 84.404 168.963 84.404C168.531 84.404 168.228 84.734 168.228 85.208V85.232C168.228 85.715 168.543 86.027 168.987 86.027ZM168.495 85.064C168.537 84.785 168.708 84.611 168.963 84.611C169.221 84.611 169.389 84.74 169.413 85.064H168.495ZM170.206 86.015C170.311 86.015 170.398 85.931 170.398 85.823C170.398 85.715 170.311 85.631 170.206 85.631C170.101 85.631 170.014 85.715 170.014 85.823C170.014 85.931 170.101 86.015 170.206 86.015Z" fill="white"/>
</svg>
