<svg width="253" height="144" viewBox="0 0 253 144" fill="none" xmlns="http://www.w3.org/2000/svg">
<rect width="253" height="144" rx="8" fill="#121212"/>
<rect width="253" height="144" rx="8" fill="white" fill-opacity="0.14"/>
<rect x="30" y="30" width="192" height="84" fill="white" fill-opacity="0.08"/>
<path opacity="0.6" d="M63.0622 70.11C65.2922 70.11 66.7522 68.56 66.7522 66.43V66.35C66.7522 64.2 65.2222 62.75 63.0722 62.75C60.9522 62.75 59.3922 64.26 59.3922 66.39V66.47C59.3922 68.56 60.8222 70.11 63.0622 70.11ZM63.0922 68.82C61.9222 68.82 61.0822 67.92 61.0822 66.46V66.38C61.0822 64.94 61.8322 64.03 63.0722 64.03C64.3222 64.03 65.0622 64.98 65.0622 66.37V66.45C65.0622 67.89 64.3022 68.82 63.0922 68.82ZM70.8163 70.11C72.7463 70.11 73.8363 69.1 73.8363 67.15V62.85H72.2062V67.05C72.2062 68.36 71.7863 68.82 70.8263 68.82C69.8463 68.82 69.4963 68.3 69.4963 67.11V62.85H67.8663V67.21C67.8663 69.11 68.9363 70.11 70.8163 70.11ZM76.9288 66.14V64.09H77.8388C78.6188 64.09 79.0588 64.34 79.0588 65.07V65.11C79.0588 65.8 78.6488 66.14 77.8388 66.14H76.9288ZM75.3188 70H76.9288V67.24H77.6288L79.3388 70H81.0588L79.1688 66.96C80.0088 66.71 80.6388 66.14 80.6388 65.06V65.02C80.6388 63.54 79.5688 62.85 77.8788 62.85H75.3188V70ZM85.2399 70.11C87.4699 70.11 88.9299 68.56 88.9299 66.43V66.35C88.9299 64.2 87.3999 62.75 85.2499 62.75C83.1299 62.75 81.5699 64.26 81.5699 66.39V66.47C81.5699 68.56 82.9999 70.11 85.2399 70.11ZM85.2699 68.82C84.0999 68.82 83.2599 67.92 83.2599 66.46V66.38C83.2599 64.94 84.0099 64.03 85.2499 64.03C86.4999 64.03 87.2399 64.98 87.2399 66.37V66.45C87.2399 67.89 86.4799 68.82 85.2699 68.82ZM90.104 70H91.714V67.4H92.624C94.254 67.4 95.304 66.68 95.304 65.17V65.13C95.304 63.62 94.314 62.85 92.574 62.85H90.104V70ZM91.714 66.27V64.08H92.534C93.304 64.08 93.744 64.38 93.744 65.14V65.18C93.744 65.89 93.324 66.27 92.534 66.27H91.714ZM96.3638 70H101.184V68.74H97.9738V66.96H100.414V65.78H97.9738V64.11H101.024V62.85H96.3638V70ZM102.311 70H103.751V64.91L106.731 70H108.351V62.85H106.911V67.56L104.191 62.85H102.311V70ZM113.826 70H115.456V66.92L117.686 62.85H116.116L114.696 65.59L113.246 62.85H111.466L113.826 66.92V70ZM121.343 70.11C123.573 70.11 125.033 68.56 125.033 66.43V66.35C125.033 64.2 123.503 62.75 121.353 62.75C119.233 62.75 117.673 64.26 117.673 66.39V66.47C117.673 68.56 119.103 70.11 121.343 70.11ZM121.373 68.82C120.203 68.82 119.363 67.92 119.363 66.46V66.38C119.363 64.94 120.113 64.03 121.353 64.03C122.603 64.03 123.343 64.98 123.343 66.37V66.45C123.343 67.89 122.583 68.82 121.373 68.82ZM129.098 70.11C131.028 70.11 132.118 69.1 132.118 67.15V62.85H130.487V67.05C130.487 68.36 130.068 68.82 129.108 68.82C128.128 68.82 127.778 68.3 127.778 67.11V62.85H126.148V67.21C126.148 69.11 127.218 70.11 129.098 70.11ZM135.21 66.14V64.09H136.12C136.9 64.09 137.34 64.34 137.34 65.07V65.11C137.34 65.8 136.93 66.14 136.12 66.14H135.21ZM133.6 70H135.21V67.24H135.91L137.62 70H139.34L137.45 66.96C138.29 66.71 138.92 66.14 138.92 65.06V65.02C138.92 63.54 137.85 62.85 136.16 62.85H133.6V70ZM142.536 70H143.986V64.98L145.976 70H146.506L148.486 64.98V70H150.096V62.85H147.996L146.346 67.3L144.676 62.85H142.536V70ZM151.687 70H153.317V62.85H151.687V70ZM154.899 70H156.339V64.91L159.319 70H160.939V62.85H159.499V67.56L156.779 62.85H154.899V70ZM162.477 70H164.807C167.317 70 168.567 68.57 168.567 66.43V66.35C168.567 64.21 167.327 62.85 164.817 62.85H162.477V70ZM164.097 68.74V64.11H164.737C166.247 64.11 166.877 64.9 166.877 66.37V66.45C166.877 67.93 166.197 68.74 164.757 68.74H164.097ZM173.35 70H174.98V64.11H176.91V62.85H171.42V64.11H173.35V70ZM180.914 70.11C183.144 70.11 184.604 68.56 184.604 66.43V66.35C184.604 64.2 183.074 62.75 180.924 62.75C178.804 62.75 177.244 64.26 177.244 66.39V66.47C177.244 68.56 178.674 70.11 180.914 70.11ZM180.944 68.82C179.774 68.82 178.934 67.92 178.934 66.46V66.38C178.934 64.94 179.684 64.03 180.924 64.03C182.174 64.03 182.914 64.98 182.914 66.37V66.45C182.914 67.89 182.154 68.82 180.944 68.82ZM75.7143 84H77.1543V78.91L80.1343 84H81.7543V76.85H80.3143V81.56L77.5943 76.85H75.7143V84ZM83.2925 84H88.1125V82.74H84.9025V80.96H87.3425V79.78H84.9025V78.11H87.9525V76.85H83.2925V84ZM90.4197 84H91.9797L93.2897 79.06L94.5797 84H96.2297L97.9697 76.85H96.4697L95.3097 81.82L94.0397 76.85H92.6597L91.4397 81.79L90.3197 76.85H88.6797L90.4197 84ZM101.164 84H105.984V82.74H102.774V80.96H105.214V79.78H102.774V78.11H105.824V76.85H101.164V84ZM106.641 84H108.301L109.841 81.34L111.391 84H113.231L110.971 80.28L113.011 76.85H111.351L110.001 79.23L108.641 76.85H106.811L108.911 80.33L106.641 84ZM114.298 84H115.908V81.4H116.818C118.448 81.4 119.498 80.68 119.498 79.17V79.13C119.498 77.62 118.508 76.85 116.768 76.85H114.298V84ZM115.908 80.27V78.08H116.728C117.498 78.08 117.938 78.38 117.938 79.14V79.18C117.938 79.89 117.518 80.27 116.728 80.27H115.908ZM120.558 84H125.378V82.74H122.168V80.96H124.608V79.78H122.168V78.11H125.218V76.85H120.558V84ZM128.115 80.14V78.09H129.025C129.805 78.09 130.245 78.34 130.245 79.07V79.11C130.245 79.8 129.835 80.14 129.025 80.14H128.115ZM126.505 84H128.115V81.24H128.815L130.525 84H132.245L130.355 80.96C131.195 80.71 131.825 80.14 131.825 79.06V79.02C131.825 77.54 130.755 76.85 129.065 76.85H126.505V84ZM133.264 84H134.894V76.85H133.264V84ZM136.476 84H141.296V82.74H138.086V80.96H140.526V79.78H138.086V78.11H141.136V76.85H136.476V84ZM142.423 84H143.863V78.91L146.843 84H148.463V76.85H147.023V81.56L144.303 76.85H142.423V84ZM153.221 84.11C154.981 84.11 156.251 83.2 156.431 81.43H154.841C154.711 82.35 154.091 82.8 153.201 82.8C152.021 82.8 151.341 81.94 151.341 80.46V80.38C151.341 78.9 152.061 78.02 153.191 78.02C154.091 78.02 154.571 78.48 154.691 79.34H156.351C156.181 77.58 154.901 76.74 153.181 76.74C151.151 76.74 149.631 78.22 149.631 80.39V80.47C149.631 82.67 150.881 84.11 153.221 84.11ZM157.482 84H162.302V82.74H159.092V80.96H161.532V79.78H159.092V78.11H162.142V76.85H157.482V84ZM165.929 84.11C167.619 84.11 168.659 83.1 168.659 81.83C168.659 80.35 167.769 79.88 166.039 79.66C164.939 79.5 164.709 79.26 164.709 78.75C164.709 78.27 165.069 77.94 165.779 77.94C166.489 77.94 166.869 78.24 166.969 78.89H168.459C168.329 77.47 167.389 76.75 165.779 76.75C164.199 76.75 163.179 77.66 163.179 78.88C163.179 80.26 163.929 80.81 165.759 81.05C166.809 81.21 167.109 81.41 167.109 81.98C167.109 82.54 166.639 82.93 165.929 82.93C164.869 82.93 164.599 82.4 164.529 81.76H162.979C163.069 83.19 163.969 84.11 165.929 84.11Z" fill="white"/>
</svg>
