<svg width="253" height="144" viewBox="0 0 253 144" fill="none" xmlns="http://www.w3.org/2000/svg">
<rect width="253" height="144" rx="8" fill="#121212"/>
<rect width="253" height="144" rx="8" fill="white" fill-opacity="0.14"/>
<rect x="30" y="30" width="192" height="84" fill="white" fill-opacity="0.08"/>
<g opacity="0.3">
<path fill-rule="evenodd" clip-rule="evenodd" d="M126 92C137.598 92 147 82.8218 147 71.5C147 60.1782 137.598 51 126 51C114.402 51 105 60.1782 105 71.5C105 82.8218 114.402 92 126 92Z" stroke="white"/>
<path d="M109.847 71.5C109.847 80.2091 117.079 87.2692 126 87.2692C134.922 87.2692 142.154 80.2091 142.154 71.5" stroke="white" stroke-linecap="round" stroke-linejoin="round"/>
<path fill-rule="evenodd" clip-rule="evenodd" d="M126 57.5332L132.231 66.9947L126 76.4563L119.77 66.9947L126 57.5332Z" fill="white"/>
</g>
</svg>
