<svg width="253" height="144" viewBox="0 0 253 144" fill="none" xmlns="http://www.w3.org/2000/svg">
<rect width="253" height="144" rx="8" fill="#121212"/>
<rect width="253" height="144" rx="8" fill="white" fill-opacity="0.14"/>
<rect x="31" y="30" width="90" height="84" fill="white" fill-opacity="0.08"/>
<path opacity="0.6" d="M138.203 61.027C138.752 61.027 139.133 60.697 139.133 60.076V59.917H138.251V60.133H138.878C138.869 60.514 138.668 60.817 138.203 60.817C137.699 60.817 137.435 60.469 137.435 59.938V59.914C137.435 59.389 137.717 59.029 138.209 59.029C138.521 59.029 138.755 59.161 138.815 59.503H139.076C139.01 59.02 138.629 58.822 138.203 58.822C137.588 58.822 137.165 59.29 137.165 59.917V59.941C137.165 60.568 137.543 61.027 138.203 61.027ZM140.194 61.027C140.548 61.027 140.809 60.862 140.863 60.547H140.614C140.581 60.73 140.44 60.82 140.197 60.82C139.876 60.82 139.705 60.622 139.693 60.265H140.875V60.184C140.875 59.623 140.533 59.404 140.17 59.404C139.738 59.404 139.435 59.734 139.435 60.208V60.232C139.435 60.715 139.75 61.027 140.194 61.027ZM139.702 60.064C139.744 59.785 139.915 59.611 140.17 59.611C140.428 59.611 140.596 59.74 140.62 60.064H139.702ZM141.734 61.021C141.836 61.021 141.896 61.006 141.947 60.988V60.778C141.893 60.799 141.833 60.811 141.755 60.811C141.629 60.811 141.56 60.736 141.56 60.583V59.641H141.926V59.431H141.56V59.074H141.311V59.431H141.086V59.641H141.311V60.607C141.311 60.853 141.449 61.021 141.734 61.021ZM142.8 61.021C142.902 61.021 142.962 61.006 143.013 60.988V60.778C142.959 60.799 142.899 60.811 142.821 60.811C142.695 60.811 142.626 60.736 142.626 60.583V59.641H142.992V59.431H142.626V59.074H142.377V59.431H142.152V59.641H142.377V60.607C142.377 60.853 142.515 61.021 142.8 61.021ZM143.516 59.104C143.606 59.104 143.681 59.029 143.681 58.939C143.681 58.849 143.606 58.774 143.516 58.774C143.426 58.774 143.351 58.849 143.351 58.939C143.351 59.029 143.426 59.104 143.516 59.104ZM143.396 61H143.645V59.431H143.396V61ZM144.154 61H144.403V60.049C144.403 59.767 144.61 59.62 144.841 59.62C145.093 59.62 145.21 59.743 145.21 60.019V61H145.459V60.037C145.459 59.581 145.231 59.404 144.907 59.404C144.649 59.404 144.475 59.533 144.403 59.68V59.431H144.154V61ZM146.571 60.742C146.307 60.742 146.088 60.538 146.088 60.196V60.172C146.088 59.842 146.274 59.611 146.586 59.611C146.892 59.611 147.084 59.815 147.084 60.166V60.187C147.084 60.538 146.862 60.742 146.571 60.742ZM146.574 61.573C147.012 61.573 147.321 61.351 147.324 60.895V59.431H147.075V59.683C146.985 59.53 146.823 59.404 146.562 59.404C146.13 59.404 145.83 59.758 145.83 60.184V60.205C145.83 60.637 146.133 60.949 146.544 60.949C146.772 60.949 146.985 60.805 147.075 60.652V60.88C147.075 61.216 146.88 61.363 146.571 61.363C146.304 61.363 146.154 61.27 146.118 61.09H145.863C145.905 61.354 146.109 61.573 146.574 61.573ZM149.099 61.021C149.201 61.021 149.261 61.006 149.312 60.988V60.778C149.258 60.799 149.198 60.811 149.12 60.811C148.994 60.811 148.925 60.736 148.925 60.583V59.641H149.291V59.431H148.925V59.074H148.676V59.431H148.451V59.641H148.676V60.607C148.676 60.853 148.814 61.021 149.099 61.021ZM149.689 61H149.938V60.049C149.938 59.767 150.145 59.62 150.376 59.62C150.628 59.62 150.745 59.743 150.745 60.019V61H150.994V60.037C150.994 59.581 150.766 59.404 150.442 59.404C150.184 59.404 150.01 59.533 149.938 59.68V58.681H149.689V61ZM151.607 59.104C151.697 59.104 151.772 59.029 151.772 58.939C151.772 58.849 151.697 58.774 151.607 58.774C151.517 58.774 151.442 58.849 151.442 58.939C151.442 59.029 151.517 59.104 151.607 59.104ZM151.487 61H151.736V59.431H151.487V61ZM152.246 61H152.495V60.049C152.495 59.767 152.702 59.62 152.933 59.62C153.185 59.62 153.302 59.743 153.302 60.019V61H153.551V60.037C153.551 59.581 153.323 59.404 152.999 59.404C152.741 59.404 152.567 59.533 152.495 59.68V59.431H152.246V61ZM154.663 60.742C154.399 60.742 154.18 60.538 154.18 60.196V60.172C154.18 59.842 154.366 59.611 154.678 59.611C154.984 59.611 155.176 59.815 155.176 60.166V60.187C155.176 60.538 154.954 60.742 154.663 60.742ZM154.666 61.573C155.104 61.573 155.413 61.351 155.416 60.895V59.431H155.167V59.683C155.077 59.53 154.915 59.404 154.654 59.404C154.222 59.404 153.922 59.758 153.922 60.184V60.205C153.922 60.637 154.225 60.949 154.636 60.949C154.864 60.949 155.077 60.805 155.167 60.652V60.88C155.167 61.216 154.972 61.363 154.663 61.363C154.396 61.363 154.246 61.27 154.21 61.09H153.955C153.997 61.354 154.201 61.573 154.666 61.573ZM156.406 61.027C156.787 61.027 156.982 60.835 156.982 60.55C156.982 60.217 156.754 60.145 156.43 60.085C156.142 60.034 156.064 59.977 156.064 59.836C156.064 59.701 156.181 59.611 156.361 59.611C156.559 59.611 156.655 59.686 156.691 59.857H156.931C156.889 59.518 156.646 59.404 156.364 59.404C156.118 59.404 155.833 59.554 155.833 59.845C155.833 60.118 155.971 60.232 156.379 60.307C156.622 60.352 156.745 60.406 156.745 60.571C156.745 60.739 156.64 60.82 156.403 60.82C156.151 60.82 156.052 60.703 156.034 60.517H155.791C155.806 60.838 156.031 61.027 156.406 61.027ZM158.773 60.82C158.509 60.82 158.296 60.631 158.296 60.235V60.211C158.296 59.83 158.482 59.611 158.794 59.611C159.1 59.611 159.292 59.8 159.292 60.202V60.226C159.292 60.628 159.064 60.82 158.773 60.82ZM158.746 61.027C158.974 61.027 159.193 60.883 159.283 60.73V61H159.532V58.681H159.283V59.683C159.193 59.53 159.031 59.404 158.77 59.404C158.338 59.404 158.038 59.743 158.038 60.223V60.247C158.038 60.736 158.335 61.027 158.746 61.027ZM160.687 61.027C161.134 61.027 161.461 60.7 161.461 60.226V60.202C161.461 59.731 161.134 59.404 160.69 59.404C160.246 59.404 159.919 59.734 159.919 60.205V60.229C159.919 60.688 160.24 61.027 160.687 61.027ZM160.69 60.82C160.372 60.82 160.177 60.586 160.177 60.229V60.205C160.177 59.845 160.375 59.611 160.69 59.611C161.002 59.611 161.203 59.845 161.203 60.208V60.229C161.203 60.583 161.005 60.82 160.69 60.82ZM161.847 61H162.096V60.049C162.096 59.767 162.303 59.62 162.534 59.62C162.786 59.62 162.903 59.743 162.903 60.019V61H163.152V60.037C163.152 59.581 162.924 59.404 162.6 59.404C162.342 59.404 162.168 59.533 162.096 59.68V59.431H161.847V61ZM164.282 61.027C164.636 61.027 164.897 60.862 164.951 60.547H164.702C164.669 60.73 164.528 60.82 164.285 60.82C163.964 60.82 163.793 60.622 163.781 60.265H164.963V60.184C164.963 59.623 164.621 59.404 164.258 59.404C163.826 59.404 163.523 59.734 163.523 60.208V60.232C163.523 60.715 163.838 61.027 164.282 61.027ZM163.79 60.064C163.832 59.785 164.003 59.611 164.258 59.611C164.516 59.611 164.684 59.74 164.708 60.064H163.79ZM166.265 59.104C166.355 59.104 166.43 59.029 166.43 58.939C166.43 58.849 166.355 58.774 166.265 58.774C166.175 58.774 166.1 58.849 166.1 58.939C166.1 59.029 166.175 59.104 166.265 59.104ZM166.145 61H166.394V59.431H166.145V61ZM167.389 61.027C167.77 61.027 167.965 60.835 167.965 60.55C167.965 60.217 167.737 60.145 167.413 60.085C167.125 60.034 167.047 59.977 167.047 59.836C167.047 59.701 167.164 59.611 167.344 59.611C167.542 59.611 167.638 59.686 167.674 59.857H167.914C167.872 59.518 167.629 59.404 167.347 59.404C167.101 59.404 166.816 59.554 166.816 59.845C166.816 60.118 166.954 60.232 167.362 60.307C167.605 60.352 167.728 60.406 167.728 60.571C167.728 60.739 167.623 60.82 167.386 60.82C167.134 60.82 167.035 60.703 167.017 60.517H166.774C166.789 60.838 167.014 61.027 167.389 61.027ZM169.742 60.82C169.496 60.82 169.28 60.631 169.28 60.235V60.211C169.28 59.83 169.475 59.611 169.763 59.611C170.045 59.611 170.24 59.8 170.24 60.202V60.226C170.24 60.628 170.009 60.82 169.742 60.82ZM169.715 61.027C169.925 61.027 170.141 60.889 170.231 60.736V61H170.48V59.431H170.231V59.677C170.141 59.524 169.982 59.404 169.739 59.404C169.343 59.404 169.022 59.743 169.022 60.223V60.247C169.022 60.736 169.34 61.027 169.715 61.027ZM172.534 60.82C172.228 60.82 172.018 60.631 172.018 60.229V60.205C172.018 59.803 172.24 59.611 172.531 59.611C172.795 59.611 173.014 59.809 173.014 60.205V60.229C173.014 60.61 172.846 60.82 172.534 60.82ZM171.778 61.546H172.027V60.742C172.117 60.898 172.3 61.027 172.558 61.027C172.99 61.027 173.272 60.697 173.272 60.217V60.193C173.272 59.704 172.969 59.404 172.558 59.404C172.33 59.404 172.117 59.542 172.027 59.695V59.431H171.778V61.546ZM173.659 61H173.908V60.139C173.908 59.752 174.109 59.653 174.424 59.638V59.404C174.142 59.413 174.007 59.536 173.908 59.713V59.431H173.659V61ZM175.394 61.027C175.841 61.027 176.168 60.7 176.168 60.226V60.202C176.168 59.731 175.841 59.404 175.397 59.404C174.953 59.404 174.626 59.734 174.626 60.205V60.229C174.626 60.688 174.947 61.027 175.394 61.027ZM175.397 60.82C175.079 60.82 174.884 60.586 174.884 60.229V60.205C174.884 59.845 175.082 59.611 175.397 59.611C175.709 59.611 175.91 59.845 175.91 60.208V60.229C175.91 60.583 175.712 60.82 175.397 60.82ZM177.205 61.027C177.583 61.027 177.856 60.775 177.889 60.436H177.658C177.631 60.691 177.43 60.82 177.208 60.82C176.905 60.82 176.695 60.616 176.695 60.232V60.208C176.695 59.839 176.914 59.611 177.199 59.611C177.415 59.611 177.595 59.704 177.634 59.953H177.88C177.832 59.554 177.526 59.404 177.199 59.404C176.779 59.404 176.437 59.728 176.437 60.208V60.232C176.437 60.718 176.767 61.027 177.205 61.027ZM178.907 61.027C179.261 61.027 179.522 60.862 179.576 60.547H179.327C179.294 60.73 179.153 60.82 178.91 60.82C178.589 60.82 178.418 60.622 178.406 60.265H179.588V60.184C179.588 59.623 179.246 59.404 178.883 59.404C178.451 59.404 178.148 59.734 178.148 60.208V60.232C178.148 60.715 178.463 61.027 178.907 61.027ZM178.415 60.064C178.457 59.785 178.628 59.611 178.883 59.611C179.141 59.611 179.309 59.74 179.333 60.064H178.415ZM180.47 61.027C180.851 61.027 181.046 60.835 181.046 60.55C181.046 60.217 180.818 60.145 180.494 60.085C180.206 60.034 180.128 59.977 180.128 59.836C180.128 59.701 180.245 59.611 180.425 59.611C180.623 59.611 180.719 59.686 180.755 59.857H180.995C180.953 59.518 180.71 59.404 180.428 59.404C180.182 59.404 179.897 59.554 179.897 59.845C179.897 60.118 180.035 60.232 180.443 60.307C180.686 60.352 180.809 60.406 180.809 60.571C180.809 60.739 180.704 60.82 180.467 60.82C180.215 60.82 180.116 60.703 180.098 60.517H179.855C179.87 60.838 180.095 61.027 180.47 61.027ZM181.912 61.027C182.293 61.027 182.488 60.835 182.488 60.55C182.488 60.217 182.26 60.145 181.936 60.085C181.648 60.034 181.57 59.977 181.57 59.836C181.57 59.701 181.687 59.611 181.867 59.611C182.065 59.611 182.161 59.686 182.197 59.857H182.437C182.395 59.518 182.152 59.404 181.87 59.404C181.624 59.404 181.339 59.554 181.339 59.845C181.339 60.118 181.477 60.232 181.885 60.307C182.128 60.352 182.251 60.406 182.251 60.571C182.251 60.739 182.146 60.82 181.909 60.82C181.657 60.82 181.558 60.703 181.54 60.517H181.297C181.312 60.838 181.537 61.027 181.912 61.027ZM183.038 61.015C183.143 61.015 183.23 60.931 183.23 60.823C183.23 60.715 183.143 60.631 183.038 60.631C182.933 60.631 182.846 60.715 182.846 60.823C182.846 60.931 182.933 61.015 183.038 61.015ZM184.541 61H184.802V58.855H184.541V61ZM185.817 61.021C185.919 61.021 185.979 61.006 186.03 60.988V60.778C185.976 60.799 185.916 60.811 185.838 60.811C185.712 60.811 185.643 60.736 185.643 60.583V59.641H186.009V59.431H185.643V59.074H185.394V59.431H185.169V59.641H185.394V60.607C185.394 60.853 185.532 61.021 185.817 61.021ZM187.818 60.82C187.554 60.82 187.341 60.631 187.341 60.235V60.211C187.341 59.83 187.527 59.611 187.839 59.611C188.145 59.611 188.337 59.8 188.337 60.202V60.226C188.337 60.628 188.109 60.82 187.818 60.82ZM187.791 61.027C188.019 61.027 188.238 60.883 188.328 60.73V61H188.577V58.681H188.328V59.683C188.238 59.53 188.076 59.404 187.815 59.404C187.383 59.404 187.083 59.743 187.083 60.223V60.247C187.083 60.736 187.38 61.027 187.791 61.027ZM189.723 61.027C190.077 61.027 190.338 60.862 190.392 60.547H190.143C190.11 60.73 189.969 60.82 189.726 60.82C189.405 60.82 189.234 60.622 189.222 60.265H190.404V60.184C190.404 59.623 190.062 59.404 189.699 59.404C189.267 59.404 188.964 59.734 188.964 60.208V60.232C188.964 60.715 189.279 61.027 189.723 61.027ZM189.231 60.064C189.273 59.785 189.444 59.611 189.699 59.611C189.957 59.611 190.125 59.74 190.149 60.064H189.231ZM190.786 61H191.035V60.04C191.035 59.758 191.245 59.62 191.449 59.62C191.665 59.62 191.782 59.734 191.782 60.01V61H192.031V60.04C192.031 59.758 192.241 59.62 192.445 59.62C192.661 59.62 192.778 59.734 192.778 60.01V61H193.027V60.028C193.027 59.572 192.781 59.404 192.499 59.404C192.304 59.404 192.07 59.494 191.962 59.698C191.881 59.488 191.704 59.404 191.503 59.404C191.278 59.404 191.107 59.524 191.035 59.671V59.431H190.786V61ZM194.12 60.82C193.874 60.82 193.658 60.631 193.658 60.235V60.211C193.658 59.83 193.853 59.611 194.141 59.611C194.423 59.611 194.618 59.8 194.618 60.202V60.226C194.618 60.628 194.387 60.82 194.12 60.82ZM194.093 61.027C194.303 61.027 194.519 60.889 194.609 60.736V61H194.858V59.431H194.609V59.677C194.519 59.524 194.36 59.404 194.117 59.404C193.721 59.404 193.4 59.743 193.4 60.223V60.247C193.4 60.736 193.718 61.027 194.093 61.027ZM195.362 61H195.611V60.049C195.611 59.767 195.818 59.62 196.049 59.62C196.301 59.62 196.418 59.743 196.418 60.019V61H196.667V60.037C196.667 59.581 196.439 59.404 196.115 59.404C195.857 59.404 195.683 59.533 195.611 59.68V59.431H195.362V61ZM197.773 60.82C197.509 60.82 197.296 60.631 197.296 60.235V60.211C197.296 59.83 197.482 59.611 197.794 59.611C198.1 59.611 198.292 59.8 198.292 60.202V60.226C198.292 60.628 198.064 60.82 197.773 60.82ZM197.746 61.027C197.974 61.027 198.193 60.883 198.283 60.73V61H198.532V58.681H198.283V59.683C198.193 59.53 198.031 59.404 197.77 59.404C197.338 59.404 197.038 59.743 197.038 60.223V60.247C197.038 60.736 197.335 61.027 197.746 61.027ZM199.522 61.027C199.903 61.027 200.098 60.835 200.098 60.55C200.098 60.217 199.87 60.145 199.546 60.085C199.258 60.034 199.18 59.977 199.18 59.836C199.18 59.701 199.297 59.611 199.477 59.611C199.675 59.611 199.771 59.686 199.807 59.857H200.047C200.005 59.518 199.762 59.404 199.48 59.404C199.234 59.404 198.949 59.554 198.949 59.845C198.949 60.118 199.087 60.232 199.495 60.307C199.738 60.352 199.861 60.406 199.861 60.571C199.861 60.739 199.756 60.82 199.519 60.82C199.267 60.82 199.168 60.703 199.15 60.517H198.907C198.922 60.838 199.147 61.027 199.522 61.027ZM137.855 65.82C137.609 65.82 137.393 65.631 137.393 65.235V65.211C137.393 64.83 137.588 64.611 137.876 64.611C138.158 64.611 138.353 64.8 138.353 65.202V65.226C138.353 65.628 138.122 65.82 137.855 65.82ZM137.828 66.027C138.038 66.027 138.254 65.889 138.344 65.736V66H138.593V64.431H138.344V64.677C138.254 64.524 138.095 64.404 137.852 64.404C137.456 64.404 137.135 64.743 137.135 65.223V65.247C137.135 65.736 137.453 66.027 137.828 66.027ZM139.749 66.027C140.127 66.027 140.4 65.775 140.433 65.436H140.202C140.175 65.691 139.974 65.82 139.752 65.82C139.449 65.82 139.239 65.616 139.239 65.232V65.208C139.239 64.839 139.458 64.611 139.743 64.611C139.959 64.611 140.139 64.704 140.178 64.953H140.424C140.376 64.554 140.07 64.404 139.743 64.404C139.323 64.404 138.981 64.728 138.981 65.208V65.232C138.981 65.718 139.311 66.027 139.749 66.027ZM141.46 66.027C141.838 66.027 142.111 65.775 142.144 65.436H141.913C141.886 65.691 141.685 65.82 141.463 65.82C141.16 65.82 140.95 65.616 140.95 65.232V65.208C140.95 64.839 141.169 64.611 141.454 64.611C141.67 64.611 141.85 64.704 141.889 64.953H142.135C142.087 64.554 141.781 64.404 141.454 64.404C141.034 64.404 140.692 64.728 140.692 65.208V65.232C140.692 65.718 141.022 66.027 141.46 66.027ZM143.171 66.027C143.618 66.027 143.945 65.7 143.945 65.226V65.202C143.945 64.731 143.618 64.404 143.174 64.404C142.73 64.404 142.403 64.734 142.403 65.205V65.229C142.403 65.688 142.724 66.027 143.171 66.027ZM143.174 65.82C142.856 65.82 142.661 65.586 142.661 65.229V65.205C142.661 64.845 142.859 64.611 143.174 64.611C143.486 64.611 143.687 64.845 143.687 65.208V65.229C143.687 65.583 143.489 65.82 143.174 65.82ZM144.861 66.027C145.113 66.027 145.287 65.898 145.359 65.751V66H145.608V64.431H145.359V65.382C145.359 65.664 145.149 65.811 144.927 65.811C144.681 65.811 144.564 65.688 144.564 65.412V64.431H144.315V65.424C144.315 65.856 144.549 66.027 144.861 66.027ZM146.111 66H146.36V65.049C146.36 64.767 146.567 64.62 146.798 64.62C147.05 64.62 147.167 64.743 147.167 65.019V66H147.416V65.037C147.416 64.581 147.188 64.404 146.864 64.404C146.606 64.404 146.432 64.533 146.36 64.68V64.431H146.111V66ZM148.381 66.021C148.483 66.021 148.543 66.006 148.594 65.988V65.778C148.54 65.799 148.48 65.811 148.402 65.811C148.276 65.811 148.207 65.736 148.207 65.583V64.641H148.573V64.431H148.207V64.074H147.958V64.431H147.733V64.641H147.958V65.607C147.958 65.853 148.096 66.021 148.381 66.021ZM149.574 65.82C149.328 65.82 149.112 65.631 149.112 65.235V65.211C149.112 64.83 149.307 64.611 149.595 64.611C149.877 64.611 150.072 64.8 150.072 65.202V65.226C150.072 65.628 149.841 65.82 149.574 65.82ZM149.547 66.027C149.757 66.027 149.973 65.889 150.063 65.736V66H150.312V64.431H150.063V64.677C149.973 64.524 149.814 64.404 149.571 64.404C149.175 64.404 148.854 64.743 148.854 65.223V65.247C148.854 65.736 149.172 66.027 149.547 66.027ZM151.596 66.027C152.028 66.027 152.31 65.697 152.31 65.217V65.193C152.31 64.704 152.007 64.404 151.596 64.404C151.368 64.404 151.155 64.542 151.065 64.695V63.681H150.816V66H151.065V65.742C151.155 65.898 151.341 66.027 151.596 66.027ZM151.572 65.82C151.266 65.82 151.056 65.631 151.056 65.229V65.205C151.056 64.803 151.278 64.611 151.569 64.611C151.833 64.611 152.052 64.809 152.052 65.205V65.229C152.052 65.61 151.884 65.82 151.572 65.82ZM152.823 64.104C152.913 64.104 152.988 64.029 152.988 63.939C152.988 63.849 152.913 63.774 152.823 63.774C152.733 63.774 152.658 63.849 152.658 63.939C152.658 64.029 152.733 64.104 152.823 64.104ZM152.703 66H152.952V64.431H152.703V66ZM153.468 66H153.72V63.681H153.468V66ZM154.356 64.104C154.446 64.104 154.521 64.029 154.521 63.939C154.521 63.849 154.446 63.774 154.356 63.774C154.266 63.774 154.191 63.849 154.191 63.939C154.191 64.029 154.266 64.104 154.356 64.104ZM154.236 66H154.485V64.431H154.236V66ZM155.471 66.021C155.573 66.021 155.633 66.006 155.684 65.988V65.778C155.63 65.799 155.57 65.811 155.492 65.811C155.366 65.811 155.297 65.736 155.297 65.583V64.641H155.663V64.431H155.297V64.074H155.048V64.431H154.823V64.641H155.048V65.607C155.048 65.853 155.186 66.021 155.471 66.021ZM156.202 66.546H156.454L157.321 64.431H157.066L156.631 65.556L156.151 64.431H155.884L156.499 65.838L156.202 66.546ZM157.456 66.369L157.825 65.742L157.582 65.628L157.294 66.285L157.456 66.369ZM159.681 65.82C159.435 65.82 159.219 65.631 159.219 65.235V65.211C159.219 64.83 159.414 64.611 159.702 64.611C159.984 64.611 160.179 64.8 160.179 65.202V65.226C160.179 65.628 159.948 65.82 159.681 65.82ZM159.654 66.027C159.864 66.027 160.08 65.889 160.17 65.736V66H160.419V64.431H160.17V64.677C160.08 64.524 159.921 64.404 159.678 64.404C159.282 64.404 158.961 64.743 158.961 65.223V65.247C158.961 65.736 159.279 66.027 159.654 66.027ZM160.924 66H161.173V65.049C161.173 64.767 161.38 64.62 161.611 64.62C161.863 64.62 161.98 64.743 161.98 65.019V66H162.229V65.037C162.229 64.581 162.001 64.404 161.677 64.404C161.419 64.404 161.245 64.533 161.173 64.68V64.431H160.924V66ZM163.335 65.82C163.071 65.82 162.858 65.631 162.858 65.235V65.211C162.858 64.83 163.044 64.611 163.356 64.611C163.662 64.611 163.854 64.8 163.854 65.202V65.226C163.854 65.628 163.626 65.82 163.335 65.82ZM163.308 66.027C163.536 66.027 163.755 65.883 163.845 65.73V66H164.094V63.681H163.845V64.683C163.755 64.53 163.593 64.404 163.332 64.404C162.9 64.404 162.6 64.743 162.6 65.223V65.247C162.6 65.736 162.897 66.027 163.308 66.027ZM165.392 66H165.641V65.049C165.641 64.767 165.848 64.62 166.079 64.62C166.331 64.62 166.448 64.743 166.448 65.019V66H166.697V65.037C166.697 64.581 166.469 64.404 166.145 64.404C165.887 64.404 165.713 64.533 165.641 64.68V63.681H165.392V66ZM167.788 65.82C167.542 65.82 167.326 65.631 167.326 65.235V65.211C167.326 64.83 167.521 64.611 167.809 64.611C168.091 64.611 168.286 64.8 168.286 65.202V65.226C168.286 65.628 168.055 65.82 167.788 65.82ZM167.761 66.027C167.971 66.027 168.187 65.889 168.277 65.736V66H168.526V64.431H168.277V64.677C168.187 64.524 168.028 64.404 167.785 64.404C167.389 64.404 167.068 64.743 167.068 65.223V65.247C167.068 65.736 167.386 66.027 167.761 66.027ZM169.516 66.027C169.897 66.027 170.092 65.835 170.092 65.55C170.092 65.217 169.864 65.145 169.54 65.085C169.252 65.034 169.174 64.977 169.174 64.836C169.174 64.701 169.291 64.611 169.471 64.611C169.669 64.611 169.765 64.686 169.801 64.857H170.041C169.999 64.518 169.756 64.404 169.474 64.404C169.228 64.404 168.943 64.554 168.943 64.845C168.943 65.118 169.081 65.232 169.489 65.307C169.732 65.352 169.855 65.406 169.855 65.571C169.855 65.739 169.75 65.82 169.513 65.82C169.261 65.82 169.162 65.703 169.144 65.517H168.901C168.916 65.838 169.141 66.027 169.516 66.027ZM171.917 66.027C172.295 66.027 172.568 65.775 172.601 65.436H172.37C172.343 65.691 172.142 65.82 171.92 65.82C171.617 65.82 171.407 65.616 171.407 65.232V65.208C171.407 64.839 171.626 64.611 171.911 64.611C172.127 64.611 172.307 64.704 172.346 64.953H172.592C172.544 64.554 172.238 64.404 171.911 64.404C171.491 64.404 171.149 64.728 171.149 65.208V65.232C171.149 65.718 171.479 66.027 171.917 66.027ZM172.983 66H173.235V63.681H172.983V66ZM174.386 66.027C174.74 66.027 175.001 65.862 175.055 65.547H174.806C174.773 65.73 174.632 65.82 174.389 65.82C174.068 65.82 173.897 65.622 173.885 65.265H175.067V65.184C175.067 64.623 174.725 64.404 174.362 64.404C173.93 64.404 173.627 64.734 173.627 65.208V65.232C173.627 65.715 173.942 66.027 174.386 66.027ZM173.894 65.064C173.936 64.785 174.107 64.611 174.362 64.611C174.62 64.611 174.788 64.74 174.812 65.064H173.894ZM176.052 65.82C175.806 65.82 175.59 65.631 175.59 65.235V65.211C175.59 64.83 175.785 64.611 176.073 64.611C176.355 64.611 176.55 64.8 176.55 65.202V65.226C176.55 65.628 176.319 65.82 176.052 65.82ZM176.025 66.027C176.235 66.027 176.451 65.889 176.541 65.736V66H176.79V64.431H176.541V64.677C176.451 64.524 176.292 64.404 176.049 64.404C175.653 64.404 175.332 64.743 175.332 65.223V65.247C175.332 65.736 175.65 66.027 176.025 66.027ZM177.295 66H177.544V65.139C177.544 64.752 177.745 64.653 178.06 64.638V64.404C177.778 64.413 177.643 64.536 177.544 64.713V64.431H177.295V66ZM179.841 65.742C179.577 65.742 179.358 65.538 179.358 65.196V65.172C179.358 64.842 179.544 64.611 179.856 64.611C180.162 64.611 180.354 64.815 180.354 65.166V65.187C180.354 65.538 180.132 65.742 179.841 65.742ZM179.844 66.573C180.282 66.573 180.591 66.351 180.594 65.895V64.431H180.345V64.683C180.255 64.53 180.093 64.404 179.832 64.404C179.4 64.404 179.1 64.758 179.1 65.184V65.205C179.1 65.637 179.403 65.949 179.814 65.949C180.042 65.949 180.255 65.805 180.345 65.652V65.88C180.345 66.216 180.15 66.363 179.841 66.363C179.574 66.363 179.424 66.27 179.388 66.09H179.133C179.175 66.354 179.379 66.573 179.844 66.573ZM181.749 66.027C182.196 66.027 182.523 65.7 182.523 65.226V65.202C182.523 64.731 182.196 64.404 181.752 64.404C181.308 64.404 180.981 64.734 180.981 65.205V65.229C180.981 65.688 181.302 66.027 181.749 66.027ZM181.752 65.82C181.434 65.82 181.239 65.586 181.239 65.229V65.205C181.239 64.845 181.437 64.611 181.752 64.611C182.064 64.611 182.265 64.845 182.265 65.208V65.229C182.265 65.583 182.067 65.82 181.752 65.82ZM183.511 65.82C183.265 65.82 183.049 65.631 183.049 65.235V65.211C183.049 64.83 183.244 64.611 183.532 64.611C183.814 64.611 184.009 64.8 184.009 65.202V65.226C184.009 65.628 183.778 65.82 183.511 65.82ZM183.484 66.027C183.694 66.027 183.91 65.889 184 65.736V66H184.249V64.431H184V64.677C183.91 64.524 183.751 64.404 183.508 64.404C183.112 64.404 182.791 64.743 182.791 65.223V65.247C182.791 65.736 183.109 66.027 183.484 66.027ZM184.76 66H185.012V63.681H184.76V66ZM186.008 66.027C186.389 66.027 186.584 65.835 186.584 65.55C186.584 65.217 186.356 65.145 186.032 65.085C185.744 65.034 185.666 64.977 185.666 64.836C185.666 64.701 185.783 64.611 185.963 64.611C186.161 64.611 186.257 64.686 186.293 64.857H186.533C186.491 64.518 186.248 64.404 185.966 64.404C185.72 64.404 185.435 64.554 185.435 64.845C185.435 65.118 185.573 65.232 185.981 65.307C186.224 65.352 186.347 65.406 186.347 65.571C186.347 65.739 186.242 65.82 186.005 65.82C185.753 65.82 185.654 65.703 185.636 65.517H185.393C185.408 65.838 185.633 66.027 186.008 66.027ZM187.134 66.015C187.239 66.015 187.326 65.931 187.326 65.823C187.326 65.715 187.239 65.631 187.134 65.631C187.029 65.631 186.942 65.715 186.942 65.823C186.942 65.931 187.029 66.015 187.134 66.015ZM188.622 66H188.883V65.04H189.657V64.827H188.883V64.068H189.876V63.855H188.622V66ZM190.801 66.027C191.248 66.027 191.575 65.7 191.575 65.226V65.202C191.575 64.731 191.248 64.404 190.804 64.404C190.36 64.404 190.033 64.734 190.033 65.205V65.229C190.033 65.688 190.354 66.027 190.801 66.027ZM190.804 65.82C190.486 65.82 190.291 65.586 190.291 65.229V65.205C190.291 64.845 190.489 64.611 190.804 64.611C191.116 64.611 191.317 64.845 191.317 65.208V65.229C191.317 65.583 191.119 65.82 190.804 65.82ZM191.967 66H192.219V63.681H191.967V66ZM192.735 66H192.987V63.681H192.735V66ZM194.147 66.027C194.594 66.027 194.921 65.7 194.921 65.226V65.202C194.921 64.731 194.594 64.404 194.15 64.404C193.706 64.404 193.379 64.734 193.379 65.205V65.229C193.379 65.688 193.7 66.027 194.147 66.027ZM194.15 65.82C193.832 65.82 193.637 65.586 193.637 65.229V65.205C193.637 64.845 193.835 64.611 194.15 64.611C194.462 64.611 194.663 64.845 194.663 65.208V65.229C194.663 65.583 194.465 65.82 194.15 65.82ZM195.592 66H195.865L196.231 64.824L196.558 66H196.834L197.323 64.431H197.068L196.699 65.694L196.342 64.431H196.126L195.745 65.694L195.379 64.431H195.109L195.592 66ZM137.729 71.021C137.831 71.021 137.891 71.006 137.942 70.988V70.778C137.888 70.799 137.828 70.811 137.75 70.811C137.624 70.811 137.555 70.736 137.555 70.583V69.641H137.921V69.431H137.555V69.074H137.306V69.431H137.081V69.641H137.306V70.607C137.306 70.853 137.444 71.021 137.729 71.021ZM138.318 71H138.567V70.049C138.567 69.767 138.774 69.62 139.005 69.62C139.257 69.62 139.374 69.743 139.374 70.019V71H139.623V70.037C139.623 69.581 139.395 69.404 139.071 69.404C138.813 69.404 138.639 69.533 138.567 69.68V68.681H138.318V71ZM140.111 71H140.36V70.139C140.36 69.752 140.561 69.653 140.876 69.638V69.404C140.594 69.413 140.459 69.536 140.36 69.713V69.431H140.111V71ZM141.846 71.027C142.293 71.027 142.62 70.7 142.62 70.226V70.202C142.62 69.731 142.293 69.404 141.849 69.404C141.405 69.404 141.078 69.734 141.078 70.205V70.229C141.078 70.688 141.399 71.027 141.846 71.027ZM141.849 70.82C141.531 70.82 141.336 70.586 141.336 70.229V70.205C141.336 69.845 141.534 69.611 141.849 69.611C142.161 69.611 142.362 69.845 142.362 70.208V70.229C142.362 70.583 142.164 70.82 141.849 70.82ZM143.537 71.027C143.789 71.027 143.963 70.898 144.035 70.751V71H144.284V69.431H144.035V70.382C144.035 70.664 143.825 70.811 143.603 70.811C143.357 70.811 143.24 70.688 143.24 70.412V69.431H142.991V70.424C142.991 70.856 143.225 71.027 143.537 71.027ZM145.411 70.742C145.147 70.742 144.928 70.538 144.928 70.196V70.172C144.928 69.842 145.114 69.611 145.426 69.611C145.732 69.611 145.924 69.815 145.924 70.166V70.187C145.924 70.538 145.702 70.742 145.411 70.742ZM145.414 71.573C145.852 71.573 146.161 71.351 146.164 70.895V69.431H145.915V69.683C145.825 69.53 145.663 69.404 145.402 69.404C144.97 69.404 144.67 69.758 144.67 70.184V70.205C144.67 70.637 144.973 70.949 145.384 70.949C145.612 70.949 145.825 70.805 145.915 70.652V70.88C145.915 71.216 145.72 71.363 145.411 71.363C145.144 71.363 144.994 71.27 144.958 71.09H144.703C144.745 71.354 144.949 71.573 145.414 71.573ZM146.668 71H146.917V70.049C146.917 69.767 147.124 69.62 147.355 69.62C147.607 69.62 147.724 69.743 147.724 70.019V71H147.973V70.037C147.973 69.581 147.745 69.404 147.421 69.404C147.163 69.404 146.989 69.533 146.917 69.68V68.681H146.668V71ZM149.381 69.104C149.471 69.104 149.546 69.029 149.546 68.939C149.546 68.849 149.471 68.774 149.381 68.774C149.291 68.774 149.216 68.849 149.216 68.939C149.216 69.029 149.291 69.104 149.381 69.104ZM149.261 71H149.51V69.431H149.261V71ZM150.506 71.027C150.887 71.027 151.082 70.835 151.082 70.55C151.082 70.217 150.854 70.145 150.53 70.085C150.242 70.034 150.164 69.977 150.164 69.836C150.164 69.701 150.281 69.611 150.461 69.611C150.659 69.611 150.755 69.686 150.791 69.857H151.031C150.989 69.518 150.746 69.404 150.464 69.404C150.218 69.404 149.933 69.554 149.933 69.845C149.933 70.118 150.071 70.232 150.479 70.307C150.722 70.352 150.845 70.406 150.845 70.571C150.845 70.739 150.74 70.82 150.503 70.82C150.251 70.82 150.152 70.703 150.134 70.517H149.891C149.906 70.838 150.131 71.027 150.506 71.027ZM152.732 71.021C152.834 71.021 152.894 71.006 152.945 70.988V70.778C152.891 70.799 152.831 70.811 152.753 70.811C152.627 70.811 152.558 70.736 152.558 70.583V69.641H152.924V69.431H152.558V69.074H152.309V69.431H152.084V69.641H152.309V70.607C152.309 70.853 152.447 71.021 152.732 71.021ZM153.321 71H153.57V70.049C153.57 69.767 153.777 69.62 154.008 69.62C154.26 69.62 154.377 69.743 154.377 70.019V71H154.626V70.037C154.626 69.581 154.398 69.404 154.074 69.404C153.816 69.404 153.642 69.533 153.57 69.68V68.681H153.321V71ZM155.756 71.027C156.11 71.027 156.371 70.862 156.425 70.547H156.176C156.143 70.73 156.002 70.82 155.759 70.82C155.438 70.82 155.267 70.622 155.255 70.265H156.437V70.184C156.437 69.623 156.095 69.404 155.732 69.404C155.3 69.404 154.997 69.734 154.997 70.208V70.232C154.997 70.715 155.312 71.027 155.756 71.027ZM155.264 70.064C155.306 69.785 155.477 69.611 155.732 69.611C155.99 69.611 156.158 69.74 156.182 70.064H155.264ZM157.613 71H157.862V70.04C157.862 69.758 158.072 69.62 158.276 69.62C158.492 69.62 158.609 69.734 158.609 70.01V71H158.858V70.04C158.858 69.758 159.068 69.62 159.272 69.62C159.488 69.62 159.605 69.734 159.605 70.01V71H159.854V70.028C159.854 69.572 159.608 69.404 159.326 69.404C159.131 69.404 158.897 69.494 158.789 69.698C158.708 69.488 158.531 69.404 158.33 69.404C158.105 69.404 157.934 69.524 157.862 69.671V69.431H157.613V71ZM160.995 71.027C161.442 71.027 161.769 70.7 161.769 70.226V70.202C161.769 69.731 161.442 69.404 160.998 69.404C160.554 69.404 160.227 69.734 160.227 70.205V70.229C160.227 70.688 160.548 71.027 160.995 71.027ZM160.998 70.82C160.68 70.82 160.485 70.586 160.485 70.229V70.205C160.485 69.845 160.683 69.611 160.998 69.611C161.31 69.611 161.511 69.845 161.511 70.208V70.229C161.511 70.583 161.313 70.82 160.998 70.82ZM162.64 71.027C163.021 71.027 163.216 70.835 163.216 70.55C163.216 70.217 162.988 70.145 162.664 70.085C162.376 70.034 162.298 69.977 162.298 69.836C162.298 69.701 162.415 69.611 162.595 69.611C162.793 69.611 162.889 69.686 162.925 69.857H163.165C163.123 69.518 162.88 69.404 162.598 69.404C162.352 69.404 162.067 69.554 162.067 69.845C162.067 70.118 162.205 70.232 162.613 70.307C162.856 70.352 162.979 70.406 162.979 70.571C162.979 70.739 162.874 70.82 162.637 70.82C162.385 70.82 162.286 70.703 162.268 70.517H162.025C162.04 70.838 162.265 71.027 162.64 71.027ZM164.073 71.021C164.175 71.021 164.235 71.006 164.286 70.988V70.778C164.232 70.799 164.172 70.811 164.094 70.811C163.968 70.811 163.899 70.736 163.899 70.583V69.641H164.265V69.431H163.899V69.074H163.65V69.431H163.425V69.641H163.65V70.607C163.65 70.853 163.788 71.021 164.073 71.021ZM165.849 71H166.167L166.731 69.431H166.473L166.014 70.748L165.549 69.431H165.279L165.849 71ZM167.632 70.82C167.386 70.82 167.17 70.631 167.17 70.235V70.211C167.17 69.83 167.365 69.611 167.653 69.611C167.935 69.611 168.13 69.8 168.13 70.202V70.226C168.13 70.628 167.899 70.82 167.632 70.82ZM167.605 71.027C167.815 71.027 168.031 70.889 168.121 70.736V71H168.37V69.431H168.121V69.677C168.031 69.524 167.872 69.404 167.629 69.404C167.233 69.404 166.912 69.743 166.912 70.223V70.247C166.912 70.736 167.23 71.027 167.605 71.027ZM168.881 71H169.133V68.681H168.881V71ZM170.174 71.027C170.426 71.027 170.6 70.898 170.672 70.751V71H170.921V69.431H170.672V70.382C170.672 70.664 170.462 70.811 170.24 70.811C169.994 70.811 169.877 70.688 169.877 70.412V69.431H169.628V70.424C169.628 70.856 169.862 71.027 170.174 71.027ZM172.027 70.82C171.781 70.82 171.565 70.631 171.565 70.235V70.211C171.565 69.83 171.76 69.611 172.048 69.611C172.33 69.611 172.525 69.8 172.525 70.202V70.226C172.525 70.628 172.294 70.82 172.027 70.82ZM172 71.027C172.21 71.027 172.426 70.889 172.516 70.736V71H172.765V69.431H172.516V69.677C172.426 69.524 172.267 69.404 172.024 69.404C171.628 69.404 171.307 69.743 171.307 70.223V70.247C171.307 70.736 171.625 71.027 172 71.027ZM174.05 71.027C174.482 71.027 174.764 70.697 174.764 70.217V70.193C174.764 69.704 174.461 69.404 174.05 69.404C173.822 69.404 173.609 69.542 173.519 69.695V68.681H173.27V71H173.519V70.742C173.609 70.898 173.795 71.027 174.05 71.027ZM174.026 70.82C173.72 70.82 173.51 70.631 173.51 70.229V70.205C173.51 69.803 173.732 69.611 174.023 69.611C174.287 69.611 174.506 69.809 174.506 70.205V70.229C174.506 70.61 174.338 70.82 174.026 70.82ZM175.156 71H175.408V68.681H175.156V71ZM176.56 71.027C176.914 71.027 177.175 70.862 177.229 70.547H176.98C176.947 70.73 176.806 70.82 176.563 70.82C176.242 70.82 176.071 70.622 176.059 70.265H177.241V70.184C177.241 69.623 176.899 69.404 176.536 69.404C176.104 69.404 175.801 69.734 175.801 70.208V70.232C175.801 70.715 176.116 71.027 176.56 71.027ZM176.068 70.064C176.11 69.785 176.281 69.611 176.536 69.611C176.794 69.611 176.962 69.74 176.986 70.064H176.068ZM179.02 70.82C178.774 70.82 178.558 70.631 178.558 70.235V70.211C178.558 69.83 178.753 69.611 179.041 69.611C179.323 69.611 179.518 69.8 179.518 70.202V70.226C179.518 70.628 179.287 70.82 179.02 70.82ZM178.993 71.027C179.203 71.027 179.419 70.889 179.509 70.736V71H179.758V69.431H179.509V69.677C179.419 69.524 179.26 69.404 179.017 69.404C178.621 69.404 178.3 69.743 178.3 70.223V70.247C178.3 70.736 178.618 71.027 178.993 71.027ZM180.749 71.027C181.13 71.027 181.325 70.835 181.325 70.55C181.325 70.217 181.097 70.145 180.773 70.085C180.485 70.034 180.407 69.977 180.407 69.836C180.407 69.701 180.524 69.611 180.704 69.611C180.902 69.611 180.998 69.686 181.034 69.857H181.274C181.232 69.518 180.989 69.404 180.707 69.404C180.461 69.404 180.176 69.554 180.176 69.845C180.176 70.118 180.314 70.232 180.722 70.307C180.965 70.352 181.088 70.406 181.088 70.571C181.088 70.739 180.983 70.82 180.746 70.82C180.494 70.82 180.395 70.703 180.377 70.517H180.134C180.149 70.838 180.374 71.027 180.749 71.027ZM182.19 71.027C182.571 71.027 182.766 70.835 182.766 70.55C182.766 70.217 182.538 70.145 182.214 70.085C181.926 70.034 181.848 69.977 181.848 69.836C181.848 69.701 181.965 69.611 182.145 69.611C182.343 69.611 182.439 69.686 182.475 69.857H182.715C182.673 69.518 182.43 69.404 182.148 69.404C181.902 69.404 181.617 69.554 181.617 69.845C181.617 70.118 181.755 70.232 182.163 70.307C182.406 70.352 182.529 70.406 182.529 70.571C182.529 70.739 182.424 70.82 182.187 70.82C181.935 70.82 181.836 70.703 181.818 70.517H181.575C181.59 70.838 181.815 71.027 182.19 71.027ZM183.788 71.027C184.142 71.027 184.403 70.862 184.457 70.547H184.208C184.175 70.73 184.034 70.82 183.791 70.82C183.47 70.82 183.299 70.622 183.287 70.265H184.469V70.184C184.469 69.623 184.127 69.404 183.764 69.404C183.332 69.404 183.029 69.734 183.029 70.208V70.232C183.029 70.715 183.344 71.027 183.788 71.027ZM183.296 70.064C183.338 69.785 183.509 69.611 183.764 69.611C184.022 69.611 184.19 69.74 184.214 70.064H183.296ZM185.328 71.021C185.43 71.021 185.49 71.006 185.541 70.988V70.778C185.487 70.799 185.427 70.811 185.349 70.811C185.223 70.811 185.154 70.736 185.154 70.583V69.641H185.52V69.431H185.154V69.074H184.905V69.431H184.68V69.641H184.905V70.607C184.905 70.853 185.043 71.021 185.328 71.021ZM187.188 71.021C187.29 71.021 187.35 71.006 187.401 70.988V70.778C187.347 70.799 187.287 70.811 187.209 70.811C187.083 70.811 187.014 70.736 187.014 70.583V69.641H187.38V69.431H187.014V69.074H186.765V69.431H186.54V69.641H186.765V70.607C186.765 70.853 186.903 71.021 187.188 71.021ZM188.428 71.027C188.875 71.027 189.202 70.7 189.202 70.226V70.202C189.202 69.731 188.875 69.404 188.431 69.404C187.987 69.404 187.66 69.734 187.66 70.205V70.229C187.66 70.688 187.981 71.027 188.428 71.027ZM188.431 70.82C188.113 70.82 187.918 70.586 187.918 70.229V70.205C187.918 69.845 188.116 69.611 188.431 69.611C188.743 69.611 188.944 69.845 188.944 70.208V70.229C188.944 70.583 188.746 70.82 188.431 70.82ZM190.985 70.82C190.739 70.82 190.523 70.631 190.523 70.235V70.211C190.523 69.83 190.718 69.611 191.006 69.611C191.288 69.611 191.483 69.8 191.483 70.202V70.226C191.483 70.628 191.252 70.82 190.985 70.82ZM190.958 71.027C191.168 71.027 191.384 70.889 191.474 70.736V71H191.723V69.431H191.474V69.677C191.384 69.524 191.225 69.404 190.982 69.404C190.586 69.404 190.265 69.743 190.265 70.223V70.247C190.265 70.736 190.583 71.027 190.958 71.027ZM192.228 71H192.477V70.049C192.477 69.767 192.684 69.62 192.915 69.62C193.167 69.62 193.284 69.743 193.284 70.019V71H193.533V70.037C193.533 69.581 193.305 69.404 192.981 69.404C192.723 69.404 192.549 69.533 192.477 69.68V69.431H192.228V71ZM194.118 71.546H194.37L195.237 69.431H194.982L194.547 70.556L194.067 69.431H193.8L194.415 70.838L194.118 71.546ZM137.903 76.027C138.35 76.027 138.677 75.7 138.677 75.226V75.202C138.677 74.731 138.35 74.404 137.906 74.404C137.462 74.404 137.135 74.734 137.135 75.205V75.229C137.135 75.688 137.456 76.027 137.903 76.027ZM137.906 75.82C137.588 75.82 137.393 75.586 137.393 75.229V75.205C137.393 74.845 137.591 74.611 137.906 74.611C138.218 74.611 138.419 74.845 138.419 75.208V75.229C138.419 75.583 138.221 75.82 137.906 75.82ZM139.063 76H139.312V75.139C139.312 74.752 139.513 74.653 139.828 74.638V74.404C139.546 74.413 139.411 74.536 139.312 74.713V74.431H139.063V76ZM140.771 75.742C140.507 75.742 140.288 75.538 140.288 75.196V75.172C140.288 74.842 140.474 74.611 140.786 74.611C141.092 74.611 141.284 74.815 141.284 75.166V75.187C141.284 75.538 141.062 75.742 140.771 75.742ZM140.774 76.573C141.212 76.573 141.521 76.351 141.524 75.895V74.431H141.275V74.683C141.185 74.53 141.023 74.404 140.762 74.404C140.33 74.404 140.03 74.758 140.03 75.184V75.205C140.03 75.637 140.333 75.949 140.744 75.949C140.972 75.949 141.185 75.805 141.275 75.652V75.88C141.275 76.216 141.08 76.363 140.771 76.363C140.504 76.363 140.354 76.27 140.318 76.09H140.063C140.105 76.354 140.309 76.573 140.774 76.573ZM142.63 75.82C142.384 75.82 142.168 75.631 142.168 75.235V75.211C142.168 74.83 142.363 74.611 142.651 74.611C142.933 74.611 143.128 74.8 143.128 75.202V75.226C143.128 75.628 142.897 75.82 142.63 75.82ZM142.603 76.027C142.813 76.027 143.029 75.889 143.119 75.736V76H143.368V74.431H143.119V74.677C143.029 74.524 142.87 74.404 142.627 74.404C142.231 74.404 141.91 74.743 141.91 75.223V75.247C141.91 75.736 142.228 76.027 142.603 76.027ZM143.873 76H144.122V75.049C144.122 74.767 144.329 74.62 144.56 74.62C144.812 74.62 144.929 74.743 144.929 75.019V76H145.178V75.037C145.178 74.581 144.95 74.404 144.626 74.404C144.368 74.404 144.194 74.533 144.122 74.68V74.431H143.873V76ZM145.792 74.104C145.882 74.104 145.957 74.029 145.957 73.939C145.957 73.849 145.882 73.774 145.792 73.774C145.702 73.774 145.627 73.849 145.627 73.939C145.627 74.029 145.702 74.104 145.792 74.104ZM145.672 76H145.921V74.431H145.672V76ZM146.917 76.027C147.298 76.027 147.493 75.835 147.493 75.55C147.493 75.217 147.265 75.145 146.941 75.085C146.653 75.034 146.575 74.977 146.575 74.836C146.575 74.701 146.692 74.611 146.872 74.611C147.07 74.611 147.166 74.686 147.202 74.857H147.442C147.4 74.518 147.157 74.404 146.875 74.404C146.629 74.404 146.344 74.554 146.344 74.845C146.344 75.118 146.482 75.232 146.89 75.307C147.133 75.352 147.256 75.406 147.256 75.571C147.256 75.739 147.151 75.82 146.914 75.82C146.662 75.82 146.563 75.703 146.545 75.517H146.302C146.317 75.838 146.542 76.027 146.917 76.027ZM148.475 75.82C148.229 75.82 148.013 75.631 148.013 75.235V75.211C148.013 74.83 148.208 74.611 148.496 74.611C148.778 74.611 148.973 74.8 148.973 75.202V75.226C148.973 75.628 148.742 75.82 148.475 75.82ZM148.448 76.027C148.658 76.027 148.874 75.889 148.964 75.736V76H149.213V74.431H148.964V74.677C148.874 74.524 148.715 74.404 148.472 74.404C148.076 74.404 147.755 74.743 147.755 75.223V75.247C147.755 75.736 148.073 76.027 148.448 76.027ZM150.195 76.021C150.297 76.021 150.357 76.006 150.408 75.988V75.778C150.354 75.799 150.294 75.811 150.216 75.811C150.09 75.811 150.021 75.736 150.021 75.583V74.641H150.387V74.431H150.021V74.074H149.772V74.431H149.547V74.641H149.772V75.607C149.772 75.853 149.91 76.021 150.195 76.021ZM150.91 74.104C151 74.104 151.075 74.029 151.075 73.939C151.075 73.849 151 73.774 150.91 73.774C150.82 73.774 150.745 73.849 150.745 73.939C150.745 74.029 150.82 74.104 150.91 74.104ZM150.79 76H151.039V74.431H150.79V76ZM152.2 76.027C152.647 76.027 152.974 75.7 152.974 75.226V75.202C152.974 74.731 152.647 74.404 152.203 74.404C151.759 74.404 151.432 74.734 151.432 75.205V75.229C151.432 75.688 151.753 76.027 152.2 76.027ZM152.203 75.82C151.885 75.82 151.69 75.586 151.69 75.229V75.205C151.69 74.845 151.888 74.611 152.203 74.611C152.515 74.611 152.716 74.845 152.716 75.208V75.229C152.716 75.583 152.518 75.82 152.203 75.82ZM153.359 76H153.608V75.049C153.608 74.767 153.815 74.62 154.046 74.62C154.298 74.62 154.415 74.743 154.415 75.019V76H154.664V75.037C154.664 74.581 154.436 74.404 154.112 74.404C153.854 74.404 153.68 74.533 153.608 74.68V74.431H153.359V76ZM155.323 76.015C155.428 76.015 155.515 75.931 155.515 75.823C155.515 75.715 155.428 75.631 155.323 75.631C155.218 75.631 155.131 75.715 155.131 75.823C155.131 75.931 155.218 76.015 155.323 76.015ZM157.504 76.027C157.93 76.027 158.245 75.754 158.245 75.394C158.245 74.989 157.993 74.845 157.516 74.77C157.078 74.704 157 74.596 157 74.386C157 74.185 157.153 74.038 157.447 74.038C157.744 74.038 157.9 74.149 157.951 74.419H158.185C158.143 74.038 157.876 73.828 157.447 73.828C157.042 73.828 156.757 74.08 156.757 74.41C156.757 74.791 157.024 74.932 157.474 75.001C157.882 75.067 157.993 75.169 157.993 75.412C157.993 75.655 157.78 75.817 157.504 75.817C157.072 75.817 156.97 75.601 156.937 75.346H156.685C156.724 75.712 156.931 76.027 157.504 76.027ZM159.19 76.027C159.442 76.027 159.616 75.898 159.688 75.751V76H159.937V74.431H159.688V75.382C159.688 75.664 159.478 75.811 159.256 75.811C159.01 75.811 158.893 75.688 158.893 75.412V74.431H158.644V75.424C158.644 75.856 158.878 76.027 159.19 76.027ZM161.091 76.027C161.469 76.027 161.742 75.775 161.775 75.436H161.544C161.517 75.691 161.316 75.82 161.094 75.82C160.791 75.82 160.581 75.616 160.581 75.232V75.208C160.581 74.839 160.8 74.611 161.085 74.611C161.301 74.611 161.481 74.704 161.52 74.953H161.766C161.718 74.554 161.412 74.404 161.085 74.404C160.665 74.404 160.323 74.728 160.323 75.208V75.232C160.323 75.718 160.653 76.027 161.091 76.027ZM162.802 76.027C163.18 76.027 163.453 75.775 163.486 75.436H163.255C163.228 75.691 163.027 75.82 162.805 75.82C162.502 75.82 162.292 75.616 162.292 75.232V75.208C162.292 74.839 162.511 74.611 162.796 74.611C163.012 74.611 163.192 74.704 163.231 74.953H163.477C163.429 74.554 163.123 74.404 162.796 74.404C162.376 74.404 162.034 74.728 162.034 75.208V75.232C162.034 75.718 162.364 76.027 162.802 76.027ZM164.504 76.027C164.858 76.027 165.119 75.862 165.173 75.547H164.924C164.891 75.73 164.75 75.82 164.507 75.82C164.186 75.82 164.015 75.622 164.003 75.265H165.185V75.184C165.185 74.623 164.843 74.404 164.48 74.404C164.048 74.404 163.745 74.734 163.745 75.208V75.232C163.745 75.715 164.06 76.027 164.504 76.027ZM164.012 75.064C164.054 74.785 164.225 74.611 164.48 74.611C164.738 74.611 164.906 74.74 164.93 75.064H164.012ZM166.068 76.027C166.449 76.027 166.644 75.835 166.644 75.55C166.644 75.217 166.416 75.145 166.092 75.085C165.804 75.034 165.726 74.977 165.726 74.836C165.726 74.701 165.843 74.611 166.023 74.611C166.221 74.611 166.317 74.686 166.353 74.857H166.593C166.551 74.518 166.308 74.404 166.026 74.404C165.78 74.404 165.495 74.554 165.495 74.845C165.495 75.118 165.633 75.232 166.041 75.307C166.284 75.352 166.407 75.406 166.407 75.571C166.407 75.739 166.302 75.82 166.065 75.82C165.813 75.82 165.714 75.703 165.696 75.517H165.453C165.468 75.838 165.693 76.027 166.068 76.027ZM167.509 76.027C167.89 76.027 168.085 75.835 168.085 75.55C168.085 75.217 167.857 75.145 167.533 75.085C167.245 75.034 167.167 74.977 167.167 74.836C167.167 74.701 167.284 74.611 167.464 74.611C167.662 74.611 167.758 74.686 167.794 74.857H168.034C167.992 74.518 167.749 74.404 167.467 74.404C167.221 74.404 166.936 74.554 166.936 74.845C166.936 75.118 167.074 75.232 167.482 75.307C167.725 75.352 167.848 75.406 167.848 75.571C167.848 75.739 167.743 75.82 167.506 75.82C167.254 75.82 167.155 75.703 167.137 75.517H166.894C166.909 75.838 167.134 76.027 167.509 76.027ZM168.519 76H168.768V74.641H169.152V74.431H168.768V74.149C168.768 73.99 168.834 73.879 168.996 73.879C169.065 73.879 169.128 73.894 169.173 73.912V73.702C169.11 73.681 169.068 73.672 168.987 73.672C168.675 73.672 168.519 73.858 168.519 74.176V74.431H168.294V74.641H168.519V76ZM170.033 76.027C170.285 76.027 170.459 75.898 170.531 75.751V76H170.78V74.431H170.531V75.382C170.531 75.664 170.321 75.811 170.099 75.811C169.853 75.811 169.736 75.688 169.736 75.412V74.431H169.487V75.424C169.487 75.856 169.721 76.027 170.033 76.027ZM171.289 76H171.541V73.681H171.289V76ZM173.322 76.021C173.424 76.021 173.484 76.006 173.535 75.988V75.778C173.481 75.799 173.421 75.811 173.343 75.811C173.217 75.811 173.148 75.736 173.148 75.583V74.641H173.514V74.431H173.148V74.074H172.899V74.431H172.674V74.641H172.899V75.607C172.899 75.853 173.037 76.021 173.322 76.021ZM174.553 76.027C174.907 76.027 175.168 75.862 175.222 75.547H174.973C174.94 75.73 174.799 75.82 174.556 75.82C174.235 75.82 174.064 75.622 174.052 75.265H175.234V75.184C175.234 74.623 174.892 74.404 174.529 74.404C174.097 74.404 173.794 74.734 173.794 75.208V75.232C173.794 75.715 174.109 76.027 174.553 76.027ZM174.061 75.064C174.103 74.785 174.274 74.611 174.529 74.611C174.787 74.611 174.955 74.74 174.979 75.064H174.061ZM176.219 75.82C175.973 75.82 175.757 75.631 175.757 75.235V75.211C175.757 74.83 175.952 74.611 176.24 74.611C176.522 74.611 176.717 74.8 176.717 75.202V75.226C176.717 75.628 176.486 75.82 176.219 75.82ZM176.192 76.027C176.402 76.027 176.618 75.889 176.708 75.736V76H176.957V74.431H176.708V74.677C176.618 74.524 176.459 74.404 176.216 74.404C175.82 74.404 175.499 74.743 175.499 75.223V75.247C175.499 75.736 175.817 76.027 176.192 76.027ZM177.462 76H177.711V75.04C177.711 74.758 177.921 74.62 178.125 74.62C178.341 74.62 178.458 74.734 178.458 75.01V76H178.707V75.04C178.707 74.758 178.917 74.62 179.121 74.62C179.337 74.62 179.454 74.734 179.454 75.01V76H179.703V75.028C179.703 74.572 179.457 74.404 179.175 74.404C178.98 74.404 178.746 74.494 178.638 74.698C178.557 74.488 178.38 74.404 178.179 74.404C177.954 74.404 177.783 74.524 177.711 74.671V74.431H177.462V76ZM180.678 76.027C181.059 76.027 181.254 75.835 181.254 75.55C181.254 75.217 181.026 75.145 180.702 75.085C180.414 75.034 180.336 74.977 180.336 74.836C180.336 74.701 180.453 74.611 180.633 74.611C180.831 74.611 180.927 74.686 180.963 74.857H181.203C181.161 74.518 180.918 74.404 180.636 74.404C180.39 74.404 180.105 74.554 180.105 74.845C180.105 75.118 180.243 75.232 180.651 75.307C180.894 75.352 181.017 75.406 181.017 75.571C181.017 75.739 180.912 75.82 180.675 75.82C180.423 75.82 180.324 75.703 180.306 75.517H180.063C180.078 75.838 180.303 76.027 180.678 76.027ZM183.031 75.82C182.785 75.82 182.569 75.631 182.569 75.235V75.211C182.569 74.83 182.764 74.611 183.052 74.611C183.334 74.611 183.529 74.8 183.529 75.202V75.226C183.529 75.628 183.298 75.82 183.031 75.82ZM183.004 76.027C183.214 76.027 183.43 75.889 183.52 75.736V76H183.769V74.431H183.52V74.677C183.43 74.524 183.271 74.404 183.028 74.404C182.632 74.404 182.311 74.743 182.311 75.223V75.247C182.311 75.736 182.629 76.027 183.004 76.027ZM184.759 76.027C185.14 76.027 185.335 75.835 185.335 75.55C185.335 75.217 185.107 75.145 184.783 75.085C184.495 75.034 184.417 74.977 184.417 74.836C184.417 74.701 184.534 74.611 184.714 74.611C184.912 74.611 185.008 74.686 185.044 74.857H185.284C185.242 74.518 184.999 74.404 184.717 74.404C184.471 74.404 184.186 74.554 184.186 74.845C184.186 75.118 184.324 75.232 184.732 75.307C184.975 75.352 185.098 75.406 185.098 75.571C185.098 75.739 184.993 75.82 184.756 75.82C184.504 75.82 184.405 75.703 184.387 75.517H184.144C184.159 75.838 184.384 76.027 184.759 76.027ZM185.715 76H185.964V75.187L186.66 76H186.963L186.234 75.16L186.906 74.431H186.615L185.964 75.154V73.681H185.715V76ZM189.184 76.546H189.433V74.431H189.184V74.683C189.094 74.53 188.932 74.404 188.671 74.404C188.239 74.404 187.939 74.743 187.939 75.223V75.247C187.939 75.736 188.236 76.027 188.647 76.027C188.875 76.027 189.094 75.883 189.184 75.73V76.546ZM188.674 75.82C188.41 75.82 188.197 75.631 188.197 75.235V75.211C188.197 74.83 188.383 74.611 188.695 74.611C189.001 74.611 189.193 74.8 189.193 75.202V75.226C189.193 75.628 188.965 75.82 188.674 75.82ZM190.468 76.027C190.72 76.027 190.894 75.898 190.966 75.751V76H191.215V74.431H190.966V75.382C190.966 75.664 190.756 75.811 190.534 75.811C190.288 75.811 190.171 75.688 190.171 75.412V74.431H189.922V75.424C189.922 75.856 190.156 76.027 190.468 76.027ZM192.36 76.027C192.714 76.027 192.975 75.862 193.029 75.547H192.78C192.747 75.73 192.606 75.82 192.363 75.82C192.042 75.82 191.871 75.622 191.859 75.265H193.041V75.184C193.041 74.623 192.699 74.404 192.336 74.404C191.904 74.404 191.601 74.734 191.601 75.208V75.232C191.601 75.715 191.916 76.027 192.36 76.027ZM191.868 75.064C191.91 74.785 192.081 74.611 192.336 74.611C192.594 74.611 192.762 74.74 192.786 75.064H191.868ZM193.924 76.027C194.305 76.027 194.5 75.835 194.5 75.55C194.5 75.217 194.272 75.145 193.948 75.085C193.66 75.034 193.582 74.977 193.582 74.836C193.582 74.701 193.699 74.611 193.879 74.611C194.077 74.611 194.173 74.686 194.209 74.857H194.449C194.407 74.518 194.164 74.404 193.882 74.404C193.636 74.404 193.351 74.554 193.351 74.845C193.351 75.118 193.489 75.232 193.897 75.307C194.14 75.352 194.263 75.406 194.263 75.571C194.263 75.739 194.158 75.82 193.921 75.82C193.669 75.82 193.57 75.703 193.552 75.517H193.309C193.324 75.838 193.549 76.027 193.924 76.027ZM195.356 76.021C195.458 76.021 195.518 76.006 195.569 75.988V75.778C195.515 75.799 195.455 75.811 195.377 75.811C195.251 75.811 195.182 75.736 195.182 75.583V74.641H195.548V74.431H195.182V74.074H194.933V74.431H194.708V74.641H194.933V75.607C194.933 75.853 195.071 76.021 195.356 76.021ZM196.071 74.104C196.161 74.104 196.236 74.029 196.236 73.939C196.236 73.849 196.161 73.774 196.071 73.774C195.981 73.774 195.906 73.849 195.906 73.939C195.906 74.029 195.981 74.104 196.071 74.104ZM195.951 76H196.2V74.431H195.951V76ZM197.361 76.027C197.808 76.027 198.135 75.7 198.135 75.226V75.202C198.135 74.731 197.808 74.404 197.364 74.404C196.92 74.404 196.593 74.734 196.593 75.205V75.229C196.593 75.688 196.914 76.027 197.361 76.027ZM197.364 75.82C197.046 75.82 196.851 75.586 196.851 75.229V75.205C196.851 74.845 197.049 74.611 197.364 74.611C197.676 74.611 197.877 74.845 197.877 75.208V75.229C197.877 75.583 197.679 75.82 197.364 75.82ZM198.521 76H198.77V75.049C198.77 74.767 198.977 74.62 199.208 74.62C199.46 74.62 199.577 74.743 199.577 75.019V76H199.826V75.037C199.826 74.581 199.598 74.404 199.274 74.404C199.016 74.404 198.842 74.533 198.77 74.68V74.431H198.521V76ZM200.8 76.027C201.181 76.027 201.376 75.835 201.376 75.55C201.376 75.217 201.148 75.145 200.824 75.085C200.536 75.034 200.458 74.977 200.458 74.836C200.458 74.701 200.575 74.611 200.755 74.611C200.953 74.611 201.049 74.686 201.085 74.857H201.325C201.283 74.518 201.04 74.404 200.758 74.404C200.512 74.404 200.227 74.554 200.227 74.845C200.227 75.118 200.365 75.232 200.773 75.307C201.016 75.352 201.139 75.406 201.139 75.571C201.139 75.739 201.034 75.82 200.797 75.82C200.545 75.82 200.446 75.703 200.428 75.517H200.185C200.2 75.838 200.425 76.027 200.8 76.027ZM201.773 76.369L202.142 75.742L201.899 75.628L201.611 76.285L201.773 76.369ZM137.894 81.027C138.248 81.027 138.509 80.862 138.563 80.547H138.314C138.281 80.73 138.14 80.82 137.897 80.82C137.576 80.82 137.405 80.622 137.393 80.265H138.575V80.184C138.575 79.623 138.233 79.404 137.87 79.404C137.438 79.404 137.135 79.734 137.135 80.208V80.232C137.135 80.715 137.45 81.027 137.894 81.027ZM137.402 80.064C137.444 79.785 137.615 79.611 137.87 79.611C138.128 79.611 138.296 79.74 138.32 80.064H137.402ZM139.335 81H139.653L140.217 79.431H139.959L139.5 80.748L139.035 79.431H138.765L139.335 81ZM141.119 80.82C140.873 80.82 140.657 80.631 140.657 80.235V80.211C140.657 79.83 140.852 79.611 141.14 79.611C141.422 79.611 141.617 79.8 141.617 80.202V80.226C141.617 80.628 141.386 80.82 141.119 80.82ZM141.092 81.027C141.302 81.027 141.518 80.889 141.608 80.736V81H141.857V79.431H141.608V79.677C141.518 79.524 141.359 79.404 141.116 79.404C140.72 79.404 140.399 79.743 140.399 80.223V80.247C140.399 80.736 140.717 81.027 141.092 81.027ZM142.367 81H142.619V78.681H142.367V81ZM143.66 81.027C143.912 81.027 144.086 80.898 144.158 80.751V81H144.407V79.431H144.158V80.382C144.158 80.664 143.948 80.811 143.726 80.811C143.48 80.811 143.363 80.688 143.363 80.412V79.431H143.114V80.424C143.114 80.856 143.348 81.027 143.66 81.027ZM145.513 80.82C145.267 80.82 145.051 80.631 145.051 80.235V80.211C145.051 79.83 145.246 79.611 145.534 79.611C145.816 79.611 146.011 79.8 146.011 80.202V80.226C146.011 80.628 145.78 80.82 145.513 80.82ZM145.486 81.027C145.696 81.027 145.912 80.889 146.002 80.736V81H146.251V79.431H146.002V79.677C145.912 79.524 145.753 79.404 145.51 79.404C145.114 79.404 144.793 79.743 144.793 80.223V80.247C144.793 80.736 145.111 81.027 145.486 81.027ZM147.233 81.021C147.335 81.021 147.395 81.006 147.446 80.988V80.778C147.392 80.799 147.332 80.811 147.254 80.811C147.128 80.811 147.059 80.736 147.059 80.583V79.641H147.425V79.431H147.059V79.074H146.81V79.431H146.585V79.641H146.81V80.607C146.81 80.853 146.948 81.021 147.233 81.021ZM148.464 81.027C148.818 81.027 149.079 80.862 149.133 80.547H148.884C148.851 80.73 148.71 80.82 148.467 80.82C148.146 80.82 147.975 80.622 147.963 80.265H149.145V80.184C149.145 79.623 148.803 79.404 148.44 79.404C148.008 79.404 147.705 79.734 147.705 80.208V80.232C147.705 80.715 148.02 81.027 148.464 81.027ZM147.972 80.064C148.014 79.785 148.185 79.611 148.44 79.611C148.698 79.611 148.866 79.74 148.89 80.064H147.972ZM150.321 81H150.57V80.139C150.57 79.752 150.771 79.653 151.086 79.638V79.404C150.804 79.413 150.669 79.536 150.57 79.713V79.431H150.321V81ZM152.047 81.027C152.401 81.027 152.662 80.862 152.716 80.547H152.467C152.434 80.73 152.293 80.82 152.05 80.82C151.729 80.82 151.558 80.622 151.546 80.265H152.728V80.184C152.728 79.623 152.386 79.404 152.023 79.404C151.591 79.404 151.288 79.734 151.288 80.208V80.232C151.288 80.715 151.603 81.027 152.047 81.027ZM151.555 80.064C151.597 79.785 151.768 79.611 152.023 79.611C152.281 79.611 152.449 79.74 152.473 80.064H151.555ZM153.713 80.82C153.467 80.82 153.251 80.631 153.251 80.235V80.211C153.251 79.83 153.446 79.611 153.734 79.611C154.016 79.611 154.211 79.8 154.211 80.202V80.226C154.211 80.628 153.98 80.82 153.713 80.82ZM153.686 81.027C153.896 81.027 154.112 80.889 154.202 80.736V81H154.451V79.431H154.202V79.677C154.112 79.524 153.953 79.404 153.71 79.404C153.314 79.404 152.993 79.743 152.993 80.223V80.247C152.993 80.736 153.311 81.027 153.686 81.027ZM154.962 81H155.214V78.681H154.962V81ZM155.85 79.104C155.94 79.104 156.015 79.029 156.015 78.939C156.015 78.849 155.94 78.774 155.85 78.774C155.76 78.774 155.685 78.849 155.685 78.939C155.685 79.029 155.76 79.104 155.85 79.104ZM155.73 81H155.979V79.431H155.73V81ZM156.965 81.021C157.067 81.021 157.127 81.006 157.178 80.988V80.778C157.124 80.799 157.064 80.811 156.986 80.811C156.86 80.811 156.791 80.736 156.791 80.583V79.641H157.157V79.431H156.791V79.074H156.542V79.431H156.317V79.641H156.542V80.607C156.542 80.853 156.68 81.021 156.965 81.021ZM157.696 81.546H157.948L158.815 79.431H158.56L158.125 80.556L157.645 79.431H157.378L157.993 80.838L157.696 81.546ZM158.95 81.369L159.319 80.742L159.076 80.628L158.788 81.285L158.95 81.369ZM161.175 80.82C160.929 80.82 160.713 80.631 160.713 80.235V80.211C160.713 79.83 160.908 79.611 161.196 79.611C161.478 79.611 161.673 79.8 161.673 80.202V80.226C161.673 80.628 161.442 80.82 161.175 80.82ZM161.148 81.027C161.358 81.027 161.574 80.889 161.664 80.736V81H161.913V79.431H161.664V79.677C161.574 79.524 161.415 79.404 161.172 79.404C160.776 79.404 160.455 79.743 160.455 80.223V80.247C160.455 80.736 160.773 81.027 161.148 81.027ZM162.418 81H162.667V80.049C162.667 79.767 162.874 79.62 163.105 79.62C163.357 79.62 163.474 79.743 163.474 80.019V81H163.723V80.037C163.723 79.581 163.495 79.404 163.171 79.404C162.913 79.404 162.739 79.533 162.667 79.68V79.431H162.418V81ZM164.829 80.82C164.565 80.82 164.352 80.631 164.352 80.235V80.211C164.352 79.83 164.538 79.611 164.85 79.611C165.156 79.611 165.348 79.8 165.348 80.202V80.226C165.348 80.628 165.12 80.82 164.829 80.82ZM164.802 81.027C165.03 81.027 165.249 80.883 165.339 80.73V81H165.588V78.681H165.339V79.683C165.249 79.53 165.087 79.404 164.826 79.404C164.394 79.404 164.094 79.743 164.094 80.223V80.247C164.094 80.736 164.391 81.027 164.802 81.027ZM166.886 81H167.135V80.049C167.135 79.767 167.342 79.62 167.573 79.62C167.825 79.62 167.942 79.743 167.942 80.019V81H168.191V80.037C168.191 79.581 167.963 79.404 167.639 79.404C167.381 79.404 167.207 79.533 167.135 79.68V79.431H166.886V81ZM169.282 80.82C169.036 80.82 168.82 80.631 168.82 80.235V80.211C168.82 79.83 169.015 79.611 169.303 79.611C169.585 79.611 169.78 79.8 169.78 80.202V80.226C169.78 80.628 169.549 80.82 169.282 80.82ZM169.255 81.027C169.465 81.027 169.681 80.889 169.771 80.736V81H170.02V79.431H169.771V79.677C169.681 79.524 169.522 79.404 169.279 79.404C168.883 79.404 168.562 79.743 168.562 80.223V80.247C168.562 80.736 168.88 81.027 169.255 81.027ZM170.917 81H171.235L171.799 79.431H171.541L171.082 80.748L170.617 79.431H170.347L170.917 81ZM172.253 79.104C172.343 79.104 172.418 79.029 172.418 78.939C172.418 78.849 172.343 78.774 172.253 78.774C172.163 78.774 172.088 78.849 172.088 78.939C172.088 79.029 172.163 79.104 172.253 79.104ZM172.133 81H172.382V79.431H172.133V81ZM173.516 80.742C173.252 80.742 173.033 80.538 173.033 80.196V80.172C173.033 79.842 173.219 79.611 173.531 79.611C173.837 79.611 174.029 79.815 174.029 80.166V80.187C174.029 80.538 173.807 80.742 173.516 80.742ZM173.519 81.573C173.957 81.573 174.266 81.351 174.269 80.895V79.431H174.02V79.683C173.93 79.53 173.768 79.404 173.507 79.404C173.075 79.404 172.775 79.758 172.775 80.184V80.205C172.775 80.637 173.078 80.949 173.489 80.949C173.717 80.949 173.93 80.805 174.02 80.652V80.88C174.02 81.216 173.825 81.363 173.516 81.363C173.249 81.363 173.099 81.27 173.063 81.09H172.808C172.85 81.354 173.054 81.573 173.519 81.573ZM175.376 80.82C175.13 80.82 174.914 80.631 174.914 80.235V80.211C174.914 79.83 175.109 79.611 175.397 79.611C175.679 79.611 175.874 79.8 175.874 80.202V80.226C175.874 80.628 175.643 80.82 175.376 80.82ZM175.349 81.027C175.559 81.027 175.775 80.889 175.865 80.736V81H176.114V79.431H175.865V79.677C175.775 79.524 175.616 79.404 175.373 79.404C174.977 79.404 174.656 79.743 174.656 80.223V80.247C174.656 80.736 174.974 81.027 175.349 81.027ZM177.095 81.021C177.197 81.021 177.257 81.006 177.308 80.988V80.778C177.254 80.799 177.194 80.811 177.116 80.811C176.99 80.811 176.921 80.736 176.921 80.583V79.641H177.287V79.431H176.921V79.074H176.672V79.431H176.447V79.641H176.672V80.607C176.672 80.853 176.81 81.021 177.095 81.021ZM178.327 81.027C178.681 81.027 178.942 80.862 178.996 80.547H178.747C178.714 80.73 178.573 80.82 178.33 80.82C178.009 80.82 177.838 80.622 177.826 80.265H179.008V80.184C179.008 79.623 178.666 79.404 178.303 79.404C177.871 79.404 177.568 79.734 177.568 80.208V80.232C177.568 80.715 177.883 81.027 178.327 81.027ZM177.835 80.064C177.877 79.785 178.048 79.611 178.303 79.611C178.561 79.611 178.729 79.74 178.753 80.064H177.835ZM180.661 81.021C180.763 81.021 180.823 81.006 180.874 80.988V80.778C180.82 80.799 180.76 80.811 180.682 80.811C180.556 80.811 180.487 80.736 180.487 80.583V79.641H180.853V79.431H180.487V79.074H180.238V79.431H180.013V79.641H180.238V80.607C180.238 80.853 180.376 81.021 180.661 81.021ZM181.901 81.027C182.348 81.027 182.675 80.7 182.675 80.226V80.202C182.675 79.731 182.348 79.404 181.904 79.404C181.46 79.404 181.133 79.734 181.133 80.205V80.229C181.133 80.688 181.454 81.027 181.901 81.027ZM181.904 80.82C181.586 80.82 181.391 80.586 181.391 80.229V80.205C181.391 79.845 181.589 79.611 181.904 79.611C182.216 79.611 182.417 79.845 182.417 80.208V80.229C182.417 80.583 182.219 80.82 181.904 80.82ZM183.346 81H183.619L183.985 79.824L184.312 81H184.588L185.077 79.431H184.822L184.453 80.694L184.096 79.431H183.88L183.499 80.694L183.133 79.431H182.863L183.346 81ZM185.987 80.82C185.741 80.82 185.525 80.631 185.525 80.235V80.211C185.525 79.83 185.72 79.611 186.008 79.611C186.29 79.611 186.485 79.8 186.485 80.202V80.226C186.485 80.628 186.254 80.82 185.987 80.82ZM185.96 81.027C186.17 81.027 186.386 80.889 186.476 80.736V81H186.725V79.431H186.476V79.677C186.386 79.524 186.227 79.404 185.984 79.404C185.588 79.404 185.267 79.743 185.267 80.223V80.247C185.267 80.736 185.585 81.027 185.96 81.027ZM187.23 81H187.479V80.139C187.479 79.752 187.68 79.653 187.995 79.638V79.404C187.713 79.413 187.578 79.536 187.479 79.713V79.431H187.23V81ZM188.932 80.82C188.668 80.82 188.455 80.631 188.455 80.235V80.211C188.455 79.83 188.641 79.611 188.953 79.611C189.259 79.611 189.451 79.8 189.451 80.202V80.226C189.451 80.628 189.223 80.82 188.932 80.82ZM188.905 81.027C189.133 81.027 189.352 80.883 189.442 80.73V81H189.691V78.681H189.442V79.683C189.352 79.53 189.19 79.404 188.929 79.404C188.497 79.404 188.197 79.743 188.197 80.223V80.247C188.197 80.736 188.494 81.027 188.905 81.027ZM191.474 81.027C191.855 81.027 192.05 80.835 192.05 80.55C192.05 80.217 191.822 80.145 191.498 80.085C191.21 80.034 191.132 79.977 191.132 79.836C191.132 79.701 191.249 79.611 191.429 79.611C191.627 79.611 191.723 79.686 191.759 79.857H191.999C191.957 79.518 191.714 79.404 191.432 79.404C191.186 79.404 190.901 79.554 190.901 79.845C190.901 80.118 191.039 80.232 191.447 80.307C191.69 80.352 191.813 80.406 191.813 80.571C191.813 80.739 191.708 80.82 191.471 80.82C191.219 80.82 191.12 80.703 191.102 80.517H190.859C190.874 80.838 191.099 81.027 191.474 81.027ZM193.186 80.82C192.88 80.82 192.67 80.631 192.67 80.229V80.205C192.67 79.803 192.892 79.611 193.183 79.611C193.447 79.611 193.666 79.809 193.666 80.205V80.229C193.666 80.61 193.498 80.82 193.186 80.82ZM192.43 81.546H192.679V80.742C192.769 80.898 192.952 81.027 193.21 81.027C193.642 81.027 193.924 80.697 193.924 80.217V80.193C193.924 79.704 193.621 79.404 193.21 79.404C192.982 79.404 192.769 79.542 192.679 79.695V79.431H192.43V81.546ZM194.953 81.027C195.307 81.027 195.568 80.862 195.622 80.547H195.373C195.34 80.73 195.199 80.82 194.956 80.82C194.635 80.82 194.464 80.622 194.452 80.265H195.634V80.184C195.634 79.623 195.292 79.404 194.929 79.404C194.497 79.404 194.194 79.734 194.194 80.208V80.232C194.194 80.715 194.509 81.027 194.953 81.027ZM194.461 80.064C194.503 79.785 194.674 79.611 194.929 79.611C195.187 79.611 195.355 79.74 195.379 80.064H194.461ZM196.667 81.027C197.045 81.027 197.318 80.775 197.351 80.436H197.12C197.093 80.691 196.892 80.82 196.67 80.82C196.367 80.82 196.157 80.616 196.157 80.232V80.208C196.157 79.839 196.376 79.611 196.661 79.611C196.877 79.611 197.057 79.704 197.096 79.953H197.342C197.294 79.554 196.988 79.404 196.661 79.404C196.241 79.404 195.899 79.728 195.899 80.208V80.232C195.899 80.718 196.229 81.027 196.667 81.027ZM197.853 79.104C197.943 79.104 198.018 79.029 198.018 78.939C198.018 78.849 197.943 78.774 197.853 78.774C197.763 78.774 197.688 78.849 197.688 78.939C197.688 79.029 197.763 79.104 197.853 79.104ZM197.733 81H197.982V79.431H197.733V81ZM198.545 81H198.794V79.641H199.178V79.431H198.794V79.149C198.794 78.99 198.857 78.879 199.016 78.879C199.085 78.879 199.133 78.888 199.178 78.906V78.696C199.13 78.678 199.088 78.672 199.007 78.672C198.698 78.672 198.545 78.858 198.545 79.176V79.431H198.32V79.641H198.545V81ZM199.61 79.104C199.7 79.104 199.775 79.029 199.775 78.939C199.775 78.849 199.7 78.774 199.61 78.774C199.52 78.774 199.445 78.849 199.445 78.939C199.445 79.029 199.52 79.104 199.61 79.104ZM199.49 81H199.739V79.431H199.49V81ZM200.9 81.027C201.278 81.027 201.551 80.775 201.584 80.436H201.353C201.326 80.691 201.125 80.82 200.903 80.82C200.6 80.82 200.39 80.616 200.39 80.232V80.208C200.39 79.839 200.609 79.611 200.894 79.611C201.11 79.611 201.29 79.704 201.329 79.953H201.575C201.527 79.554 201.221 79.404 200.894 79.404C200.474 79.404 200.132 79.728 200.132 80.208V80.232C200.132 80.718 200.462 81.027 200.9 81.027ZM137.738 86.027C138.119 86.027 138.314 85.835 138.314 85.55C138.314 85.217 138.086 85.145 137.762 85.085C137.474 85.034 137.396 84.977 137.396 84.836C137.396 84.701 137.513 84.611 137.693 84.611C137.891 84.611 137.987 84.686 138.023 84.857H138.263C138.221 84.518 137.978 84.404 137.696 84.404C137.45 84.404 137.165 84.554 137.165 84.845C137.165 85.118 137.303 85.232 137.711 85.307C137.954 85.352 138.077 85.406 138.077 85.571C138.077 85.739 137.972 85.82 137.735 85.82C137.483 85.82 137.384 85.703 137.366 85.517H137.123C137.138 85.838 137.363 86.027 137.738 86.027ZM139.344 86.027C139.791 86.027 140.118 85.7 140.118 85.226V85.202C140.118 84.731 139.791 84.404 139.347 84.404C138.903 84.404 138.576 84.734 138.576 85.205V85.229C138.576 85.688 138.897 86.027 139.344 86.027ZM139.347 85.82C139.029 85.82 138.834 85.586 138.834 85.229V85.205C138.834 84.845 139.032 84.611 139.347 84.611C139.659 84.611 139.86 84.845 139.86 85.208V85.229C139.86 85.583 139.662 85.82 139.347 85.82ZM140.51 86H140.762V83.681H140.51V86ZM141.803 86.027C142.055 86.027 142.229 85.898 142.301 85.751V86H142.55V84.431H142.301V85.382C142.301 85.664 142.091 85.811 141.869 85.811C141.623 85.811 141.506 85.688 141.506 85.412V84.431H141.257V85.424C141.257 85.856 141.491 86.027 141.803 86.027ZM143.53 86.021C143.632 86.021 143.692 86.006 143.743 85.988V85.778C143.689 85.799 143.629 85.811 143.551 85.811C143.425 85.811 143.356 85.736 143.356 85.583V84.641H143.722V84.431H143.356V84.074H143.107V84.431H142.882V84.641H143.107V85.607C143.107 85.853 143.245 86.021 143.53 86.021ZM144.245 84.104C144.335 84.104 144.41 84.029 144.41 83.939C144.41 83.849 144.335 83.774 144.245 83.774C144.155 83.774 144.08 83.849 144.08 83.939C144.08 84.029 144.155 84.104 144.245 84.104ZM144.125 86H144.374V84.431H144.125V86ZM145.535 86.027C145.982 86.027 146.309 85.7 146.309 85.226V85.202C146.309 84.731 145.982 84.404 145.538 84.404C145.094 84.404 144.767 84.734 144.767 85.205V85.229C144.767 85.688 145.088 86.027 145.535 86.027ZM145.538 85.82C145.22 85.82 145.025 85.586 145.025 85.229V85.205C145.025 84.845 145.223 84.611 145.538 84.611C145.85 84.611 146.051 84.845 146.051 85.208V85.229C146.051 85.583 145.853 85.82 145.538 85.82ZM146.694 86H146.943V85.049C146.943 84.767 147.15 84.62 147.381 84.62C147.633 84.62 147.75 84.743 147.75 85.019V86H147.999V85.037C147.999 84.581 147.771 84.404 147.447 84.404C147.189 84.404 147.015 84.533 146.943 84.68V84.431H146.694V86ZM148.973 86.027C149.354 86.027 149.549 85.835 149.549 85.55C149.549 85.217 149.321 85.145 148.997 85.085C148.709 85.034 148.631 84.977 148.631 84.836C148.631 84.701 148.748 84.611 148.928 84.611C149.126 84.611 149.222 84.686 149.258 84.857H149.498C149.456 84.518 149.213 84.404 148.931 84.404C148.685 84.404 148.4 84.554 148.4 84.845C148.4 85.118 148.538 85.232 148.946 85.307C149.189 85.352 149.312 85.406 149.312 85.571C149.312 85.739 149.207 85.82 148.97 85.82C148.718 85.82 148.619 85.703 148.601 85.517H148.358C148.373 85.838 148.598 86.027 148.973 86.027ZM150.1 86.015C150.205 86.015 150.292 85.931 150.292 85.823C150.292 85.715 150.205 85.631 150.1 85.631C149.995 85.631 149.908 85.715 149.908 85.823C149.908 85.931 149.995 86.015 150.1 86.015Z" fill="white"/>
<g opacity="0.3">
<path fill-rule="evenodd" clip-rule="evenodd" d="M76 92C87.598 92 97 82.8218 97 71.5C97 60.1782 87.598 51 76 51C64.402 51 55 60.1782 55 71.5C55 82.8218 64.402 92 76 92Z" stroke="white"/>
<path d="M59.8466 71.5C59.8466 80.2091 67.0789 87.2692 76.0005 87.2692C84.922 87.2692 92.1543 80.2091 92.1543 71.5" stroke="white" stroke-linecap="round" stroke-linejoin="round"/>
<path fill-rule="evenodd" clip-rule="evenodd" d="M76.0003 57.5332L82.2311 66.9947L76.0003 76.4563L69.7695 66.9947L76.0003 57.5332Z" fill="white"/>
</g>
</svg>
