<svg width="253" height="144" viewBox="0 0 253 144" fill="none" xmlns="http://www.w3.org/2000/svg">
<rect width="253" height="144" rx="8" fill="#121212"/>
<rect width="253" height="144" rx="8" fill="white" fill-opacity="0.14"/>
<path opacity="0.6" d="M87.442 54.066C88.78 54.066 89.656 53.136 89.656 51.858V51.81C89.656 50.52 88.738 49.65 87.448 49.65C86.176 49.65 85.24 50.556 85.24 51.834V51.882C85.24 53.136 86.098 54.066 87.442 54.066ZM87.46 53.292C86.758 53.292 86.254 52.752 86.254 51.876V51.828C86.254 50.964 86.704 50.418 87.448 50.418C88.198 50.418 88.642 50.988 88.642 51.822V51.87C88.642 52.734 88.186 53.292 87.46 53.292ZM91.8964 53.388C91.4224 53.388 91.1224 53.082 91.1224 52.452V52.404C91.1224 51.774 91.4344 51.456 91.8904 51.456C92.3284 51.456 92.6404 51.768 92.6404 52.404V52.452C92.6404 53.064 92.3764 53.388 91.8964 53.388ZM90.2824 55.068H91.1524V53.52C91.3144 53.826 91.6684 54.066 92.1544 54.066C92.9344 54.066 93.5224 53.484 93.5224 52.446V52.398C93.5224 51.36 92.9224 50.79 92.1544 50.79C91.6924 50.79 91.3264 51.054 91.1524 51.354V50.862H90.2824V55.068ZM95.5488 54.066C96.4068 54.066 96.9468 53.688 97.0488 53.01H96.2268C96.1728 53.274 95.9748 53.448 95.5728 53.448C95.0988 53.448 94.8168 53.148 94.7928 52.626H97.0548V52.386C97.0548 51.264 96.3348 50.79 95.5248 50.79C94.6128 50.79 93.9108 51.432 93.9108 52.422V52.47C93.9108 53.472 94.6007 54.066 95.5488 54.066ZM94.8048 52.092C94.8708 51.648 95.1348 51.39 95.5248 51.39C95.9388 51.39 96.1788 51.618 96.2088 52.092H94.8048ZM97.6242 54H98.4942V52.188C98.4942 51.726 98.7762 51.498 99.1482 51.498C99.5322 51.498 99.7002 51.702 99.7002 52.128V54H100.57V52.002C100.57 51.162 100.132 50.79 99.5142 50.79C98.9922 50.79 98.6502 51.048 98.4942 51.36V50.862H97.6242V54ZM103.042 55.068H103.882L105.58 50.862H104.746L104.044 52.746L103.282 50.862H102.346L103.594 53.682L103.042 55.068ZM107.356 54.066C108.298 54.066 109.012 53.436 109.012 52.446V52.398C109.012 51.42 108.304 50.79 107.362 50.79C106.42 50.79 105.706 51.432 105.706 52.416V52.464C105.706 53.442 106.42 54.066 107.356 54.066ZM107.362 53.406C106.87 53.406 106.594 53.046 106.594 52.446V52.398C106.594 51.798 106.882 51.45 107.362 51.45C107.848 51.45 108.13 51.81 108.13 52.41V52.452C108.13 53.046 107.848 53.406 107.362 53.406ZM110.639 54.066C111.155 54.066 111.473 53.826 111.635 53.508V54H112.499V50.862H111.635V52.704C111.635 53.166 111.347 53.394 110.981 53.394C110.609 53.394 110.435 53.19 110.435 52.764V50.862H109.571V52.884C109.571 53.706 110.027 54.066 110.639 54.066ZM113.269 54H114.139V52.428C114.139 51.828 114.511 51.618 115.153 51.624V50.814C114.643 50.82 114.337 51.042 114.139 51.462V50.862H113.269V54ZM117.054 54H117.924V52.146C117.924 51.72 118.194 51.504 118.53 51.504C118.836 51.504 119.022 51.684 119.022 52.086V54H119.886V52.146C119.886 51.72 120.156 51.504 120.492 51.504C120.804 51.504 120.984 51.684 120.984 52.086V54H121.848V51.99C121.848 51.156 121.398 50.79 120.816 50.79C120.42 50.79 120.012 50.958 119.76 51.336C119.61 50.964 119.298 50.79 118.884 50.79C118.416 50.79 118.08 51.048 117.924 51.342V50.862H117.054V54ZM123.041 50.436C123.323 50.436 123.539 50.232 123.539 49.962C123.539 49.692 123.323 49.488 123.041 49.488C122.765 49.488 122.549 49.692 122.549 49.962C122.549 50.232 122.765 50.436 123.041 50.436ZM122.615 54H123.479V50.862H122.615V54ZM124.279 54H125.149V52.188C125.149 51.726 125.431 51.498 125.803 51.498C126.187 51.498 126.355 51.702 126.355 52.128V54H127.225V52.002C127.225 51.162 126.787 50.79 126.169 50.79C125.647 50.79 125.305 51.048 125.149 51.36V50.862H124.279V54ZM129.404 53.388C128.972 53.388 128.672 53.082 128.672 52.458V52.41C128.672 51.786 128.942 51.456 129.428 51.456C129.902 51.456 130.178 51.774 130.178 52.398V52.446C130.178 53.082 129.86 53.388 129.404 53.388ZM129.146 54.066C129.608 54.066 129.992 53.796 130.154 53.478V54H131.018V49.44H130.154V51.33C129.98 51.012 129.668 50.79 129.164 50.79C128.378 50.79 127.784 51.396 127.784 52.428V52.476C127.784 53.52 128.384 54.066 129.146 54.066ZM134.266 54.06C134.5 54.06 134.674 54.018 134.794 53.976V53.304C134.692 53.346 134.596 53.364 134.464 53.364C134.242 53.364 134.116 53.244 134.116 52.992V51.48H134.776V50.862H134.116V50.184H133.252V50.862H132.85V51.48H133.252V53.07C133.252 53.724 133.606 54.06 134.266 54.06ZM136.84 54.066C137.782 54.066 138.496 53.436 138.496 52.446V52.398C138.496 51.42 137.788 50.79 136.846 50.79C135.904 50.79 135.19 51.432 135.19 52.416V52.464C135.19 53.442 135.904 54.066 136.84 54.066ZM136.846 53.406C136.354 53.406 136.078 53.046 136.078 52.446V52.398C136.078 51.798 136.366 51.45 136.846 51.45C137.332 51.45 137.614 51.81 137.614 52.41V52.452C137.614 53.046 137.332 53.406 136.846 53.406ZM140.409 54H141.279V52.188C141.279 51.726 141.561 51.498 141.933 51.498C142.317 51.498 142.485 51.702 142.485 52.128V54H143.355V52.002C143.355 51.162 142.917 50.79 142.299 50.79C141.777 50.79 141.435 51.048 141.279 51.36V50.862H140.409V54ZM145.547 54.066C146.405 54.066 146.945 53.688 147.047 53.01H146.225C146.171 53.274 145.973 53.448 145.571 53.448C145.097 53.448 144.815 53.148 144.791 52.626H147.053V52.386C147.053 51.264 146.333 50.79 145.523 50.79C144.611 50.79 143.909 51.432 143.909 52.422V52.47C143.909 53.472 144.599 54.066 145.547 54.066ZM144.803 52.092C144.869 51.648 145.133 51.39 145.523 51.39C145.937 51.39 146.177 51.618 146.207 52.092H144.803ZM148.23 54H149.094L149.67 52.032L150.204 54H151.056L152.046 50.862H151.212L150.618 52.974L150.066 50.862H149.352L148.746 52.974L148.188 50.862H147.276L148.23 54ZM86.83 62.066C87.688 62.066 88.228 61.688 88.33 61.01H87.508C87.454 61.274 87.256 61.448 86.854 61.448C86.38 61.448 86.098 61.148 86.074 60.626H88.336V60.386C88.336 59.264 87.616 58.79 86.806 58.79C85.894 58.79 85.192 59.432 85.192 60.422V60.47C85.192 61.472 85.882 62.066 86.83 62.066ZM86.086 60.092C86.152 59.648 86.416 59.39 86.806 59.39C87.22 59.39 87.46 59.618 87.49 60.092H86.086ZM88.4711 62H89.3651L90.0431 60.944L90.7031 62H91.7051L90.6011 60.332L91.6031 58.862H90.7031L90.1271 59.804L89.5391 58.862H88.5431L89.5451 60.398L88.4711 62ZM93.8125 61.388C93.3385 61.388 93.0385 61.082 93.0385 60.452V60.404C93.0385 59.774 93.3505 59.456 93.8065 59.456C94.2445 59.456 94.5565 59.768 94.5565 60.404V60.452C94.5565 61.064 94.2925 61.388 93.8125 61.388ZM92.1985 63.068H93.0685V61.52C93.2305 61.826 93.5845 62.066 94.0705 62.066C94.8505 62.066 95.4385 61.484 95.4385 60.446V60.398C95.4385 59.36 94.8385 58.79 94.0705 58.79C93.6085 58.79 93.2425 59.054 93.0685 59.354V58.862H92.1985V63.068ZM97.4648 62.066C98.3228 62.066 98.8628 61.688 98.9648 61.01H98.1428C98.0888 61.274 97.8908 61.448 97.4888 61.448C97.0148 61.448 96.7328 61.148 96.7088 60.626H98.9708V60.386C98.9708 59.264 98.2508 58.79 97.4408 58.79C96.5288 58.79 95.8268 59.432 95.8268 60.422V60.47C95.8268 61.472 96.5168 62.066 97.4648 62.066ZM96.7208 60.092C96.7868 59.648 97.0508 59.39 97.4408 59.39C97.8548 59.39 98.0948 59.618 98.1248 60.092H96.7208ZM99.5403 62H100.41V60.428C100.41 59.828 100.782 59.618 101.424 59.624V58.814C100.914 58.82 100.608 59.042 100.41 59.462V58.862H99.5403V62ZM102.445 58.436C102.727 58.436 102.943 58.232 102.943 57.962C102.943 57.692 102.727 57.488 102.445 57.488C102.169 57.488 101.953 57.692 101.953 57.962C101.953 58.232 102.169 58.436 102.445 58.436ZM102.019 62H102.883V58.862H102.019V62ZM105.129 62.066C105.987 62.066 106.527 61.688 106.629 61.01H105.807C105.753 61.274 105.555 61.448 105.153 61.448C104.679 61.448 104.397 61.148 104.373 60.626H106.635V60.386C106.635 59.264 105.915 58.79 105.105 58.79C104.193 58.79 103.491 59.432 103.491 60.422V60.47C103.491 61.472 104.181 62.066 105.129 62.066ZM104.385 60.092C104.451 59.648 104.715 59.39 105.105 59.39C105.519 59.39 105.759 59.618 105.789 60.092H104.385ZM107.204 62H108.074V60.188C108.074 59.726 108.356 59.498 108.728 59.498C109.112 59.498 109.28 59.702 109.28 60.128V62H110.15V60.002C110.15 59.162 109.712 58.79 109.094 58.79C108.572 58.79 108.23 59.048 108.074 59.36V58.862H107.204V62ZM112.318 62.066C113.23 62.066 113.77 61.55 113.818 60.806H113.032C112.99 61.208 112.708 61.412 112.36 61.412C111.874 61.412 111.592 61.088 111.592 60.458V60.41C111.592 59.81 111.892 59.474 112.342 59.474C112.696 59.474 112.918 59.642 112.978 60.008H113.8C113.722 59.108 113.05 58.79 112.324 58.79C111.43 58.79 110.704 59.408 110.704 60.422V60.47C110.704 61.496 111.4 62.066 112.318 62.066ZM115.81 62.066C116.668 62.066 117.208 61.688 117.31 61.01H116.488C116.434 61.274 116.236 61.448 115.834 61.448C115.36 61.448 115.078 61.148 115.054 60.626H117.316V60.386C117.316 59.264 116.596 58.79 115.786 58.79C114.874 58.79 114.172 59.432 114.172 60.422V60.47C114.172 61.472 114.862 62.066 115.81 62.066ZM115.066 60.092C115.132 59.648 115.396 59.39 115.786 59.39C116.2 59.39 116.44 59.618 116.47 60.092H115.066ZM119.055 62.066C119.883 62.066 120.375 61.712 120.375 61.034C120.375 60.362 119.943 60.164 119.157 60.05C118.701 59.984 118.551 59.906 118.551 59.708C118.551 59.516 118.713 59.384 118.995 59.384C119.295 59.384 119.439 59.504 119.487 59.762H120.285C120.207 59.042 119.685 58.79 118.989 58.79C118.347 58.79 117.747 59.114 117.747 59.768C117.747 60.38 118.071 60.62 118.905 60.746C119.355 60.812 119.541 60.902 119.541 61.118C119.541 61.334 119.385 61.46 119.049 61.46C118.671 61.46 118.533 61.298 118.497 61.016H117.687C117.717 61.694 118.209 62.066 119.055 62.066Z" fill="white"/>
<path opacity="0.6" d="M86.203 70.027C86.752 70.027 87.133 69.697 87.133 69.076V68.917H86.251V69.133H86.878C86.869 69.514 86.668 69.817 86.203 69.817C85.699 69.817 85.435 69.469 85.435 68.938V68.914C85.435 68.389 85.717 68.029 86.209 68.029C86.521 68.029 86.755 68.161 86.815 68.503H87.076C87.01 68.02 86.629 67.822 86.203 67.822C85.588 67.822 85.165 68.29 85.165 68.917V68.941C85.165 69.568 85.543 70.027 86.203 70.027ZM88.1938 70.027C88.5478 70.027 88.8088 69.862 88.8628 69.547H88.6138C88.5808 69.73 88.4398 69.82 88.1968 69.82C87.8758 69.82 87.7048 69.622 87.6928 69.265H88.8748V69.184C88.8748 68.623 88.5328 68.404 88.1698 68.404C87.7378 68.404 87.4348 68.734 87.4348 69.208V69.232C87.4348 69.715 87.7498 70.027 88.1938 70.027ZM87.7018 69.064C87.7438 68.785 87.9148 68.611 88.1698 68.611C88.4278 68.611 88.5958 68.74 88.6198 69.064H87.7018ZM89.7339 70.021C89.8359 70.021 89.8959 70.006 89.9469 69.988V69.778C89.8929 69.799 89.8329 69.811 89.7549 69.811C89.6289 69.811 89.5599 69.736 89.5599 69.583V68.641H89.9259V68.431H89.5599V68.074H89.3109V68.431H89.0859V68.641H89.3109V69.607C89.3109 69.853 89.4489 70.021 89.7339 70.021ZM90.8003 70.021C90.9023 70.021 90.9623 70.006 91.0133 69.988V69.778C90.9593 69.799 90.8993 69.811 90.8213 69.811C90.6953 69.811 90.6263 69.736 90.6263 69.583V68.641H90.9923V68.431H90.6263V68.074H90.3773V68.431H90.1523V68.641H90.3773V69.607C90.3773 69.853 90.5153 70.021 90.8003 70.021ZM91.5157 68.104C91.6057 68.104 91.6807 68.029 91.6807 67.939C91.6807 67.849 91.6057 67.774 91.5157 67.774C91.4257 67.774 91.3507 67.849 91.3507 67.939C91.3507 68.029 91.4257 68.104 91.5157 68.104ZM91.3957 70H91.6447V68.431H91.3957V70ZM92.1543 70H92.4033V69.049C92.4033 68.767 92.6103 68.62 92.8413 68.62C93.0933 68.62 93.2103 68.743 93.2103 69.019V70H93.4593V69.037C93.4593 68.581 93.2313 68.404 92.9073 68.404C92.6493 68.404 92.4753 68.533 92.4033 68.68V68.431H92.1543V70ZM94.5713 69.742C94.3073 69.742 94.0883 69.538 94.0883 69.196V69.172C94.0883 68.842 94.2743 68.611 94.5863 68.611C94.8923 68.611 95.0843 68.815 95.0843 69.166V69.187C95.0843 69.538 94.8623 69.742 94.5713 69.742ZM94.5743 70.573C95.0123 70.573 95.3213 70.351 95.3243 69.895V68.431H95.0753V68.683C94.9853 68.53 94.8233 68.404 94.5623 68.404C94.1303 68.404 93.8303 68.758 93.8303 69.184V69.205C93.8303 69.637 94.1333 69.949 94.5443 69.949C94.7723 69.949 94.9853 69.805 95.0753 69.652V69.88C95.0753 70.216 94.8803 70.363 94.5713 70.363C94.3043 70.363 94.1543 70.27 94.1183 70.09H93.8633C93.9053 70.354 94.1093 70.573 94.5743 70.573ZM97.0991 70.021C97.2011 70.021 97.2611 70.006 97.3121 69.988V69.778C97.2581 69.799 97.1981 69.811 97.1201 69.811C96.9941 69.811 96.9251 69.736 96.9251 69.583V68.641H97.2911V68.431H96.9251V68.074H96.6761V68.431H96.4511V68.641H96.6761V69.607C96.6761 69.853 96.8141 70.021 97.0991 70.021ZM97.6885 70H97.9375V69.049C97.9375 68.767 98.1445 68.62 98.3755 68.62C98.6275 68.62 98.7445 68.743 98.7445 69.019V70H98.9935V69.037C98.9935 68.581 98.7655 68.404 98.4415 68.404C98.1835 68.404 98.0095 68.533 97.9375 68.68V67.681H97.6885V70ZM99.6075 68.104C99.6975 68.104 99.7725 68.029 99.7725 67.939C99.7725 67.849 99.6975 67.774 99.6075 67.774C99.5175 67.774 99.4425 67.849 99.4425 67.939C99.4425 68.029 99.5175 68.104 99.6075 68.104ZM99.4875 70H99.7365V68.431H99.4875V70ZM100.246 70H100.495V69.049C100.495 68.767 100.702 68.62 100.933 68.62C101.185 68.62 101.302 68.743 101.302 69.019V70H101.551V69.037C101.551 68.581 101.323 68.404 100.999 68.404C100.741 68.404 100.567 68.533 100.495 68.68V68.431H100.246V70ZM102.663 69.742C102.399 69.742 102.18 69.538 102.18 69.196V69.172C102.18 68.842 102.366 68.611 102.678 68.611C102.984 68.611 103.176 68.815 103.176 69.166V69.187C103.176 69.538 102.954 69.742 102.663 69.742ZM102.666 70.573C103.104 70.573 103.413 70.351 103.416 69.895V68.431H103.167V68.683C103.077 68.53 102.915 68.404 102.654 68.404C102.222 68.404 101.922 68.758 101.922 69.184V69.205C101.922 69.637 102.225 69.949 102.636 69.949C102.864 69.949 103.077 69.805 103.167 69.652V69.88C103.167 70.216 102.972 70.363 102.663 70.363C102.396 70.363 102.246 70.27 102.21 70.09H101.955C101.997 70.354 102.201 70.573 102.666 70.573ZM104.406 70.027C104.787 70.027 104.982 69.835 104.982 69.55C104.982 69.217 104.754 69.145 104.43 69.085C104.142 69.034 104.064 68.977 104.064 68.836C104.064 68.701 104.181 68.611 104.361 68.611C104.559 68.611 104.655 68.686 104.691 68.857H104.931C104.889 68.518 104.646 68.404 104.364 68.404C104.118 68.404 103.833 68.554 103.833 68.845C103.833 69.118 103.971 69.232 104.379 69.307C104.622 69.352 104.745 69.406 104.745 69.571C104.745 69.739 104.64 69.82 104.403 69.82C104.151 69.82 104.052 69.703 104.034 69.517H103.791C103.806 69.838 104.031 70.027 104.406 70.027ZM106.773 69.82C106.509 69.82 106.296 69.631 106.296 69.235V69.211C106.296 68.83 106.482 68.611 106.794 68.611C107.1 68.611 107.292 68.8 107.292 69.202V69.226C107.292 69.628 107.064 69.82 106.773 69.82ZM106.746 70.027C106.974 70.027 107.193 69.883 107.283 69.73V70H107.532V67.681H107.283V68.683C107.193 68.53 107.031 68.404 106.77 68.404C106.338 68.404 106.038 68.743 106.038 69.223V69.247C106.038 69.736 106.335 70.027 106.746 70.027ZM108.687 70.027C109.134 70.027 109.461 69.7 109.461 69.226V69.202C109.461 68.731 109.134 68.404 108.69 68.404C108.246 68.404 107.919 68.734 107.919 69.205V69.229C107.919 69.688 108.24 70.027 108.687 70.027ZM108.69 69.82C108.372 69.82 108.177 69.586 108.177 69.229V69.205C108.177 68.845 108.375 68.611 108.69 68.611C109.002 68.611 109.203 68.845 109.203 69.208V69.229C109.203 69.583 109.005 69.82 108.69 69.82ZM109.847 70H110.096V69.049C110.096 68.767 110.303 68.62 110.534 68.62C110.786 68.62 110.903 68.743 110.903 69.019V70H111.152V69.037C111.152 68.581 110.924 68.404 110.6 68.404C110.342 68.404 110.168 68.533 110.096 68.68V68.431H109.847V70ZM112.282 70.027C112.636 70.027 112.897 69.862 112.951 69.547H112.702C112.669 69.73 112.528 69.82 112.285 69.82C111.964 69.82 111.793 69.622 111.781 69.265H112.963V69.184C112.963 68.623 112.621 68.404 112.258 68.404C111.826 68.404 111.523 68.734 111.523 69.208V69.232C111.523 69.715 111.838 70.027 112.282 70.027ZM111.79 69.064C111.832 68.785 112.003 68.611 112.258 68.611C112.516 68.611 112.684 68.74 112.708 69.064H111.79ZM114.265 68.104C114.355 68.104 114.43 68.029 114.43 67.939C114.43 67.849 114.355 67.774 114.265 67.774C114.175 67.774 114.1 67.849 114.1 67.939C114.1 68.029 114.175 68.104 114.265 68.104ZM114.145 70H114.394V68.431H114.145V70ZM115.389 70.027C115.77 70.027 115.965 69.835 115.965 69.55C115.965 69.217 115.737 69.145 115.413 69.085C115.125 69.034 115.047 68.977 115.047 68.836C115.047 68.701 115.164 68.611 115.344 68.611C115.542 68.611 115.638 68.686 115.674 68.857H115.914C115.872 68.518 115.629 68.404 115.347 68.404C115.101 68.404 114.816 68.554 114.816 68.845C114.816 69.118 114.954 69.232 115.362 69.307C115.605 69.352 115.728 69.406 115.728 69.571C115.728 69.739 115.623 69.82 115.386 69.82C115.134 69.82 115.035 69.703 115.017 69.517H114.774C114.789 69.838 115.014 70.027 115.389 70.027ZM117.742 69.82C117.496 69.82 117.28 69.631 117.28 69.235V69.211C117.28 68.83 117.475 68.611 117.763 68.611C118.045 68.611 118.24 68.8 118.24 69.202V69.226C118.24 69.628 118.009 69.82 117.742 69.82ZM117.715 70.027C117.925 70.027 118.141 69.889 118.231 69.736V70H118.48V68.431H118.231V68.677C118.141 68.524 117.982 68.404 117.739 68.404C117.343 68.404 117.022 68.743 117.022 69.223V69.247C117.022 69.736 117.34 70.027 117.715 70.027ZM120.534 69.82C120.228 69.82 120.018 69.631 120.018 69.229V69.205C120.018 68.803 120.24 68.611 120.531 68.611C120.795 68.611 121.014 68.809 121.014 69.205V69.229C121.014 69.61 120.846 69.82 120.534 69.82ZM119.778 70.546H120.027V69.742C120.117 69.898 120.3 70.027 120.558 70.027C120.99 70.027 121.272 69.697 121.272 69.217V69.193C121.272 68.704 120.969 68.404 120.558 68.404C120.33 68.404 120.117 68.542 120.027 68.695V68.431H119.778V70.546ZM121.659 70H121.908V69.139C121.908 68.752 122.109 68.653 122.424 68.638V68.404C122.142 68.413 122.007 68.536 121.908 68.713V68.431H121.659V70ZM123.394 70.027C123.841 70.027 124.168 69.7 124.168 69.226V69.202C124.168 68.731 123.841 68.404 123.397 68.404C122.953 68.404 122.626 68.734 122.626 69.205V69.229C122.626 69.688 122.947 70.027 123.394 70.027ZM123.397 69.82C123.079 69.82 122.884 69.586 122.884 69.229V69.205C122.884 68.845 123.082 68.611 123.397 68.611C123.709 68.611 123.91 68.845 123.91 69.208V69.229C123.91 69.583 123.712 69.82 123.397 69.82ZM125.205 70.027C125.583 70.027 125.856 69.775 125.889 69.436H125.658C125.631 69.691 125.43 69.82 125.208 69.82C124.905 69.82 124.695 69.616 124.695 69.232V69.208C124.695 68.839 124.914 68.611 125.199 68.611C125.415 68.611 125.595 68.704 125.634 68.953H125.88C125.832 68.554 125.526 68.404 125.199 68.404C124.779 68.404 124.437 68.728 124.437 69.208V69.232C124.437 69.718 124.767 70.027 125.205 70.027ZM126.907 70.027C127.261 70.027 127.522 69.862 127.576 69.547H127.327C127.294 69.73 127.153 69.82 126.91 69.82C126.589 69.82 126.418 69.622 126.406 69.265H127.588V69.184C127.588 68.623 127.246 68.404 126.883 68.404C126.451 68.404 126.148 68.734 126.148 69.208V69.232C126.148 69.715 126.463 70.027 126.907 70.027ZM126.415 69.064C126.457 68.785 126.628 68.611 126.883 68.611C127.141 68.611 127.309 68.74 127.333 69.064H126.415ZM128.47 70.027C128.851 70.027 129.046 69.835 129.046 69.55C129.046 69.217 128.818 69.145 128.494 69.085C128.206 69.034 128.128 68.977 128.128 68.836C128.128 68.701 128.245 68.611 128.425 68.611C128.623 68.611 128.719 68.686 128.755 68.857H128.995C128.953 68.518 128.71 68.404 128.428 68.404C128.182 68.404 127.897 68.554 127.897 68.845C127.897 69.118 128.035 69.232 128.443 69.307C128.686 69.352 128.809 69.406 128.809 69.571C128.809 69.739 128.704 69.82 128.467 69.82C128.215 69.82 128.116 69.703 128.098 69.517H127.855C127.87 69.838 128.095 70.027 128.47 70.027ZM129.912 70.027C130.293 70.027 130.488 69.835 130.488 69.55C130.488 69.217 130.26 69.145 129.936 69.085C129.648 69.034 129.57 68.977 129.57 68.836C129.57 68.701 129.687 68.611 129.867 68.611C130.065 68.611 130.161 68.686 130.197 68.857H130.437C130.395 68.518 130.152 68.404 129.87 68.404C129.624 68.404 129.339 68.554 129.339 68.845C129.339 69.118 129.477 69.232 129.885 69.307C130.128 69.352 130.251 69.406 130.251 69.571C130.251 69.739 130.146 69.82 129.909 69.82C129.657 69.82 129.558 69.703 129.54 69.517H129.297C129.312 69.838 129.537 70.027 129.912 70.027ZM131.038 70.015C131.143 70.015 131.23 69.931 131.23 69.823C131.23 69.715 131.143 69.631 131.038 69.631C130.933 69.631 130.846 69.715 130.846 69.823C130.846 69.931 130.933 70.015 131.038 70.015ZM132.541 70H132.802V67.855H132.541V70ZM133.817 70.021C133.919 70.021 133.979 70.006 134.03 69.988V69.778C133.976 69.799 133.916 69.811 133.838 69.811C133.712 69.811 133.643 69.736 133.643 69.583V68.641H134.009V68.431H133.643V68.074H133.394V68.431H133.169V68.641H133.394V69.607C133.394 69.853 133.532 70.021 133.817 70.021ZM135.818 69.82C135.554 69.82 135.341 69.631 135.341 69.235V69.211C135.341 68.83 135.527 68.611 135.839 68.611C136.145 68.611 136.337 68.8 136.337 69.202V69.226C136.337 69.628 136.109 69.82 135.818 69.82ZM135.791 70.027C136.019 70.027 136.238 69.883 136.328 69.73V70H136.577V67.681H136.328V68.683C136.238 68.53 136.076 68.404 135.815 68.404C135.383 68.404 135.083 68.743 135.083 69.223V69.247C135.083 69.736 135.38 70.027 135.791 70.027ZM137.723 70.027C138.077 70.027 138.338 69.862 138.392 69.547H138.143C138.11 69.73 137.969 69.82 137.726 69.82C137.405 69.82 137.234 69.622 137.222 69.265H138.404V69.184C138.404 68.623 138.062 68.404 137.699 68.404C137.267 68.404 136.964 68.734 136.964 69.208V69.232C136.964 69.715 137.279 70.027 137.723 70.027ZM137.231 69.064C137.273 68.785 137.444 68.611 137.699 68.611C137.957 68.611 138.125 68.74 138.149 69.064H137.231ZM138.786 70H139.035V69.04C139.035 68.758 139.245 68.62 139.449 68.62C139.665 68.62 139.782 68.734 139.782 69.01V70H140.031V69.04C140.031 68.758 140.241 68.62 140.445 68.62C140.661 68.62 140.778 68.734 140.778 69.01V70H141.027V69.028C141.027 68.572 140.781 68.404 140.499 68.404C140.304 68.404 140.07 68.494 139.962 68.698C139.881 68.488 139.704 68.404 139.503 68.404C139.278 68.404 139.107 68.524 139.035 68.671V68.431H138.786V70ZM142.12 69.82C141.874 69.82 141.658 69.631 141.658 69.235V69.211C141.658 68.83 141.853 68.611 142.141 68.611C142.423 68.611 142.618 68.8 142.618 69.202V69.226C142.618 69.628 142.387 69.82 142.12 69.82ZM142.093 70.027C142.303 70.027 142.519 69.889 142.609 69.736V70H142.858V68.431H142.609V68.677C142.519 68.524 142.36 68.404 142.117 68.404C141.721 68.404 141.4 68.743 141.4 69.223V69.247C141.4 69.736 141.718 70.027 142.093 70.027ZM143.362 70H143.611V69.049C143.611 68.767 143.818 68.62 144.049 68.62C144.301 68.62 144.418 68.743 144.418 69.019V70H144.667V69.037C144.667 68.581 144.439 68.404 144.115 68.404C143.857 68.404 143.683 68.533 143.611 68.68V68.431H143.362V70ZM145.773 69.82C145.509 69.82 145.296 69.631 145.296 69.235V69.211C145.296 68.83 145.482 68.611 145.794 68.611C146.1 68.611 146.292 68.8 146.292 69.202V69.226C146.292 69.628 146.064 69.82 145.773 69.82ZM145.746 70.027C145.974 70.027 146.193 69.883 146.283 69.73V70H146.532V67.681H146.283V68.683C146.193 68.53 146.031 68.404 145.77 68.404C145.338 68.404 145.038 68.743 145.038 69.223V69.247C145.038 69.736 145.335 70.027 145.746 70.027ZM147.522 70.027C147.903 70.027 148.098 69.835 148.098 69.55C148.098 69.217 147.87 69.145 147.546 69.085C147.258 69.034 147.18 68.977 147.18 68.836C147.18 68.701 147.297 68.611 147.477 68.611C147.675 68.611 147.771 68.686 147.807 68.857H148.047C148.005 68.518 147.762 68.404 147.48 68.404C147.234 68.404 146.949 68.554 146.949 68.845C146.949 69.118 147.087 69.232 147.495 69.307C147.738 69.352 147.861 69.406 147.861 69.571C147.861 69.739 147.756 69.82 147.519 69.82C147.267 69.82 147.168 69.703 147.15 69.517H146.907C146.922 69.838 147.147 70.027 147.522 70.027ZM85.855 74.82C85.609 74.82 85.393 74.631 85.393 74.235V74.211C85.393 73.83 85.588 73.611 85.876 73.611C86.158 73.611 86.353 73.8 86.353 74.202V74.226C86.353 74.628 86.122 74.82 85.855 74.82ZM85.828 75.027C86.038 75.027 86.254 74.889 86.344 74.736V75H86.593V73.431H86.344V73.677C86.254 73.524 86.095 73.404 85.852 73.404C85.456 73.404 85.135 73.743 85.135 74.223V74.247C85.135 74.736 85.453 75.027 85.828 75.027ZM87.7487 75.027C88.1267 75.027 88.3997 74.775 88.4327 74.436H88.2017C88.1747 74.691 87.9737 74.82 87.7517 74.82C87.4487 74.82 87.2387 74.616 87.2387 74.232V74.208C87.2387 73.839 87.4577 73.611 87.7427 73.611C87.9587 73.611 88.1387 73.704 88.1777 73.953H88.4237C88.3757 73.554 88.0697 73.404 87.7427 73.404C87.3227 73.404 86.9807 73.728 86.9807 74.208V74.232C86.9807 74.718 87.3107 75.027 87.7487 75.027ZM89.4596 75.027C89.8376 75.027 90.1106 74.775 90.1436 74.436H89.9126C89.8856 74.691 89.6846 74.82 89.4626 74.82C89.1596 74.82 88.9496 74.616 88.9496 74.232V74.208C88.9496 73.839 89.1686 73.611 89.4536 73.611C89.6696 73.611 89.8496 73.704 89.8886 73.953H90.1346C90.0866 73.554 89.7806 73.404 89.4536 73.404C89.0336 73.404 88.6916 73.728 88.6916 74.208V74.232C88.6916 74.718 89.0216 75.027 89.4596 75.027ZM91.1706 75.027C91.6176 75.027 91.9446 74.7 91.9446 74.226V74.202C91.9446 73.731 91.6176 73.404 91.1736 73.404C90.7296 73.404 90.4026 73.734 90.4026 74.205V74.229C90.4026 74.688 90.7236 75.027 91.1706 75.027ZM91.1736 74.82C90.8556 74.82 90.6606 74.586 90.6606 74.229V74.205C90.6606 73.845 90.8586 73.611 91.1736 73.611C91.4856 73.611 91.6866 73.845 91.6866 74.208V74.229C91.6866 74.583 91.4886 74.82 91.1736 74.82ZM92.8611 75.027C93.1131 75.027 93.2871 74.898 93.3591 74.751V75H93.6081V73.431H93.3591V74.382C93.3591 74.664 93.1491 74.811 92.9271 74.811C92.6811 74.811 92.5641 74.688 92.5641 74.412V73.431H92.3151V74.424C92.3151 74.856 92.5491 75.027 92.8611 75.027ZM94.1114 75H94.3604V74.049C94.3604 73.767 94.5674 73.62 94.7984 73.62C95.0504 73.62 95.1674 73.743 95.1674 74.019V75H95.4164V74.037C95.4164 73.581 95.1884 73.404 94.8644 73.404C94.6064 73.404 94.4324 73.533 94.3604 73.68V73.431H94.1114V75ZM96.3813 75.021C96.4833 75.021 96.5433 75.006 96.5943 74.988V74.778C96.5403 74.799 96.4803 74.811 96.4023 74.811C96.2763 74.811 96.2073 74.736 96.2073 74.583V73.641H96.5733V73.431H96.2073V73.074H95.9583V73.431H95.7333V73.641H95.9583V74.607C95.9583 74.853 96.0963 75.021 96.3813 75.021ZM97.5738 74.82C97.3278 74.82 97.1118 74.631 97.1118 74.235V74.211C97.1118 73.83 97.3068 73.611 97.5948 73.611C97.8768 73.611 98.0718 73.8 98.0718 74.202V74.226C98.0718 74.628 97.8408 74.82 97.5738 74.82ZM97.5468 75.027C97.7568 75.027 97.9728 74.889 98.0628 74.736V75H98.3118V73.431H98.0628V73.677C97.9728 73.524 97.8138 73.404 97.5708 73.404C97.1748 73.404 96.8538 73.743 96.8538 74.223V74.247C96.8538 74.736 97.1718 75.027 97.5468 75.027ZM99.5965 75.027C100.028 75.027 100.31 74.697 100.31 74.217V74.193C100.31 73.704 100.007 73.404 99.5965 73.404C99.3685 73.404 99.1555 73.542 99.0655 73.695V72.681H98.8165V75H99.0655V74.742C99.1555 74.898 99.3415 75.027 99.5965 75.027ZM99.5725 74.82C99.2665 74.82 99.0565 74.631 99.0565 74.229V74.205C99.0565 73.803 99.2785 73.611 99.5695 73.611C99.8335 73.611 100.052 73.809 100.052 74.205V74.229C100.052 74.61 99.8845 74.82 99.5725 74.82ZM100.823 73.104C100.913 73.104 100.988 73.029 100.988 72.939C100.988 72.849 100.913 72.774 100.823 72.774C100.733 72.774 100.658 72.849 100.658 72.939C100.658 73.029 100.733 73.104 100.823 73.104ZM100.703 75H100.952V73.431H100.703V75ZM101.468 75H101.72V72.681H101.468V75ZM102.356 73.104C102.446 73.104 102.521 73.029 102.521 72.939C102.521 72.849 102.446 72.774 102.356 72.774C102.266 72.774 102.191 72.849 102.191 72.939C102.191 73.029 102.266 73.104 102.356 73.104ZM102.236 75H102.485V73.431H102.236V75ZM103.471 75.021C103.573 75.021 103.633 75.006 103.684 74.988V74.778C103.63 74.799 103.57 74.811 103.492 74.811C103.366 74.811 103.297 74.736 103.297 74.583V73.641H103.663V73.431H103.297V73.074H103.048V73.431H102.823V73.641H103.048V74.607C103.048 74.853 103.186 75.021 103.471 75.021ZM104.202 75.546H104.454L105.321 73.431H105.066L104.631 74.556L104.151 73.431H103.884L104.499 74.838L104.202 75.546ZM105.456 75.369L105.825 74.742L105.582 74.628L105.294 75.285L105.456 75.369ZM107.681 74.82C107.435 74.82 107.219 74.631 107.219 74.235V74.211C107.219 73.83 107.414 73.611 107.702 73.611C107.984 73.611 108.179 73.8 108.179 74.202V74.226C108.179 74.628 107.948 74.82 107.681 74.82ZM107.654 75.027C107.864 75.027 108.08 74.889 108.17 74.736V75H108.419V73.431H108.17V73.677C108.08 73.524 107.921 73.404 107.678 73.404C107.282 73.404 106.961 73.743 106.961 74.223V74.247C106.961 74.736 107.279 75.027 107.654 75.027ZM108.924 75H109.173V74.049C109.173 73.767 109.38 73.62 109.611 73.62C109.863 73.62 109.98 73.743 109.98 74.019V75H110.229V74.037C110.229 73.581 110.001 73.404 109.677 73.404C109.419 73.404 109.245 73.533 109.173 73.68V73.431H108.924V75ZM111.335 74.82C111.071 74.82 110.858 74.631 110.858 74.235V74.211C110.858 73.83 111.044 73.611 111.356 73.611C111.662 73.611 111.854 73.8 111.854 74.202V74.226C111.854 74.628 111.626 74.82 111.335 74.82ZM111.308 75.027C111.536 75.027 111.755 74.883 111.845 74.73V75H112.094V72.681H111.845V73.683C111.755 73.53 111.593 73.404 111.332 73.404C110.9 73.404 110.6 73.743 110.6 74.223V74.247C110.6 74.736 110.897 75.027 111.308 75.027ZM113.392 75H113.641V74.049C113.641 73.767 113.848 73.62 114.079 73.62C114.331 73.62 114.448 73.743 114.448 74.019V75H114.697V74.037C114.697 73.581 114.469 73.404 114.145 73.404C113.887 73.404 113.713 73.533 113.641 73.68V72.681H113.392V75ZM115.788 74.82C115.542 74.82 115.326 74.631 115.326 74.235V74.211C115.326 73.83 115.521 73.611 115.809 73.611C116.091 73.611 116.286 73.8 116.286 74.202V74.226C116.286 74.628 116.055 74.82 115.788 74.82ZM115.761 75.027C115.971 75.027 116.187 74.889 116.277 74.736V75H116.526V73.431H116.277V73.677C116.187 73.524 116.028 73.404 115.785 73.404C115.389 73.404 115.068 73.743 115.068 74.223V74.247C115.068 74.736 115.386 75.027 115.761 75.027ZM117.516 75.027C117.897 75.027 118.092 74.835 118.092 74.55C118.092 74.217 117.864 74.145 117.54 74.085C117.252 74.034 117.174 73.977 117.174 73.836C117.174 73.701 117.291 73.611 117.471 73.611C117.669 73.611 117.765 73.686 117.801 73.857H118.041C117.999 73.518 117.756 73.404 117.474 73.404C117.228 73.404 116.943 73.554 116.943 73.845C116.943 74.118 117.081 74.232 117.489 74.307C117.732 74.352 117.855 74.406 117.855 74.571C117.855 74.739 117.75 74.82 117.513 74.82C117.261 74.82 117.162 74.703 117.144 74.517H116.901C116.916 74.838 117.141 75.027 117.516 75.027ZM119.917 75.027C120.295 75.027 120.568 74.775 120.601 74.436H120.37C120.343 74.691 120.142 74.82 119.92 74.82C119.617 74.82 119.407 74.616 119.407 74.232V74.208C119.407 73.839 119.626 73.611 119.911 73.611C120.127 73.611 120.307 73.704 120.346 73.953H120.592C120.544 73.554 120.238 73.404 119.911 73.404C119.491 73.404 119.149 73.728 119.149 74.208V74.232C119.149 74.718 119.479 75.027 119.917 75.027ZM120.983 75H121.235V72.681H120.983V75ZM122.386 75.027C122.74 75.027 123.001 74.862 123.055 74.547H122.806C122.773 74.73 122.632 74.82 122.389 74.82C122.068 74.82 121.897 74.622 121.885 74.265H123.067V74.184C123.067 73.623 122.725 73.404 122.362 73.404C121.93 73.404 121.627 73.734 121.627 74.208V74.232C121.627 74.715 121.942 75.027 122.386 75.027ZM121.894 74.064C121.936 73.785 122.107 73.611 122.362 73.611C122.62 73.611 122.788 73.74 122.812 74.064H121.894ZM124.052 74.82C123.806 74.82 123.59 74.631 123.59 74.235V74.211C123.59 73.83 123.785 73.611 124.073 73.611C124.355 73.611 124.55 73.8 124.55 74.202V74.226C124.55 74.628 124.319 74.82 124.052 74.82ZM124.025 75.027C124.235 75.027 124.451 74.889 124.541 74.736V75H124.79V73.431H124.541V73.677C124.451 73.524 124.292 73.404 124.049 73.404C123.653 73.404 123.332 73.743 123.332 74.223V74.247C123.332 74.736 123.65 75.027 124.025 75.027ZM125.295 75H125.544V74.139C125.544 73.752 125.745 73.653 126.06 73.638V73.404C125.778 73.413 125.643 73.536 125.544 73.713V73.431H125.295V75ZM127.841 74.742C127.577 74.742 127.358 74.538 127.358 74.196V74.172C127.358 73.842 127.544 73.611 127.856 73.611C128.162 73.611 128.354 73.815 128.354 74.166V74.187C128.354 74.538 128.132 74.742 127.841 74.742ZM127.844 75.573C128.282 75.573 128.591 75.351 128.594 74.895V73.431H128.345V73.683C128.255 73.53 128.093 73.404 127.832 73.404C127.4 73.404 127.1 73.758 127.1 74.184V74.205C127.1 74.637 127.403 74.949 127.814 74.949C128.042 74.949 128.255 74.805 128.345 74.652V74.88C128.345 75.216 128.15 75.363 127.841 75.363C127.574 75.363 127.424 75.27 127.388 75.09H127.133C127.175 75.354 127.379 75.573 127.844 75.573ZM129.749 75.027C130.196 75.027 130.523 74.7 130.523 74.226V74.202C130.523 73.731 130.196 73.404 129.752 73.404C129.308 73.404 128.981 73.734 128.981 74.205V74.229C128.981 74.688 129.302 75.027 129.749 75.027ZM129.752 74.82C129.434 74.82 129.239 74.586 129.239 74.229V74.205C129.239 73.845 129.437 73.611 129.752 73.611C130.064 73.611 130.265 73.845 130.265 74.208V74.229C130.265 74.583 130.067 74.82 129.752 74.82ZM131.511 74.82C131.265 74.82 131.049 74.631 131.049 74.235V74.211C131.049 73.83 131.244 73.611 131.532 73.611C131.814 73.611 132.009 73.8 132.009 74.202V74.226C132.009 74.628 131.778 74.82 131.511 74.82ZM131.484 75.027C131.694 75.027 131.91 74.889 132 74.736V75H132.249V73.431H132V73.677C131.91 73.524 131.751 73.404 131.508 73.404C131.112 73.404 130.791 73.743 130.791 74.223V74.247C130.791 74.736 131.109 75.027 131.484 75.027ZM132.76 75H133.012V72.681H132.76V75ZM134.008 75.027C134.389 75.027 134.584 74.835 134.584 74.55C134.584 74.217 134.356 74.145 134.032 74.085C133.744 74.034 133.666 73.977 133.666 73.836C133.666 73.701 133.783 73.611 133.963 73.611C134.161 73.611 134.257 73.686 134.293 73.857H134.533C134.491 73.518 134.248 73.404 133.966 73.404C133.72 73.404 133.435 73.554 133.435 73.845C133.435 74.118 133.573 74.232 133.981 74.307C134.224 74.352 134.347 74.406 134.347 74.571C134.347 74.739 134.242 74.82 134.005 74.82C133.753 74.82 133.654 74.703 133.636 74.517H133.393C133.408 74.838 133.633 75.027 134.008 75.027ZM135.134 75.015C135.239 75.015 135.326 74.931 135.326 74.823C135.326 74.715 135.239 74.631 135.134 74.631C135.029 74.631 134.942 74.715 134.942 74.823C134.942 74.931 135.029 75.015 135.134 75.015ZM136.622 75H136.883V74.04H137.657V73.827H136.883V73.068H137.876V72.855H136.622V75ZM138.801 75.027C139.248 75.027 139.575 74.7 139.575 74.226V74.202C139.575 73.731 139.248 73.404 138.804 73.404C138.36 73.404 138.033 73.734 138.033 74.205V74.229C138.033 74.688 138.354 75.027 138.801 75.027ZM138.804 74.82C138.486 74.82 138.291 74.586 138.291 74.229V74.205C138.291 73.845 138.489 73.611 138.804 73.611C139.116 73.611 139.317 73.845 139.317 74.208V74.229C139.317 74.583 139.119 74.82 138.804 74.82ZM139.967 75H140.219V72.681H139.967V75ZM140.735 75H140.987V72.681H140.735V75ZM142.147 75.027C142.594 75.027 142.921 74.7 142.921 74.226V74.202C142.921 73.731 142.594 73.404 142.15 73.404C141.706 73.404 141.379 73.734 141.379 74.205V74.229C141.379 74.688 141.7 75.027 142.147 75.027ZM142.15 74.82C141.832 74.82 141.637 74.586 141.637 74.229V74.205C141.637 73.845 141.835 73.611 142.15 73.611C142.462 73.611 142.663 73.845 142.663 74.208V74.229C142.663 74.583 142.465 74.82 142.15 74.82ZM143.592 75H143.865L144.231 73.824L144.558 75H144.834L145.323 73.431H145.068L144.699 74.694L144.342 73.431H144.126L143.745 74.694L143.379 73.431H143.109L143.592 75ZM146.93 75.021C147.032 75.021 147.092 75.006 147.143 74.988V74.778C147.089 74.799 147.029 74.811 146.951 74.811C146.825 74.811 146.756 74.736 146.756 74.583V73.641H147.122V73.431H146.756V73.074H146.507V73.431H146.282V73.641H146.507V74.607C146.507 74.853 146.645 75.021 146.93 75.021ZM147.52 75H147.769V74.049C147.769 73.767 147.976 73.62 148.207 73.62C148.459 73.62 148.576 73.743 148.576 74.019V75H148.825V74.037C148.825 73.581 148.597 73.404 148.273 73.404C148.015 73.404 147.841 73.533 147.769 73.68V72.681H147.52V75ZM149.313 75H149.562V74.139C149.562 73.752 149.763 73.653 150.078 73.638V73.404C149.796 73.413 149.661 73.536 149.562 73.713V73.431H149.313V75ZM151.048 75.027C151.495 75.027 151.822 74.7 151.822 74.226V74.202C151.822 73.731 151.495 73.404 151.051 73.404C150.607 73.404 150.28 73.734 150.28 74.205V74.229C150.28 74.688 150.601 75.027 151.048 75.027ZM151.051 74.82C150.733 74.82 150.538 74.586 150.538 74.229V74.205C150.538 73.845 150.736 73.611 151.051 73.611C151.363 73.611 151.564 73.845 151.564 74.208V74.229C151.564 74.583 151.366 74.82 151.051 74.82ZM152.738 75.027C152.99 75.027 153.164 74.898 153.236 74.751V75H153.485V73.431H153.236V74.382C153.236 74.664 153.026 74.811 152.804 74.811C152.558 74.811 152.441 74.688 152.441 74.412V73.431H152.192V74.424C152.192 74.856 152.426 75.027 152.738 75.027ZM154.612 74.742C154.348 74.742 154.129 74.538 154.129 74.196V74.172C154.129 73.842 154.315 73.611 154.627 73.611C154.933 73.611 155.125 73.815 155.125 74.166V74.187C155.125 74.538 154.903 74.742 154.612 74.742ZM154.615 75.573C155.053 75.573 155.362 75.351 155.365 74.895V73.431H155.116V73.683C155.026 73.53 154.864 73.404 154.603 73.404C154.171 73.404 153.871 73.758 153.871 74.184V74.205C153.871 74.637 154.174 74.949 154.585 74.949C154.813 74.949 155.026 74.805 155.116 74.652V74.88C155.116 75.216 154.921 75.363 154.612 75.363C154.345 75.363 154.195 75.27 154.159 75.09H153.904C153.946 75.354 154.15 75.573 154.615 75.573ZM155.869 75H156.118V74.049C156.118 73.767 156.325 73.62 156.556 73.62C156.808 73.62 156.925 73.743 156.925 74.019V75H157.174V74.037C157.174 73.581 156.946 73.404 156.622 73.404C156.364 73.404 156.19 73.533 156.118 73.68V72.681H155.869V75ZM158.582 73.104C158.672 73.104 158.747 73.029 158.747 72.939C158.747 72.849 158.672 72.774 158.582 72.774C158.492 72.774 158.417 72.849 158.417 72.939C158.417 73.029 158.492 73.104 158.582 73.104ZM158.462 75H158.711V73.431H158.462V75ZM159.707 75.027C160.088 75.027 160.283 74.835 160.283 74.55C160.283 74.217 160.055 74.145 159.731 74.085C159.443 74.034 159.365 73.977 159.365 73.836C159.365 73.701 159.482 73.611 159.662 73.611C159.86 73.611 159.956 73.686 159.992 73.857H160.232C160.19 73.518 159.947 73.404 159.665 73.404C159.419 73.404 159.134 73.554 159.134 73.845C159.134 74.118 159.272 74.232 159.68 74.307C159.923 74.352 160.046 74.406 160.046 74.571C160.046 74.739 159.941 74.82 159.704 74.82C159.452 74.82 159.353 74.703 159.335 74.517H159.092C159.107 74.838 159.332 75.027 159.707 75.027ZM161.933 75.021C162.035 75.021 162.095 75.006 162.146 74.988V74.778C162.092 74.799 162.032 74.811 161.954 74.811C161.828 74.811 161.759 74.736 161.759 74.583V73.641H162.125V73.431H161.759V73.074H161.51V73.431H161.285V73.641H161.51V74.607C161.51 74.853 161.648 75.021 161.933 75.021ZM162.523 75H162.772V74.049C162.772 73.767 162.979 73.62 163.21 73.62C163.462 73.62 163.579 73.743 163.579 74.019V75H163.828V74.037C163.828 73.581 163.6 73.404 163.276 73.404C163.018 73.404 162.844 73.533 162.772 73.68V72.681H162.523V75ZM164.957 75.027C165.311 75.027 165.572 74.862 165.626 74.547H165.377C165.344 74.73 165.203 74.82 164.96 74.82C164.639 74.82 164.468 74.622 164.456 74.265H165.638V74.184C165.638 73.623 165.296 73.404 164.933 73.404C164.501 73.404 164.198 73.734 164.198 74.208V74.232C164.198 74.715 164.513 75.027 164.957 75.027ZM164.465 74.064C164.507 73.785 164.678 73.611 164.933 73.611C165.191 73.611 165.359 73.74 165.383 74.064H164.465ZM85.252 80H85.501V79.04C85.501 78.758 85.711 78.62 85.915 78.62C86.131 78.62 86.248 78.734 86.248 79.01V80H86.497V79.04C86.497 78.758 86.707 78.62 86.911 78.62C87.127 78.62 87.244 78.734 87.244 79.01V80H87.493V79.028C87.493 78.572 87.247 78.404 86.965 78.404C86.77 78.404 86.536 78.494 86.428 78.698C86.347 78.488 86.17 78.404 85.969 78.404C85.744 78.404 85.573 78.524 85.501 78.671V78.431H85.252V80ZM88.6335 80.027C89.0805 80.027 89.4075 79.7 89.4075 79.226V79.202C89.4075 78.731 89.0805 78.404 88.6365 78.404C88.1925 78.404 87.8655 78.734 87.8655 79.205V79.229C87.8655 79.688 88.1865 80.027 88.6335 80.027ZM88.6365 79.82C88.3185 79.82 88.1235 79.586 88.1235 79.229V79.205C88.1235 78.845 88.3215 78.611 88.6365 78.611C88.9485 78.611 89.1495 78.845 89.1495 79.208V79.229C89.1495 79.583 88.9515 79.82 88.6365 79.82ZM90.279 80.027C90.66 80.027 90.855 79.835 90.855 79.55C90.855 79.217 90.627 79.145 90.303 79.085C90.015 79.034 89.937 78.977 89.937 78.836C89.937 78.701 90.054 78.611 90.234 78.611C90.432 78.611 90.528 78.686 90.564 78.857H90.804C90.762 78.518 90.519 78.404 90.237 78.404C89.991 78.404 89.706 78.554 89.706 78.845C89.706 79.118 89.844 79.232 90.252 79.307C90.495 79.352 90.618 79.406 90.618 79.571C90.618 79.739 90.513 79.82 90.276 79.82C90.024 79.82 89.925 79.703 89.907 79.517H89.664C89.679 79.838 89.904 80.027 90.279 80.027ZM91.7114 80.021C91.8134 80.021 91.8734 80.006 91.9244 79.988V79.778C91.8704 79.799 91.8104 79.811 91.7324 79.811C91.6064 79.811 91.5374 79.736 91.5374 79.583V78.641H91.9034V78.431H91.5374V78.074H91.2884V78.431H91.0634V78.641H91.2884V79.607C91.2884 79.853 91.4264 80.021 91.7114 80.021ZM93.4878 80H93.8058L94.3698 78.431H94.1118L93.6528 79.748L93.1878 78.431H92.9178L93.4878 80ZM95.271 79.82C95.025 79.82 94.809 79.631 94.809 79.235V79.211C94.809 78.83 95.004 78.611 95.292 78.611C95.574 78.611 95.769 78.8 95.769 79.202V79.226C95.769 79.628 95.538 79.82 95.271 79.82ZM95.244 80.027C95.454 80.027 95.67 79.889 95.76 79.736V80H96.009V78.431H95.76V78.677C95.67 78.524 95.511 78.404 95.268 78.404C94.872 78.404 94.551 78.743 94.551 79.223V79.247C94.551 79.736 94.869 80.027 95.244 80.027ZM96.5197 80H96.7717V77.681H96.5197V80ZM97.8123 80.027C98.0643 80.027 98.2383 79.898 98.3103 79.751V80H98.5593V78.431H98.3103V79.382C98.3103 79.664 98.1003 79.811 97.8783 79.811C97.6323 79.811 97.5153 79.688 97.5153 79.412V78.431H97.2663V79.424C97.2663 79.856 97.5003 80.027 97.8123 80.027ZM99.6655 79.82C99.4195 79.82 99.2035 79.631 99.2035 79.235V79.211C99.2035 78.83 99.3985 78.611 99.6865 78.611C99.9685 78.611 100.164 78.8 100.164 79.202V79.226C100.164 79.628 99.9325 79.82 99.6655 79.82ZM99.6385 80.027C99.8485 80.027 100.065 79.889 100.155 79.736V80H100.404V78.431H100.155V78.677C100.065 78.524 99.9055 78.404 99.6625 78.404C99.2665 78.404 98.9455 78.743 98.9455 79.223V79.247C98.9455 79.736 99.2635 80.027 99.6385 80.027ZM101.688 80.027C102.12 80.027 102.402 79.697 102.402 79.217V79.193C102.402 78.704 102.099 78.404 101.688 78.404C101.46 78.404 101.247 78.542 101.157 78.695V77.681H100.908V80H101.157V79.742C101.247 79.898 101.433 80.027 101.688 80.027ZM101.664 79.82C101.358 79.82 101.148 79.631 101.148 79.229V79.205C101.148 78.803 101.37 78.611 101.661 78.611C101.925 78.611 102.144 78.809 102.144 79.205V79.229C102.144 79.61 101.976 79.82 101.664 79.82ZM102.795 80H103.047V77.681H102.795V80ZM104.199 80.027C104.553 80.027 104.814 79.862 104.868 79.547H104.619C104.586 79.73 104.445 79.82 104.202 79.82C103.881 79.82 103.71 79.622 103.698 79.265H104.88V79.184C104.88 78.623 104.538 78.404 104.175 78.404C103.743 78.404 103.44 78.734 103.44 79.208V79.232C103.44 79.715 103.755 80.027 104.199 80.027ZM103.707 79.064C103.749 78.785 103.92 78.611 104.175 78.611C104.433 78.611 104.601 78.74 104.625 79.064H103.707ZM106.659 79.82C106.413 79.82 106.197 79.631 106.197 79.235V79.211C106.197 78.83 106.392 78.611 106.68 78.611C106.962 78.611 107.157 78.8 107.157 79.202V79.226C107.157 79.628 106.926 79.82 106.659 79.82ZM106.632 80.027C106.842 80.027 107.058 79.889 107.148 79.736V80H107.397V78.431H107.148V78.677C107.058 78.524 106.899 78.404 106.656 78.404C106.26 78.404 105.939 78.743 105.939 79.223V79.247C105.939 79.736 106.257 80.027 106.632 80.027ZM108.387 80.027C108.768 80.027 108.963 79.835 108.963 79.55C108.963 79.217 108.735 79.145 108.411 79.085C108.123 79.034 108.045 78.977 108.045 78.836C108.045 78.701 108.162 78.611 108.342 78.611C108.54 78.611 108.636 78.686 108.672 78.857H108.912C108.87 78.518 108.627 78.404 108.345 78.404C108.099 78.404 107.814 78.554 107.814 78.845C107.814 79.118 107.952 79.232 108.36 79.307C108.603 79.352 108.726 79.406 108.726 79.571C108.726 79.739 108.621 79.82 108.384 79.82C108.132 79.82 108.033 79.703 108.015 79.517H107.772C107.787 79.838 108.012 80.027 108.387 80.027ZM109.829 80.027C110.21 80.027 110.405 79.835 110.405 79.55C110.405 79.217 110.177 79.145 109.853 79.085C109.565 79.034 109.487 78.977 109.487 78.836C109.487 78.701 109.604 78.611 109.784 78.611C109.982 78.611 110.078 78.686 110.114 78.857H110.354C110.312 78.518 110.069 78.404 109.787 78.404C109.541 78.404 109.256 78.554 109.256 78.845C109.256 79.118 109.394 79.232 109.802 79.307C110.045 79.352 110.168 79.406 110.168 79.571C110.168 79.739 110.063 79.82 109.826 79.82C109.574 79.82 109.475 79.703 109.457 79.517H109.214C109.229 79.838 109.454 80.027 109.829 80.027ZM111.426 80.027C111.78 80.027 112.041 79.862 112.095 79.547H111.846C111.813 79.73 111.672 79.82 111.429 79.82C111.108 79.82 110.937 79.622 110.925 79.265H112.107V79.184C112.107 78.623 111.765 78.404 111.402 78.404C110.97 78.404 110.667 78.734 110.667 79.208V79.232C110.667 79.715 110.982 80.027 111.426 80.027ZM110.934 79.064C110.976 78.785 111.147 78.611 111.402 78.611C111.66 78.611 111.828 78.74 111.852 79.064H110.934ZM112.966 80.021C113.068 80.021 113.128 80.006 113.179 79.988V79.778C113.125 79.799 113.065 79.811 112.987 79.811C112.861 79.811 112.792 79.736 112.792 79.583V78.641H113.158V78.431H112.792V78.074H112.543V78.431H112.318V78.641H112.543V79.607C112.543 79.853 112.681 80.021 112.966 80.021ZM114.827 80.021C114.929 80.021 114.989 80.006 115.04 79.988V79.778C114.986 79.799 114.926 79.811 114.848 79.811C114.722 79.811 114.653 79.736 114.653 79.583V78.641H115.019V78.431H114.653V78.074H114.404V78.431H114.179V78.641H114.404V79.607C114.404 79.853 114.542 80.021 114.827 80.021ZM116.067 80.027C116.514 80.027 116.841 79.7 116.841 79.226V79.202C116.841 78.731 116.514 78.404 116.07 78.404C115.626 78.404 115.299 78.734 115.299 79.205V79.229C115.299 79.688 115.62 80.027 116.067 80.027ZM116.07 79.82C115.752 79.82 115.557 79.586 115.557 79.229V79.205C115.557 78.845 115.755 78.611 116.07 78.611C116.382 78.611 116.583 78.845 116.583 79.208V79.229C116.583 79.583 116.385 79.82 116.07 79.82ZM118.624 79.82C118.378 79.82 118.162 79.631 118.162 79.235V79.211C118.162 78.83 118.357 78.611 118.645 78.611C118.927 78.611 119.122 78.8 119.122 79.202V79.226C119.122 79.628 118.891 79.82 118.624 79.82ZM118.597 80.027C118.807 80.027 119.023 79.889 119.113 79.736V80H119.362V78.431H119.113V78.677C119.023 78.524 118.864 78.404 118.621 78.404C118.225 78.404 117.904 78.743 117.904 79.223V79.247C117.904 79.736 118.222 80.027 118.597 80.027ZM119.866 80H120.115V79.049C120.115 78.767 120.322 78.62 120.553 78.62C120.805 78.62 120.922 78.743 120.922 79.019V80H121.171V79.037C121.171 78.581 120.943 78.404 120.619 78.404C120.361 78.404 120.187 78.533 120.115 78.68V78.431H119.866V80ZM121.756 80.546H122.008L122.875 78.431H122.62L122.185 79.556L121.705 78.431H121.438L122.053 79.838L121.756 80.546ZM124.648 80.027C125.095 80.027 125.422 79.7 125.422 79.226V79.202C125.422 78.731 125.095 78.404 124.651 78.404C124.207 78.404 123.88 78.734 123.88 79.205V79.229C123.88 79.688 124.201 80.027 124.648 80.027ZM124.651 79.82C124.333 79.82 124.138 79.586 124.138 79.229V79.205C124.138 78.845 124.336 78.611 124.651 78.611C124.963 78.611 125.164 78.845 125.164 79.208V79.229C125.164 79.583 124.966 79.82 124.651 79.82ZM125.808 80H126.057V79.139C126.057 78.752 126.258 78.653 126.573 78.638V78.404C126.291 78.413 126.156 78.536 126.057 78.713V78.431H125.808V80ZM127.516 79.742C127.252 79.742 127.033 79.538 127.033 79.196V79.172C127.033 78.842 127.219 78.611 127.531 78.611C127.837 78.611 128.029 78.815 128.029 79.166V79.187C128.029 79.538 127.807 79.742 127.516 79.742ZM127.519 80.573C127.957 80.573 128.266 80.351 128.269 79.895V78.431H128.02V78.683C127.93 78.53 127.768 78.404 127.507 78.404C127.075 78.404 126.775 78.758 126.775 79.184V79.205C126.775 79.637 127.078 79.949 127.489 79.949C127.717 79.949 127.93 79.805 128.02 79.652V79.88C128.02 80.216 127.825 80.363 127.516 80.363C127.249 80.363 127.099 80.27 127.063 80.09H126.808C126.85 80.354 127.054 80.573 127.519 80.573ZM129.376 79.82C129.13 79.82 128.914 79.631 128.914 79.235V79.211C128.914 78.83 129.109 78.611 129.397 78.611C129.679 78.611 129.874 78.8 129.874 79.202V79.226C129.874 79.628 129.643 79.82 129.376 79.82ZM129.349 80.027C129.559 80.027 129.775 79.889 129.865 79.736V80H130.114V78.431H129.865V78.677C129.775 78.524 129.616 78.404 129.373 78.404C128.977 78.404 128.656 78.743 128.656 79.223V79.247C128.656 79.736 128.974 80.027 129.349 80.027ZM130.618 80H130.867V79.049C130.867 78.767 131.074 78.62 131.305 78.62C131.557 78.62 131.674 78.743 131.674 79.019V80H131.923V79.037C131.923 78.581 131.695 78.404 131.371 78.404C131.113 78.404 130.939 78.533 130.867 78.68V78.431H130.618V80ZM132.537 78.104C132.627 78.104 132.702 78.029 132.702 77.939C132.702 77.849 132.627 77.774 132.537 77.774C132.447 77.774 132.372 77.849 132.372 77.939C132.372 78.029 132.447 78.104 132.537 78.104ZM132.417 80H132.666V78.431H132.417V80ZM133.662 80.027C134.043 80.027 134.238 79.835 134.238 79.55C134.238 79.217 134.01 79.145 133.686 79.085C133.398 79.034 133.32 78.977 133.32 78.836C133.32 78.701 133.437 78.611 133.617 78.611C133.815 78.611 133.911 78.686 133.947 78.857H134.187C134.145 78.518 133.902 78.404 133.62 78.404C133.374 78.404 133.089 78.554 133.089 78.845C133.089 79.118 133.227 79.232 133.635 79.307C133.878 79.352 134.001 79.406 134.001 79.571C134.001 79.739 133.896 79.82 133.659 79.82C133.407 79.82 133.308 79.703 133.29 79.517H133.047C133.062 79.838 133.287 80.027 133.662 80.027ZM135.22 79.82C134.974 79.82 134.758 79.631 134.758 79.235V79.211C134.758 78.83 134.953 78.611 135.241 78.611C135.523 78.611 135.718 78.8 135.718 79.202V79.226C135.718 79.628 135.487 79.82 135.22 79.82ZM135.193 80.027C135.403 80.027 135.619 79.889 135.709 79.736V80H135.958V78.431H135.709V78.677C135.619 78.524 135.46 78.404 135.217 78.404C134.821 78.404 134.5 78.743 134.5 79.223V79.247C134.5 79.736 134.818 80.027 135.193 80.027ZM136.94 80.021C137.042 80.021 137.102 80.006 137.153 79.988V79.778C137.099 79.799 137.039 79.811 136.961 79.811C136.835 79.811 136.766 79.736 136.766 79.583V78.641H137.132V78.431H136.766V78.074H136.517V78.431H136.292V78.641H136.517V79.607C136.517 79.853 136.655 80.021 136.94 80.021ZM137.655 78.104C137.745 78.104 137.82 78.029 137.82 77.939C137.82 77.849 137.745 77.774 137.655 77.774C137.565 77.774 137.49 77.849 137.49 77.939C137.49 78.029 137.565 78.104 137.655 78.104ZM137.535 80H137.784V78.431H137.535V80ZM138.945 80.027C139.392 80.027 139.719 79.7 139.719 79.226V79.202C139.719 78.731 139.392 78.404 138.948 78.404C138.504 78.404 138.177 78.734 138.177 79.205V79.229C138.177 79.688 138.498 80.027 138.945 80.027ZM138.948 79.82C138.63 79.82 138.435 79.586 138.435 79.229V79.205C138.435 78.845 138.633 78.611 138.948 78.611C139.26 78.611 139.461 78.845 139.461 79.208V79.229C139.461 79.583 139.263 79.82 138.948 79.82ZM140.105 80H140.354V79.049C140.354 78.767 140.561 78.62 140.792 78.62C141.044 78.62 141.161 78.743 141.161 79.019V80H141.41V79.037C141.41 78.581 141.182 78.404 140.858 78.404C140.6 78.404 140.426 78.533 140.354 78.68V78.431H140.105V80ZM142.069 80.015C142.174 80.015 142.261 79.931 142.261 79.823C142.261 79.715 142.174 79.631 142.069 79.631C141.964 79.631 141.877 79.715 141.877 79.823C141.877 79.931 141.964 80.015 142.069 80.015ZM144.249 80.027C144.675 80.027 144.99 79.754 144.99 79.394C144.99 78.989 144.738 78.845 144.261 78.77C143.823 78.704 143.745 78.596 143.745 78.386C143.745 78.185 143.898 78.038 144.192 78.038C144.489 78.038 144.645 78.149 144.696 78.419H144.93C144.888 78.038 144.621 77.828 144.192 77.828C143.787 77.828 143.502 78.08 143.502 78.41C143.502 78.791 143.769 78.932 144.219 79.001C144.627 79.067 144.738 79.169 144.738 79.412C144.738 79.655 144.525 79.817 144.249 79.817C143.817 79.817 143.715 79.601 143.682 79.346H143.43C143.469 79.712 143.676 80.027 144.249 80.027ZM145.935 80.027C146.187 80.027 146.361 79.898 146.433 79.751V80H146.682V78.431H146.433V79.382C146.433 79.664 146.223 79.811 146.001 79.811C145.755 79.811 145.638 79.688 145.638 79.412V78.431H145.389V79.424C145.389 79.856 145.623 80.027 145.935 80.027ZM147.837 80.027C148.215 80.027 148.488 79.775 148.521 79.436H148.29C148.263 79.691 148.062 79.82 147.84 79.82C147.537 79.82 147.327 79.616 147.327 79.232V79.208C147.327 78.839 147.546 78.611 147.831 78.611C148.047 78.611 148.227 78.704 148.266 78.953H148.512C148.464 78.554 148.158 78.404 147.831 78.404C147.411 78.404 147.069 78.728 147.069 79.208V79.232C147.069 79.718 147.399 80.027 147.837 80.027ZM149.548 80.027C149.926 80.027 150.199 79.775 150.232 79.436H150.001C149.974 79.691 149.773 79.82 149.551 79.82C149.248 79.82 149.038 79.616 149.038 79.232V79.208C149.038 78.839 149.257 78.611 149.542 78.611C149.758 78.611 149.938 78.704 149.977 78.953H150.223C150.175 78.554 149.869 78.404 149.542 78.404C149.122 78.404 148.78 78.728 148.78 79.208V79.232C148.78 79.718 149.11 80.027 149.548 80.027ZM151.249 80.027C151.603 80.027 151.864 79.862 151.918 79.547H151.669C151.636 79.73 151.495 79.82 151.252 79.82C150.931 79.82 150.76 79.622 150.748 79.265H151.93V79.184C151.93 78.623 151.588 78.404 151.225 78.404C150.793 78.404 150.49 78.734 150.49 79.208V79.232C150.49 79.715 150.805 80.027 151.249 80.027ZM150.757 79.064C150.799 78.785 150.97 78.611 151.225 78.611C151.483 78.611 151.651 78.74 151.675 79.064H150.757ZM152.813 80.027C153.194 80.027 153.389 79.835 153.389 79.55C153.389 79.217 153.161 79.145 152.837 79.085C152.549 79.034 152.471 78.977 152.471 78.836C152.471 78.701 152.588 78.611 152.768 78.611C152.966 78.611 153.062 78.686 153.098 78.857H153.338C153.296 78.518 153.053 78.404 152.771 78.404C152.525 78.404 152.24 78.554 152.24 78.845C152.24 79.118 152.378 79.232 152.786 79.307C153.029 79.352 153.152 79.406 153.152 79.571C153.152 79.739 153.047 79.82 152.81 79.82C152.558 79.82 152.459 79.703 152.441 79.517H152.198C152.213 79.838 152.438 80.027 152.813 80.027ZM154.255 80.027C154.636 80.027 154.831 79.835 154.831 79.55C154.831 79.217 154.603 79.145 154.279 79.085C153.991 79.034 153.913 78.977 153.913 78.836C153.913 78.701 154.03 78.611 154.21 78.611C154.408 78.611 154.504 78.686 154.54 78.857H154.78C154.738 78.518 154.495 78.404 154.213 78.404C153.967 78.404 153.682 78.554 153.682 78.845C153.682 79.118 153.82 79.232 154.228 79.307C154.471 79.352 154.594 79.406 154.594 79.571C154.594 79.739 154.489 79.82 154.252 79.82C154 79.82 153.901 79.703 153.883 79.517H153.64C153.655 79.838 153.88 80.027 154.255 80.027ZM155.264 80H155.513V78.641H155.897V78.431H155.513V78.149C155.513 77.99 155.579 77.879 155.741 77.879C155.81 77.879 155.873 77.894 155.918 77.912V77.702C155.855 77.681 155.813 77.672 155.732 77.672C155.42 77.672 155.264 77.858 155.264 78.176V78.431H155.039V78.641H155.264V80ZM156.778 80.027C157.03 80.027 157.204 79.898 157.276 79.751V80H157.525V78.431H157.276V79.382C157.276 79.664 157.066 79.811 156.844 79.811C156.598 79.811 156.481 79.688 156.481 79.412V78.431H156.232V79.424C156.232 79.856 156.466 80.027 156.778 80.027ZM158.034 80H158.286V77.681H158.034V80ZM160.067 80.021C160.169 80.021 160.229 80.006 160.28 79.988V79.778C160.226 79.799 160.166 79.811 160.088 79.811C159.962 79.811 159.893 79.736 159.893 79.583V78.641H160.259V78.431H159.893V78.074H159.644V78.431H159.419V78.641H159.644V79.607C159.644 79.853 159.782 80.021 160.067 80.021ZM161.298 80.027C161.652 80.027 161.913 79.862 161.967 79.547H161.718C161.685 79.73 161.544 79.82 161.301 79.82C160.98 79.82 160.809 79.622 160.797 79.265H161.979V79.184C161.979 78.623 161.637 78.404 161.274 78.404C160.842 78.404 160.539 78.734 160.539 79.208V79.232C160.539 79.715 160.854 80.027 161.298 80.027ZM160.806 79.064C160.848 78.785 161.019 78.611 161.274 78.611C161.532 78.611 161.7 78.74 161.724 79.064H160.806ZM162.964 79.82C162.718 79.82 162.502 79.631 162.502 79.235V79.211C162.502 78.83 162.697 78.611 162.985 78.611C163.267 78.611 163.462 78.8 163.462 79.202V79.226C163.462 79.628 163.231 79.82 162.964 79.82ZM162.937 80.027C163.147 80.027 163.363 79.889 163.453 79.736V80H163.702V78.431H163.453V78.677C163.363 78.524 163.204 78.404 162.961 78.404C162.565 78.404 162.244 78.743 162.244 79.223V79.247C162.244 79.736 162.562 80.027 162.937 80.027ZM164.207 80H164.456V79.04C164.456 78.758 164.666 78.62 164.87 78.62C165.086 78.62 165.203 78.734 165.203 79.01V80H165.452V79.04C165.452 78.758 165.662 78.62 165.866 78.62C166.082 78.62 166.199 78.734 166.199 79.01V80H166.448V79.028C166.448 78.572 166.202 78.404 165.92 78.404C165.725 78.404 165.491 78.494 165.383 78.698C165.302 78.488 165.125 78.404 164.924 78.404C164.699 78.404 164.528 78.524 164.456 78.671V78.431H164.207V80ZM167.424 80.027C167.805 80.027 168 79.835 168 79.55C168 79.217 167.772 79.145 167.448 79.085C167.16 79.034 167.082 78.977 167.082 78.836C167.082 78.701 167.199 78.611 167.379 78.611C167.577 78.611 167.673 78.686 167.709 78.857H167.949C167.907 78.518 167.664 78.404 167.382 78.404C167.136 78.404 166.851 78.554 166.851 78.845C166.851 79.118 166.989 79.232 167.397 79.307C167.64 79.352 167.763 79.406 167.763 79.571C167.763 79.739 167.658 79.82 167.421 79.82C167.169 79.82 167.07 79.703 167.052 79.517H166.809C166.824 79.838 167.049 80.027 167.424 80.027ZM85.855 84.82C85.609 84.82 85.393 84.631 85.393 84.235V84.211C85.393 83.83 85.588 83.611 85.876 83.611C86.158 83.611 86.353 83.8 86.353 84.202V84.226C86.353 84.628 86.122 84.82 85.855 84.82ZM85.828 85.027C86.038 85.027 86.254 84.889 86.344 84.736V85H86.593V83.431H86.344V83.677C86.254 83.524 86.095 83.404 85.852 83.404C85.456 83.404 85.135 83.743 85.135 84.223V84.247C85.135 84.736 85.453 85.027 85.828 85.027ZM87.5837 85.027C87.9647 85.027 88.1597 84.835 88.1597 84.55C88.1597 84.217 87.9317 84.145 87.6077 84.085C87.3197 84.034 87.2417 83.977 87.2417 83.836C87.2417 83.701 87.3587 83.611 87.5387 83.611C87.7367 83.611 87.8327 83.686 87.8687 83.857H88.1087C88.0667 83.518 87.8237 83.404 87.5417 83.404C87.2957 83.404 87.0107 83.554 87.0107 83.845C87.0107 84.118 87.1487 84.232 87.5567 84.307C87.7997 84.352 87.9227 84.406 87.9227 84.571C87.9227 84.739 87.8177 84.82 87.5807 84.82C87.3287 84.82 87.2297 84.703 87.2117 84.517H86.9687C86.9837 84.838 87.2087 85.027 87.5837 85.027ZM88.5391 85H88.7881V84.187L89.4841 85H89.7871L89.0581 84.16L89.7301 83.431H89.4391L88.7881 84.154V82.681H88.5391V85ZM92.0079 85.546H92.2569V83.431H92.0079V83.683C91.9179 83.53 91.7559 83.404 91.4949 83.404C91.0629 83.404 90.7629 83.743 90.7629 84.223V84.247C90.7629 84.736 91.0599 85.027 91.4709 85.027C91.6989 85.027 91.9179 84.883 92.0079 84.73V85.546ZM91.4979 84.82C91.2339 84.82 91.0209 84.631 91.0209 84.235V84.211C91.0209 83.83 91.2069 83.611 91.5189 83.611C91.8249 83.611 92.0169 83.8 92.0169 84.202V84.226C92.0169 84.628 91.7889 84.82 91.4979 84.82ZM93.2918 85.027C93.5438 85.027 93.7178 84.898 93.7898 84.751V85H94.0388V83.431H93.7898V84.382C93.7898 84.664 93.5798 84.811 93.3578 84.811C93.1118 84.811 92.9948 84.688 92.9948 84.412V83.431H92.7458V84.424C92.7458 84.856 92.9798 85.027 93.2918 85.027ZM95.184 85.027C95.538 85.027 95.799 84.862 95.853 84.547H95.604C95.571 84.73 95.43 84.82 95.187 84.82C94.866 84.82 94.695 84.622 94.683 84.265H95.865V84.184C95.865 83.623 95.523 83.404 95.16 83.404C94.728 83.404 94.425 83.734 94.425 84.208V84.232C94.425 84.715 94.74 85.027 95.184 85.027ZM94.692 84.064C94.734 83.785 94.905 83.611 95.16 83.611C95.418 83.611 95.586 83.74 95.61 84.064H94.692ZM96.7478 85.027C97.1288 85.027 97.3238 84.835 97.3238 84.55C97.3238 84.217 97.0958 84.145 96.7718 84.085C96.4838 84.034 96.4058 83.977 96.4058 83.836C96.4058 83.701 96.5228 83.611 96.7028 83.611C96.9008 83.611 96.9968 83.686 97.0328 83.857H97.2728C97.2308 83.518 96.9878 83.404 96.7058 83.404C96.4598 83.404 96.1748 83.554 96.1748 83.845C96.1748 84.118 96.3128 84.232 96.7208 84.307C96.9638 84.352 97.0868 84.406 97.0868 84.571C97.0868 84.739 96.9818 84.82 96.7448 84.82C96.4928 84.82 96.3938 84.703 96.3758 84.517H96.1328C96.1478 84.838 96.3728 85.027 96.7478 85.027ZM98.1802 85.021C98.2822 85.021 98.3422 85.006 98.3932 84.988V84.778C98.3392 84.799 98.2792 84.811 98.2012 84.811C98.0752 84.811 98.0062 84.736 98.0062 84.583V83.641H98.3722V83.431H98.0062V83.074H97.7572V83.431H97.5322V83.641H97.7572V84.607C97.7572 84.853 97.8952 85.021 98.1802 85.021ZM98.8956 83.104C98.9856 83.104 99.0606 83.029 99.0606 82.939C99.0606 82.849 98.9856 82.774 98.8956 82.774C98.8056 82.774 98.7306 82.849 98.7306 82.939C98.7306 83.029 98.8056 83.104 98.8956 83.104ZM98.7756 85H99.0246V83.431H98.7756V85ZM100.185 85.027C100.632 85.027 100.959 84.7 100.959 84.226V84.202C100.959 83.731 100.632 83.404 100.188 83.404C99.7442 83.404 99.4172 83.734 99.4172 84.205V84.229C99.4172 84.688 99.7382 85.027 100.185 85.027ZM100.188 84.82C99.8702 84.82 99.6752 84.586 99.6752 84.229V84.205C99.6752 83.845 99.8732 83.611 100.188 83.611C100.5 83.611 100.701 83.845 100.701 84.208V84.229C100.701 84.583 100.503 84.82 100.188 84.82ZM101.345 85H101.594V84.049C101.594 83.767 101.801 83.62 102.032 83.62C102.284 83.62 102.401 83.743 102.401 84.019V85H102.65V84.037C102.65 83.581 102.422 83.404 102.098 83.404C101.84 83.404 101.666 83.533 101.594 83.68V83.431H101.345V85ZM103.624 85.027C104.005 85.027 104.2 84.835 104.2 84.55C104.2 84.217 103.972 84.145 103.648 84.085C103.36 84.034 103.282 83.977 103.282 83.836C103.282 83.701 103.399 83.611 103.579 83.611C103.777 83.611 103.873 83.686 103.909 83.857H104.149C104.107 83.518 103.864 83.404 103.582 83.404C103.336 83.404 103.051 83.554 103.051 83.845C103.051 84.118 103.189 84.232 103.597 84.307C103.84 84.352 103.963 84.406 103.963 84.571C103.963 84.739 103.858 84.82 103.621 84.82C103.369 84.82 103.27 84.703 103.252 84.517H103.009C103.024 84.838 103.249 85.027 103.624 85.027ZM104.597 85.369L104.966 84.742L104.723 84.628L104.435 85.285L104.597 85.369ZM106.862 85.027C107.216 85.027 107.477 84.862 107.531 84.547H107.282C107.249 84.73 107.108 84.82 106.865 84.82C106.544 84.82 106.373 84.622 106.361 84.265H107.543V84.184C107.543 83.623 107.201 83.404 106.838 83.404C106.406 83.404 106.103 83.734 106.103 84.208V84.232C106.103 84.715 106.418 85.027 106.862 85.027ZM106.37 84.064C106.412 83.785 106.583 83.611 106.838 83.611C107.096 83.611 107.264 83.74 107.288 84.064H106.37ZM108.303 85H108.621L109.185 83.431H108.927L108.468 84.748L108.003 83.431H107.733L108.303 85ZM110.086 84.82C109.84 84.82 109.624 84.631 109.624 84.235V84.211C109.624 83.83 109.819 83.611 110.107 83.611C110.389 83.611 110.584 83.8 110.584 84.202V84.226C110.584 84.628 110.353 84.82 110.086 84.82ZM110.059 85.027C110.269 85.027 110.485 84.889 110.575 84.736V85H110.824V83.431H110.575V83.677C110.485 83.524 110.326 83.404 110.083 83.404C109.687 83.404 109.366 83.743 109.366 84.223V84.247C109.366 84.736 109.684 85.027 110.059 85.027ZM111.335 85H111.587V82.681H111.335V85ZM112.628 85.027C112.88 85.027 113.054 84.898 113.126 84.751V85H113.375V83.431H113.126V84.382C113.126 84.664 112.916 84.811 112.694 84.811C112.448 84.811 112.331 84.688 112.331 84.412V83.431H112.082V84.424C112.082 84.856 112.316 85.027 112.628 85.027ZM114.481 84.82C114.235 84.82 114.019 84.631 114.019 84.235V84.211C114.019 83.83 114.214 83.611 114.502 83.611C114.784 83.611 114.979 83.8 114.979 84.202V84.226C114.979 84.628 114.748 84.82 114.481 84.82ZM114.454 85.027C114.664 85.027 114.88 84.889 114.97 84.736V85H115.219V83.431H114.97V83.677C114.88 83.524 114.721 83.404 114.478 83.404C114.082 83.404 113.761 83.743 113.761 84.223V84.247C113.761 84.736 114.079 85.027 114.454 85.027ZM116.201 85.021C116.303 85.021 116.363 85.006 116.414 84.988V84.778C116.36 84.799 116.3 84.811 116.222 84.811C116.096 84.811 116.027 84.736 116.027 84.583V83.641H116.393V83.431H116.027V83.074H115.778V83.431H115.553V83.641H115.778V84.607C115.778 84.853 115.916 85.021 116.201 85.021ZM117.432 85.027C117.786 85.027 118.047 84.862 118.101 84.547H117.852C117.819 84.73 117.678 84.82 117.435 84.82C117.114 84.82 116.943 84.622 116.931 84.265H118.113V84.184C118.113 83.623 117.771 83.404 117.408 83.404C116.976 83.404 116.673 83.734 116.673 84.208V84.232C116.673 84.715 116.988 85.027 117.432 85.027ZM116.94 84.064C116.982 83.785 117.153 83.611 117.408 83.611C117.666 83.611 117.834 83.74 117.858 84.064H116.94ZM119.289 85H119.538V84.139C119.538 83.752 119.739 83.653 120.054 83.638V83.404C119.772 83.413 119.637 83.536 119.538 83.713V83.431H119.289V85ZM121.015 85.027C121.369 85.027 121.63 84.862 121.684 84.547H121.435C121.402 84.73 121.261 84.82 121.018 84.82C120.697 84.82 120.526 84.622 120.514 84.265H121.696V84.184C121.696 83.623 121.354 83.404 120.991 83.404C120.559 83.404 120.256 83.734 120.256 84.208V84.232C120.256 84.715 120.571 85.027 121.015 85.027ZM120.523 84.064C120.565 83.785 120.736 83.611 120.991 83.611C121.249 83.611 121.417 83.74 121.441 84.064H120.523ZM122.681 84.82C122.435 84.82 122.219 84.631 122.219 84.235V84.211C122.219 83.83 122.414 83.611 122.702 83.611C122.984 83.611 123.179 83.8 123.179 84.202V84.226C123.179 84.628 122.948 84.82 122.681 84.82ZM122.654 85.027C122.864 85.027 123.08 84.889 123.17 84.736V85H123.419V83.431H123.17V83.677C123.08 83.524 122.921 83.404 122.678 83.404C122.282 83.404 121.961 83.743 121.961 84.223V84.247C121.961 84.736 122.279 85.027 122.654 85.027ZM123.93 85H124.182V82.681H123.93V85ZM124.817 83.104C124.907 83.104 124.982 83.029 124.982 82.939C124.982 82.849 124.907 82.774 124.817 82.774C124.727 82.774 124.652 82.849 124.652 82.939C124.652 83.029 124.727 83.104 124.817 83.104ZM124.697 85H124.946V83.431H124.697V85ZM125.933 85.021C126.035 85.021 126.095 85.006 126.146 84.988V84.778C126.092 84.799 126.032 84.811 125.954 84.811C125.828 84.811 125.759 84.736 125.759 84.583V83.641H126.125V83.431H125.759V83.074H125.51V83.431H125.285V83.641H125.51V84.607C125.51 84.853 125.648 85.021 125.933 85.021ZM126.664 85.546H126.916L127.783 83.431H127.528L127.093 84.556L126.613 83.431H126.346L126.961 84.838L126.664 85.546ZM127.917 85.369L128.286 84.742L128.043 84.628L127.755 85.285L127.917 85.369ZM130.143 84.82C129.897 84.82 129.681 84.631 129.681 84.235V84.211C129.681 83.83 129.876 83.611 130.164 83.611C130.446 83.611 130.641 83.8 130.641 84.202V84.226C130.641 84.628 130.41 84.82 130.143 84.82ZM130.116 85.027C130.326 85.027 130.542 84.889 130.632 84.736V85H130.881V83.431H130.632V83.677C130.542 83.524 130.383 83.404 130.14 83.404C129.744 83.404 129.423 83.743 129.423 84.223V84.247C129.423 84.736 129.741 85.027 130.116 85.027ZM131.386 85H131.635V84.049C131.635 83.767 131.842 83.62 132.073 83.62C132.325 83.62 132.442 83.743 132.442 84.019V85H132.691V84.037C132.691 83.581 132.463 83.404 132.139 83.404C131.881 83.404 131.707 83.533 131.635 83.68V83.431H131.386V85ZM133.797 84.82C133.533 84.82 133.32 84.631 133.32 84.235V84.211C133.32 83.83 133.506 83.611 133.818 83.611C134.124 83.611 134.316 83.8 134.316 84.202V84.226C134.316 84.628 134.088 84.82 133.797 84.82ZM133.77 85.027C133.998 85.027 134.217 84.883 134.307 84.73V85H134.556V82.681H134.307V83.683C134.217 83.53 134.055 83.404 133.794 83.404C133.362 83.404 133.062 83.743 133.062 84.223V84.247C133.062 84.736 133.359 85.027 133.77 85.027ZM135.854 85H136.103V84.049C136.103 83.767 136.31 83.62 136.541 83.62C136.793 83.62 136.91 83.743 136.91 84.019V85H137.159V84.037C137.159 83.581 136.931 83.404 136.607 83.404C136.349 83.404 136.175 83.533 136.103 83.68V83.431H135.854V85ZM138.25 84.82C138.004 84.82 137.788 84.631 137.788 84.235V84.211C137.788 83.83 137.983 83.611 138.271 83.611C138.553 83.611 138.748 83.8 138.748 84.202V84.226C138.748 84.628 138.517 84.82 138.25 84.82ZM138.223 85.027C138.433 85.027 138.649 84.889 138.739 84.736V85H138.988V83.431H138.739V83.677C138.649 83.524 138.49 83.404 138.247 83.404C137.851 83.404 137.53 83.743 137.53 84.223V84.247C137.53 84.736 137.848 85.027 138.223 85.027ZM139.885 85H140.203L140.767 83.431H140.509L140.05 84.748L139.585 83.431H139.315L139.885 85ZM141.221 83.104C141.311 83.104 141.386 83.029 141.386 82.939C141.386 82.849 141.311 82.774 141.221 82.774C141.131 82.774 141.056 82.849 141.056 82.939C141.056 83.029 141.131 83.104 141.221 83.104ZM141.101 85H141.35V83.431H141.101V85ZM142.483 84.742C142.219 84.742 142 84.538 142 84.196V84.172C142 83.842 142.186 83.611 142.498 83.611C142.804 83.611 142.996 83.815 142.996 84.166V84.187C142.996 84.538 142.774 84.742 142.483 84.742ZM142.486 85.573C142.924 85.573 143.233 85.351 143.236 84.895V83.431H142.987V83.683C142.897 83.53 142.735 83.404 142.474 83.404C142.042 83.404 141.742 83.758 141.742 84.184V84.205C141.742 84.637 142.045 84.949 142.456 84.949C142.684 84.949 142.897 84.805 142.987 84.652V84.88C142.987 85.216 142.792 85.363 142.483 85.363C142.216 85.363 142.066 85.27 142.03 85.09H141.775C141.817 85.354 142.021 85.573 142.486 85.573ZM144.343 84.82C144.097 84.82 143.881 84.631 143.881 84.235V84.211C143.881 83.83 144.076 83.611 144.364 83.611C144.646 83.611 144.841 83.8 144.841 84.202V84.226C144.841 84.628 144.61 84.82 144.343 84.82ZM144.316 85.027C144.526 85.027 144.742 84.889 144.832 84.736V85H145.081V83.431H144.832V83.677C144.742 83.524 144.583 83.404 144.34 83.404C143.944 83.404 143.623 83.743 143.623 84.223V84.247C143.623 84.736 143.941 85.027 144.316 85.027ZM146.063 85.021C146.165 85.021 146.225 85.006 146.276 84.988V84.778C146.222 84.799 146.162 84.811 146.084 84.811C145.958 84.811 145.889 84.736 145.889 84.583V83.641H146.255V83.431H145.889V83.074H145.64V83.431H145.415V83.641H145.64V84.607C145.64 84.853 145.778 85.021 146.063 85.021ZM147.294 85.027C147.648 85.027 147.909 84.862 147.963 84.547H147.714C147.681 84.73 147.54 84.82 147.297 84.82C146.976 84.82 146.805 84.622 146.793 84.265H147.975V84.184C147.975 83.623 147.633 83.404 147.27 83.404C146.838 83.404 146.535 83.734 146.535 84.208V84.232C146.535 84.715 146.85 85.027 147.294 85.027ZM146.802 84.064C146.844 83.785 147.015 83.611 147.27 83.611C147.528 83.611 147.696 83.74 147.72 84.064H146.802ZM149.628 85.021C149.73 85.021 149.79 85.006 149.841 84.988V84.778C149.787 84.799 149.727 84.811 149.649 84.811C149.523 84.811 149.454 84.736 149.454 84.583V83.641H149.82V83.431H149.454V83.074H149.205V83.431H148.98V83.641H149.205V84.607C149.205 84.853 149.343 85.021 149.628 85.021ZM150.869 85.027C151.316 85.027 151.643 84.7 151.643 84.226V84.202C151.643 83.731 151.316 83.404 150.872 83.404C150.428 83.404 150.101 83.734 150.101 84.205V84.229C150.101 84.688 150.422 85.027 150.869 85.027ZM150.872 84.82C150.554 84.82 150.359 84.586 150.359 84.229V84.205C150.359 83.845 150.557 83.611 150.872 83.611C151.184 83.611 151.385 83.845 151.385 84.208V84.229C151.385 84.583 151.187 84.82 150.872 84.82ZM152.314 85H152.587L152.953 83.824L153.28 85H153.556L154.045 83.431H153.79L153.421 84.694L153.064 83.431H152.848L152.467 84.694L152.101 83.431H151.831L152.314 85ZM154.955 84.82C154.709 84.82 154.493 84.631 154.493 84.235V84.211C154.493 83.83 154.688 83.611 154.976 83.611C155.258 83.611 155.453 83.8 155.453 84.202V84.226C155.453 84.628 155.222 84.82 154.955 84.82ZM154.928 85.027C155.138 85.027 155.354 84.889 155.444 84.736V85H155.693V83.431H155.444V83.677C155.354 83.524 155.195 83.404 154.952 83.404C154.556 83.404 154.235 83.743 154.235 84.223V84.247C154.235 84.736 154.553 85.027 154.928 85.027ZM156.197 85H156.446V84.139C156.446 83.752 156.647 83.653 156.962 83.638V83.404C156.68 83.413 156.545 83.536 156.446 83.713V83.431H156.197V85ZM157.899 84.82C157.635 84.82 157.422 84.631 157.422 84.235V84.211C157.422 83.83 157.608 83.611 157.92 83.611C158.226 83.611 158.418 83.8 158.418 84.202V84.226C158.418 84.628 158.19 84.82 157.899 84.82ZM157.872 85.027C158.1 85.027 158.319 84.883 158.409 84.73V85H158.658V82.681H158.409V83.683C158.319 83.53 158.157 83.404 157.896 83.404C157.464 83.404 157.164 83.743 157.164 84.223V84.247C157.164 84.736 157.461 85.027 157.872 85.027ZM85.738 90.027C86.119 90.027 86.314 89.835 86.314 89.55C86.314 89.217 86.086 89.145 85.762 89.085C85.474 89.034 85.396 88.977 85.396 88.836C85.396 88.701 85.513 88.611 85.693 88.611C85.891 88.611 85.987 88.686 86.023 88.857H86.263C86.221 88.518 85.978 88.404 85.696 88.404C85.45 88.404 85.165 88.554 85.165 88.845C85.165 89.118 85.303 89.232 85.711 89.307C85.954 89.352 86.077 89.406 86.077 89.571C86.077 89.739 85.972 89.82 85.735 89.82C85.483 89.82 85.384 89.703 85.366 89.517H85.123C85.138 89.838 85.363 90.027 85.738 90.027ZM87.4494 89.82C87.1434 89.82 86.9334 89.631 86.9334 89.229V89.205C86.9334 88.803 87.1554 88.611 87.4464 88.611C87.7104 88.611 87.9294 88.809 87.9294 89.205V89.229C87.9294 89.61 87.7614 89.82 87.4494 89.82ZM86.6934 90.546H86.9424V89.742C87.0324 89.898 87.2154 90.027 87.4734 90.027C87.9054 90.027 88.1874 89.697 88.1874 89.217V89.193C88.1874 88.704 87.8844 88.404 87.4734 88.404C87.2454 88.404 87.0324 88.542 86.9424 88.695V88.431H86.6934V90.546ZM89.2163 90.027C89.5703 90.027 89.8313 89.862 89.8853 89.547H89.6363C89.6033 89.73 89.4623 89.82 89.2193 89.82C88.8983 89.82 88.7273 89.622 88.7153 89.265H89.8973V89.184C89.8973 88.623 89.5553 88.404 89.1923 88.404C88.7603 88.404 88.4573 88.734 88.4573 89.208V89.232C88.4573 89.715 88.7723 90.027 89.2163 90.027ZM88.7243 89.064C88.7663 88.785 88.9373 88.611 89.1923 88.611C89.4503 88.611 89.6183 88.74 89.6423 89.064H88.7243ZM90.9303 90.027C91.3083 90.027 91.5813 89.775 91.6143 89.436H91.3833C91.3563 89.691 91.1553 89.82 90.9333 89.82C90.6303 89.82 90.4203 89.616 90.4203 89.232V89.208C90.4203 88.839 90.6393 88.611 90.9243 88.611C91.1403 88.611 91.3203 88.704 91.3593 88.953H91.6053C91.5573 88.554 91.2513 88.404 90.9243 88.404C90.5043 88.404 90.1623 88.728 90.1623 89.208V89.232C90.1623 89.718 90.4923 90.027 90.9303 90.027ZM92.1163 88.104C92.2063 88.104 92.2813 88.029 92.2813 87.939C92.2813 87.849 92.2063 87.774 92.1163 87.774C92.0263 87.774 91.9513 87.849 91.9513 87.939C91.9513 88.029 92.0263 88.104 92.1163 88.104ZM91.9963 90H92.2453V88.431H91.9963V90ZM92.8089 90H93.0579V88.641H93.4419V88.431H93.0579V88.149C93.0579 87.99 93.1209 87.879 93.2799 87.879C93.3489 87.879 93.3969 87.888 93.4419 87.906V87.696C93.3939 87.678 93.3519 87.672 93.2709 87.672C92.9619 87.672 92.8089 87.858 92.8089 88.176V88.431H92.5839V88.641H92.8089V90ZM93.8741 88.104C93.9641 88.104 94.0391 88.029 94.0391 87.939C94.0391 87.849 93.9641 87.774 93.8741 87.774C93.7841 87.774 93.7091 87.849 93.7091 87.939C93.7091 88.029 93.7841 88.104 93.8741 88.104ZM93.7541 90H94.0031V88.431H93.7541V90ZM95.1637 90.027C95.5417 90.027 95.8147 89.775 95.8477 89.436H95.6167C95.5897 89.691 95.3887 89.82 95.1667 89.82C94.8637 89.82 94.6537 89.616 94.6537 89.232V89.208C94.6537 88.839 94.8727 88.611 95.1577 88.611C95.3737 88.611 95.5537 88.704 95.5927 88.953H95.8387C95.7907 88.554 95.4847 88.404 95.1577 88.404C94.7377 88.404 94.3957 88.728 94.3957 89.208V89.232C94.3957 89.718 94.7257 90.027 95.1637 90.027ZM97.5036 90.027C97.8846 90.027 98.0796 89.835 98.0796 89.55C98.0796 89.217 97.8516 89.145 97.5276 89.085C97.2396 89.034 97.1616 88.977 97.1616 88.836C97.1616 88.701 97.2786 88.611 97.4586 88.611C97.6566 88.611 97.7526 88.686 97.7886 88.857H98.0286C97.9866 88.518 97.7436 88.404 97.4616 88.404C97.2156 88.404 96.9306 88.554 96.9306 88.845C96.9306 89.118 97.0686 89.232 97.4766 89.307C97.7196 89.352 97.8426 89.406 97.8426 89.571C97.8426 89.739 97.7376 89.82 97.5006 89.82C97.2486 89.82 97.1496 89.703 97.1316 89.517H96.8886C96.9036 89.838 97.1286 90.027 97.5036 90.027ZM99.11 90.027C99.557 90.027 99.884 89.7 99.884 89.226V89.202C99.884 88.731 99.557 88.404 99.113 88.404C98.669 88.404 98.342 88.734 98.342 89.205V89.229C98.342 89.688 98.663 90.027 99.11 90.027ZM99.113 89.82C98.795 89.82 98.6 89.586 98.6 89.229V89.205C98.6 88.845 98.798 88.611 99.113 88.611C99.425 88.611 99.626 88.845 99.626 89.208V89.229C99.626 89.583 99.428 89.82 99.113 89.82ZM100.276 90H100.528V87.681H100.276V90ZM101.568 90.027C101.82 90.027 101.994 89.898 102.066 89.751V90H102.315V88.431H102.066V89.382C102.066 89.664 101.856 89.811 101.634 89.811C101.388 89.811 101.271 89.688 101.271 89.412V88.431H101.022V89.424C101.022 89.856 101.256 90.027 101.568 90.027ZM103.295 90.021C103.397 90.021 103.457 90.006 103.508 89.988V89.778C103.454 89.799 103.394 89.811 103.316 89.811C103.19 89.811 103.121 89.736 103.121 89.583V88.641H103.487V88.431H103.121V88.074H102.872V88.431H102.647V88.641H102.872V89.607C102.872 89.853 103.01 90.021 103.295 90.021ZM104.011 88.104C104.101 88.104 104.176 88.029 104.176 87.939C104.176 87.849 104.101 87.774 104.011 87.774C103.921 87.774 103.846 87.849 103.846 87.939C103.846 88.029 103.921 88.104 104.011 88.104ZM103.891 90H104.14V88.431H103.891V90ZM105.3 90.027C105.747 90.027 106.074 89.7 106.074 89.226V89.202C106.074 88.731 105.747 88.404 105.303 88.404C104.859 88.404 104.532 88.734 104.532 89.205V89.229C104.532 89.688 104.853 90.027 105.3 90.027ZM105.303 89.82C104.985 89.82 104.79 89.586 104.79 89.229V89.205C104.79 88.845 104.988 88.611 105.303 88.611C105.615 88.611 105.816 88.845 105.816 89.208V89.229C105.816 89.583 105.618 89.82 105.303 89.82ZM106.46 90H106.709V89.049C106.709 88.767 106.916 88.62 107.147 88.62C107.399 88.62 107.516 88.743 107.516 89.019V90H107.765V89.037C107.765 88.581 107.537 88.404 107.213 88.404C106.955 88.404 106.781 88.533 106.709 88.68V88.431H106.46V90ZM108.739 90.027C109.12 90.027 109.315 89.835 109.315 89.55C109.315 89.217 109.087 89.145 108.763 89.085C108.475 89.034 108.397 88.977 108.397 88.836C108.397 88.701 108.514 88.611 108.694 88.611C108.892 88.611 108.988 88.686 109.024 88.857H109.264C109.222 88.518 108.979 88.404 108.697 88.404C108.451 88.404 108.166 88.554 108.166 88.845C108.166 89.118 108.304 89.232 108.712 89.307C108.955 89.352 109.078 89.406 109.078 89.571C109.078 89.739 108.973 89.82 108.736 89.82C108.484 89.82 108.385 89.703 108.367 89.517H108.124C108.139 89.838 108.364 90.027 108.739 90.027ZM109.865 90.015C109.97 90.015 110.057 89.931 110.057 89.823C110.057 89.715 109.97 89.631 109.865 89.631C109.76 89.631 109.673 89.715 109.673 89.823C109.673 89.931 109.76 90.015 109.865 90.015Z" fill="white"/>
</svg>
