<svg width="253" height="144" viewBox="0 0 253 144" fill="none" xmlns="http://www.w3.org/2000/svg">
<rect width="253" height="144" rx="3" fill="white" fill-opacity="0.05"/>
<rect x="131" y="30" width="90" height="84" fill="white" fill-opacity="0.08"/>
<path opacity="0.3" fill-rule="evenodd" clip-rule="evenodd" d="M159 83C157.352 83 156.411 81.1185 157.4 79.8L166.9 67.1333C167.7 66.0667 169.3 66.0667 170.1 67.1333L179.6 79.8C180.589 81.1185 179.648 83 178 83H159Z" fill="white"/>
<path opacity="0.3" fill-rule="evenodd" clip-rule="evenodd" d="M188 74C192.971 74 197 69.9706 197 65C197 60.0294 192.971 56 188 56C183.029 56 179 60.0294 179 65C179 69.9706 183.029 74 188 74Z" fill="white"/>
<path opacity="0.6" d="M33.448 34.06C34.75 34.06 35.608 33.118 35.608 31.864V31.816C35.608 30.556 34.726 29.65 33.448 29.65C32.176 29.65 31.276 30.58 31.276 31.834V31.882C31.276 33.118 32.134 34.06 33.448 34.06ZM33.46 33.418C32.68 33.418 32.11 32.812 32.11 31.876V31.828C32.11 30.904 32.608 30.286 33.448 30.286C34.288 30.286 34.78 30.94 34.78 31.822V31.87C34.78 32.8 34.27 33.418 33.46 33.418ZM37.3687 34.06C37.8787 34.06 38.2087 33.814 38.3647 33.508V34H39.0907V30.862H38.3647V32.728C38.3647 33.226 38.0227 33.478 37.6327 33.478C37.2127 33.478 37.0147 33.262 37.0147 32.788V30.862H36.2887V32.872C36.2887 33.706 36.7507 34.06 37.3687 34.06ZM39.9515 34H40.6775V32.368C40.6775 31.702 41.0615 31.498 41.6975 31.492V30.814C41.1695 30.82 40.8755 31.054 40.6775 31.45V30.862H39.9515V34ZM43.766 34H44.492V32.122C44.492 31.642 44.822 31.402 45.182 31.402C45.536 31.402 45.74 31.6 45.74 32.062V34H46.466V32.122C46.466 31.642 46.796 31.402 47.156 31.402C47.516 31.402 47.714 31.6 47.714 32.062V34H48.44V32.014C48.44 31.15 47.972 30.796 47.396 30.796C47.006 30.796 46.574 30.97 46.334 31.36C46.178 30.97 45.854 30.796 45.446 30.796C44.984 30.796 44.642 31.048 44.492 31.342V30.862H43.766V34ZM50.5998 33.484C50.1618 33.484 49.8138 33.154 49.8138 32.464V32.416C49.8138 31.738 50.1378 31.366 50.6358 31.366C51.1218 31.366 51.4458 31.702 51.4458 32.398V32.446C51.4458 33.148 51.0678 33.484 50.5998 33.484ZM50.4258 34.06C50.8578 34.06 51.2478 33.79 51.4218 33.484V34H52.1478V30.862H51.4218V31.336C51.2418 31.024 50.9358 30.796 50.4558 30.796C49.6998 30.796 49.0698 31.432 49.0698 32.434V32.482C49.0698 33.502 49.6938 34.06 50.4258 34.06ZM53.3841 30.346C53.6241 30.346 53.8161 30.166 53.8161 29.932C53.8161 29.692 53.6241 29.512 53.3841 29.512C53.1441 29.512 52.9521 29.692 52.9521 29.932C52.9521 30.166 53.1441 30.346 53.3841 30.346ZM53.0301 34H53.7561V30.862H53.0301V34ZM54.641 34H55.367V32.152C55.367 31.654 55.697 31.402 56.105 31.402C56.537 31.402 56.729 31.618 56.729 32.092V34H57.455V32.026C57.455 31.162 57.011 30.796 56.381 30.796C55.865 30.796 55.517 31.054 55.367 31.36V30.862H54.641V34ZM61.0831 33.316C60.6151 33.316 60.2551 32.956 60.2551 32.374V32.326C60.2551 31.756 60.5671 31.366 61.1071 31.366C61.6291 31.366 61.9531 31.72 61.9531 32.314V32.356C61.9531 32.956 61.5871 33.316 61.0831 33.316ZM61.0591 35.152C62.0311 35.152 62.6491 34.69 62.6551 33.766V30.862H61.9291V31.342C61.7491 31.03 61.4371 30.796 60.9211 30.796C60.1111 30.796 59.5111 31.456 59.5111 32.338V32.38C59.5111 33.286 60.1171 33.874 60.9031 33.874C61.3651 33.874 61.7551 33.592 61.9291 33.292V33.754C61.9291 34.318 61.6171 34.6 61.0531 34.6C60.5791 34.6 60.3391 34.42 60.2791 34.108H59.5471C59.6311 34.708 60.0751 35.152 61.0591 35.152ZM64.9159 34.06C65.8399 34.06 66.5299 33.424 66.5299 32.446V32.398C66.5299 31.438 65.8399 30.796 64.9219 30.796C63.9979 30.796 63.3079 31.444 63.3079 32.416V32.464C63.3079 33.418 63.9919 34.06 64.9159 34.06ZM64.9219 33.496C64.3699 33.496 64.0519 33.094 64.0519 32.452V32.404C64.0519 31.756 64.3819 31.366 64.9219 31.366C65.4619 31.366 65.7859 31.762 65.7859 32.41V32.452C65.7859 33.094 65.4619 33.496 64.9219 33.496ZM68.5119 33.484C68.0739 33.484 67.7259 33.154 67.7259 32.464V32.416C67.7259 31.738 68.0499 31.366 68.5479 31.366C69.0339 31.366 69.3579 31.702 69.3579 32.398V32.446C69.3579 33.148 68.9799 33.484 68.5119 33.484ZM68.3379 34.06C68.7699 34.06 69.1599 33.79 69.3339 33.484V34H70.0599V30.862H69.3339V31.336C69.1539 31.024 68.8479 30.796 68.3679 30.796C67.6119 30.796 66.9819 31.432 66.9819 32.434V32.482C66.9819 33.502 67.6059 34.06 68.3379 34.06ZM70.9422 34H71.6682V29.41H70.9422V34ZM74.6308 34H75.3748L76.0108 31.888L76.5928 34H77.3308L78.3148 30.862H77.6068L76.9528 33.13L76.3408 30.862H75.7348L75.0688 33.13L74.4448 30.862H73.6708L74.6308 34ZM80.1369 33.484C79.6989 33.484 79.3509 33.154 79.3509 32.464V32.416C79.3509 31.738 79.6749 31.366 80.1729 31.366C80.6589 31.366 80.9829 31.702 80.9829 32.398V32.446C80.9829 33.148 80.6049 33.484 80.1369 33.484ZM79.9629 34.06C80.3949 34.06 80.7849 33.79 80.9589 33.484V34H81.6849V30.862H80.9589V31.336C80.7789 31.024 80.4729 30.796 79.9929 30.796C79.2369 30.796 78.6069 31.432 78.6069 32.434V32.482C78.6069 33.502 79.2309 34.06 79.9629 34.06ZM83.6232 34.06C84.4272 34.06 84.8772 33.694 84.8772 33.058C84.8772 32.392 84.4392 32.212 83.7012 32.098C83.2032 32.014 83.0532 31.924 83.0532 31.696C83.0532 31.474 83.2392 31.324 83.5512 31.324C83.8872 31.324 84.0492 31.456 84.1092 31.744H84.7812C84.7032 31.036 84.1932 30.796 83.5512 30.796C82.9632 30.796 82.3752 31.108 82.3752 31.738C82.3752 32.326 82.6812 32.56 83.5092 32.692C83.9712 32.77 84.1812 32.866 84.1812 33.124C84.1812 33.388 84.0072 33.526 83.6172 33.526C83.1912 33.526 83.0292 33.34 82.9932 33.022H82.3092C82.3392 33.688 82.8132 34.06 83.6232 34.06ZM88.0117 34.054C88.2337 34.054 88.3897 34.018 88.5037 33.976V33.4C88.4017 33.442 88.2937 33.46 88.1497 33.46C87.9217 33.46 87.7897 33.334 87.7897 33.058V31.408H88.4797V30.862H87.7897V30.172H87.0637V30.862H86.6437V31.408H87.0637V33.124C87.0637 33.718 87.3877 34.054 88.0117 34.054ZM90.5566 34.06C91.4806 34.06 92.1706 33.424 92.1706 32.446V32.398C92.1706 31.438 91.4806 30.796 90.5626 30.796C89.6386 30.796 88.9486 31.444 88.9486 32.416V32.464C88.9486 33.418 89.6326 34.06 90.5566 34.06ZM90.5626 33.496C90.0106 33.496 89.6926 33.094 89.6926 32.452V32.404C89.6926 31.756 90.0226 31.366 90.5626 31.366C91.1026 31.366 91.4266 31.762 91.4266 32.41V32.452C91.4266 33.094 91.1026 33.496 90.5626 33.496ZM95.6362 34.06C96.4402 34.06 96.9742 33.7 97.0762 33.04H96.3742C96.3202 33.346 96.0922 33.52 95.6542 33.52C95.1142 33.52 94.8142 33.184 94.7902 32.59H97.0882V32.38C97.0882 31.258 96.3862 30.796 95.6062 30.796C94.7122 30.796 94.0462 31.444 94.0462 32.416V32.464C94.0462 33.454 94.7122 34.06 95.6362 34.06ZM94.8022 32.104C94.8742 31.618 95.1682 31.324 95.6062 31.324C96.0562 31.324 96.3322 31.564 96.3682 32.104H94.8022ZM97.7367 34H98.4627V32.152C98.4627 31.654 98.7927 31.402 99.2007 31.402C99.6327 31.402 99.8247 31.618 99.8247 32.092V34H100.551V32.026C100.551 31.162 100.107 30.796 99.4767 30.796C98.9607 30.796 98.6127 31.054 98.4627 31.36V30.862H97.7367V34ZM102.461 34.06C103.265 34.06 103.715 33.694 103.715 33.058C103.715 32.392 103.277 32.212 102.539 32.098C102.041 32.014 101.891 31.924 101.891 31.696C101.891 31.474 102.077 31.324 102.389 31.324C102.725 31.324 102.887 31.456 102.947 31.744H103.619C103.541 31.036 103.031 30.796 102.389 30.796C101.801 30.796 101.213 31.108 101.213 31.738C101.213 32.326 101.519 32.56 102.347 32.692C102.809 32.77 103.019 32.866 103.019 33.124C103.019 33.388 102.845 33.526 102.455 33.526C102.029 33.526 101.867 33.34 101.831 33.022H101.147C101.177 33.688 101.651 34.06 102.461 34.06ZM105.402 34.06C105.912 34.06 106.242 33.814 106.398 33.508V34H107.124V30.862H106.398V32.728C106.398 33.226 106.056 33.478 105.666 33.478C105.246 33.478 105.048 33.262 105.048 32.788V30.862H104.322V32.872C104.322 33.706 104.784 34.06 105.402 34.06ZM107.985 34H108.711V32.368C108.711 31.702 109.095 31.498 109.731 31.492V30.814C109.203 30.82 108.909 31.054 108.711 31.45V30.862H107.985V34ZM111.691 34.06C112.495 34.06 113.029 33.7 113.131 33.04H112.429C112.375 33.346 112.147 33.52 111.709 33.52C111.169 33.52 110.869 33.184 110.845 32.59H113.143V32.38C113.143 31.258 112.441 30.796 111.661 30.796C110.767 30.796 110.101 31.444 110.101 32.416V32.464C110.101 33.454 110.767 34.06 111.691 34.06ZM110.857 32.104C110.929 31.618 111.223 31.324 111.661 31.324C112.111 31.324 112.387 31.564 112.423 32.104H110.857ZM32.5 42.054C32.722 42.054 32.878 42.018 32.992 41.976V41.4C32.89 41.442 32.782 41.46 32.638 41.46C32.41 41.46 32.278 41.334 32.278 41.058V39.408H32.968V38.862H32.278V38.172H31.552V38.862H31.132V39.408H31.552V41.124C31.552 41.718 31.876 42.054 32.5 42.054ZM33.6468 42H34.3728V40.152C34.3728 39.654 34.7028 39.402 35.1108 39.402C35.5428 39.402 35.7348 39.618 35.7348 40.092V42H36.4608V40.026C36.4608 39.162 36.0168 38.796 35.3868 38.796C34.8708 38.796 34.5228 39.054 34.3728 39.36V37.41H33.6468V42ZM38.6232 41.484C38.1852 41.484 37.8372 41.154 37.8372 40.464V40.416C37.8372 39.738 38.1612 39.366 38.6592 39.366C39.1452 39.366 39.4692 39.702 39.4692 40.398V40.446C39.4692 41.148 39.0912 41.484 38.6232 41.484ZM38.4492 42.06C38.8812 42.06 39.2712 41.79 39.4452 41.484V42H40.1712V38.862H39.4452V39.336C39.2652 39.024 38.9592 38.796 38.4792 38.796C37.7232 38.796 37.0932 39.432 37.0932 40.434V40.482C37.0932 41.502 37.7172 42.06 38.4492 42.06ZM42.1035 42.054C42.3255 42.054 42.4815 42.018 42.5955 41.976V41.4C42.4935 41.442 42.3855 41.46 42.2415 41.46C42.0135 41.46 41.8815 41.334 41.8815 41.058V39.408H42.5715V38.862H41.8815V38.172H41.1555V38.862H40.7355V39.408H41.1555V41.124C41.1555 41.718 41.4795 42.054 42.1035 42.054ZM46.06 42.06C46.864 42.06 47.398 41.7 47.5 41.04H46.798C46.744 41.346 46.516 41.52 46.078 41.52C45.538 41.52 45.238 41.184 45.214 40.59H47.512V40.38C47.512 39.258 46.81 38.796 46.03 38.796C45.136 38.796 44.47 39.444 44.47 40.416V40.464C44.47 41.454 45.136 42.06 46.06 42.06ZM45.226 40.104C45.298 39.618 45.592 39.324 46.03 39.324C46.48 39.324 46.756 39.564 46.792 40.104H45.226ZM48.9239 42H49.7699L50.9039 38.862H50.1899L49.3799 41.256L48.5579 38.862H47.7779L48.9239 42ZM52.7046 42.06C53.5086 42.06 54.0426 41.7 54.1446 41.04H53.4426C53.3886 41.346 53.1606 41.52 52.7226 41.52C52.1826 41.52 51.8826 41.184 51.8586 40.59H54.1566V40.38C54.1566 39.258 53.4546 38.796 52.6746 38.796C51.7806 38.796 51.1146 39.444 51.1146 40.416V40.464C51.1146 41.454 51.7806 42.06 52.7046 42.06ZM51.8706 40.104C51.9426 39.618 52.2366 39.324 52.6746 39.324C53.1246 39.324 53.4006 39.564 53.4366 40.104H51.8706ZM54.805 42H55.531V40.368C55.531 39.702 55.915 39.498 56.551 39.492V38.814C56.023 38.82 55.729 39.054 55.531 39.45V38.862H54.805V42ZM57.5671 43.074H58.2811L59.9911 38.862H59.2831L58.5151 40.884L57.6811 38.862H56.8951L58.1371 41.682L57.5671 43.074ZM63.0152 42.06C63.5252 42.06 63.8552 41.814 64.0112 41.508V42H64.7372V38.862H64.0112V40.728C64.0112 41.226 63.6692 41.478 63.2792 41.478C62.8592 41.478 62.6612 41.262 62.6612 40.788V38.862H61.9352V40.872C61.9352 41.706 62.3972 42.06 63.0152 42.06ZM66.672 42.06C67.476 42.06 67.926 41.694 67.926 41.058C67.926 40.392 67.488 40.212 66.75 40.098C66.252 40.014 66.102 39.924 66.102 39.696C66.102 39.474 66.288 39.324 66.6 39.324C66.936 39.324 67.098 39.456 67.158 39.744H67.83C67.752 39.036 67.242 38.796 66.6 38.796C66.012 38.796 65.424 39.108 65.424 39.738C65.424 40.326 65.73 40.56 66.558 40.692C67.02 40.77 67.23 40.866 67.23 41.124C67.23 41.388 67.056 41.526 66.666 41.526C66.24 41.526 66.078 41.34 66.042 41.022H65.358C65.388 41.688 65.862 42.06 66.672 42.06ZM69.9429 42.06C70.7469 42.06 71.2809 41.7 71.3829 41.04H70.6809C70.6269 41.346 70.3989 41.52 69.9609 41.52C69.4209 41.52 69.1209 41.184 69.0969 40.59H71.3949V40.38C71.3949 39.258 70.6929 38.796 69.9129 38.796C69.0189 38.796 68.3529 39.444 68.3529 40.416V40.464C68.3529 41.454 69.0189 42.06 69.9429 42.06ZM69.1089 40.104C69.1809 39.618 69.4749 39.324 69.9129 39.324C70.3629 39.324 70.6389 39.564 70.6749 40.104H69.1089ZM72.0433 42H72.7693V40.368C72.7693 39.702 73.1533 39.498 73.7893 39.492V38.814C73.2613 38.82 72.9673 39.054 72.7693 39.45V38.862H72.0433V42ZM77.2318 42.06C78.0838 42.06 78.6298 41.55 78.6838 40.83H78.0178C77.9758 41.274 77.6458 41.502 77.2618 41.502C76.7278 41.502 76.3918 41.142 76.3918 40.458V40.41C76.3918 39.762 76.7458 39.378 77.2438 39.378C77.6278 39.378 77.9038 39.552 77.9638 39.972H78.6658C78.5818 39.108 77.9278 38.796 77.2318 38.796C76.3558 38.796 75.6478 39.426 75.6478 40.422V40.47C75.6478 41.472 76.3318 42.06 77.2318 42.06ZM80.635 41.484C80.197 41.484 79.849 41.154 79.849 40.464V40.416C79.849 39.738 80.173 39.366 80.671 39.366C81.157 39.366 81.481 39.702 81.481 40.398V40.446C81.481 41.148 81.103 41.484 80.635 41.484ZM80.461 42.06C80.893 42.06 81.283 41.79 81.457 41.484V42H82.183V38.862H81.457V39.336C81.277 39.024 80.971 38.796 80.491 38.796C79.735 38.796 79.105 39.432 79.105 40.434V40.482C79.105 41.502 79.729 42.06 80.461 42.06ZM83.0472 42H83.7732V40.152C83.7732 39.654 84.1032 39.402 84.5112 39.402C84.9432 39.402 85.1352 39.618 85.1352 40.092V42H85.8612V40.026C85.8612 39.162 85.4172 38.796 84.7872 38.796C84.2712 38.796 83.9232 39.054 83.7732 39.36V38.862H83.0472V42ZM90.3353 43.074H91.0613V38.862H90.3353V39.342C90.1613 39.03 89.8433 38.796 89.3333 38.796C88.5173 38.796 87.9233 39.432 87.9233 40.434V40.482C87.9233 41.502 88.5173 42.06 89.3033 42.06C89.7653 42.06 90.1673 41.784 90.3353 41.484V43.074ZM89.4833 41.484C89.0153 41.484 88.6673 41.154 88.6673 40.464V40.416C88.6673 39.738 88.9793 39.366 89.5133 39.366C90.0413 39.366 90.3593 39.708 90.3593 40.398V40.446C90.3593 41.148 89.9873 41.484 89.4833 41.484ZM92.9742 42.06C93.4842 42.06 93.8142 41.814 93.9702 41.508V42H94.6962V38.862H93.9702V40.728C93.9702 41.226 93.6282 41.478 93.2382 41.478C92.8182 41.478 92.6202 41.262 92.6202 40.788V38.862H91.8942V40.872C91.8942 41.706 92.3562 42.06 92.9742 42.06ZM95.929 38.346C96.169 38.346 96.361 38.166 96.361 37.932C96.361 37.692 96.169 37.512 95.929 37.512C95.689 37.512 95.497 37.692 95.497 37.932C95.497 38.166 95.689 38.346 95.929 38.346ZM95.575 42H96.301V38.862H95.575V42ZM98.5599 42.06C99.4119 42.06 99.9579 41.55 100.012 40.83H99.3459C99.3039 41.274 98.9739 41.502 98.5899 41.502C98.0559 41.502 97.7199 41.142 97.7199 40.458V40.41C97.7199 39.762 98.0739 39.378 98.5719 39.378C98.9559 39.378 99.2319 39.552 99.2919 39.972H99.9939C99.9099 39.108 99.2559 38.796 98.5599 38.796C97.6839 38.796 96.9759 39.426 96.9759 40.422V40.47C96.9759 41.472 97.6599 42.06 98.5599 42.06ZM100.637 42H101.363V40.458L102.539 42H103.379L102.059 40.302L103.277 38.862H102.485L101.363 40.242V37.41H100.637V42ZM103.895 42H104.621V37.41H103.895V42ZM105.854 43.074H106.568L108.278 38.862H107.57L106.802 40.884L105.968 38.862H105.182L106.424 41.682L105.854 43.074ZM31.558 50H32.284V47.408H32.998V46.862H32.284V46.412C32.284 46.142 32.404 45.95 32.692 45.95C32.824 45.95 32.914 45.962 32.998 45.998V45.434C32.884 45.398 32.782 45.38 32.602 45.38C31.936 45.38 31.558 45.752 31.558 46.442V46.862H31.132V47.408H31.558V50ZM33.8958 46.346C34.1358 46.346 34.3278 46.166 34.3278 45.932C34.3278 45.692 34.1358 45.512 33.8958 45.512C33.6558 45.512 33.4638 45.692 33.4638 45.932C33.4638 46.166 33.6558 46.346 33.8958 46.346ZM33.5418 50H34.2678V46.862H33.5418V50ZM35.1527 50H35.8787V48.152C35.8787 47.654 36.2087 47.402 36.6167 47.402C37.0487 47.402 37.2407 47.618 37.2407 48.092V50H37.9667V48.026C37.9667 47.162 37.5227 46.796 36.8927 46.796C36.3767 46.796 36.0287 47.054 35.8787 47.36V46.862H35.1527V50ZM40.1591 49.484C39.6911 49.484 39.3431 49.154 39.3431 48.464V48.416C39.3431 47.738 39.6551 47.366 40.1891 47.366C40.7171 47.366 41.0351 47.708 41.0351 48.398V48.446C41.0351 49.148 40.6631 49.484 40.1591 49.484ZM39.9791 50.06C40.4411 50.06 40.8431 49.784 41.0111 49.472V50H41.7371V45.41H41.0111V47.342C40.8371 47.03 40.5191 46.796 40.0091 46.796C39.1931 46.796 38.5991 47.432 38.5991 48.434V48.482C38.5991 49.502 39.1931 50.06 39.9791 50.06ZM44.0297 50H44.7557V48.368C44.7557 47.702 45.1397 47.498 45.7757 47.492V46.814C45.2477 46.82 44.9537 47.054 44.7557 47.45V46.862H44.0297V50ZM46.7864 46.346C47.0264 46.346 47.2184 46.166 47.2184 45.932C47.2184 45.692 47.0264 45.512 46.7864 45.512C46.5464 45.512 46.3544 45.692 46.3544 45.932C46.3544 46.166 46.5464 46.346 46.7864 46.346ZM46.4324 50H47.1584V46.862H46.4324V50ZM49.4053 49.316C48.9373 49.316 48.5773 48.956 48.5773 48.374V48.326C48.5773 47.756 48.8893 47.366 49.4293 47.366C49.9513 47.366 50.2753 47.72 50.2753 48.314V48.356C50.2753 48.956 49.9093 49.316 49.4053 49.316ZM49.3813 51.152C50.3533 51.152 50.9713 50.69 50.9773 49.766V46.862H50.2513V47.342C50.0713 47.03 49.7593 46.796 49.2433 46.796C48.4333 46.796 47.8333 47.456 47.8333 48.338V48.38C47.8333 49.286 48.4393 49.874 49.2253 49.874C49.6873 49.874 50.0773 49.592 50.2513 49.292V49.754C50.2513 50.318 49.9393 50.6 49.3753 50.6C48.9013 50.6 48.6613 50.42 48.6013 50.108H47.8693C47.9533 50.708 48.3973 51.152 49.3813 51.152ZM51.8402 50H52.5662V48.152C52.5662 47.654 52.8962 47.402 53.3042 47.402C53.7362 47.402 53.9282 47.618 53.9282 48.092V50H54.6542V48.026C54.6542 47.162 54.2102 46.796 53.5802 46.796C53.0642 46.796 52.7162 47.054 52.5662 47.36V45.41H51.8402V50ZM56.5586 50.054C56.7806 50.054 56.9366 50.018 57.0506 49.976V49.4C56.9486 49.442 56.8406 49.46 56.6966 49.46C56.4686 49.46 56.3366 49.334 56.3366 49.058V47.408H57.0266V46.862H56.3366V46.172H55.6106V46.862H55.1906V47.408H55.6106V49.124C55.6106 49.718 55.9346 50.054 56.5586 50.054ZM59.5071 46.346C59.7471 46.346 59.9391 46.166 59.9391 45.932C59.9391 45.692 59.7471 45.512 59.5071 45.512C59.2671 45.512 59.0751 45.692 59.0751 45.932C59.0751 46.166 59.2671 46.346 59.5071 46.346ZM59.1531 50H59.8791V46.862H59.1531V50ZM60.764 50H61.49V48.152C61.49 47.654 61.82 47.402 62.228 47.402C62.66 47.402 62.852 47.618 62.852 48.092V50H63.578V48.026C63.578 47.162 63.134 46.796 62.504 46.796C61.988 46.796 61.64 47.054 61.49 47.36V46.862H60.764V50ZM64.5404 50H65.2664V47.408H65.9804V46.862H65.2664V46.412C65.2664 46.142 65.3864 45.95 65.6804 45.95C65.8124 45.95 65.9264 45.974 66.0104 46.004V45.44C65.8784 45.398 65.7704 45.38 65.5964 45.38C64.9244 45.38 64.5404 45.752 64.5404 46.442V46.862H64.1144V47.408H64.5404V50ZM67.8691 50.06C68.7931 50.06 69.4831 49.424 69.4831 48.446V48.398C69.4831 47.438 68.7931 46.796 67.8751 46.796C66.9511 46.796 66.2611 47.444 66.2611 48.416V48.464C66.2611 49.418 66.9451 50.06 67.8691 50.06ZM67.8751 49.496C67.3231 49.496 67.0051 49.094 67.0051 48.452V48.404C67.0051 47.756 67.3351 47.366 67.8751 47.366C68.4151 47.366 68.7391 47.762 68.7391 48.41V48.452C68.7391 49.094 68.4151 49.496 67.8751 49.496ZM70.139 50H70.865V48.368C70.865 47.702 71.249 47.498 71.885 47.492V46.814C71.357 46.82 71.063 47.054 70.865 47.45V46.862H70.139V50ZM72.5238 50H73.2498V48.122C73.2498 47.642 73.5798 47.402 73.9398 47.402C74.2938 47.402 74.4978 47.6 74.4978 48.062V50H75.2238V48.122C75.2238 47.642 75.5538 47.402 75.9138 47.402C76.2738 47.402 76.4718 47.6 76.4718 48.062V50H77.1978V48.014C77.1978 47.15 76.7298 46.796 76.1538 46.796C75.7638 46.796 75.3318 46.97 75.0918 47.36C74.9358 46.97 74.6118 46.796 74.2038 46.796C73.7418 46.796 73.3998 47.048 73.2498 47.342V46.862H72.5238V50ZM79.3576 49.484C78.9196 49.484 78.5716 49.154 78.5716 48.464V48.416C78.5716 47.738 78.8956 47.366 79.3936 47.366C79.8796 47.366 80.2036 47.702 80.2036 48.398V48.446C80.2036 49.148 79.8256 49.484 79.3576 49.484ZM79.1836 50.06C79.6156 50.06 80.0056 49.79 80.1796 49.484V50H80.9056V46.862H80.1796V47.336C79.9996 47.024 79.6936 46.796 79.2136 46.796C78.4576 46.796 77.8276 47.432 77.8276 48.434V48.482C77.8276 49.502 78.4516 50.06 79.1836 50.06ZM82.8379 50.054C83.0599 50.054 83.2159 50.018 83.3299 49.976V49.4C83.2279 49.442 83.1199 49.46 82.9759 49.46C82.7479 49.46 82.6159 49.334 82.6159 49.058V47.408H83.3059V46.862H82.6159V46.172H81.8899V46.862H81.4699V47.408H81.8899V49.124C81.8899 49.718 82.2139 50.054 82.8379 50.054ZM84.3567 46.346C84.5967 46.346 84.7887 46.166 84.7887 45.932C84.7887 45.692 84.5967 45.512 84.3567 45.512C84.1167 45.512 83.9247 45.692 83.9247 45.932C83.9247 46.166 84.1167 46.346 84.3567 46.346ZM84.0027 50H84.7287V46.862H84.0027V50ZM87.0116 50.06C87.9356 50.06 88.6256 49.424 88.6256 48.446V48.398C88.6256 47.438 87.9356 46.796 87.0176 46.796C86.0936 46.796 85.4036 47.444 85.4036 48.416V48.464C85.4036 49.418 86.0876 50.06 87.0116 50.06ZM87.0176 49.496C86.4656 49.496 86.1476 49.094 86.1476 48.452V48.404C86.1476 47.756 86.4776 47.366 87.0176 47.366C87.5576 47.366 87.8816 47.762 87.8816 48.41V48.452C87.8816 49.094 87.5576 49.496 87.0176 49.496ZM89.2816 50H90.0076V48.152C90.0076 47.654 90.3376 47.402 90.7456 47.402C91.1776 47.402 91.3696 47.618 91.3696 48.092V50H92.0956V48.026C92.0956 47.162 91.6516 46.796 91.0216 46.796C90.5056 46.796 90.1576 47.054 90.0076 47.36V46.862H89.2816V50Z" fill="white"/>
<path opacity="0.6" d="M31.66 61H31.897L32.398 59.305L32.884 61H33.124L33.682 58.855H33.439L32.998 60.592L32.494 58.855H32.308L31.804 60.586L31.369 58.855H31.102L31.66 61ZM34.5571 61.027C34.9111 61.027 35.1721 60.862 35.2261 60.547H34.9771C34.9441 60.73 34.8031 60.82 34.5601 60.82C34.2391 60.82 34.0681 60.622 34.0561 60.265H35.2381V60.184C35.2381 59.623 34.8961 59.404 34.5331 59.404C34.1011 59.404 33.7981 59.734 33.7981 60.208V60.232C33.7981 60.715 34.1131 61.027 34.5571 61.027ZM34.0651 60.064C34.1071 59.785 34.2781 59.611 34.5331 59.611C34.7911 59.611 34.9591 59.74 34.9831 60.064H34.0651ZM36.4681 61H36.7171V59.641H37.1011V59.431H36.7171V59.149C36.7171 58.99 36.7831 58.879 36.9451 58.879C37.0141 58.879 37.0771 58.894 37.1221 58.912V58.702C37.0591 58.681 37.0171 58.672 36.9361 58.672C36.6241 58.672 36.4681 58.858 36.4681 59.176V59.431H36.2431V59.641H36.4681V61ZM38.026 61.027C38.473 61.027 38.8 60.7 38.8 60.226V60.202C38.8 59.731 38.473 59.404 38.029 59.404C37.585 59.404 37.258 59.734 37.258 60.205V60.229C37.258 60.688 37.579 61.027 38.026 61.027ZM38.029 60.82C37.711 60.82 37.516 60.586 37.516 60.229V60.205C37.516 59.845 37.714 59.611 38.029 59.611C38.341 59.611 38.542 59.845 38.542 60.208V60.229C38.542 60.583 38.344 60.82 38.029 60.82ZM39.8366 61.027C40.2146 61.027 40.4876 60.775 40.5206 60.436H40.2896C40.2626 60.691 40.0616 60.82 39.8396 60.82C39.5366 60.82 39.3266 60.616 39.3266 60.232V60.208C39.3266 59.839 39.5456 59.611 39.8306 59.611C40.0466 59.611 40.2266 59.704 40.2656 59.953H40.5116C40.4636 59.554 40.1576 59.404 39.8306 59.404C39.4106 59.404 39.0686 59.728 39.0686 60.208V60.232C39.0686 60.718 39.3986 61.027 39.8366 61.027ZM41.4275 61.027C41.6795 61.027 41.8535 60.898 41.9255 60.751V61H42.1745V59.431H41.9255V60.382C41.9255 60.664 41.7155 60.811 41.4935 60.811C41.2475 60.811 41.1305 60.688 41.1305 60.412V59.431H40.8815V60.424C40.8815 60.856 41.1155 61.027 41.4275 61.027ZM43.1638 61.027C43.5448 61.027 43.7398 60.835 43.7398 60.55C43.7398 60.217 43.5118 60.145 43.1878 60.085C42.8998 60.034 42.8218 59.977 42.8218 59.836C42.8218 59.701 42.9388 59.611 43.1188 59.611C43.3168 59.611 43.4128 59.686 43.4488 59.857H43.6888C43.6468 59.518 43.4038 59.404 43.1218 59.404C42.8758 59.404 42.5908 59.554 42.5908 59.845C42.5908 60.118 42.7288 60.232 43.1368 60.307C43.3798 60.352 43.5028 60.406 43.5028 60.571C43.5028 60.739 43.3978 60.82 43.1608 60.82C42.9088 60.82 42.8098 60.703 42.7918 60.517H42.5488C42.5638 60.838 42.7888 61.027 43.1638 61.027ZM44.7612 61.027C45.1152 61.027 45.3762 60.862 45.4302 60.547H45.1812C45.1482 60.73 45.0072 60.82 44.7642 60.82C44.4432 60.82 44.2722 60.622 44.2602 60.265H45.4422V60.184C45.4422 59.623 45.1002 59.404 44.7372 59.404C44.3052 59.404 44.0022 59.734 44.0022 60.208V60.232C44.0022 60.715 44.3172 61.027 44.7612 61.027ZM44.2692 60.064C44.3112 59.785 44.4822 59.611 44.7372 59.611C44.9952 59.611 45.1632 59.74 45.1872 60.064H44.2692ZM46.4423 60.82C46.1783 60.82 45.9653 60.631 45.9653 60.235V60.211C45.9653 59.83 46.1513 59.611 46.4633 59.611C46.7693 59.611 46.9613 59.8 46.9613 60.202V60.226C46.9613 60.628 46.7333 60.82 46.4423 60.82ZM46.4153 61.027C46.6433 61.027 46.8623 60.883 46.9523 60.73V61H47.2013V58.681H46.9523V59.683C46.8623 59.53 46.7003 59.404 46.4393 59.404C46.0073 59.404 45.7073 59.743 45.7073 60.223V60.247C45.7073 60.736 46.0043 61.027 46.4153 61.027ZM49.1501 61.027C49.5971 61.027 49.9241 60.7 49.9241 60.226V60.202C49.9241 59.731 49.5971 59.404 49.1531 59.404C48.7091 59.404 48.3821 59.734 48.3821 60.205V60.229C48.3821 60.688 48.7031 61.027 49.1501 61.027ZM49.1531 60.82C48.8351 60.82 48.6401 60.586 48.6401 60.229V60.205C48.6401 59.845 48.8381 59.611 49.1531 59.611C49.4651 59.611 49.6661 59.845 49.6661 60.208V60.229C49.6661 60.583 49.4681 60.82 49.1531 60.82ZM50.3096 61H50.5586V60.049C50.5586 59.767 50.7656 59.62 50.9966 59.62C51.2486 59.62 51.3656 59.743 51.3656 60.019V61H51.6146V60.037C51.6146 59.581 51.3866 59.404 51.0626 59.404C50.8046 59.404 50.6306 59.533 50.5586 59.68V59.431H50.3096V61ZM53.3825 61.027C53.7635 61.027 53.9585 60.835 53.9585 60.55C53.9585 60.217 53.7305 60.145 53.4065 60.085C53.1185 60.034 53.0405 59.977 53.0405 59.836C53.0405 59.701 53.1575 59.611 53.3375 59.611C53.5355 59.611 53.6315 59.686 53.6675 59.857H53.9075C53.8655 59.518 53.6225 59.404 53.3405 59.404C53.0945 59.404 52.8095 59.554 52.8095 59.845C52.8095 60.118 52.9475 60.232 53.3555 60.307C53.5985 60.352 53.7215 60.406 53.7215 60.571C53.7215 60.739 53.6165 60.82 53.3795 60.82C53.1275 60.82 53.0285 60.703 53.0105 60.517H52.7675C52.7825 60.838 53.0075 61.027 53.3825 61.027ZM54.4639 59.104C54.5539 59.104 54.6289 59.029 54.6289 58.939C54.6289 58.849 54.5539 58.774 54.4639 58.774C54.3739 58.774 54.2989 58.849 54.2989 58.939C54.2989 59.029 54.3739 59.104 54.4639 59.104ZM54.3439 61H54.5929V59.431H54.3439V61ZM55.1026 61H55.3516V60.04C55.3516 59.758 55.5616 59.62 55.7656 59.62C55.9816 59.62 56.0986 59.734 56.0986 60.01V61H56.3476V60.04C56.3476 59.758 56.5576 59.62 56.7616 59.62C56.9776 59.62 57.0946 59.734 57.0946 60.01V61H57.3436V60.028C57.3436 59.572 57.0976 59.404 56.8156 59.404C56.6206 59.404 56.3866 59.494 56.2786 59.698C56.1976 59.488 56.0206 59.404 55.8196 59.404C55.5946 59.404 55.4236 59.524 55.3516 59.671V59.431H55.1026V61ZM57.9591 59.104C58.0491 59.104 58.1241 59.029 58.1241 58.939C58.1241 58.849 58.0491 58.774 57.9591 58.774C57.8691 58.774 57.7941 58.849 57.7941 58.939C57.7941 59.029 57.8691 59.104 57.9591 59.104ZM57.8391 61H58.0881V59.431H57.8391V61ZM58.6037 61H58.8557V58.681H58.6037V61ZM59.9683 60.82C59.7223 60.82 59.5063 60.631 59.5063 60.235V60.211C59.5063 59.83 59.7013 59.611 59.9893 59.611C60.2713 59.611 60.4663 59.8 60.4663 60.202V60.226C60.4663 60.628 60.2353 60.82 59.9683 60.82ZM59.9413 61.027C60.1513 61.027 60.3673 60.889 60.4573 60.736V61H60.7063V59.431H60.4573V59.677C60.3673 59.524 60.2083 59.404 59.9653 59.404C59.5693 59.404 59.2483 59.743 59.2483 60.223V60.247C59.2483 60.736 59.5663 61.027 59.9413 61.027ZM61.211 61H61.46V60.139C61.46 59.752 61.661 59.653 61.976 59.638V59.404C61.694 59.413 61.559 59.536 61.46 59.713V59.431H61.211V61ZM62.4649 59.104C62.5549 59.104 62.6299 59.029 62.6299 58.939C62.6299 58.849 62.5549 58.774 62.4649 58.774C62.3749 58.774 62.2999 58.849 62.2999 58.939C62.2999 59.029 62.3749 59.104 62.4649 59.104ZM62.3449 61H62.5939V59.431H62.3449V61ZM63.5806 61.021C63.6826 61.021 63.7426 61.006 63.7936 60.988V60.778C63.7396 60.799 63.6796 60.811 63.6016 60.811C63.4756 60.811 63.4066 60.736 63.4066 60.583V59.641H63.7726V59.431H63.4066V59.074H63.1576V59.431H62.9326V59.641H63.1576V60.607C63.1576 60.853 63.2956 61.021 63.5806 61.021ZM64.296 59.104C64.386 59.104 64.461 59.029 64.461 58.939C64.461 58.849 64.386 58.774 64.296 58.774C64.206 58.774 64.131 58.849 64.131 58.939C64.131 59.029 64.206 59.104 64.296 59.104ZM64.176 61H64.425V59.431H64.176V61ZM65.5766 61.027C65.9306 61.027 66.1916 60.862 66.2456 60.547H65.9966C65.9636 60.73 65.8226 60.82 65.5796 60.82C65.2586 60.82 65.0876 60.622 65.0756 60.265H66.2576V60.184C66.2576 59.623 65.9156 59.404 65.5526 59.404C65.1206 59.404 64.8176 59.734 64.8176 60.208V60.232C64.8176 60.715 65.1326 61.027 65.5766 61.027ZM65.0846 60.064C65.1266 59.785 65.2976 59.611 65.5526 59.611C65.8106 59.611 65.9786 59.74 66.0026 60.064H65.0846ZM67.1403 61.027C67.5213 61.027 67.7163 60.835 67.7163 60.55C67.7163 60.217 67.4883 60.145 67.1643 60.085C66.8763 60.034 66.7983 59.977 66.7983 59.836C66.7983 59.701 66.9153 59.611 67.0953 59.611C67.2933 59.611 67.3893 59.686 67.4253 59.857H67.6653C67.6233 59.518 67.3803 59.404 67.0983 59.404C66.8523 59.404 66.5673 59.554 66.5673 59.845C66.5673 60.118 66.7053 60.232 67.1133 60.307C67.3563 60.352 67.4793 60.406 67.4793 60.571C67.4793 60.739 67.3743 60.82 67.1373 60.82C66.8853 60.82 66.7863 60.703 66.7683 60.517H66.5253C66.5403 60.838 66.7653 61.027 67.1403 61.027ZM69.6697 61.027C70.1017 61.027 70.3837 60.697 70.3837 60.217V60.193C70.3837 59.704 70.0807 59.404 69.6697 59.404C69.4417 59.404 69.2287 59.542 69.1387 59.695V58.681H68.8897V61H69.1387V60.742C69.2287 60.898 69.4147 61.027 69.6697 61.027ZM69.6457 60.82C69.3397 60.82 69.1297 60.631 69.1297 60.229V60.205C69.1297 59.803 69.3517 59.611 69.6427 59.611C69.9067 59.611 70.1257 59.809 70.1257 60.205V60.229C70.1257 60.61 69.9577 60.82 69.6457 60.82ZM71.4126 61.027C71.7666 61.027 72.0276 60.862 72.0816 60.547H71.8326C71.7996 60.73 71.6586 60.82 71.4156 60.82C71.0946 60.82 70.9236 60.622 70.9116 60.265H72.0936V60.184C72.0936 59.623 71.7516 59.404 71.3886 59.404C70.9566 59.404 70.6536 59.734 70.6536 60.208V60.232C70.6536 60.715 70.9686 61.027 71.4126 61.027ZM70.9206 60.064C70.9626 59.785 71.1336 59.611 71.3886 59.611C71.6466 59.611 71.8146 59.74 71.8386 60.064H70.9206ZM72.9526 61.021C73.0546 61.021 73.1146 61.006 73.1656 60.988V60.778C73.1116 60.799 73.0516 60.811 72.9736 60.811C72.8476 60.811 72.7786 60.736 72.7786 60.583V59.641H73.1446V59.431H72.7786V59.074H72.5296V59.431H72.3046V59.641H72.5296V60.607C72.5296 60.853 72.6676 61.021 72.9526 61.021ZM73.857 61H74.13L74.496 59.824L74.823 61H75.099L75.588 59.431H75.333L74.964 60.694L74.607 59.431H74.391L74.01 60.694L73.644 59.431H73.374L73.857 61ZM76.5366 61.027C76.8906 61.027 77.1516 60.862 77.2056 60.547H76.9566C76.9236 60.73 76.7826 60.82 76.5396 60.82C76.2186 60.82 76.0476 60.622 76.0356 60.265H77.2176V60.184C77.2176 59.623 76.8756 59.404 76.5126 59.404C76.0806 59.404 75.7776 59.734 75.7776 60.208V60.232C75.7776 60.715 76.0926 61.027 76.5366 61.027ZM76.0446 60.064C76.0866 59.785 76.2576 59.611 76.5126 59.611C76.7706 59.611 76.9386 59.74 76.9626 60.064H76.0446ZM78.2417 61.027C78.5957 61.027 78.8567 60.862 78.9107 60.547H78.6617C78.6287 60.73 78.4877 60.82 78.2447 60.82C77.9237 60.82 77.7527 60.622 77.7407 60.265H78.9227V60.184C78.9227 59.623 78.5807 59.404 78.2177 59.404C77.7857 59.404 77.4827 59.734 77.4827 60.208V60.232C77.4827 60.715 77.7977 61.027 78.2417 61.027ZM77.7497 60.064C77.7917 59.785 77.9627 59.611 78.2177 59.611C78.4757 59.611 78.6437 59.74 78.6677 60.064H77.7497ZM79.3047 61H79.5537V60.049C79.5537 59.767 79.7607 59.62 79.9917 59.62C80.2437 59.62 80.3607 59.743 80.3607 60.019V61H80.6097V60.037C80.6097 59.581 80.3817 59.404 80.0577 59.404C79.7997 59.404 79.6257 59.533 79.5537 59.68V59.431H79.3047V61ZM82.3776 61.027C82.7586 61.027 82.9536 60.835 82.9536 60.55C82.9536 60.217 82.7256 60.145 82.4016 60.085C82.1136 60.034 82.0356 59.977 82.0356 59.836C82.0356 59.701 82.1526 59.611 82.3326 59.611C82.5306 59.611 82.6266 59.686 82.6626 59.857H82.9026C82.8606 59.518 82.6176 59.404 82.3356 59.404C82.0896 59.404 81.8046 59.554 81.8046 59.845C81.8046 60.118 81.9426 60.232 82.3506 60.307C82.5936 60.352 82.7166 60.406 82.7166 60.571C82.7166 60.739 82.6116 60.82 82.3746 60.82C82.1226 60.82 82.0236 60.703 82.0056 60.517H81.7626C81.7776 60.838 82.0026 61.027 82.3776 61.027ZM83.9751 61.027C84.3291 61.027 84.5901 60.862 84.6441 60.547H84.3951C84.3621 60.73 84.2211 60.82 83.9781 60.82C83.6571 60.82 83.4861 60.622 83.4741 60.265H84.6561V60.184C84.6561 59.623 84.3141 59.404 83.9511 59.404C83.5191 59.404 83.2161 59.734 83.2161 60.208V60.232C83.2161 60.715 83.5311 61.027 83.9751 61.027ZM83.4831 60.064C83.5251 59.785 83.6961 59.611 83.9511 59.611C84.2091 59.611 84.3771 59.74 84.4011 60.064H83.4831ZM85.6621 60.742C85.3981 60.742 85.1791 60.538 85.1791 60.196V60.172C85.1791 59.842 85.3651 59.611 85.6771 59.611C85.9831 59.611 86.1751 59.815 86.1751 60.166V60.187C86.1751 60.538 85.9531 60.742 85.6621 60.742ZM85.6651 61.573C86.1031 61.573 86.4121 61.351 86.4151 60.895V59.431H86.1661V59.683C86.0761 59.53 85.9141 59.404 85.6531 59.404C85.2211 59.404 84.9211 59.758 84.9211 60.184V60.205C84.9211 60.637 85.2241 60.949 85.6351 60.949C85.8631 60.949 86.0761 60.805 86.1661 60.652V60.88C86.1661 61.216 85.9711 61.363 85.6621 61.363C85.3951 61.363 85.2451 61.27 85.2091 61.09H84.9541C84.9961 61.354 85.2001 61.573 85.6651 61.573ZM86.919 61H87.168V60.04C87.168 59.758 87.378 59.62 87.582 59.62C87.798 59.62 87.915 59.734 87.915 60.01V61H88.164V60.04C88.164 59.758 88.374 59.62 88.578 59.62C88.794 59.62 88.911 59.734 88.911 60.01V61H89.16V60.028C89.16 59.572 88.914 59.404 88.632 59.404C88.437 59.404 88.203 59.494 88.095 59.698C88.014 59.488 87.837 59.404 87.636 59.404C87.411 59.404 87.24 59.524 87.168 59.671V59.431H86.919V61ZM90.2915 61.027C90.6455 61.027 90.9065 60.862 90.9605 60.547H90.7115C90.6785 60.73 90.5375 60.82 90.2945 60.82C89.9735 60.82 89.8025 60.622 89.7905 60.265H90.9725V60.184C90.9725 59.623 90.6305 59.404 90.2675 59.404C89.8355 59.404 89.5325 59.734 89.5325 60.208V60.232C89.5325 60.715 89.8475 61.027 90.2915 61.027ZM89.7995 60.064C89.8415 59.785 90.0125 59.611 90.2675 59.611C90.5255 59.611 90.6935 59.74 90.7175 60.064H89.7995ZM91.3545 61H91.6035V60.049C91.6035 59.767 91.8105 59.62 92.0415 59.62C92.2935 59.62 92.4105 59.743 92.4105 60.019V61H92.6595V60.037C92.6595 59.581 92.4315 59.404 92.1075 59.404C91.8495 59.404 91.6755 59.533 91.6035 59.68V59.431H91.3545V61ZM93.6245 61.021C93.7265 61.021 93.7865 61.006 93.8375 60.988V60.778C93.7835 60.799 93.7235 60.811 93.6455 60.811C93.5195 60.811 93.4505 60.736 93.4505 60.583V59.641H93.8165V59.431H93.4505V59.074H93.2015V59.431H92.9765V59.641H93.2015V60.607C93.2015 60.853 93.3395 61.021 93.6245 61.021ZM94.6999 61.027C95.0809 61.027 95.2759 60.835 95.2759 60.55C95.2759 60.217 95.0479 60.145 94.7239 60.085C94.4359 60.034 94.3579 59.977 94.3579 59.836C94.3579 59.701 94.4749 59.611 94.6549 59.611C94.8529 59.611 94.9489 59.686 94.9849 59.857H95.2249C95.1829 59.518 94.9399 59.404 94.6579 59.404C94.4119 59.404 94.1269 59.554 94.1269 59.845C94.1269 60.118 94.2649 60.232 94.6729 60.307C94.9159 60.352 95.0389 60.406 95.0389 60.571C95.0389 60.739 94.9339 60.82 94.6969 60.82C94.4449 60.82 94.3459 60.703 94.3279 60.517H94.0849C94.0999 60.838 94.3249 61.027 94.6999 61.027ZM96.9263 61.021C97.0283 61.021 97.0883 61.006 97.1393 60.988V60.778C97.0853 60.799 97.0253 60.811 96.9473 60.811C96.8213 60.811 96.7523 60.736 96.7523 60.583V59.641H97.1183V59.431H96.7523V59.074H96.5033V59.431H96.2783V59.641H96.5033V60.607C96.5033 60.853 96.6413 61.021 96.9263 61.021ZM97.5157 61H97.7647V60.049C97.7647 59.767 97.9717 59.62 98.2027 59.62C98.4547 59.62 98.5717 59.743 98.5717 60.019V61H98.8207V60.037C98.8207 59.581 98.5927 59.404 98.2687 59.404C98.0107 59.404 97.8367 59.533 97.7647 59.68V58.681H97.5157V61ZM99.9116 60.82C99.6656 60.82 99.4496 60.631 99.4496 60.235V60.211C99.4496 59.83 99.6446 59.611 99.9326 59.611C100.215 59.611 100.41 59.8 100.41 60.202V60.226C100.41 60.628 100.179 60.82 99.9116 60.82ZM99.8846 61.027C100.095 61.027 100.311 60.889 100.401 60.736V61H100.65V59.431H100.401V59.677C100.311 59.524 100.152 59.404 99.9086 59.404C99.5126 59.404 99.1916 59.743 99.1916 60.223V60.247C99.1916 60.736 99.5096 61.027 99.8846 61.027ZM101.631 61.021C101.733 61.021 101.793 61.006 101.844 60.988V60.778C101.79 60.799 101.73 60.811 101.652 60.811C101.526 60.811 101.457 60.736 101.457 60.583V59.641H101.823V59.431H101.457V59.074H101.208V59.431H100.983V59.641H101.208V60.607C101.208 60.853 101.346 61.021 101.631 61.021ZM31.252 66H31.501V65.049C31.501 64.767 31.708 64.62 31.939 64.62C32.191 64.62 32.308 64.743 32.308 65.019V66H32.557V65.037C32.557 64.581 32.329 64.404 32.005 64.404C31.747 64.404 31.573 64.533 31.501 64.68V63.681H31.252V66ZM33.687 66.027C34.041 66.027 34.302 65.862 34.356 65.547H34.107C34.074 65.73 33.933 65.82 33.69 65.82C33.369 65.82 33.198 65.622 33.186 65.265H34.368V65.184C34.368 64.623 34.026 64.404 33.663 64.404C33.231 64.404 32.928 64.734 32.928 65.208V65.232C32.928 65.715 33.243 66.027 33.687 66.027ZM33.195 65.064C33.237 64.785 33.408 64.611 33.663 64.611C33.921 64.611 34.089 64.74 34.113 65.064H33.195ZM34.756 66H35.008V63.681H34.756V66ZM36.2736 65.82C35.9676 65.82 35.7576 65.631 35.7576 65.229V65.205C35.7576 64.803 35.9796 64.611 36.2706 64.611C36.5346 64.611 36.7536 64.809 36.7536 65.205V65.229C36.7536 65.61 36.5856 65.82 36.2736 65.82ZM35.5176 66.546H35.7666V65.742C35.8566 65.898 36.0396 66.027 36.2976 66.027C36.7296 66.027 37.0116 65.697 37.0116 65.217V65.193C37.0116 64.704 36.7086 64.404 36.2976 64.404C36.0696 64.404 35.8566 64.542 35.7666 64.695V64.431H35.5176V66.546ZM38.0405 66.027C38.3945 66.027 38.6555 65.862 38.7095 65.547H38.4605C38.4275 65.73 38.2865 65.82 38.0435 65.82C37.7225 65.82 37.5515 65.622 37.5395 65.265H38.7215V65.184C38.7215 64.623 38.3795 64.404 38.0165 64.404C37.5845 64.404 37.2815 64.734 37.2815 65.208V65.232C37.2815 65.715 37.5965 66.027 38.0405 66.027ZM37.5485 65.064C37.5905 64.785 37.7615 64.611 38.0165 64.611C38.2745 64.611 38.4425 64.74 38.4665 65.064H37.5485ZM39.7216 65.82C39.4576 65.82 39.2446 65.631 39.2446 65.235V65.211C39.2446 64.83 39.4306 64.611 39.7426 64.611C40.0486 64.611 40.2406 64.8 40.2406 65.202V65.226C40.2406 65.628 40.0126 65.82 39.7216 65.82ZM39.6946 66.027C39.9226 66.027 40.1416 65.883 40.2316 65.73V66H40.4806V63.681H40.2316V64.683C40.1416 64.53 39.9796 64.404 39.7186 64.404C39.2866 64.404 38.9866 64.743 38.9866 65.223V65.247C38.9866 65.736 39.2836 66.027 39.6946 66.027ZM42.2554 66.021C42.3574 66.021 42.4174 66.006 42.4684 65.988V65.778C42.4144 65.799 42.3544 65.811 42.2764 65.811C42.1504 65.811 42.0814 65.736 42.0814 65.583V64.641H42.4474V64.431H42.0814V64.074H41.8324V64.431H41.6074V64.641H41.8324V65.607C41.8324 65.853 41.9704 66.021 42.2554 66.021ZM43.4958 66.027C43.9428 66.027 44.2698 65.7 44.2698 65.226V65.202C44.2698 64.731 43.9428 64.404 43.4988 64.404C43.0548 64.404 42.7278 64.734 42.7278 65.205V65.229C42.7278 65.688 43.0488 66.027 43.4958 66.027ZM43.4988 65.82C43.1808 65.82 42.9858 65.586 42.9858 65.229V65.205C42.9858 64.845 43.1838 64.611 43.4988 64.611C43.8108 64.611 44.0118 64.845 44.0118 65.208V65.229C44.0118 65.583 43.8138 65.82 43.4988 65.82ZM46.0523 65.82C45.8063 65.82 45.5903 65.631 45.5903 65.235V65.211C45.5903 64.83 45.7853 64.611 46.0733 64.611C46.3553 64.611 46.5503 64.8 46.5503 65.202V65.226C46.5503 65.628 46.3193 65.82 46.0523 65.82ZM46.0253 66.027C46.2353 66.027 46.4513 65.889 46.5413 65.736V66H46.7903V64.431H46.5413V64.677C46.4513 64.524 46.2923 64.404 46.0493 64.404C45.6533 64.404 45.3323 64.743 45.3323 65.223V65.247C45.3323 65.736 45.6503 66.027 46.0253 66.027ZM47.946 66.027C48.324 66.027 48.597 65.775 48.63 65.436H48.399C48.372 65.691 48.171 65.82 47.949 65.82C47.646 65.82 47.436 65.616 47.436 65.232V65.208C47.436 64.839 47.655 64.611 47.94 64.611C48.156 64.611 48.336 64.704 48.375 64.953H48.621C48.573 64.554 48.267 64.404 47.94 64.404C47.52 64.404 47.178 64.728 47.178 65.208V65.232C47.178 65.718 47.508 66.027 47.946 66.027ZM49.0059 66H49.2549V65.049C49.2549 64.767 49.4619 64.62 49.6929 64.62C49.9449 64.62 50.0619 64.743 50.0619 65.019V66H50.3109V65.037C50.3109 64.581 50.0829 64.404 49.7589 64.404C49.5009 64.404 49.3269 64.533 49.2549 64.68V63.681H49.0059V66ZM50.9249 64.104C51.0149 64.104 51.0899 64.029 51.0899 63.939C51.0899 63.849 51.0149 63.774 50.9249 63.774C50.8349 63.774 50.7599 63.849 50.7599 63.939C50.7599 64.029 50.8349 64.104 50.9249 64.104ZM50.8049 66H51.0539V64.431H50.8049V66ZM52.2055 66.027C52.5595 66.027 52.8205 65.862 52.8745 65.547H52.6255C52.5925 65.73 52.4515 65.82 52.2085 65.82C51.8875 65.82 51.7165 65.622 51.7045 65.265H52.8865V65.184C52.8865 64.623 52.5445 64.404 52.1815 64.404C51.7495 64.404 51.4465 64.734 51.4465 65.208V65.232C51.4465 65.715 51.7615 66.027 52.2055 66.027ZM51.7135 65.064C51.7555 64.785 51.9265 64.611 52.1815 64.611C52.4395 64.611 52.6075 64.74 52.6315 65.064H51.7135ZM53.647 66H53.965L54.529 64.431H54.271L53.812 65.748L53.347 64.431H53.077L53.647 66ZM55.4545 66.027C55.8085 66.027 56.0695 65.862 56.1235 65.547H55.8745C55.8415 65.73 55.7005 65.82 55.4575 65.82C55.1365 65.82 54.9655 65.622 54.9535 65.265H56.1355V65.184C56.1355 64.623 55.7935 64.404 55.4305 64.404C54.9985 64.404 54.6955 64.734 54.6955 65.208V65.232C54.6955 65.715 55.0105 66.027 55.4545 66.027ZM54.9625 65.064C55.0045 64.785 55.1755 64.611 55.4305 64.611C55.6885 64.611 55.8565 64.74 55.8805 65.064H54.9625ZM58.0676 65.82C57.7616 65.82 57.5516 65.631 57.5516 65.229V65.205C57.5516 64.803 57.7736 64.611 58.0646 64.611C58.3286 64.611 58.5476 64.809 58.5476 65.205V65.229C58.5476 65.61 58.3796 65.82 58.0676 65.82ZM57.3116 66.546H57.5606V65.742C57.6506 65.898 57.8336 66.027 58.0916 66.027C58.5236 66.027 58.8056 65.697 58.8056 65.217V65.193C58.8056 64.704 58.5026 64.404 58.0916 64.404C57.8636 64.404 57.6506 64.542 57.5606 64.695V64.431H57.3116V66.546ZM59.8344 66.027C60.1884 66.027 60.4494 65.862 60.5034 65.547H60.2544C60.2214 65.73 60.0804 65.82 59.8374 65.82C59.5164 65.82 59.3454 65.622 59.3334 65.265H60.5154V65.184C60.5154 64.623 60.1734 64.404 59.8104 64.404C59.3784 64.404 59.0754 64.734 59.0754 65.208V65.232C59.0754 65.715 59.3904 66.027 59.8344 66.027ZM59.3424 65.064C59.3844 64.785 59.5554 64.611 59.8104 64.611C60.0684 64.611 60.2364 64.74 60.2604 65.064H59.3424ZM60.8975 66H61.1465V65.139C61.1465 64.752 61.3475 64.653 61.6625 64.638V64.404C61.3805 64.413 61.2455 64.536 61.1465 64.713V64.431H60.8975V66ZM62.1087 66H62.3577V64.641H62.7417V64.431H62.3577V64.149C62.3577 63.99 62.4237 63.879 62.5857 63.879C62.6547 63.879 62.7177 63.894 62.7627 63.912V63.702C62.6997 63.681 62.6577 63.672 62.5767 63.672C62.2647 63.672 62.1087 63.858 62.1087 64.176V64.431H61.8837V64.641H62.1087V66ZM63.6577 66.027C64.0117 66.027 64.2727 65.862 64.3267 65.547H64.0777C64.0447 65.73 63.9037 65.82 63.6607 65.82C63.3397 65.82 63.1687 65.622 63.1567 65.265H64.3387V65.184C64.3387 64.623 63.9967 64.404 63.6337 64.404C63.2017 64.404 62.8987 64.734 62.8987 65.208V65.232C62.8987 65.715 63.2137 66.027 63.6577 66.027ZM63.1657 65.064C63.2077 64.785 63.3787 64.611 63.6337 64.611C63.8917 64.611 64.0597 64.74 64.0837 65.064H63.1657ZM65.3718 66.027C65.7498 66.027 66.0228 65.775 66.0558 65.436H65.8248C65.7978 65.691 65.5968 65.82 65.3748 65.82C65.0718 65.82 64.8618 65.616 64.8618 65.232V65.208C64.8618 64.839 65.0808 64.611 65.3658 64.611C65.5818 64.611 65.7618 64.704 65.8008 64.953H66.0468C65.9988 64.554 65.6928 64.404 65.3658 64.404C64.9458 64.404 64.6038 64.728 64.6038 65.208V65.232C64.6038 65.718 64.9338 66.027 65.3718 66.027ZM66.9087 66.021C67.0107 66.021 67.0707 66.006 67.1217 65.988V65.778C67.0677 65.799 67.0077 65.811 66.9297 65.811C66.8037 65.811 66.7347 65.736 66.7347 65.583V64.641H67.1007V64.431H66.7347V64.074H66.4857V64.431H66.2607V64.641H66.4857V65.607C66.4857 65.853 66.6237 66.021 66.9087 66.021ZM68.916 65.742C68.652 65.742 68.433 65.538 68.433 65.196V65.172C68.433 64.842 68.619 64.611 68.931 64.611C69.237 64.611 69.429 64.815 69.429 65.166V65.187C69.429 65.538 69.207 65.742 68.916 65.742ZM68.919 66.573C69.357 66.573 69.666 66.351 69.669 65.895V64.431H69.42V64.683C69.33 64.53 69.168 64.404 68.907 64.404C68.475 64.404 68.175 64.758 68.175 65.184V65.205C68.175 65.637 68.478 65.949 68.889 65.949C69.117 65.949 69.33 65.805 69.42 65.652V65.88C69.42 66.216 69.225 66.363 68.916 66.363C68.649 66.363 68.499 66.27 68.463 66.09H68.208C68.25 66.354 68.454 66.573 68.919 66.573ZM70.1729 66H70.4219V65.139C70.4219 64.752 70.6229 64.653 70.9379 64.638V64.404C70.6559 64.413 70.5209 64.536 70.4219 64.713V64.431H70.1729V66ZM71.9079 66.027C72.3549 66.027 72.6819 65.7 72.6819 65.226V65.202C72.6819 64.731 72.3549 64.404 71.9109 64.404C71.4669 64.404 71.1399 64.734 71.1399 65.205V65.229C71.1399 65.688 71.4609 66.027 71.9079 66.027ZM71.9109 65.82C71.5929 65.82 71.3979 65.586 71.3979 65.229V65.205C71.3979 64.845 71.5959 64.611 71.9109 64.611C72.2229 64.611 72.4239 64.845 72.4239 65.208V65.229C72.4239 65.583 72.2259 65.82 71.9109 65.82ZM73.5984 66.027C73.8504 66.027 74.0244 65.898 74.0964 65.751V66H74.3454V64.431H74.0964V65.382C74.0964 65.664 73.8864 65.811 73.6644 65.811C73.4184 65.811 73.3014 65.688 73.3014 65.412V64.431H73.0524V65.424C73.0524 65.856 73.2864 66.027 73.5984 66.027ZM75.6047 65.82C75.2987 65.82 75.0887 65.631 75.0887 65.229V65.205C75.0887 64.803 75.3107 64.611 75.6017 64.611C75.8657 64.611 76.0847 64.809 76.0847 65.205V65.229C76.0847 65.61 75.9167 65.82 75.6047 65.82ZM74.8487 66.546H75.0977V65.742C75.1877 65.898 75.3707 66.027 75.6287 66.027C76.0607 66.027 76.3427 65.697 76.3427 65.217V65.193C76.3427 64.704 76.0397 64.404 75.6287 64.404C75.4007 64.404 75.1877 64.542 75.0977 64.695V64.431H74.8487V66.546ZM76.8555 64.104C76.9455 64.104 77.0205 64.029 77.0205 63.939C77.0205 63.849 76.9455 63.774 76.8555 63.774C76.7655 63.774 76.6905 63.849 76.6905 63.939C76.6905 64.029 76.7655 64.104 76.8555 64.104ZM76.7355 66H76.9845V64.431H76.7355V66ZM77.4942 66H77.7432V65.049C77.7432 64.767 77.9502 64.62 78.1812 64.62C78.4332 64.62 78.5502 64.743 78.5502 65.019V66H78.7992V65.037C78.7992 64.581 78.5712 64.404 78.2472 64.404C77.9892 64.404 77.8152 64.533 77.7432 64.68V64.431H77.4942V66ZM79.9112 65.742C79.6472 65.742 79.4282 65.538 79.4282 65.196V65.172C79.4282 64.842 79.6142 64.611 79.9262 64.611C80.2322 64.611 80.4242 64.815 80.4242 65.166V65.187C80.4242 65.538 80.2022 65.742 79.9112 65.742ZM79.9142 66.573C80.3522 66.573 80.6612 66.351 80.6642 65.895V64.431H80.4152V64.683C80.3252 64.53 80.1632 64.404 79.9022 64.404C79.4702 64.404 79.1702 64.758 79.1702 65.184V65.205C79.1702 65.637 79.4732 65.949 79.8842 65.949C80.1122 65.949 80.3252 65.805 80.4152 65.652V65.88C80.4152 66.216 80.2202 66.363 79.9112 66.363C79.6442 66.363 79.4942 66.27 79.4582 66.09H79.2032C79.2452 66.354 79.4492 66.573 79.9142 66.573ZM82.742 66.027C83.174 66.027 83.456 65.697 83.456 65.217V65.193C83.456 64.704 83.153 64.404 82.742 64.404C82.514 64.404 82.301 64.542 82.211 64.695V63.681H81.962V66H82.211V65.742C82.301 65.898 82.487 66.027 82.742 66.027ZM82.718 65.82C82.412 65.82 82.202 65.631 82.202 65.229V65.205C82.202 64.803 82.424 64.611 82.715 64.611C82.979 64.611 83.198 64.809 83.198 65.205V65.229C83.198 65.61 83.03 65.82 82.718 65.82ZM84.4458 65.82C84.1998 65.82 83.9838 65.631 83.9838 65.235V65.211C83.9838 64.83 84.1788 64.611 84.4668 64.611C84.7488 64.611 84.9438 64.8 84.9438 65.202V65.226C84.9438 65.628 84.7128 65.82 84.4458 65.82ZM84.4188 66.027C84.6288 66.027 84.8448 65.889 84.9348 65.736V66H85.1838V64.431H84.9348V64.677C84.8448 64.524 84.6858 64.404 84.4428 64.404C84.0468 64.404 83.7258 64.743 83.7258 65.223V65.247C83.7258 65.736 84.0438 66.027 84.4188 66.027ZM86.1745 66.027C86.5555 66.027 86.7505 65.835 86.7505 65.55C86.7505 65.217 86.5225 65.145 86.1985 65.085C85.9105 65.034 85.8325 64.977 85.8325 64.836C85.8325 64.701 85.9495 64.611 86.1295 64.611C86.3275 64.611 86.4235 64.686 86.4595 64.857H86.6995C86.6575 64.518 86.4145 64.404 86.1325 64.404C85.8865 64.404 85.6015 64.554 85.6015 64.845C85.6015 65.118 85.7395 65.232 86.1475 65.307C86.3905 65.352 86.5135 65.406 86.5135 65.571C86.5135 65.739 86.4085 65.82 86.1715 65.82C85.9195 65.82 85.8205 65.703 85.8025 65.517H85.5595C85.5745 65.838 85.7995 66.027 86.1745 66.027ZM87.7719 66.027C88.1259 66.027 88.3869 65.862 88.4409 65.547H88.1919C88.1589 65.73 88.0179 65.82 87.7749 65.82C87.4539 65.82 87.2829 65.622 87.2709 65.265H88.4529V65.184C88.4529 64.623 88.1109 64.404 87.7479 64.404C87.3159 64.404 87.0129 64.734 87.0129 65.208V65.232C87.0129 65.715 87.3279 66.027 87.7719 66.027ZM87.2799 65.064C87.3219 64.785 87.4929 64.611 87.7479 64.611C88.0059 64.611 88.1739 64.74 88.1979 65.064H87.2799ZM89.453 65.82C89.189 65.82 88.976 65.631 88.976 65.235V65.211C88.976 64.83 89.162 64.611 89.474 64.611C89.78 64.611 89.972 64.8 89.972 65.202V65.226C89.972 65.628 89.744 65.82 89.453 65.82ZM89.426 66.027C89.654 66.027 89.873 65.883 89.963 65.73V66H90.212V63.681H89.963V64.683C89.873 64.53 89.711 64.404 89.45 64.404C89.018 64.404 88.718 64.743 88.718 65.223V65.247C88.718 65.736 89.015 66.027 89.426 66.027ZM31.903 71.027C32.35 71.027 32.677 70.7 32.677 70.226V70.202C32.677 69.731 32.35 69.404 31.906 69.404C31.462 69.404 31.135 69.734 31.135 70.205V70.229C31.135 70.688 31.456 71.027 31.903 71.027ZM31.906 70.82C31.588 70.82 31.393 70.586 31.393 70.229V70.205C31.393 69.845 31.591 69.611 31.906 69.611C32.218 69.611 32.419 69.845 32.419 70.208V70.229C32.419 70.583 32.221 70.82 31.906 70.82ZM33.0625 71H33.3115V70.049C33.3115 69.767 33.5185 69.62 33.7495 69.62C34.0015 69.62 34.1185 69.743 34.1185 70.019V71H34.3675V70.037C34.3675 69.581 34.1395 69.404 33.8155 69.404C33.5575 69.404 33.3835 69.533 33.3115 69.68V69.431H33.0625V71ZM36.3005 71.027C36.6785 71.027 36.9515 70.775 36.9845 70.436H36.7535C36.7265 70.691 36.5255 70.82 36.3035 70.82C36.0005 70.82 35.7905 70.616 35.7905 70.232V70.208C35.7905 69.839 36.0095 69.611 36.2945 69.611C36.5105 69.611 36.6905 69.704 36.7295 69.953H36.9755C36.9275 69.554 36.6215 69.404 36.2945 69.404C35.8745 69.404 35.5325 69.728 35.5325 70.208V70.232C35.5325 70.718 35.8625 71.027 36.3005 71.027ZM38.0114 71.027C38.4584 71.027 38.7854 70.7 38.7854 70.226V70.202C38.7854 69.731 38.4584 69.404 38.0144 69.404C37.5704 69.404 37.2434 69.734 37.2434 70.205V70.229C37.2434 70.688 37.5644 71.027 38.0114 71.027ZM38.0144 70.82C37.6964 70.82 37.5014 70.586 37.5014 70.229V70.205C37.5014 69.845 37.6994 69.611 38.0144 69.611C38.3264 69.611 38.5274 69.845 38.5274 70.208V70.229C38.5274 70.583 38.3294 70.82 38.0144 70.82ZM39.1709 71H39.4199V70.049C39.4199 69.767 39.6269 69.62 39.8579 69.62C40.1099 69.62 40.2269 69.743 40.2269 70.019V71H40.4759V70.037C40.4759 69.581 40.2479 69.404 39.9239 69.404C39.6659 69.404 39.4919 69.533 39.4199 69.68V69.431H39.1709V71ZM41.4409 71.021C41.5429 71.021 41.6029 71.006 41.6539 70.988V70.778C41.5999 70.799 41.5399 70.811 41.4619 70.811C41.3359 70.811 41.2669 70.736 41.2669 70.583V69.641H41.6329V69.431H41.2669V69.074H41.0179V69.431H40.7929V69.641H41.0179V70.607C41.0179 70.853 41.1559 71.021 41.4409 71.021ZM42.6723 71.027C43.0263 71.027 43.2873 70.862 43.3413 70.547H43.0923C43.0593 70.73 42.9183 70.82 42.6753 70.82C42.3543 70.82 42.1833 70.622 42.1713 70.265H43.3533V70.184C43.3533 69.623 43.0113 69.404 42.6483 69.404C42.2163 69.404 41.9133 69.734 41.9133 70.208V70.232C41.9133 70.715 42.2283 71.027 42.6723 71.027ZM42.1803 70.064C42.2223 69.785 42.3933 69.611 42.6483 69.611C42.9063 69.611 43.0743 69.74 43.0983 70.064H42.1803ZM43.5235 71H43.7905L44.2225 70.367L44.6455 71H44.9395L44.3665 70.175L44.8855 69.431H44.6155L44.2345 70.001L43.8505 69.431H43.5595L44.0845 70.193L43.5235 71ZM45.7534 71.021C45.8554 71.021 45.9154 71.006 45.9664 70.988V70.778C45.9124 70.799 45.8524 70.811 45.7744 70.811C45.6484 70.811 45.5794 70.736 45.5794 70.583V69.641H45.9454V69.431H45.5794V69.074H45.3304V69.431H45.1054V69.641H45.3304V70.607C45.3304 70.853 45.4684 71.021 45.7534 71.021ZM46.5138 71.015C46.6188 71.015 46.7058 70.931 46.7058 70.823C46.7058 70.715 46.6188 70.631 46.5138 70.631C46.4088 70.631 46.3218 70.715 46.3218 70.823C46.3218 70.931 46.4088 71.015 46.5138 71.015ZM48.5504 71H48.8624L49.6034 68.855H49.3574L48.7184 70.748L48.0794 68.855H47.8214L48.5504 71ZM50.043 69.104C50.133 69.104 50.208 69.029 50.208 68.939C50.208 68.849 50.133 68.774 50.043 68.774C49.953 68.774 49.878 68.849 49.878 68.939C49.878 69.029 49.953 69.104 50.043 69.104ZM49.923 71H50.172V69.431H49.923V71ZM51.1677 71.027C51.5487 71.027 51.7437 70.835 51.7437 70.55C51.7437 70.217 51.5157 70.145 51.1917 70.085C50.9037 70.034 50.8257 69.977 50.8257 69.836C50.8257 69.701 50.9427 69.611 51.1227 69.611C51.3207 69.611 51.4167 69.686 51.4527 69.857H51.6927C51.6507 69.518 51.4077 69.404 51.1257 69.404C50.8797 69.404 50.5947 69.554 50.5947 69.845C50.5947 70.118 50.7327 70.232 51.1407 70.307C51.3837 70.352 51.5067 70.406 51.5067 70.571C51.5067 70.739 51.4017 70.82 51.1647 70.82C50.9127 70.82 50.8137 70.703 50.7957 70.517H50.5527C50.5677 70.838 50.7927 71.027 51.1677 71.027ZM52.6541 71.027C52.9061 71.027 53.0801 70.898 53.1521 70.751V71H53.4011V69.431H53.1521V70.382C53.1521 70.664 52.9421 70.811 52.7201 70.811C52.4741 70.811 52.3571 70.688 52.3571 70.412V69.431H52.1081V70.424C52.1081 70.856 52.3421 71.027 52.6541 71.027ZM54.5073 70.82C54.2613 70.82 54.0453 70.631 54.0453 70.235V70.211C54.0453 69.83 54.2403 69.611 54.5283 69.611C54.8103 69.611 55.0053 69.8 55.0053 70.202V70.226C55.0053 70.628 54.7743 70.82 54.5073 70.82ZM54.4803 71.027C54.6903 71.027 54.9063 70.889 54.9963 70.736V71H55.2453V69.431H54.9963V69.677C54.9063 69.524 54.7473 69.404 54.5043 69.404C54.1083 69.404 53.7873 69.743 53.7873 70.223V70.247C53.7873 70.736 54.1053 71.027 54.4803 71.027ZM55.756 71H56.008V68.681H55.756V71ZM56.5356 71.369L56.9046 70.742L56.6616 70.628L56.3736 71.285L56.5356 71.369ZM58.8003 71.027C59.1543 71.027 59.4153 70.862 59.4693 70.547H59.2203C59.1873 70.73 59.0463 70.82 58.8033 70.82C58.4823 70.82 58.3113 70.622 58.2993 70.265H59.4813V70.184C59.4813 69.623 59.1393 69.404 58.7763 69.404C58.3443 69.404 58.0413 69.734 58.0413 70.208V70.232C58.0413 70.715 58.3563 71.027 58.8003 71.027ZM58.3083 70.064C58.3503 69.785 58.5213 69.611 58.7763 69.611C59.0343 69.611 59.2023 69.74 59.2263 70.064H58.3083ZM60.4663 70.82C60.2203 70.82 60.0043 70.631 60.0043 70.235V70.211C60.0043 69.83 60.1993 69.611 60.4873 69.611C60.7693 69.611 60.9643 69.8 60.9643 70.202V70.226C60.9643 70.628 60.7333 70.82 60.4663 70.82ZM60.4393 71.027C60.6493 71.027 60.8653 70.889 60.9553 70.736V71H61.2043V69.431H60.9553V69.677C60.8653 69.524 60.7063 69.404 60.4633 69.404C60.0673 69.404 59.7463 69.743 59.7463 70.223V70.247C59.7463 70.736 60.0643 71.027 60.4393 71.027ZM62.195 71.027C62.576 71.027 62.771 70.835 62.771 70.55C62.771 70.217 62.543 70.145 62.219 70.085C61.931 70.034 61.853 69.977 61.853 69.836C61.853 69.701 61.97 69.611 62.15 69.611C62.348 69.611 62.444 69.686 62.48 69.857H62.72C62.678 69.518 62.435 69.404 62.153 69.404C61.907 69.404 61.622 69.554 61.622 69.845C61.622 70.118 61.76 70.232 62.168 70.307C62.411 70.352 62.534 70.406 62.534 70.571C62.534 70.739 62.429 70.82 62.192 70.82C61.94 70.82 61.841 70.703 61.823 70.517H61.58C61.595 70.838 61.82 71.027 62.195 71.027ZM63.2621 71.546H63.5141L64.3811 69.431H64.1261L63.6911 70.556L63.2111 69.431H62.9441L63.5591 70.838L63.2621 71.546ZM64.5784 70.292H65.2204V70.058H64.5784V70.292ZM66.1294 71.021C66.2314 71.021 66.2914 71.006 66.3424 70.988V70.778C66.2884 70.799 66.2284 70.811 66.1504 70.811C66.0244 70.811 65.9554 70.736 65.9554 70.583V69.641H66.3214V69.431H65.9554V69.074H65.7064V69.431H65.4814V69.641H65.7064V70.607C65.7064 70.853 65.8444 71.021 66.1294 71.021ZM67.3698 71.027C67.8168 71.027 68.1438 70.7 68.1438 70.226V70.202C68.1438 69.731 67.8168 69.404 67.3728 69.404C66.9288 69.404 66.6018 69.734 66.6018 70.205V70.229C66.6018 70.688 66.9228 71.027 67.3698 71.027ZM67.3728 70.82C67.0548 70.82 66.8598 70.586 66.8598 70.229V70.205C66.8598 69.845 67.0578 69.611 67.3728 69.611C67.6848 69.611 67.8858 69.845 67.8858 70.208V70.229C67.8858 70.583 67.6878 70.82 67.3728 70.82ZM68.4573 70.292H69.0993V70.058H68.4573V70.292ZM69.5313 71H69.7803V70.049C69.7803 69.767 69.9873 69.62 70.2183 69.62C70.4703 69.62 70.5873 69.743 70.5873 70.019V71H70.8363V70.037C70.8363 69.581 70.6083 69.404 70.2843 69.404C70.0263 69.404 69.8523 69.533 69.7803 69.68V69.431H69.5313V71ZM71.9273 70.82C71.6813 70.82 71.4653 70.631 71.4653 70.235V70.211C71.4653 69.83 71.6603 69.611 71.9483 69.611C72.2303 69.611 72.4253 69.8 72.4253 70.202V70.226C72.4253 70.628 72.1943 70.82 71.9273 70.82ZM71.9003 71.027C72.1103 71.027 72.3263 70.889 72.4163 70.736V71H72.6653V69.431H72.4163V69.677C72.3263 69.524 72.1673 69.404 71.9243 69.404C71.5283 69.404 71.2073 69.743 71.2073 70.223V70.247C71.2073 70.736 71.5253 71.027 71.9003 71.027ZM73.563 71H73.881L74.445 69.431H74.187L73.728 70.748L73.263 69.431H72.993L73.563 71ZM74.8985 69.104C74.9885 69.104 75.0635 69.029 75.0635 68.939C75.0635 68.849 74.9885 68.774 74.8985 68.774C74.8085 68.774 74.7335 68.849 74.7335 68.939C74.7335 69.029 74.8085 69.104 74.8985 69.104ZM74.7785 71H75.0275V69.431H74.7785V71ZM76.1612 70.742C75.8972 70.742 75.6782 70.538 75.6782 70.196V70.172C75.6782 69.842 75.8642 69.611 76.1762 69.611C76.4822 69.611 76.6742 69.815 76.6742 70.166V70.187C76.6742 70.538 76.4522 70.742 76.1612 70.742ZM76.1642 71.573C76.6022 71.573 76.9112 71.351 76.9142 70.895V69.431H76.6652V69.683C76.5752 69.53 76.4132 69.404 76.1522 69.404C75.7202 69.404 75.4202 69.758 75.4202 70.184V70.205C75.4202 70.637 75.7232 70.949 76.1342 70.949C76.3622 70.949 76.5752 70.805 76.6652 70.652V70.88C76.6652 71.216 76.4702 71.363 76.1612 71.363C75.8942 71.363 75.7442 71.27 75.7082 71.09H75.4532C75.4952 71.354 75.6992 71.573 76.1642 71.573ZM78.021 70.82C77.775 70.82 77.559 70.631 77.559 70.235V70.211C77.559 69.83 77.754 69.611 78.042 69.611C78.324 69.611 78.519 69.8 78.519 70.202V70.226C78.519 70.628 78.288 70.82 78.021 70.82ZM77.994 71.027C78.204 71.027 78.42 70.889 78.51 70.736V71H78.759V69.431H78.51V69.677C78.42 69.524 78.261 69.404 78.018 69.404C77.622 69.404 77.301 69.743 77.301 70.223V70.247C77.301 70.736 77.619 71.027 77.994 71.027ZM79.7407 71.021C79.8427 71.021 79.9027 71.006 79.9537 70.988V70.778C79.8997 70.799 79.8397 70.811 79.7617 70.811C79.6357 70.811 79.5667 70.736 79.5667 70.583V69.641H79.9327V69.431H79.5667V69.074H79.3177V69.431H79.0927V69.641H79.3177V70.607C79.3177 70.853 79.4557 71.021 79.7407 71.021ZM80.9721 71.027C81.3261 71.027 81.5871 70.862 81.6411 70.547H81.3921C81.3591 70.73 81.2181 70.82 80.9751 70.82C80.6541 70.82 80.4831 70.622 80.4711 70.265H81.6531V70.184C81.6531 69.623 81.3111 69.404 80.9481 69.404C80.5161 69.404 80.2131 69.734 80.2131 70.208V70.232C80.2131 70.715 80.5281 71.027 80.9721 71.027ZM80.4801 70.064C80.5221 69.785 80.6931 69.611 80.9481 69.611C81.2061 69.611 81.3741 69.74 81.3981 70.064H80.4801ZM83.3151 71.027C83.6961 71.027 83.8911 70.835 83.8911 70.55C83.8911 70.217 83.6631 70.145 83.3391 70.085C83.0511 70.034 82.9731 69.977 82.9731 69.836C82.9731 69.701 83.0901 69.611 83.2701 69.611C83.4681 69.611 83.5641 69.686 83.6001 69.857H83.8401C83.7981 69.518 83.5551 69.404 83.2731 69.404C83.0271 69.404 82.7421 69.554 82.7421 69.845C82.7421 70.118 82.8801 70.232 83.2881 70.307C83.5311 70.352 83.6541 70.406 83.6541 70.571C83.6541 70.739 83.5491 70.82 83.3121 70.82C83.0601 70.82 82.9611 70.703 82.9431 70.517H82.7001C82.7151 70.838 82.9401 71.027 83.3151 71.027ZM84.7476 71.021C84.8496 71.021 84.9096 71.006 84.9606 70.988V70.778C84.9066 70.799 84.8466 70.811 84.7686 70.811C84.6426 70.811 84.5736 70.736 84.5736 70.583V69.641H84.9396V69.431H84.5736V69.074H84.3246V69.431H84.0996V69.641H84.3246V70.607C84.3246 70.853 84.4626 71.021 84.7476 71.021ZM85.337 71H85.586V70.139C85.586 69.752 85.787 69.653 86.102 69.638V69.404C85.82 69.413 85.685 69.536 85.586 69.713V69.431H85.337V71ZM86.9959 71.027C87.2479 71.027 87.4219 70.898 87.4939 70.751V71H87.7429V69.431H87.4939V70.382C87.4939 70.664 87.2839 70.811 87.0619 70.811C86.8159 70.811 86.6989 70.688 86.6989 70.412V69.431H86.4499V70.424C86.4499 70.856 86.6839 71.027 86.9959 71.027ZM88.8971 71.027C89.2751 71.027 89.5481 70.775 89.5811 70.436H89.3501C89.3231 70.691 89.1221 70.82 88.9001 70.82C88.5971 70.82 88.3871 70.616 88.3871 70.232V70.208C88.3871 69.839 88.6061 69.611 88.8911 69.611C89.1071 69.611 89.2871 69.704 89.3261 69.953H89.5721C89.5241 69.554 89.2181 69.404 88.8911 69.404C88.4711 69.404 88.1291 69.728 88.1291 70.208V70.232C88.1291 70.718 88.4591 71.027 88.8971 71.027ZM90.4341 71.021C90.5361 71.021 90.5961 71.006 90.6471 70.988V70.778C90.5931 70.799 90.5331 70.811 90.4551 70.811C90.3291 70.811 90.2601 70.736 90.2601 70.583V69.641H90.6261V69.431H90.2601V69.074H90.0111V69.431H89.7861V69.641H90.0111V70.607C90.0111 70.853 90.1491 71.021 90.4341 71.021ZM91.5545 71.027C91.8065 71.027 91.9805 70.898 92.0525 70.751V71H92.3015V69.431H92.0525V70.382C92.0525 70.664 91.8425 70.811 91.6205 70.811C91.3745 70.811 91.2575 70.688 91.2575 70.412V69.431H91.0085V70.424C91.0085 70.856 91.2425 71.027 91.5545 71.027ZM92.8047 71H93.0537V70.139C93.0537 69.752 93.2547 69.653 93.5697 69.638V69.404C93.2877 69.413 93.1527 69.536 93.0537 69.713V69.431H92.8047V71ZM94.5307 71.027C94.8847 71.027 95.1457 70.862 95.1997 70.547H94.9507C94.9177 70.73 94.7767 70.82 94.5337 70.82C94.2127 70.82 94.0417 70.622 94.0297 70.265H95.2117V70.184C95.2117 69.623 94.8697 69.404 94.5067 69.404C94.0747 69.404 93.7717 69.734 93.7717 70.208V70.232C93.7717 70.715 94.0867 71.027 94.5307 71.027ZM94.0387 70.064C94.0807 69.785 94.2517 69.611 94.5067 69.611C94.7647 69.611 94.9327 69.74 94.9567 70.064H94.0387ZM96.8317 69.338C96.8317 69.128 96.9577 69.038 97.1077 69.038C97.2517 69.038 97.3507 69.14 97.3507 69.278C97.3507 69.485 97.2577 69.593 97.0177 69.701C96.9007 69.554 96.8317 69.446 96.8317 69.338ZM96.9757 70.817C96.7057 70.817 96.5407 70.667 96.5407 70.409C96.5407 70.157 96.6877 70.034 96.8977 69.932L97.4317 70.583C97.3027 70.739 97.1467 70.817 96.9757 70.817ZM98.0677 69.893H97.8367L97.5757 70.388L97.1257 69.839C97.3987 69.722 97.5847 69.545 97.5847 69.284C97.5847 69.026 97.3807 68.843 97.1167 68.843C96.8467 68.843 96.5917 69.011 96.5917 69.335C96.5917 69.479 96.6547 69.626 96.7807 69.788C96.5047 69.923 96.2887 70.094 96.2887 70.433C96.2887 70.787 96.5737 71.021 96.9667 71.021C97.2367 71.021 97.4257 70.898 97.5607 70.742L97.7737 71H98.0767L97.7167 70.562L98.0677 69.893ZM31.252 76H31.501V75.049C31.501 74.767 31.708 74.62 31.939 74.62C32.191 74.62 32.308 74.743 32.308 75.019V76H32.557V75.037C32.557 74.581 32.329 74.404 32.005 74.404C31.747 74.404 31.573 74.533 31.501 74.68V73.681H31.252V76ZM33.576 76.027C33.828 76.027 34.002 75.898 34.074 75.751V76H34.323V74.431H34.074V75.382C34.074 75.664 33.864 75.811 33.642 75.811C33.396 75.811 33.279 75.688 33.279 75.412V74.431H33.03V75.424C33.03 75.856 33.264 76.027 33.576 76.027ZM34.8262 76H35.0752V75.04C35.0752 74.758 35.2852 74.62 35.4892 74.62C35.7052 74.62 35.8222 74.734 35.8222 75.01V76H36.0712V75.04C36.0712 74.758 36.2812 74.62 36.4852 74.62C36.7012 74.62 36.8182 74.734 36.8182 75.01V76H37.0672V75.028C37.0672 74.572 36.8212 74.404 36.5392 74.404C36.3442 74.404 36.1102 74.494 36.0022 74.698C35.9212 74.488 35.7442 74.404 35.5432 74.404C35.3182 74.404 35.1472 74.524 35.0752 74.671V74.431H34.8262V76ZM38.1597 75.82C37.9137 75.82 37.6977 75.631 37.6977 75.235V75.211C37.6977 74.83 37.8927 74.611 38.1807 74.611C38.4627 74.611 38.6577 74.8 38.6577 75.202V75.226C38.6577 75.628 38.4267 75.82 38.1597 75.82ZM38.1327 76.027C38.3427 76.027 38.5587 75.889 38.6487 75.736V76H38.8977V74.431H38.6487V74.677C38.5587 74.524 38.3997 74.404 38.1567 74.404C37.7607 74.404 37.4397 74.743 37.4397 75.223V75.247C37.4397 75.736 37.7577 76.027 38.1327 76.027ZM39.4024 76H39.6514V75.049C39.6514 74.767 39.8584 74.62 40.0894 74.62C40.3414 74.62 40.4584 74.743 40.4584 75.019V76H40.7074V75.037C40.7074 74.581 40.4794 74.404 40.1554 74.404C39.8974 74.404 39.7234 74.533 39.6514 74.68V74.431H39.4024V76ZM42.6403 76.027C43.0873 76.027 43.4143 75.7 43.4143 75.226V75.202C43.4143 74.731 43.0873 74.404 42.6433 74.404C42.1993 74.404 41.8723 74.734 41.8723 75.205V75.229C41.8723 75.688 42.1933 76.027 42.6403 76.027ZM42.6433 75.82C42.3253 75.82 42.1303 75.586 42.1303 75.229V75.205C42.1303 74.845 42.3283 74.611 42.6433 74.611C42.9553 74.611 43.1563 74.845 43.1563 75.208V75.229C43.1563 75.583 42.9583 75.82 42.6433 75.82ZM43.7999 76H44.0489V75.139C44.0489 74.752 44.2499 74.653 44.5649 74.638V74.404C44.2829 74.413 44.1479 74.536 44.0489 74.713V74.431H43.7999V76ZM45.0538 74.104C45.1438 74.104 45.2188 74.029 45.2188 73.939C45.2188 73.849 45.1438 73.774 45.0538 73.774C44.9638 73.774 44.8888 73.849 44.8888 73.939C44.8888 74.029 44.9638 74.104 45.0538 74.104ZM44.9338 76H45.1828V74.431H44.9338V76ZM46.3344 76.027C46.6884 76.027 46.9494 75.862 47.0034 75.547H46.7544C46.7214 75.73 46.5804 75.82 46.3374 75.82C46.0164 75.82 45.8454 75.622 45.8334 75.265H47.0154V75.184C47.0154 74.623 46.6734 74.404 46.3104 74.404C45.8784 74.404 45.5754 74.734 45.5754 75.208V75.232C45.5754 75.715 45.8904 76.027 46.3344 76.027ZM45.8424 75.064C45.8844 74.785 46.0554 74.611 46.3104 74.611C46.5684 74.611 46.7364 74.74 46.7604 75.064H45.8424ZM47.3975 76H47.6465V75.049C47.6465 74.767 47.8535 74.62 48.0845 74.62C48.3365 74.62 48.4535 74.743 48.4535 75.019V76H48.7025V75.037C48.7025 74.581 48.4745 74.404 48.1505 74.404C47.8925 74.404 47.7185 74.533 47.6465 74.68V74.431H47.3975V76ZM49.6675 76.021C49.7695 76.021 49.8295 76.006 49.8805 75.988V75.778C49.8265 75.799 49.7665 75.811 49.6885 75.811C49.5625 75.811 49.4935 75.736 49.4935 75.583V74.641H49.8595V74.431H49.4935V74.074H49.2445V74.431H49.0195V74.641H49.2445V75.607C49.2445 75.853 49.3825 76.021 49.6675 76.021ZM50.8989 76.027C51.2529 76.027 51.5139 75.862 51.5679 75.547H51.3189C51.2859 75.73 51.1449 75.82 50.9019 75.82C50.5809 75.82 50.4099 75.622 50.3979 75.265H51.5799V75.184C51.5799 74.623 51.2379 74.404 50.8749 74.404C50.4429 74.404 50.1399 74.734 50.1399 75.208V75.232C50.1399 75.715 50.4549 76.027 50.8989 76.027ZM50.4069 75.064C50.4489 74.785 50.6199 74.611 50.8749 74.611C51.1329 74.611 51.3009 74.74 51.3249 75.064H50.4069ZM52.58 75.82C52.316 75.82 52.103 75.631 52.103 75.235V75.211C52.103 74.83 52.289 74.611 52.601 74.611C52.907 74.611 53.099 74.8 53.099 75.202V75.226C53.099 75.628 52.871 75.82 52.58 75.82ZM52.553 76.027C52.781 76.027 53 75.883 53.09 75.73V76H53.339V73.681H53.09V74.683C53 74.53 52.838 74.404 52.577 74.404C52.145 74.404 51.845 74.743 51.845 75.223V75.247C51.845 75.736 52.142 76.027 52.553 76.027ZM55.2548 75.82C54.9908 75.82 54.7778 75.631 54.7778 75.235V75.211C54.7778 74.83 54.9638 74.611 55.2758 74.611C55.5818 74.611 55.7738 74.8 55.7738 75.202V75.226C55.7738 75.628 55.5458 75.82 55.2548 75.82ZM55.2278 76.027C55.4558 76.027 55.6748 75.883 55.7648 75.73V76H56.0138V73.681H55.7648V74.683C55.6748 74.53 55.5128 74.404 55.2518 74.404C54.8198 74.404 54.5198 74.743 54.5198 75.223V75.247C54.5198 75.736 54.8168 76.027 55.2278 76.027ZM57.1596 76.027C57.5136 76.027 57.7746 75.862 57.8286 75.547H57.5796C57.5466 75.73 57.4056 75.82 57.1626 75.82C56.8416 75.82 56.6706 75.622 56.6586 75.265H57.8406V75.184C57.8406 74.623 57.4986 74.404 57.1356 74.404C56.7036 74.404 56.4006 74.734 56.4006 75.208V75.232C56.4006 75.715 56.7156 76.027 57.1596 76.027ZM56.6676 75.064C56.7096 74.785 56.8806 74.611 57.1356 74.611C57.3936 74.611 57.5616 74.74 57.5856 75.064H56.6676ZM58.7234 76.027C59.1044 76.027 59.2994 75.835 59.2994 75.55C59.2994 75.217 59.0714 75.145 58.7474 75.085C58.4594 75.034 58.3814 74.977 58.3814 74.836C58.3814 74.701 58.4984 74.611 58.6784 74.611C58.8764 74.611 58.9724 74.686 59.0084 74.857H59.2484C59.2064 74.518 58.9634 74.404 58.6814 74.404C58.4354 74.404 58.1504 74.554 58.1504 74.845C58.1504 75.118 58.2884 75.232 58.6964 75.307C58.9394 75.352 59.0624 75.406 59.0624 75.571C59.0624 75.739 58.9574 75.82 58.7204 75.82C58.4684 75.82 58.3694 75.703 58.3514 75.517H58.1084C58.1234 75.838 58.3484 76.027 58.7234 76.027ZM59.8048 74.104C59.8948 74.104 59.9698 74.029 59.9698 73.939C59.9698 73.849 59.8948 73.774 59.8048 73.774C59.7148 73.774 59.6398 73.849 59.6398 73.939C59.6398 74.029 59.7148 74.104 59.8048 74.104ZM59.6848 76H59.9338V74.431H59.6848V76ZM61.0674 75.742C60.8034 75.742 60.5844 75.538 60.5844 75.196V75.172C60.5844 74.842 60.7704 74.611 61.0824 74.611C61.3884 74.611 61.5804 74.815 61.5804 75.166V75.187C61.5804 75.538 61.3584 75.742 61.0674 75.742ZM61.0704 76.573C61.5084 76.573 61.8174 76.351 61.8204 75.895V74.431H61.5714V74.683C61.4814 74.53 61.3194 74.404 61.0584 74.404C60.6264 74.404 60.3264 74.758 60.3264 75.184V75.205C60.3264 75.637 60.6294 75.949 61.0404 75.949C61.2684 75.949 61.4814 75.805 61.5714 75.652V75.88C61.5714 76.216 61.3764 76.363 61.0674 76.363C60.8004 76.363 60.6504 76.27 60.6144 76.09H60.3594C60.4014 76.354 60.6054 76.573 61.0704 76.573ZM62.3243 76H62.5733V75.049C62.5733 74.767 62.7803 74.62 63.0113 74.62C63.2633 74.62 63.3803 74.743 63.3803 75.019V76H63.6293V75.037C63.6293 74.581 63.4013 74.404 63.0773 74.404C62.8193 74.404 62.6453 74.533 62.5733 74.68V74.431H62.3243V76ZM65.5622 76.027C65.9402 76.027 66.2132 75.775 66.2462 75.436H66.0152C65.9882 75.691 65.7872 75.82 65.5652 75.82C65.2622 75.82 65.0522 75.616 65.0522 75.232V75.208C65.0522 74.839 65.2712 74.611 65.5562 74.611C65.7722 74.611 65.9522 74.704 65.9912 74.953H66.2372C66.1892 74.554 65.8832 74.404 65.5562 74.404C65.1362 74.404 64.7942 74.728 64.7942 75.208V75.232C64.7942 75.718 65.1242 76.027 65.5622 76.027ZM66.6221 76H66.8711V75.139C66.8711 74.752 67.0721 74.653 67.3871 74.638V74.404C67.1051 74.413 66.9701 74.536 66.8711 74.713V74.431H66.6221V76ZM68.3481 76.027C68.7021 76.027 68.9631 75.862 69.0171 75.547H68.7681C68.7351 75.73 68.5941 75.82 68.3511 75.82C68.0301 75.82 67.8591 75.622 67.8471 75.265H69.0291V75.184C69.0291 74.623 68.6871 74.404 68.3241 74.404C67.8921 74.404 67.5891 74.734 67.5891 75.208V75.232C67.5891 75.715 67.9041 76.027 68.3481 76.027ZM67.8561 75.064C67.8981 74.785 68.0691 74.611 68.3241 74.611C68.5821 74.611 68.7501 74.74 68.7741 75.064H67.8561ZM70.0142 75.82C69.7682 75.82 69.5522 75.631 69.5522 75.235V75.211C69.5522 74.83 69.7472 74.611 70.0352 74.611C70.3172 74.611 70.5122 74.8 70.5122 75.202V75.226C70.5122 75.628 70.2812 75.82 70.0142 75.82ZM69.9872 76.027C70.1972 76.027 70.4132 75.889 70.5032 75.736V76H70.7522V74.431H70.5032V74.677C70.4132 74.524 70.2542 74.404 70.0112 74.404C69.6152 74.404 69.2942 74.743 69.2942 75.223V75.247C69.2942 75.736 69.6122 76.027 69.9872 76.027ZM71.7339 76.021C71.8359 76.021 71.8959 76.006 71.9469 75.988V75.778C71.8929 75.799 71.8329 75.811 71.7549 75.811C71.6289 75.811 71.5599 75.736 71.5599 75.583V74.641H71.9259V74.431H71.5599V74.074H71.3109V74.431H71.0859V74.641H71.3109V75.607C71.3109 75.853 71.4489 76.021 71.7339 76.021ZM72.9653 76.027C73.3193 76.027 73.5803 75.862 73.6343 75.547H73.3853C73.3523 75.73 73.2113 75.82 72.9683 75.82C72.6473 75.82 72.4763 75.622 72.4643 75.265H73.6463V75.184C73.6463 74.623 73.3043 74.404 72.9413 74.404C72.5093 74.404 72.2063 74.734 72.2063 75.208V75.232C72.2063 75.715 72.5213 76.027 72.9653 76.027ZM72.4733 75.064C72.5153 74.785 72.6863 74.611 72.9413 74.611C73.1993 74.611 73.3673 74.74 73.3913 75.064H72.4733ZM74.529 76.027C74.91 76.027 75.105 75.835 75.105 75.55C75.105 75.217 74.877 75.145 74.553 75.085C74.265 75.034 74.187 74.977 74.187 74.836C74.187 74.701 74.304 74.611 74.484 74.611C74.682 74.611 74.778 74.686 74.814 74.857H75.054C75.012 74.518 74.769 74.404 74.487 74.404C74.241 74.404 73.956 74.554 73.956 74.845C73.956 75.118 74.094 75.232 74.502 75.307C74.745 75.352 74.868 75.406 74.868 75.571C74.868 75.739 74.763 75.82 74.526 75.82C74.274 75.82 74.175 75.703 74.157 75.517H73.914C73.929 75.838 74.154 76.027 74.529 76.027ZM76.9204 76.027C77.2744 76.027 77.5354 75.862 77.5894 75.547H77.3404C77.3074 75.73 77.1664 75.82 76.9234 75.82C76.6024 75.82 76.4314 75.622 76.4194 75.265H77.6014V75.184C77.6014 74.623 77.2594 74.404 76.8964 74.404C76.4644 74.404 76.1614 74.734 76.1614 75.208V75.232C76.1614 75.715 76.4764 76.027 76.9204 76.027ZM76.4284 75.064C76.4704 74.785 76.6414 74.611 76.8964 74.611C77.1544 74.611 77.3224 74.74 77.3464 75.064H76.4284ZM77.9834 76H78.2324V75.049C78.2324 74.767 78.4394 74.62 78.6704 74.62C78.9224 74.62 79.0394 74.743 79.0394 75.019V76H79.2884V75.037C79.2884 74.581 79.0604 74.404 78.7364 74.404C78.4784 74.404 78.3044 74.533 78.2324 74.68V74.431H77.9834V76ZM79.9024 74.104C79.9924 74.104 80.0674 74.029 80.0674 73.939C80.0674 73.849 79.9924 73.774 79.9024 73.774C79.8124 73.774 79.7374 73.849 79.7374 73.939C79.7374 74.029 79.8124 74.104 79.9024 74.104ZM79.5514 76.573C79.8994 76.561 80.0314 76.399 80.0314 76.099V74.431H79.7824V76.12C79.7824 76.258 79.7284 76.348 79.5514 76.363V76.573ZM81.1921 76.027C81.6391 76.027 81.9661 75.7 81.9661 75.226V75.202C81.9661 74.731 81.6391 74.404 81.1951 74.404C80.7511 74.404 80.4241 74.734 80.4241 75.205V75.229C80.4241 75.688 80.7451 76.027 81.1921 76.027ZM81.1951 75.82C80.8771 75.82 80.6821 75.586 80.6821 75.229V75.205C80.6821 74.845 80.8801 74.611 81.1951 74.611C81.5071 74.611 81.7081 74.845 81.7081 75.208V75.229C81.7081 75.583 81.5101 75.82 81.1951 75.82ZM82.4487 76.546H82.7007L83.5677 74.431H83.3127L82.8777 75.556L82.3977 74.431H82.1307L82.7457 75.838L82.4487 76.546ZM84.4693 75.82C84.2233 75.82 84.0073 75.631 84.0073 75.235V75.211C84.0073 74.83 84.2023 74.611 84.4903 74.611C84.7723 74.611 84.9673 74.8 84.9673 75.202V75.226C84.9673 75.628 84.7363 75.82 84.4693 75.82ZM84.4423 76.027C84.6523 76.027 84.8683 75.889 84.9583 75.736V76H85.2073V74.431H84.9583V74.677C84.8683 74.524 84.7093 74.404 84.4663 74.404C84.0703 74.404 83.7493 74.743 83.7493 75.223V75.247C83.7493 75.736 84.0673 76.027 84.4423 76.027ZM86.492 76.027C86.924 76.027 87.206 75.697 87.206 75.217V75.193C87.206 74.704 86.903 74.404 86.492 74.404C86.264 74.404 86.051 74.542 85.961 74.695V73.681H85.712V76H85.961V75.742C86.051 75.898 86.237 76.027 86.492 76.027ZM86.468 75.82C86.162 75.82 85.952 75.631 85.952 75.229V75.205C85.952 74.803 86.174 74.611 86.465 74.611C86.729 74.611 86.948 74.809 86.948 75.205V75.229C86.948 75.61 86.78 75.82 86.468 75.82ZM87.5988 76H87.8508V73.681H87.5988V76ZM89.0024 76.027C89.3564 76.027 89.6174 75.862 89.6714 75.547H89.4224C89.3894 75.73 89.2484 75.82 89.0054 75.82C88.6844 75.82 88.5134 75.622 88.5014 75.265H89.6834V75.184C89.6834 74.623 89.3414 74.404 88.9784 74.404C88.5464 74.404 88.2434 74.734 88.2434 75.208V75.232C88.2434 75.715 88.5584 76.027 89.0024 76.027ZM88.5104 75.064C88.5524 74.785 88.7234 74.611 88.9784 74.611C89.2364 74.611 89.4044 74.74 89.4284 75.064H88.5104ZM90.9854 74.104C91.0754 74.104 91.1504 74.029 91.1504 73.939C91.1504 73.849 91.0754 73.774 90.9854 73.774C90.8954 73.774 90.8204 73.849 90.8204 73.939C90.8204 74.029 90.8954 74.104 90.9854 74.104ZM90.6344 76.573C90.9824 76.561 91.1144 76.399 91.1144 76.099V74.431H90.8654V76.12C90.8654 76.258 90.8114 76.348 90.6344 76.363V76.573ZM92.2751 76.027C92.7221 76.027 93.0491 75.7 93.0491 75.226V75.202C93.0491 74.731 92.7221 74.404 92.2781 74.404C91.8341 74.404 91.5071 74.734 91.5071 75.205V75.229C91.5071 75.688 91.8281 76.027 92.2751 76.027ZM92.2781 75.82C91.9601 75.82 91.7651 75.586 91.7651 75.229V75.205C91.7651 74.845 91.9631 74.611 92.2781 74.611C92.5901 74.611 92.7911 74.845 92.7911 75.208V75.229C92.7911 75.583 92.5931 75.82 92.2781 75.82ZM93.9656 76.027C94.2176 76.027 94.3916 75.898 94.4636 75.751V76H94.7126V74.431H94.4636V75.382C94.4636 75.664 94.2536 75.811 94.0316 75.811C93.7856 75.811 93.6686 75.688 93.6686 75.412V74.431H93.4196V75.424C93.4196 75.856 93.6536 76.027 93.9656 76.027ZM95.2159 76H95.4649V75.139C95.4649 74.752 95.6659 74.653 95.9809 74.638V74.404C95.6989 74.413 95.5639 74.536 95.4649 74.713V74.431H95.2159V76ZM96.3438 76H96.5928V75.049C96.5928 74.767 96.7998 74.62 97.0308 74.62C97.2828 74.62 97.3998 74.743 97.3998 75.019V76H97.6488V75.037C97.6488 74.581 97.4208 74.404 97.0968 74.404C96.8388 74.404 96.6648 74.533 96.5928 74.68V74.431H96.3438V76ZM98.7788 76.027C99.1328 76.027 99.3938 75.862 99.4478 75.547H99.1988C99.1658 75.73 99.0248 75.82 98.7818 75.82C98.4608 75.82 98.2898 75.622 98.2778 75.265H99.4598V75.184C99.4598 74.623 99.1178 74.404 98.7548 74.404C98.3228 74.404 98.0198 74.734 98.0198 75.208V75.232C98.0198 75.715 98.3348 76.027 98.7788 76.027ZM98.2868 75.064C98.3288 74.785 98.4998 74.611 98.7548 74.611C99.0128 74.611 99.1808 74.74 99.2048 75.064H98.2868ZM99.9682 76.546H100.22L101.087 74.431H100.832L100.397 75.556L99.9172 74.431H99.6502L100.265 75.838L99.9682 76.546ZM31.855 80.82C31.609 80.82 31.393 80.631 31.393 80.235V80.211C31.393 79.83 31.588 79.611 31.876 79.611C32.158 79.611 32.353 79.8 32.353 80.202V80.226C32.353 80.628 32.122 80.82 31.855 80.82ZM31.828 81.027C32.038 81.027 32.254 80.889 32.344 80.736V81H32.593V79.431H32.344V79.677C32.254 79.524 32.095 79.404 31.852 79.404C31.456 79.404 31.135 79.743 31.135 80.223V80.247C31.135 80.736 31.453 81.027 31.828 81.027ZM33.7487 81.027C34.1267 81.027 34.3997 80.775 34.4327 80.436H34.2017C34.1747 80.691 33.9737 80.82 33.7517 80.82C33.4487 80.82 33.2387 80.616 33.2387 80.232V80.208C33.2387 79.839 33.4577 79.611 33.7427 79.611C33.9587 79.611 34.1387 79.704 34.1777 79.953H34.4237C34.3757 79.554 34.0697 79.404 33.7427 79.404C33.3227 79.404 32.9807 79.728 32.9807 80.208V80.232C32.9807 80.718 33.3107 81.027 33.7487 81.027ZM34.8086 81H35.0576V80.139C35.0576 79.752 35.2586 79.653 35.5736 79.638V79.404C35.2916 79.413 35.1566 79.536 35.0576 79.713V79.431H34.8086V81ZM36.5436 81.027C36.9906 81.027 37.3176 80.7 37.3176 80.226V80.202C37.3176 79.731 36.9906 79.404 36.5466 79.404C36.1026 79.404 35.7756 79.734 35.7756 80.205V80.229C35.7756 80.688 36.0966 81.027 36.5436 81.027ZM36.5466 80.82C36.2286 80.82 36.0336 80.586 36.0336 80.229V80.205C36.0336 79.845 36.2316 79.611 36.5466 79.611C36.8586 79.611 37.0596 79.845 37.0596 80.208V80.229C37.0596 80.583 36.8616 80.82 36.5466 80.82ZM38.1892 81.027C38.5702 81.027 38.7652 80.835 38.7652 80.55C38.7652 80.217 38.5372 80.145 38.2132 80.085C37.9252 80.034 37.8472 79.977 37.8472 79.836C37.8472 79.701 37.9642 79.611 38.1442 79.611C38.3422 79.611 38.4382 79.686 38.4742 79.857H38.7142C38.6722 79.518 38.4292 79.404 38.1472 79.404C37.9012 79.404 37.6162 79.554 37.6162 79.845C37.6162 80.118 37.7542 80.232 38.1622 80.307C38.4052 80.352 38.5282 80.406 38.5282 80.571C38.5282 80.739 38.4232 80.82 38.1862 80.82C37.9342 80.82 37.8352 80.703 37.8172 80.517H37.5742C37.5892 80.838 37.8142 81.027 38.1892 81.027ZM39.6306 81.027C40.0116 81.027 40.2066 80.835 40.2066 80.55C40.2066 80.217 39.9786 80.145 39.6546 80.085C39.3666 80.034 39.2886 79.977 39.2886 79.836C39.2886 79.701 39.4056 79.611 39.5856 79.611C39.7836 79.611 39.8796 79.686 39.9156 79.857H40.1556C40.1136 79.518 39.8706 79.404 39.5886 79.404C39.3426 79.404 39.0576 79.554 39.0576 79.845C39.0576 80.118 39.1956 80.232 39.6036 80.307C39.8466 80.352 39.9696 80.406 39.9696 80.571C39.9696 80.739 39.8646 80.82 39.6276 80.82C39.3756 80.82 39.2766 80.703 39.2586 80.517H39.0156C39.0306 80.838 39.2556 81.027 39.6306 81.027ZM41.8569 81.021C41.9589 81.021 42.0189 81.006 42.0699 80.988V80.778C42.0159 80.799 41.9559 80.811 41.8779 80.811C41.7519 80.811 41.6829 80.736 41.6829 80.583V79.641H42.0489V79.431H41.6829V79.074H41.4339V79.431H41.2089V79.641H41.4339V80.607C41.4339 80.853 41.5719 81.021 41.8569 81.021ZM42.4463 81H42.6953V80.049C42.6953 79.767 42.9023 79.62 43.1333 79.62C43.3853 79.62 43.5023 79.743 43.5023 80.019V81H43.7513V80.037C43.7513 79.581 43.5233 79.404 43.1993 79.404C42.9413 79.404 42.7673 79.533 42.6953 79.68V78.681H42.4463V81ZM44.8813 81.027C45.2353 81.027 45.4963 80.862 45.5503 80.547H45.3013C45.2683 80.73 45.1273 80.82 44.8843 80.82C44.5633 80.82 44.3923 80.622 44.3803 80.265H45.5623V80.184C45.5623 79.623 45.2203 79.404 44.8573 79.404C44.4253 79.404 44.1223 79.734 44.1223 80.208V80.232C44.1223 80.715 44.4373 81.027 44.8813 81.027ZM44.3893 80.064C44.4313 79.785 44.6023 79.611 44.8573 79.611C45.1153 79.611 45.2833 79.74 45.3073 80.064H44.3893ZM47.0533 81H47.3263L47.6923 79.824L48.0193 81H48.2953L48.7843 79.431H48.5293L48.1603 80.694L47.8033 79.431H47.5873L47.2063 80.694L46.8403 79.431H46.5703L47.0533 81ZM49.7329 81.027C50.0869 81.027 50.3479 80.862 50.4019 80.547H50.1529C50.1199 80.73 49.9789 80.82 49.7359 80.82C49.4149 80.82 49.2439 80.622 49.2319 80.265H50.4139V80.184C50.4139 79.623 50.0719 79.404 49.7089 79.404C49.2769 79.404 48.9739 79.734 48.9739 80.208V80.232C48.9739 80.715 49.2889 81.027 49.7329 81.027ZM49.2409 80.064C49.2829 79.785 49.4539 79.611 49.7089 79.611C49.9669 79.611 50.1349 79.74 50.1589 80.064H49.2409ZM51.5759 81.027C52.0079 81.027 52.2899 80.697 52.2899 80.217V80.193C52.2899 79.704 51.9869 79.404 51.5759 79.404C51.3479 79.404 51.1349 79.542 51.0449 79.695V78.681H50.7959V81H51.0449V80.742C51.1349 80.898 51.3209 81.027 51.5759 81.027ZM51.5519 80.82C51.2459 80.82 51.0359 80.631 51.0359 80.229V80.205C51.0359 79.803 51.2579 79.611 51.5489 79.611C51.8129 79.611 52.0319 79.809 52.0319 80.205V80.229C52.0319 80.61 51.8639 80.82 51.5519 80.82ZM53.1628 81.027C53.5438 81.027 53.7388 80.835 53.7388 80.55C53.7388 80.217 53.5108 80.145 53.1868 80.085C52.8988 80.034 52.8208 79.977 52.8208 79.836C52.8208 79.701 52.9378 79.611 53.1178 79.611C53.3158 79.611 53.4118 79.686 53.4478 79.857H53.6878C53.6458 79.518 53.4028 79.404 53.1208 79.404C52.8748 79.404 52.5898 79.554 52.5898 79.845C52.5898 80.118 52.7278 80.232 53.1358 80.307C53.3788 80.352 53.5018 80.406 53.5018 80.571C53.5018 80.739 53.3968 80.82 53.1598 80.82C52.9078 80.82 52.8088 80.703 52.7908 80.517H52.5478C52.5628 80.838 52.7878 81.027 53.1628 81.027ZM54.2442 79.104C54.3342 79.104 54.4092 79.029 54.4092 78.939C54.4092 78.849 54.3342 78.774 54.2442 78.774C54.1542 78.774 54.0792 78.849 54.0792 78.939C54.0792 79.029 54.1542 79.104 54.2442 79.104ZM54.1242 81H54.3732V79.431H54.1242V81ZM55.3599 81.021C55.4619 81.021 55.5219 81.006 55.5729 80.988V80.778C55.5189 80.799 55.4589 80.811 55.3809 80.811C55.2549 80.811 55.1859 80.736 55.1859 80.583V79.641H55.5519V79.431H55.1859V79.074H54.9369V79.431H54.7119V79.641H54.9369V80.607C54.9369 80.853 55.0749 81.021 55.3599 81.021ZM56.5913 81.027C56.9453 81.027 57.2063 80.862 57.2603 80.547H57.0113C56.9783 80.73 56.8373 80.82 56.5943 80.82C56.2733 80.82 56.1023 80.622 56.0903 80.265H57.2723V80.184C57.2723 79.623 56.9303 79.404 56.5673 79.404C56.1353 79.404 55.8323 79.734 55.8323 80.208V80.232C55.8323 80.715 56.1473 81.027 56.5913 81.027ZM56.0993 80.064C56.1413 79.785 56.3123 79.611 56.5673 79.611C56.8253 79.611 56.9933 79.74 57.0173 80.064H56.0993ZM59.0513 80.82C58.8053 80.82 58.5893 80.631 58.5893 80.235V80.211C58.5893 79.83 58.7843 79.611 59.0723 79.611C59.3543 79.611 59.5493 79.8 59.5493 80.202V80.226C59.5493 80.628 59.3183 80.82 59.0513 80.82ZM59.0243 81.027C59.2343 81.027 59.4503 80.889 59.5403 80.736V81H59.7893V79.431H59.5403V79.677C59.4503 79.524 59.2913 79.404 59.0483 79.404C58.6523 79.404 58.3313 79.743 58.3313 80.223V80.247C58.3313 80.736 58.6493 81.027 59.0243 81.027ZM60.294 81H60.543V80.049C60.543 79.767 60.75 79.62 60.981 79.62C61.233 79.62 61.35 79.743 61.35 80.019V81H61.599V80.037C61.599 79.581 61.371 79.404 61.047 79.404C60.789 79.404 60.615 79.533 60.543 79.68V79.431H60.294V81ZM62.705 80.82C62.441 80.82 62.228 80.631 62.228 80.235V80.211C62.228 79.83 62.414 79.611 62.726 79.611C63.032 79.611 63.224 79.8 63.224 80.202V80.226C63.224 80.628 62.996 80.82 62.705 80.82ZM62.678 81.027C62.906 81.027 63.125 80.883 63.215 80.73V81H63.464V78.681H63.215V79.683C63.125 79.53 62.963 79.404 62.702 79.404C62.27 79.404 61.97 79.743 61.97 80.223V80.247C61.97 80.736 62.267 81.027 62.678 81.027ZM65.3798 80.82C65.1158 80.82 64.9028 80.631 64.9028 80.235V80.211C64.9028 79.83 65.0888 79.611 65.4008 79.611C65.7068 79.611 65.8988 79.8 65.8988 80.202V80.226C65.8988 80.628 65.6708 80.82 65.3798 80.82ZM65.3528 81.027C65.5808 81.027 65.7998 80.883 65.8898 80.73V81H66.1388V78.681H65.8898V79.683C65.7998 79.53 65.6378 79.404 65.3768 79.404C64.9448 79.404 64.6448 79.743 64.6448 80.223V80.247C64.6448 80.736 64.9418 81.027 65.3528 81.027ZM67.2846 81.027C67.6386 81.027 67.8996 80.862 67.9536 80.547H67.7046C67.6716 80.73 67.5306 80.82 67.2876 80.82C66.9666 80.82 66.7956 80.622 66.7836 80.265H67.9656V80.184C67.9656 79.623 67.6236 79.404 67.2606 79.404C66.8286 79.404 66.5256 79.734 66.5256 80.208V80.232C66.5256 80.715 66.8406 81.027 67.2846 81.027ZM66.7926 80.064C66.8346 79.785 67.0056 79.611 67.2606 79.611C67.5186 79.611 67.6866 79.74 67.7106 80.064H66.7926ZM68.3537 81H68.6057V78.681H68.3537V81ZM69.2413 79.104C69.3313 79.104 69.4063 79.029 69.4063 78.939C69.4063 78.849 69.3313 78.774 69.2413 78.774C69.1513 78.774 69.0763 78.849 69.0763 78.939C69.0763 79.029 69.1513 79.104 69.2413 79.104ZM69.1213 81H69.3703V79.431H69.1213V81ZM70.2729 81H70.5909L71.1549 79.431H70.8969L70.4379 80.748L69.9729 79.431H69.7029L70.2729 81ZM72.0805 81.027C72.4345 81.027 72.6955 80.862 72.7495 80.547H72.5005C72.4675 80.73 72.3265 80.82 72.0835 80.82C71.7625 80.82 71.5915 80.622 71.5795 80.265H72.7615V80.184C72.7615 79.623 72.4195 79.404 72.0565 79.404C71.6245 79.404 71.3215 79.734 71.3215 80.208V80.232C71.3215 80.715 71.6365 81.027 72.0805 81.027ZM71.5885 80.064C71.6305 79.785 71.8015 79.611 72.0565 79.611C72.3145 79.611 72.4825 79.74 72.5065 80.064H71.5885ZM73.1436 81H73.3926V80.139C73.3926 79.752 73.5936 79.653 73.9086 79.638V79.404C73.6266 79.413 73.4916 79.536 73.3926 79.713V79.431H73.1436V81ZM74.8696 81.027C75.2236 81.027 75.4846 80.862 75.5386 80.547H75.2896C75.2566 80.73 75.1156 80.82 74.8726 80.82C74.5516 80.82 74.3806 80.622 74.3686 80.265H75.5506V80.184C75.5506 79.623 75.2086 79.404 74.8456 79.404C74.4136 79.404 74.1106 79.734 74.1106 80.208V80.232C74.1106 80.715 74.4256 81.027 74.8696 81.027ZM74.3776 80.064C74.4196 79.785 74.5906 79.611 74.8456 79.611C75.1036 79.611 75.2716 79.74 75.2956 80.064H74.3776ZM76.4333 81.027C76.8143 81.027 77.0093 80.835 77.0093 80.55C77.0093 80.217 76.7813 80.145 76.4573 80.085C76.1693 80.034 76.0913 79.977 76.0913 79.836C76.0913 79.701 76.2083 79.611 76.3883 79.611C76.5863 79.611 76.6823 79.686 76.7183 79.857H76.9583C76.9163 79.518 76.6733 79.404 76.3913 79.404C76.1453 79.404 75.8603 79.554 75.8603 79.845C75.8603 80.118 75.9983 80.232 76.4063 80.307C76.6493 80.352 76.7723 80.406 76.7723 80.571C76.7723 80.739 76.6673 80.82 76.4303 80.82C76.1783 80.82 76.0793 80.703 76.0613 80.517H75.8183C75.8333 80.838 76.0583 81.027 76.4333 81.027ZM78.7857 80.82C78.5397 80.82 78.3237 80.631 78.3237 80.235V80.211C78.3237 79.83 78.5187 79.611 78.8067 79.611C79.0887 79.611 79.2837 79.8 79.2837 80.202V80.226C79.2837 80.628 79.0527 80.82 78.7857 80.82ZM78.7587 81.027C78.9687 81.027 79.1847 80.889 79.2747 80.736V81H79.5237V79.431H79.2747V79.677C79.1847 79.524 79.0257 79.404 78.7827 79.404C78.3867 79.404 78.0657 79.743 78.0657 80.223V80.247C78.0657 80.736 78.3837 81.027 78.7587 81.027ZM80.6464 80.82C80.3824 80.82 80.1694 80.631 80.1694 80.235V80.211C80.1694 79.83 80.3554 79.611 80.6674 79.611C80.9734 79.611 81.1654 79.8 81.1654 80.202V80.226C81.1654 80.628 80.9374 80.82 80.6464 80.82ZM80.6194 81.027C80.8474 81.027 81.0664 80.883 81.1564 80.73V81H81.4054V78.681H81.1564V79.683C81.0664 79.53 80.9044 79.404 80.6434 79.404C80.2114 79.404 79.9114 79.743 79.9114 80.223V80.247C79.9114 80.736 80.2084 81.027 80.6194 81.027ZM82.3022 81H82.6202L83.1842 79.431H82.9262L82.4672 80.748L82.0022 79.431H81.7322L82.3022 81ZM84.0855 80.82C83.8395 80.82 83.6235 80.631 83.6235 80.235V80.211C83.6235 79.83 83.8185 79.611 84.1065 79.611C84.3885 79.611 84.5835 79.8 84.5835 80.202V80.226C84.5835 80.628 84.3525 80.82 84.0855 80.82ZM84.0585 81.027C84.2685 81.027 84.4845 80.889 84.5745 80.736V81H84.8235V79.431H84.5745V79.677C84.4845 79.524 84.3255 79.404 84.0825 79.404C83.6865 79.404 83.3655 79.743 83.3655 80.223V80.247C83.3655 80.736 83.6835 81.027 84.0585 81.027ZM85.3282 81H85.5772V80.049C85.5772 79.767 85.7842 79.62 86.0152 79.62C86.2672 79.62 86.3842 79.743 86.3842 80.019V81H86.6332V80.037C86.6332 79.581 86.4052 79.404 86.0812 79.404C85.8232 79.404 85.6492 79.533 85.5772 79.68V79.431H85.3282V81ZM87.7721 81.027C88.1501 81.027 88.4231 80.775 88.4561 80.436H88.2251C88.1981 80.691 87.9971 80.82 87.7751 80.82C87.4721 80.82 87.2621 80.616 87.2621 80.232V80.208C87.2621 79.839 87.4811 79.611 87.7661 79.611C87.9821 79.611 88.1621 79.704 88.2011 79.953H88.4471C88.3991 79.554 88.0931 79.404 87.7661 79.404C87.3461 79.404 87.0041 79.728 87.0041 80.208V80.232C87.0041 80.718 87.3341 81.027 87.7721 81.027ZM89.4741 81.027C89.8281 81.027 90.0891 80.862 90.1431 80.547H89.8941C89.8611 80.73 89.7201 80.82 89.4771 80.82C89.1561 80.82 88.9851 80.622 88.9731 80.265H90.1551V80.184C90.1551 79.623 89.8131 79.404 89.4501 79.404C89.0181 79.404 88.7151 79.734 88.7151 80.208V80.232C88.7151 80.715 89.0301 81.027 89.4741 81.027ZM88.9821 80.064C89.0241 79.785 89.1951 79.611 89.4501 79.611C89.7081 79.611 89.8761 79.74 89.9001 80.064H88.9821ZM91.1552 80.82C90.8912 80.82 90.6782 80.631 90.6782 80.235V80.211C90.6782 79.83 90.8642 79.611 91.1762 79.611C91.4822 79.611 91.6742 79.8 91.6742 80.202V80.226C91.6742 80.628 91.4462 80.82 91.1552 80.82ZM91.1282 81.027C91.3562 81.027 91.5752 80.883 91.6652 80.73V81H91.9142V78.681H91.6652V79.683C91.5752 79.53 91.4132 79.404 91.1522 79.404C90.7202 79.404 90.4202 79.743 90.4202 80.223V80.247C90.4202 80.736 90.7172 81.027 91.1282 81.027ZM93.743 81.027C93.995 81.027 94.169 80.898 94.241 80.751V81H94.49V79.431H94.241V80.382C94.241 80.664 94.031 80.811 93.809 80.811C93.563 80.811 93.446 80.688 93.446 80.412V79.431H93.197V80.424C93.197 80.856 93.431 81.027 93.743 81.027ZM95.4792 81.027C95.8602 81.027 96.0552 80.835 96.0552 80.55C96.0552 80.217 95.8272 80.145 95.5032 80.085C95.2152 80.034 95.1372 79.977 95.1372 79.836C95.1372 79.701 95.2542 79.611 95.4342 79.611C95.6322 79.611 95.7282 79.686 95.7642 79.857H96.0042C95.9622 79.518 95.7192 79.404 95.4372 79.404C95.1912 79.404 94.9062 79.554 94.9062 79.845C94.9062 80.118 95.0442 80.232 95.4522 80.307C95.6952 80.352 95.8182 80.406 95.8182 80.571C95.8182 80.739 95.7132 80.82 95.4762 80.82C95.2242 80.82 95.1252 80.703 95.1072 80.517H94.8642C94.8792 80.838 95.1042 81.027 95.4792 81.027ZM97.0766 81.027C97.4306 81.027 97.6916 80.862 97.7456 80.547H97.4966C97.4636 80.73 97.3226 80.82 97.0796 80.82C96.7586 80.82 96.5876 80.622 96.5756 80.265H97.7576V80.184C97.7576 79.623 97.4156 79.404 97.0526 79.404C96.6206 79.404 96.3176 79.734 96.3176 80.208V80.232C96.3176 80.715 96.6326 81.027 97.0766 81.027ZM96.5846 80.064C96.6266 79.785 96.7976 79.611 97.0526 79.611C97.3106 79.611 97.4786 79.74 97.5026 80.064H96.5846ZM98.1397 81H98.3887V80.139C98.3887 79.752 98.5897 79.653 98.9047 79.638V79.404C98.6227 79.413 98.4877 79.536 98.3887 79.713V79.431H98.1397V81ZM31.894 86.027C32.248 86.027 32.509 85.862 32.563 85.547H32.314C32.281 85.73 32.14 85.82 31.897 85.82C31.576 85.82 31.405 85.622 31.393 85.265H32.575V85.184C32.575 84.623 32.233 84.404 31.87 84.404C31.438 84.404 31.135 84.734 31.135 85.208V85.232C31.135 85.715 31.45 86.027 31.894 86.027ZM31.402 85.064C31.444 84.785 31.615 84.611 31.87 84.611C32.128 84.611 32.296 84.74 32.32 85.064H31.402ZM32.7451 86H33.0121L33.4441 85.367L33.8671 86H34.1611L33.5881 85.175L34.1071 84.431H33.8371L33.4561 85.001L33.0721 84.431H32.7811L33.3061 85.193L32.7451 86ZM35.2541 85.82C34.9481 85.82 34.7381 85.631 34.7381 85.229V85.205C34.7381 84.803 34.9601 84.611 35.2511 84.611C35.5151 84.611 35.7341 84.809 35.7341 85.205V85.229C35.7341 85.61 35.5661 85.82 35.2541 85.82ZM34.4981 86.546H34.7471V85.742C34.8371 85.898 35.0201 86.027 35.2781 86.027C35.7101 86.027 35.9921 85.697 35.9921 85.217V85.193C35.9921 84.704 35.6891 84.404 35.2781 84.404C35.0501 84.404 34.8371 84.542 34.7471 84.695V84.431H34.4981V86.546ZM37.021 86.027C37.375 86.027 37.636 85.862 37.69 85.547H37.441C37.408 85.73 37.267 85.82 37.024 85.82C36.703 85.82 36.532 85.622 36.52 85.265H37.702V85.184C37.702 84.623 37.36 84.404 36.997 84.404C36.565 84.404 36.262 84.734 36.262 85.208V85.232C36.262 85.715 36.577 86.027 37.021 86.027ZM36.529 85.064C36.571 84.785 36.742 84.611 36.997 84.611C37.255 84.611 37.423 84.74 37.447 85.064H36.529ZM38.084 86H38.333V85.139C38.333 84.752 38.534 84.653 38.849 84.638V84.404C38.567 84.413 38.432 84.536 38.333 84.713V84.431H38.084V86ZM39.338 84.104C39.428 84.104 39.503 84.029 39.503 83.939C39.503 83.849 39.428 83.774 39.338 83.774C39.248 83.774 39.173 83.849 39.173 83.939C39.173 84.029 39.248 84.104 39.338 84.104ZM39.218 86H39.467V84.431H39.218V86ZM40.6186 86.027C40.9726 86.027 41.2336 85.862 41.2876 85.547H41.0386C41.0056 85.73 40.8646 85.82 40.6216 85.82C40.3006 85.82 40.1296 85.622 40.1176 85.265H41.2996V85.184C41.2996 84.623 40.9576 84.404 40.5946 84.404C40.1626 84.404 39.8596 84.734 39.8596 85.208V85.232C39.8596 85.715 40.1746 86.027 40.6186 86.027ZM40.1266 85.064C40.1686 84.785 40.3396 84.611 40.5946 84.611C40.8526 84.611 41.0206 84.74 41.0446 85.064H40.1266ZM41.6817 86H41.9307V85.049C41.9307 84.767 42.1377 84.62 42.3687 84.62C42.6207 84.62 42.7377 84.743 42.7377 85.019V86H42.9867V85.037C42.9867 84.581 42.7587 84.404 42.4347 84.404C42.1767 84.404 42.0027 84.533 41.9307 84.68V84.431H41.6817V86ZM44.1257 86.027C44.5037 86.027 44.7767 85.775 44.8097 85.436H44.5787C44.5517 85.691 44.3507 85.82 44.1287 85.82C43.8257 85.82 43.6157 85.616 43.6157 85.232V85.208C43.6157 84.839 43.8347 84.611 44.1197 84.611C44.3357 84.611 44.5157 84.704 44.5547 84.953H44.8007C44.7527 84.554 44.4467 84.404 44.1197 84.404C43.6997 84.404 43.3577 84.728 43.3577 85.208V85.232C43.3577 85.718 43.6877 86.027 44.1257 86.027ZM45.8276 86.027C46.1816 86.027 46.4426 85.862 46.4966 85.547H46.2476C46.2146 85.73 46.0736 85.82 45.8306 85.82C45.5096 85.82 45.3386 85.622 45.3266 85.265H46.5086V85.184C46.5086 84.623 46.1666 84.404 45.8036 84.404C45.3716 84.404 45.0686 84.734 45.0686 85.208V85.232C45.0686 85.715 45.3836 86.027 45.8276 86.027ZM45.3356 85.064C45.3776 84.785 45.5486 84.611 45.8036 84.611C46.0616 84.611 46.2296 84.74 46.2536 85.064H45.3356ZM47.047 86.015C47.152 86.015 47.239 85.931 47.239 85.823C47.239 85.715 47.152 85.631 47.047 85.631C46.942 85.631 46.855 85.715 46.855 85.823C46.855 85.931 46.942 86.015 47.047 86.015Z" fill="white"/>
</svg>
