<svg width="253" height="144" viewBox="0 0 253 144" fill="none" xmlns="http://www.w3.org/2000/svg">
<rect width="253" height="144" rx="3" fill="white" fill-opacity="0.05"/>
<path opacity="0.6" d="M38.448 66.06C39.75 66.06 40.608 65.118 40.608 63.864V63.816C40.608 62.556 39.726 61.65 38.448 61.65C37.176 61.65 36.276 62.58 36.276 63.834V63.882C36.276 65.118 37.134 66.06 38.448 66.06ZM38.46 65.418C37.68 65.418 37.11 64.812 37.11 63.876V63.828C37.11 62.904 37.608 62.286 38.448 62.286C39.288 62.286 39.78 62.94 39.78 63.822V63.87C39.78 64.8 39.27 65.418 38.46 65.418ZM42.3687 66.06C42.8787 66.06 43.2087 65.814 43.3647 65.508V66H44.0907V62.862H43.3647V64.728C43.3647 65.226 43.0227 65.478 42.6327 65.478C42.2127 65.478 42.0147 65.262 42.0147 64.788V62.862H41.2887V64.872C41.2887 65.706 41.7507 66.06 42.3687 66.06ZM44.9515 66H45.6775V64.368C45.6775 63.702 46.0615 63.498 46.6975 63.492V62.814C46.1695 62.82 45.8755 63.054 45.6775 63.45V62.862H44.9515V66ZM48.766 66H49.492V64.122C49.492 63.642 49.822 63.402 50.182 63.402C50.536 63.402 50.74 63.6 50.74 64.062V66H51.466V64.122C51.466 63.642 51.796 63.402 52.156 63.402C52.516 63.402 52.714 63.6 52.714 64.062V66H53.44V64.014C53.44 63.15 52.972 62.796 52.396 62.796C52.006 62.796 51.574 62.97 51.334 63.36C51.178 62.97 50.854 62.796 50.446 62.796C49.984 62.796 49.642 63.048 49.492 63.342V62.862H48.766V66ZM55.5998 65.484C55.1618 65.484 54.8138 65.154 54.8138 64.464V64.416C54.8138 63.738 55.1378 63.366 55.6358 63.366C56.1218 63.366 56.4458 63.702 56.4458 64.398V64.446C56.4458 65.148 56.0678 65.484 55.5998 65.484ZM55.4258 66.06C55.8578 66.06 56.2478 65.79 56.4218 65.484V66H57.1478V62.862H56.4218V63.336C56.2418 63.024 55.9358 62.796 55.4558 62.796C54.6998 62.796 54.0698 63.432 54.0698 64.434V64.482C54.0698 65.502 54.6938 66.06 55.4258 66.06ZM58.3841 62.346C58.6241 62.346 58.8161 62.166 58.8161 61.932C58.8161 61.692 58.6241 61.512 58.3841 61.512C58.1441 61.512 57.9521 61.692 57.9521 61.932C57.9521 62.166 58.1441 62.346 58.3841 62.346ZM58.0301 66H58.7561V62.862H58.0301V66ZM59.641 66H60.367V64.152C60.367 63.654 60.697 63.402 61.105 63.402C61.537 63.402 61.729 63.618 61.729 64.092V66H62.455V64.026C62.455 63.162 62.011 62.796 61.381 62.796C60.865 62.796 60.517 63.054 60.367 63.36V62.862H59.641V66ZM66.0831 65.316C65.6151 65.316 65.2551 64.956 65.2551 64.374V64.326C65.2551 63.756 65.5671 63.366 66.1071 63.366C66.6291 63.366 66.9531 63.72 66.9531 64.314V64.356C66.9531 64.956 66.5871 65.316 66.0831 65.316ZM66.0591 67.152C67.0311 67.152 67.6491 66.69 67.6551 65.766V62.862H66.9291V63.342C66.7491 63.03 66.4371 62.796 65.9211 62.796C65.1111 62.796 64.5111 63.456 64.5111 64.338V64.38C64.5111 65.286 65.1171 65.874 65.9031 65.874C66.3651 65.874 66.7551 65.592 66.9291 65.292V65.754C66.9291 66.318 66.6171 66.6 66.0531 66.6C65.5791 66.6 65.3391 66.42 65.2791 66.108H64.5471C64.6311 66.708 65.0751 67.152 66.0591 67.152ZM69.9159 66.06C70.8399 66.06 71.5299 65.424 71.5299 64.446V64.398C71.5299 63.438 70.8399 62.796 69.9219 62.796C68.9979 62.796 68.3079 63.444 68.3079 64.416V64.464C68.3079 65.418 68.9919 66.06 69.9159 66.06ZM69.9219 65.496C69.3699 65.496 69.0519 65.094 69.0519 64.452V64.404C69.0519 63.756 69.3819 63.366 69.9219 63.366C70.4619 63.366 70.7859 63.762 70.7859 64.41V64.452C70.7859 65.094 70.4619 65.496 69.9219 65.496ZM73.5119 65.484C73.0739 65.484 72.7259 65.154 72.7259 64.464V64.416C72.7259 63.738 73.0499 63.366 73.5479 63.366C74.0339 63.366 74.3579 63.702 74.3579 64.398V64.446C74.3579 65.148 73.9799 65.484 73.5119 65.484ZM73.3379 66.06C73.7699 66.06 74.1599 65.79 74.3339 65.484V66H75.0599V62.862H74.3339V63.336C74.1539 63.024 73.8479 62.796 73.3679 62.796C72.6119 62.796 71.9819 63.432 71.9819 64.434V64.482C71.9819 65.502 72.6059 66.06 73.3379 66.06ZM75.9422 66H76.6682V61.41H75.9422V66ZM79.6308 66H80.3748L81.0108 63.888L81.5928 66H82.3308L83.3148 62.862H82.6068L81.9528 65.13L81.3408 62.862H80.7348L80.0688 65.13L79.4448 62.862H78.6708L79.6308 66ZM85.1369 65.484C84.6989 65.484 84.3509 65.154 84.3509 64.464V64.416C84.3509 63.738 84.6749 63.366 85.1729 63.366C85.6589 63.366 85.9829 63.702 85.9829 64.398V64.446C85.9829 65.148 85.6049 65.484 85.1369 65.484ZM84.9629 66.06C85.3949 66.06 85.7849 65.79 85.9589 65.484V66H86.6849V62.862H85.9589V63.336C85.7789 63.024 85.4729 62.796 84.9929 62.796C84.2369 62.796 83.6069 63.432 83.6069 64.434V64.482C83.6069 65.502 84.2309 66.06 84.9629 66.06ZM88.6232 66.06C89.4272 66.06 89.8772 65.694 89.8772 65.058C89.8772 64.392 89.4392 64.212 88.7012 64.098C88.2032 64.014 88.0532 63.924 88.0532 63.696C88.0532 63.474 88.2392 63.324 88.5512 63.324C88.8872 63.324 89.0492 63.456 89.1092 63.744H89.7812C89.7032 63.036 89.1932 62.796 88.5512 62.796C87.9632 62.796 87.3752 63.108 87.3752 63.738C87.3752 64.326 87.6812 64.56 88.5092 64.692C88.9712 64.77 89.1812 64.866 89.1812 65.124C89.1812 65.388 89.0072 65.526 88.6172 65.526C88.1912 65.526 88.0292 65.34 87.9932 65.022H87.3092C87.3392 65.688 87.8132 66.06 88.6232 66.06ZM93.0117 66.054C93.2337 66.054 93.3897 66.018 93.5037 65.976V65.4C93.4017 65.442 93.2937 65.46 93.1497 65.46C92.9217 65.46 92.7897 65.334 92.7897 65.058V63.408H93.4797V62.862H92.7897V62.172H92.0637V62.862H91.6437V63.408H92.0637V65.124C92.0637 65.718 92.3877 66.054 93.0117 66.054ZM95.5566 66.06C96.4806 66.06 97.1706 65.424 97.1706 64.446V64.398C97.1706 63.438 96.4806 62.796 95.5626 62.796C94.6386 62.796 93.9486 63.444 93.9486 64.416V64.464C93.9486 65.418 94.6326 66.06 95.5566 66.06ZM95.5626 65.496C95.0106 65.496 94.6926 65.094 94.6926 64.452V64.404C94.6926 63.756 95.0226 63.366 95.5626 63.366C96.1026 63.366 96.4266 63.762 96.4266 64.41V64.452C96.4266 65.094 96.1026 65.496 95.5626 65.496ZM100.636 66.06C101.44 66.06 101.974 65.7 102.076 65.04H101.374C101.32 65.346 101.092 65.52 100.654 65.52C100.114 65.52 99.8142 65.184 99.7902 64.59H102.088V64.38C102.088 63.258 101.386 62.796 100.606 62.796C99.7122 62.796 99.0462 63.444 99.0462 64.416V64.464C99.0462 65.454 99.7122 66.06 100.636 66.06ZM99.8022 64.104C99.8742 63.618 100.168 63.324 100.606 63.324C101.056 63.324 101.332 63.564 101.368 64.104H99.8022ZM102.737 66H103.463V64.152C103.463 63.654 103.793 63.402 104.201 63.402C104.633 63.402 104.825 63.618 104.825 64.092V66H105.551V64.026C105.551 63.162 105.107 62.796 104.477 62.796C103.961 62.796 103.613 63.054 103.463 63.36V62.862H102.737V66ZM107.461 66.06C108.265 66.06 108.715 65.694 108.715 65.058C108.715 64.392 108.277 64.212 107.539 64.098C107.041 64.014 106.891 63.924 106.891 63.696C106.891 63.474 107.077 63.324 107.389 63.324C107.725 63.324 107.887 63.456 107.947 63.744H108.619C108.541 63.036 108.031 62.796 107.389 62.796C106.801 62.796 106.213 63.108 106.213 63.738C106.213 64.326 106.519 64.56 107.347 64.692C107.809 64.77 108.019 64.866 108.019 65.124C108.019 65.388 107.845 65.526 107.455 65.526C107.029 65.526 106.867 65.34 106.831 65.022H106.147C106.177 65.688 106.651 66.06 107.461 66.06ZM110.402 66.06C110.912 66.06 111.242 65.814 111.398 65.508V66H112.124V62.862H111.398V64.728C111.398 65.226 111.056 65.478 110.666 65.478C110.246 65.478 110.048 65.262 110.048 64.788V62.862H109.322V64.872C109.322 65.706 109.784 66.06 110.402 66.06ZM112.985 66H113.711V64.368C113.711 63.702 114.095 63.498 114.731 63.492V62.814C114.203 62.82 113.909 63.054 113.711 63.45V62.862H112.985V66ZM116.691 66.06C117.495 66.06 118.029 65.7 118.131 65.04H117.429C117.375 65.346 117.147 65.52 116.709 65.52C116.169 65.52 115.869 65.184 115.845 64.59H118.143V64.38C118.143 63.258 117.441 62.796 116.661 62.796C115.767 62.796 115.101 63.444 115.101 64.416V64.464C115.101 65.454 115.767 66.06 116.691 66.06ZM115.857 64.104C115.929 63.618 116.223 63.324 116.661 63.324C117.111 63.324 117.387 63.564 117.423 64.104H115.857ZM37.5 74.054C37.722 74.054 37.878 74.018 37.992 73.976V73.4C37.89 73.442 37.782 73.46 37.638 73.46C37.41 73.46 37.278 73.334 37.278 73.058V71.408H37.968V70.862H37.278V70.172H36.552V70.862H36.132V71.408H36.552V73.124C36.552 73.718 36.876 74.054 37.5 74.054ZM38.6468 74H39.3728V72.152C39.3728 71.654 39.7028 71.402 40.1108 71.402C40.5428 71.402 40.7348 71.618 40.7348 72.092V74H41.4608V72.026C41.4608 71.162 41.0168 70.796 40.3868 70.796C39.8708 70.796 39.5228 71.054 39.3728 71.36V69.41H38.6468V74ZM43.6232 73.484C43.1852 73.484 42.8372 73.154 42.8372 72.464V72.416C42.8372 71.738 43.1612 71.366 43.6592 71.366C44.1452 71.366 44.4692 71.702 44.4692 72.398V72.446C44.4692 73.148 44.0912 73.484 43.6232 73.484ZM43.4492 74.06C43.8812 74.06 44.2712 73.79 44.4452 73.484V74H45.1712V70.862H44.4452V71.336C44.2652 71.024 43.9592 70.796 43.4792 70.796C42.7232 70.796 42.0932 71.432 42.0932 72.434V72.482C42.0932 73.502 42.7172 74.06 43.4492 74.06ZM47.1035 74.054C47.3255 74.054 47.4815 74.018 47.5955 73.976V73.4C47.4935 73.442 47.3855 73.46 47.2415 73.46C47.0135 73.46 46.8815 73.334 46.8815 73.058V71.408H47.5715V70.862H46.8815V70.172H46.1555V70.862H45.7355V71.408H46.1555V73.124C46.1555 73.718 46.4795 74.054 47.1035 74.054ZM51.06 74.06C51.864 74.06 52.398 73.7 52.5 73.04H51.798C51.744 73.346 51.516 73.52 51.078 73.52C50.538 73.52 50.238 73.184 50.214 72.59H52.512V72.38C52.512 71.258 51.81 70.796 51.03 70.796C50.136 70.796 49.47 71.444 49.47 72.416V72.464C49.47 73.454 50.136 74.06 51.06 74.06ZM50.226 72.104C50.298 71.618 50.592 71.324 51.03 71.324C51.48 71.324 51.756 71.564 51.792 72.104H50.226ZM53.9239 74H54.7699L55.9039 70.862H55.1899L54.3799 73.256L53.5579 70.862H52.7779L53.9239 74ZM57.7046 74.06C58.5086 74.06 59.0426 73.7 59.1446 73.04H58.4426C58.3886 73.346 58.1606 73.52 57.7226 73.52C57.1826 73.52 56.8826 73.184 56.8586 72.59H59.1566V72.38C59.1566 71.258 58.4546 70.796 57.6746 70.796C56.7806 70.796 56.1146 71.444 56.1146 72.416V72.464C56.1146 73.454 56.7806 74.06 57.7046 74.06ZM56.8706 72.104C56.9426 71.618 57.2366 71.324 57.6746 71.324C58.1246 71.324 58.4006 71.564 58.4366 72.104H56.8706ZM59.805 74H60.531V72.368C60.531 71.702 60.915 71.498 61.551 71.492V70.814C61.023 70.82 60.729 71.054 60.531 71.45V70.862H59.805V74ZM62.5671 75.074H63.2811L64.9911 70.862H64.2831L63.5151 72.884L62.6811 70.862H61.8951L63.1371 73.682L62.5671 75.074ZM68.0152 74.06C68.5252 74.06 68.8552 73.814 69.0112 73.508V74H69.7372V70.862H69.0112V72.728C69.0112 73.226 68.6692 73.478 68.2792 73.478C67.8592 73.478 67.6612 73.262 67.6612 72.788V70.862H66.9352V72.872C66.9352 73.706 67.3972 74.06 68.0152 74.06ZM71.672 74.06C72.476 74.06 72.926 73.694 72.926 73.058C72.926 72.392 72.488 72.212 71.75 72.098C71.252 72.014 71.102 71.924 71.102 71.696C71.102 71.474 71.288 71.324 71.6 71.324C71.936 71.324 72.098 71.456 72.158 71.744H72.83C72.752 71.036 72.242 70.796 71.6 70.796C71.012 70.796 70.424 71.108 70.424 71.738C70.424 72.326 70.73 72.56 71.558 72.692C72.02 72.77 72.23 72.866 72.23 73.124C72.23 73.388 72.056 73.526 71.666 73.526C71.24 73.526 71.078 73.34 71.042 73.022H70.358C70.388 73.688 70.862 74.06 71.672 74.06ZM74.9429 74.06C75.7469 74.06 76.2809 73.7 76.3829 73.04H75.6809C75.6269 73.346 75.3989 73.52 74.9609 73.52C74.4209 73.52 74.1209 73.184 74.0969 72.59H76.3949V72.38C76.3949 71.258 75.6929 70.796 74.9129 70.796C74.0189 70.796 73.3529 71.444 73.3529 72.416V72.464C73.3529 73.454 74.0189 74.06 74.9429 74.06ZM74.1089 72.104C74.1809 71.618 74.4749 71.324 74.9129 71.324C75.3629 71.324 75.6389 71.564 75.6749 72.104H74.1089ZM77.0433 74H77.7693V72.368C77.7693 71.702 78.1533 71.498 78.7893 71.492V70.814C78.2613 70.82 77.9673 71.054 77.7693 71.45V70.862H77.0433V74ZM82.2318 74.06C83.0838 74.06 83.6298 73.55 83.6838 72.83H83.0178C82.9758 73.274 82.6458 73.502 82.2618 73.502C81.7278 73.502 81.3918 73.142 81.3918 72.458V72.41C81.3918 71.762 81.7458 71.378 82.2438 71.378C82.6278 71.378 82.9038 71.552 82.9638 71.972H83.6658C83.5818 71.108 82.9278 70.796 82.2318 70.796C81.3558 70.796 80.6478 71.426 80.6478 72.422V72.47C80.6478 73.472 81.3318 74.06 82.2318 74.06ZM85.635 73.484C85.197 73.484 84.849 73.154 84.849 72.464V72.416C84.849 71.738 85.173 71.366 85.671 71.366C86.157 71.366 86.481 71.702 86.481 72.398V72.446C86.481 73.148 86.103 73.484 85.635 73.484ZM85.461 74.06C85.893 74.06 86.283 73.79 86.457 73.484V74H87.183V70.862H86.457V71.336C86.277 71.024 85.971 70.796 85.491 70.796C84.735 70.796 84.105 71.432 84.105 72.434V72.482C84.105 73.502 84.729 74.06 85.461 74.06ZM88.0472 74H88.7732V72.152C88.7732 71.654 89.1032 71.402 89.5112 71.402C89.9432 71.402 90.1352 71.618 90.1352 72.092V74H90.8612V72.026C90.8612 71.162 90.4172 70.796 89.7872 70.796C89.2712 70.796 88.9232 71.054 88.7732 71.36V70.862H88.0472V74ZM95.3353 75.074H96.0613V70.862H95.3353V71.342C95.1613 71.03 94.8433 70.796 94.3333 70.796C93.5173 70.796 92.9233 71.432 92.9233 72.434V72.482C92.9233 73.502 93.5173 74.06 94.3033 74.06C94.7653 74.06 95.1673 73.784 95.3353 73.484V75.074ZM94.4833 73.484C94.0153 73.484 93.6673 73.154 93.6673 72.464V72.416C93.6673 71.738 93.9793 71.366 94.5133 71.366C95.0413 71.366 95.3593 71.708 95.3593 72.398V72.446C95.3593 73.148 94.9873 73.484 94.4833 73.484ZM97.9742 74.06C98.4842 74.06 98.8142 73.814 98.9702 73.508V74H99.6962V70.862H98.9702V72.728C98.9702 73.226 98.6282 73.478 98.2382 73.478C97.8182 73.478 97.6202 73.262 97.6202 72.788V70.862H96.8942V72.872C96.8942 73.706 97.3562 74.06 97.9742 74.06ZM100.929 70.346C101.169 70.346 101.361 70.166 101.361 69.932C101.361 69.692 101.169 69.512 100.929 69.512C100.689 69.512 100.497 69.692 100.497 69.932C100.497 70.166 100.689 70.346 100.929 70.346ZM100.575 74H101.301V70.862H100.575V74ZM103.56 74.06C104.412 74.06 104.958 73.55 105.012 72.83H104.346C104.304 73.274 103.974 73.502 103.59 73.502C103.056 73.502 102.72 73.142 102.72 72.458V72.41C102.72 71.762 103.074 71.378 103.572 71.378C103.956 71.378 104.232 71.552 104.292 71.972H104.994C104.91 71.108 104.256 70.796 103.56 70.796C102.684 70.796 101.976 71.426 101.976 72.422V72.47C101.976 73.472 102.66 74.06 103.56 74.06ZM105.637 74H106.363V72.458L107.539 74H108.379L107.059 72.302L108.277 70.862H107.485L106.363 72.242V69.41H105.637V74ZM108.895 74H109.621V69.41H108.895V74ZM110.854 75.074H111.568L113.278 70.862H112.57L111.802 72.884L110.968 70.862H110.182L111.424 73.682L110.854 75.074ZM36.558 82H37.284V79.408H37.998V78.862H37.284V78.412C37.284 78.142 37.404 77.95 37.692 77.95C37.824 77.95 37.914 77.962 37.998 77.998V77.434C37.884 77.398 37.782 77.38 37.602 77.38C36.936 77.38 36.558 77.752 36.558 78.442V78.862H36.132V79.408H36.558V82ZM38.8958 78.346C39.1358 78.346 39.3278 78.166 39.3278 77.932C39.3278 77.692 39.1358 77.512 38.8958 77.512C38.6558 77.512 38.4638 77.692 38.4638 77.932C38.4638 78.166 38.6558 78.346 38.8958 78.346ZM38.5418 82H39.2678V78.862H38.5418V82ZM40.1527 82H40.8787V80.152C40.8787 79.654 41.2087 79.402 41.6167 79.402C42.0487 79.402 42.2407 79.618 42.2407 80.092V82H42.9667V80.026C42.9667 79.162 42.5227 78.796 41.8927 78.796C41.3767 78.796 41.0287 79.054 40.8787 79.36V78.862H40.1527V82ZM45.1591 81.484C44.6911 81.484 44.3431 81.154 44.3431 80.464V80.416C44.3431 79.738 44.6551 79.366 45.1891 79.366C45.7171 79.366 46.0351 79.708 46.0351 80.398V80.446C46.0351 81.148 45.6631 81.484 45.1591 81.484ZM44.9791 82.06C45.4411 82.06 45.8431 81.784 46.0111 81.472V82H46.7371V77.41H46.0111V79.342C45.8371 79.03 45.5191 78.796 45.0091 78.796C44.1931 78.796 43.5991 79.432 43.5991 80.434V80.482C43.5991 81.502 44.1931 82.06 44.9791 82.06ZM49.0297 82H49.7557V80.368C49.7557 79.702 50.1397 79.498 50.7757 79.492V78.814C50.2477 78.82 49.9537 79.054 49.7557 79.45V78.862H49.0297V82ZM51.7864 78.346C52.0264 78.346 52.2184 78.166 52.2184 77.932C52.2184 77.692 52.0264 77.512 51.7864 77.512C51.5464 77.512 51.3544 77.692 51.3544 77.932C51.3544 78.166 51.5464 78.346 51.7864 78.346ZM51.4324 82H52.1584V78.862H51.4324V82ZM54.4053 81.316C53.9373 81.316 53.5773 80.956 53.5773 80.374V80.326C53.5773 79.756 53.8893 79.366 54.4293 79.366C54.9513 79.366 55.2753 79.72 55.2753 80.314V80.356C55.2753 80.956 54.9093 81.316 54.4053 81.316ZM54.3813 83.152C55.3533 83.152 55.9713 82.69 55.9773 81.766V78.862H55.2513V79.342C55.0713 79.03 54.7593 78.796 54.2433 78.796C53.4333 78.796 52.8333 79.456 52.8333 80.338V80.38C52.8333 81.286 53.4393 81.874 54.2253 81.874C54.6873 81.874 55.0773 81.592 55.2513 81.292V81.754C55.2513 82.318 54.9393 82.6 54.3753 82.6C53.9013 82.6 53.6613 82.42 53.6013 82.108H52.8693C52.9533 82.708 53.3973 83.152 54.3813 83.152ZM56.8402 82H57.5662V80.152C57.5662 79.654 57.8962 79.402 58.3042 79.402C58.7362 79.402 58.9282 79.618 58.9282 80.092V82H59.6542V80.026C59.6542 79.162 59.2102 78.796 58.5802 78.796C58.0642 78.796 57.7162 79.054 57.5662 79.36V77.41H56.8402V82ZM61.5586 82.054C61.7806 82.054 61.9366 82.018 62.0506 81.976V81.4C61.9486 81.442 61.8406 81.46 61.6966 81.46C61.4686 81.46 61.3366 81.334 61.3366 81.058V79.408H62.0266V78.862H61.3366V78.172H60.6106V78.862H60.1906V79.408H60.6106V81.124C60.6106 81.718 60.9346 82.054 61.5586 82.054ZM64.5071 78.346C64.7471 78.346 64.9391 78.166 64.9391 77.932C64.9391 77.692 64.7471 77.512 64.5071 77.512C64.2671 77.512 64.0751 77.692 64.0751 77.932C64.0751 78.166 64.2671 78.346 64.5071 78.346ZM64.1531 82H64.8791V78.862H64.1531V82ZM65.764 82H66.49V80.152C66.49 79.654 66.82 79.402 67.228 79.402C67.66 79.402 67.852 79.618 67.852 80.092V82H68.578V80.026C68.578 79.162 68.134 78.796 67.504 78.796C66.988 78.796 66.64 79.054 66.49 79.36V78.862H65.764V82ZM69.5404 82H70.2664V79.408H70.9804V78.862H70.2664V78.412C70.2664 78.142 70.3864 77.95 70.6804 77.95C70.8124 77.95 70.9264 77.974 71.0104 78.004V77.44C70.8784 77.398 70.7704 77.38 70.5964 77.38C69.9244 77.38 69.5404 77.752 69.5404 78.442V78.862H69.1144V79.408H69.5404V82ZM72.8691 82.06C73.7931 82.06 74.4831 81.424 74.4831 80.446V80.398C74.4831 79.438 73.7931 78.796 72.8751 78.796C71.9511 78.796 71.2611 79.444 71.2611 80.416V80.464C71.2611 81.418 71.9451 82.06 72.8691 82.06ZM72.8751 81.496C72.3231 81.496 72.0051 81.094 72.0051 80.452V80.404C72.0051 79.756 72.3351 79.366 72.8751 79.366C73.4151 79.366 73.7391 79.762 73.7391 80.41V80.452C73.7391 81.094 73.4151 81.496 72.8751 81.496ZM75.139 82H75.865V80.368C75.865 79.702 76.249 79.498 76.885 79.492V78.814C76.357 78.82 76.063 79.054 75.865 79.45V78.862H75.139V82ZM77.5238 82H78.2498V80.122C78.2498 79.642 78.5798 79.402 78.9398 79.402C79.2938 79.402 79.4978 79.6 79.4978 80.062V82H80.2238V80.122C80.2238 79.642 80.5538 79.402 80.9138 79.402C81.2738 79.402 81.4718 79.6 81.4718 80.062V82H82.1978V80.014C82.1978 79.15 81.7298 78.796 81.1538 78.796C80.7638 78.796 80.3318 78.97 80.0918 79.36C79.9358 78.97 79.6118 78.796 79.2038 78.796C78.7418 78.796 78.3998 79.048 78.2498 79.342V78.862H77.5238V82ZM84.3576 81.484C83.9196 81.484 83.5716 81.154 83.5716 80.464V80.416C83.5716 79.738 83.8956 79.366 84.3936 79.366C84.8796 79.366 85.2036 79.702 85.2036 80.398V80.446C85.2036 81.148 84.8256 81.484 84.3576 81.484ZM84.1836 82.06C84.6156 82.06 85.0056 81.79 85.1796 81.484V82H85.9056V78.862H85.1796V79.336C84.9996 79.024 84.6936 78.796 84.2136 78.796C83.4576 78.796 82.8276 79.432 82.8276 80.434V80.482C82.8276 81.502 83.4516 82.06 84.1836 82.06ZM87.8379 82.054C88.0599 82.054 88.2159 82.018 88.3299 81.976V81.4C88.2279 81.442 88.1199 81.46 87.9759 81.46C87.7479 81.46 87.6159 81.334 87.6159 81.058V79.408H88.3059V78.862H87.6159V78.172H86.8899V78.862H86.4699V79.408H86.8899V81.124C86.8899 81.718 87.2139 82.054 87.8379 82.054ZM89.3567 78.346C89.5967 78.346 89.7887 78.166 89.7887 77.932C89.7887 77.692 89.5967 77.512 89.3567 77.512C89.1167 77.512 88.9247 77.692 88.9247 77.932C88.9247 78.166 89.1167 78.346 89.3567 78.346ZM89.0027 82H89.7287V78.862H89.0027V82ZM92.0116 82.06C92.9356 82.06 93.6256 81.424 93.6256 80.446V80.398C93.6256 79.438 92.9356 78.796 92.0176 78.796C91.0936 78.796 90.4036 79.444 90.4036 80.416V80.464C90.4036 81.418 91.0876 82.06 92.0116 82.06ZM92.0176 81.496C91.4656 81.496 91.1476 81.094 91.1476 80.452V80.404C91.1476 79.756 91.4776 79.366 92.0176 79.366C92.5576 79.366 92.8816 79.762 92.8816 80.41V80.452C92.8816 81.094 92.5576 81.496 92.0176 81.496ZM94.2816 82H95.0076V80.152C95.0076 79.654 95.3376 79.402 95.7456 79.402C96.1776 79.402 96.3696 79.618 96.3696 80.092V82H97.0956V80.026C97.0956 79.162 96.6516 78.796 96.0216 78.796C95.5056 78.796 95.1576 79.054 95.0076 79.36V78.862H94.2816V82Z" fill="white"/>
<path opacity="0.6" d="M151.66 65H151.897L152.398 63.305L152.884 65H153.124L153.682 62.855H153.439L152.998 64.592L152.494 62.855H152.308L151.804 64.586L151.369 62.855H151.102L151.66 65ZM154.557 65.027C154.911 65.027 155.172 64.862 155.226 64.547H154.977C154.944 64.73 154.803 64.82 154.56 64.82C154.239 64.82 154.068 64.622 154.056 64.265H155.238V64.184C155.238 63.623 154.896 63.404 154.533 63.404C154.101 63.404 153.798 63.734 153.798 64.208V64.232C153.798 64.715 154.113 65.027 154.557 65.027ZM154.065 64.064C154.107 63.785 154.278 63.611 154.533 63.611C154.791 63.611 154.959 63.74 154.983 64.064H154.065ZM156.468 65H156.717V63.641H157.101V63.431H156.717V63.149C156.717 62.99 156.783 62.879 156.945 62.879C157.014 62.879 157.077 62.894 157.122 62.912V62.702C157.059 62.681 157.017 62.672 156.936 62.672C156.624 62.672 156.468 62.858 156.468 63.176V63.431H156.243V63.641H156.468V65ZM158.026 65.027C158.473 65.027 158.8 64.7 158.8 64.226V64.202C158.8 63.731 158.473 63.404 158.029 63.404C157.585 63.404 157.258 63.734 157.258 64.205V64.229C157.258 64.688 157.579 65.027 158.026 65.027ZM158.029 64.82C157.711 64.82 157.516 64.586 157.516 64.229V64.205C157.516 63.845 157.714 63.611 158.029 63.611C158.341 63.611 158.542 63.845 158.542 64.208V64.229C158.542 64.583 158.344 64.82 158.029 64.82ZM159.837 65.027C160.215 65.027 160.488 64.775 160.521 64.436H160.29C160.263 64.691 160.062 64.82 159.84 64.82C159.537 64.82 159.327 64.616 159.327 64.232V64.208C159.327 63.839 159.546 63.611 159.831 63.611C160.047 63.611 160.227 63.704 160.266 63.953H160.512C160.464 63.554 160.158 63.404 159.831 63.404C159.411 63.404 159.069 63.728 159.069 64.208V64.232C159.069 64.718 159.399 65.027 159.837 65.027ZM161.428 65.027C161.68 65.027 161.854 64.898 161.926 64.751V65H162.175V63.431H161.926V64.382C161.926 64.664 161.716 64.811 161.494 64.811C161.248 64.811 161.131 64.688 161.131 64.412V63.431H160.882V64.424C160.882 64.856 161.116 65.027 161.428 65.027ZM163.164 65.027C163.545 65.027 163.74 64.835 163.74 64.55C163.74 64.217 163.512 64.145 163.188 64.085C162.9 64.034 162.822 63.977 162.822 63.836C162.822 63.701 162.939 63.611 163.119 63.611C163.317 63.611 163.413 63.686 163.449 63.857H163.689C163.647 63.518 163.404 63.404 163.122 63.404C162.876 63.404 162.591 63.554 162.591 63.845C162.591 64.118 162.729 64.232 163.137 64.307C163.38 64.352 163.503 64.406 163.503 64.571C163.503 64.739 163.398 64.82 163.161 64.82C162.909 64.82 162.81 64.703 162.792 64.517H162.549C162.564 64.838 162.789 65.027 163.164 65.027ZM164.761 65.027C165.115 65.027 165.376 64.862 165.43 64.547H165.181C165.148 64.73 165.007 64.82 164.764 64.82C164.443 64.82 164.272 64.622 164.26 64.265H165.442V64.184C165.442 63.623 165.1 63.404 164.737 63.404C164.305 63.404 164.002 63.734 164.002 64.208V64.232C164.002 64.715 164.317 65.027 164.761 65.027ZM164.269 64.064C164.311 63.785 164.482 63.611 164.737 63.611C164.995 63.611 165.163 63.74 165.187 64.064H164.269ZM166.442 64.82C166.178 64.82 165.965 64.631 165.965 64.235V64.211C165.965 63.83 166.151 63.611 166.463 63.611C166.769 63.611 166.961 63.8 166.961 64.202V64.226C166.961 64.628 166.733 64.82 166.442 64.82ZM166.415 65.027C166.643 65.027 166.862 64.883 166.952 64.73V65H167.201V62.681H166.952V63.683C166.862 63.53 166.7 63.404 166.439 63.404C166.007 63.404 165.707 63.743 165.707 64.223V64.247C165.707 64.736 166.004 65.027 166.415 65.027ZM169.15 65.027C169.597 65.027 169.924 64.7 169.924 64.226V64.202C169.924 63.731 169.597 63.404 169.153 63.404C168.709 63.404 168.382 63.734 168.382 64.205V64.229C168.382 64.688 168.703 65.027 169.15 65.027ZM169.153 64.82C168.835 64.82 168.64 64.586 168.64 64.229V64.205C168.64 63.845 168.838 63.611 169.153 63.611C169.465 63.611 169.666 63.845 169.666 64.208V64.229C169.666 64.583 169.468 64.82 169.153 64.82ZM170.31 65H170.559V64.049C170.559 63.767 170.766 63.62 170.997 63.62C171.249 63.62 171.366 63.743 171.366 64.019V65H171.615V64.037C171.615 63.581 171.387 63.404 171.063 63.404C170.805 63.404 170.631 63.533 170.559 63.68V63.431H170.31V65ZM173.383 65.027C173.764 65.027 173.959 64.835 173.959 64.55C173.959 64.217 173.731 64.145 173.407 64.085C173.119 64.034 173.041 63.977 173.041 63.836C173.041 63.701 173.158 63.611 173.338 63.611C173.536 63.611 173.632 63.686 173.668 63.857H173.908C173.866 63.518 173.623 63.404 173.341 63.404C173.095 63.404 172.81 63.554 172.81 63.845C172.81 64.118 172.948 64.232 173.356 64.307C173.599 64.352 173.722 64.406 173.722 64.571C173.722 64.739 173.617 64.82 173.38 64.82C173.128 64.82 173.029 64.703 173.011 64.517H172.768C172.783 64.838 173.008 65.027 173.383 65.027ZM174.464 63.104C174.554 63.104 174.629 63.029 174.629 62.939C174.629 62.849 174.554 62.774 174.464 62.774C174.374 62.774 174.299 62.849 174.299 62.939C174.299 63.029 174.374 63.104 174.464 63.104ZM174.344 65H174.593V63.431H174.344V65ZM175.103 65H175.352V64.04C175.352 63.758 175.562 63.62 175.766 63.62C175.982 63.62 176.099 63.734 176.099 64.01V65H176.348V64.04C176.348 63.758 176.558 63.62 176.762 63.62C176.978 63.62 177.095 63.734 177.095 64.01V65H177.344V64.028C177.344 63.572 177.098 63.404 176.816 63.404C176.621 63.404 176.387 63.494 176.279 63.698C176.198 63.488 176.021 63.404 175.82 63.404C175.595 63.404 175.424 63.524 175.352 63.671V63.431H175.103V65ZM177.959 63.104C178.049 63.104 178.124 63.029 178.124 62.939C178.124 62.849 178.049 62.774 177.959 62.774C177.869 62.774 177.794 62.849 177.794 62.939C177.794 63.029 177.869 63.104 177.959 63.104ZM177.839 65H178.088V63.431H177.839V65ZM178.604 65H178.856V62.681H178.604V65ZM179.968 64.82C179.722 64.82 179.506 64.631 179.506 64.235V64.211C179.506 63.83 179.701 63.611 179.989 63.611C180.271 63.611 180.466 63.8 180.466 64.202V64.226C180.466 64.628 180.235 64.82 179.968 64.82ZM179.941 65.027C180.151 65.027 180.367 64.889 180.457 64.736V65H180.706V63.431H180.457V63.677C180.367 63.524 180.208 63.404 179.965 63.404C179.569 63.404 179.248 63.743 179.248 64.223V64.247C179.248 64.736 179.566 65.027 179.941 65.027ZM181.211 65H181.46V64.139C181.46 63.752 181.661 63.653 181.976 63.638V63.404C181.694 63.413 181.559 63.536 181.46 63.713V63.431H181.211V65ZM182.465 63.104C182.555 63.104 182.63 63.029 182.63 62.939C182.63 62.849 182.555 62.774 182.465 62.774C182.375 62.774 182.3 62.849 182.3 62.939C182.3 63.029 182.375 63.104 182.465 63.104ZM182.345 65H182.594V63.431H182.345V65ZM183.581 65.021C183.683 65.021 183.743 65.006 183.794 64.988V64.778C183.74 64.799 183.68 64.811 183.602 64.811C183.476 64.811 183.407 64.736 183.407 64.583V63.641H183.773V63.431H183.407V63.074H183.158V63.431H182.933V63.641H183.158V64.607C183.158 64.853 183.296 65.021 183.581 65.021ZM184.296 63.104C184.386 63.104 184.461 63.029 184.461 62.939C184.461 62.849 184.386 62.774 184.296 62.774C184.206 62.774 184.131 62.849 184.131 62.939C184.131 63.029 184.206 63.104 184.296 63.104ZM184.176 65H184.425V63.431H184.176V65ZM185.577 65.027C185.931 65.027 186.192 64.862 186.246 64.547H185.997C185.964 64.73 185.823 64.82 185.58 64.82C185.259 64.82 185.088 64.622 185.076 64.265H186.258V64.184C186.258 63.623 185.916 63.404 185.553 63.404C185.121 63.404 184.818 63.734 184.818 64.208V64.232C184.818 64.715 185.133 65.027 185.577 65.027ZM185.085 64.064C185.127 63.785 185.298 63.611 185.553 63.611C185.811 63.611 185.979 63.74 186.003 64.064H185.085ZM187.14 65.027C187.521 65.027 187.716 64.835 187.716 64.55C187.716 64.217 187.488 64.145 187.164 64.085C186.876 64.034 186.798 63.977 186.798 63.836C186.798 63.701 186.915 63.611 187.095 63.611C187.293 63.611 187.389 63.686 187.425 63.857H187.665C187.623 63.518 187.38 63.404 187.098 63.404C186.852 63.404 186.567 63.554 186.567 63.845C186.567 64.118 186.705 64.232 187.113 64.307C187.356 64.352 187.479 64.406 187.479 64.571C187.479 64.739 187.374 64.82 187.137 64.82C186.885 64.82 186.786 64.703 186.768 64.517H186.525C186.54 64.838 186.765 65.027 187.14 65.027ZM189.67 65.027C190.102 65.027 190.384 64.697 190.384 64.217V64.193C190.384 63.704 190.081 63.404 189.67 63.404C189.442 63.404 189.229 63.542 189.139 63.695V62.681H188.89V65H189.139V64.742C189.229 64.898 189.415 65.027 189.67 65.027ZM189.646 64.82C189.34 64.82 189.13 64.631 189.13 64.229V64.205C189.13 63.803 189.352 63.611 189.643 63.611C189.907 63.611 190.126 63.809 190.126 64.205V64.229C190.126 64.61 189.958 64.82 189.646 64.82ZM191.413 65.027C191.767 65.027 192.028 64.862 192.082 64.547H191.833C191.8 64.73 191.659 64.82 191.416 64.82C191.095 64.82 190.924 64.622 190.912 64.265H192.094V64.184C192.094 63.623 191.752 63.404 191.389 63.404C190.957 63.404 190.654 63.734 190.654 64.208V64.232C190.654 64.715 190.969 65.027 191.413 65.027ZM190.921 64.064C190.963 63.785 191.134 63.611 191.389 63.611C191.647 63.611 191.815 63.74 191.839 64.064H190.921ZM192.953 65.021C193.055 65.021 193.115 65.006 193.166 64.988V64.778C193.112 64.799 193.052 64.811 192.974 64.811C192.848 64.811 192.779 64.736 192.779 64.583V63.641H193.145V63.431H192.779V63.074H192.53V63.431H192.305V63.641H192.53V64.607C192.53 64.853 192.668 65.021 192.953 65.021ZM193.857 65H194.13L194.496 63.824L194.823 65H195.099L195.588 63.431H195.333L194.964 64.694L194.607 63.431H194.391L194.01 64.694L193.644 63.431H193.374L193.857 65ZM196.537 65.027C196.891 65.027 197.152 64.862 197.206 64.547H196.957C196.924 64.73 196.783 64.82 196.54 64.82C196.219 64.82 196.048 64.622 196.036 64.265H197.218V64.184C197.218 63.623 196.876 63.404 196.513 63.404C196.081 63.404 195.778 63.734 195.778 64.208V64.232C195.778 64.715 196.093 65.027 196.537 65.027ZM196.045 64.064C196.087 63.785 196.258 63.611 196.513 63.611C196.771 63.611 196.939 63.74 196.963 64.064H196.045ZM198.242 65.027C198.596 65.027 198.857 64.862 198.911 64.547H198.662C198.629 64.73 198.488 64.82 198.245 64.82C197.924 64.82 197.753 64.622 197.741 64.265H198.923V64.184C198.923 63.623 198.581 63.404 198.218 63.404C197.786 63.404 197.483 63.734 197.483 64.208V64.232C197.483 64.715 197.798 65.027 198.242 65.027ZM197.75 64.064C197.792 63.785 197.963 63.611 198.218 63.611C198.476 63.611 198.644 63.74 198.668 64.064H197.75ZM199.305 65H199.554V64.049C199.554 63.767 199.761 63.62 199.992 63.62C200.244 63.62 200.361 63.743 200.361 64.019V65H200.61V64.037C200.61 63.581 200.382 63.404 200.058 63.404C199.8 63.404 199.626 63.533 199.554 63.68V63.431H199.305V65ZM202.378 65.027C202.759 65.027 202.954 64.835 202.954 64.55C202.954 64.217 202.726 64.145 202.402 64.085C202.114 64.034 202.036 63.977 202.036 63.836C202.036 63.701 202.153 63.611 202.333 63.611C202.531 63.611 202.627 63.686 202.663 63.857H202.903C202.861 63.518 202.618 63.404 202.336 63.404C202.09 63.404 201.805 63.554 201.805 63.845C201.805 64.118 201.943 64.232 202.351 64.307C202.594 64.352 202.717 64.406 202.717 64.571C202.717 64.739 202.612 64.82 202.375 64.82C202.123 64.82 202.024 64.703 202.006 64.517H201.763C201.778 64.838 202.003 65.027 202.378 65.027ZM203.975 65.027C204.329 65.027 204.59 64.862 204.644 64.547H204.395C204.362 64.73 204.221 64.82 203.978 64.82C203.657 64.82 203.486 64.622 203.474 64.265H204.656V64.184C204.656 63.623 204.314 63.404 203.951 63.404C203.519 63.404 203.216 63.734 203.216 64.208V64.232C203.216 64.715 203.531 65.027 203.975 65.027ZM203.483 64.064C203.525 63.785 203.696 63.611 203.951 63.611C204.209 63.611 204.377 63.74 204.401 64.064H203.483ZM205.662 64.742C205.398 64.742 205.179 64.538 205.179 64.196V64.172C205.179 63.842 205.365 63.611 205.677 63.611C205.983 63.611 206.175 63.815 206.175 64.166V64.187C206.175 64.538 205.953 64.742 205.662 64.742ZM205.665 65.573C206.103 65.573 206.412 65.351 206.415 64.895V63.431H206.166V63.683C206.076 63.53 205.914 63.404 205.653 63.404C205.221 63.404 204.921 63.758 204.921 64.184V64.205C204.921 64.637 205.224 64.949 205.635 64.949C205.863 64.949 206.076 64.805 206.166 64.652V64.88C206.166 65.216 205.971 65.363 205.662 65.363C205.395 65.363 205.245 65.27 205.209 65.09H204.954C204.996 65.354 205.2 65.573 205.665 65.573ZM206.919 65H207.168V64.04C207.168 63.758 207.378 63.62 207.582 63.62C207.798 63.62 207.915 63.734 207.915 64.01V65H208.164V64.04C208.164 63.758 208.374 63.62 208.578 63.62C208.794 63.62 208.911 63.734 208.911 64.01V65H209.16V64.028C209.16 63.572 208.914 63.404 208.632 63.404C208.437 63.404 208.203 63.494 208.095 63.698C208.014 63.488 207.837 63.404 207.636 63.404C207.411 63.404 207.24 63.524 207.168 63.671V63.431H206.919V65ZM210.291 65.027C210.645 65.027 210.906 64.862 210.96 64.547H210.711C210.678 64.73 210.537 64.82 210.294 64.82C209.973 64.82 209.802 64.622 209.79 64.265H210.972V64.184C210.972 63.623 210.63 63.404 210.267 63.404C209.835 63.404 209.532 63.734 209.532 64.208V64.232C209.532 64.715 209.847 65.027 210.291 65.027ZM209.799 64.064C209.841 63.785 210.012 63.611 210.267 63.611C210.525 63.611 210.693 63.74 210.717 64.064H209.799ZM211.355 65H211.604V64.049C211.604 63.767 211.811 63.62 212.042 63.62C212.294 63.62 212.411 63.743 212.411 64.019V65H212.66V64.037C212.66 63.581 212.432 63.404 212.108 63.404C211.85 63.404 211.676 63.533 211.604 63.68V63.431H211.355V65ZM213.625 65.021C213.727 65.021 213.787 65.006 213.838 64.988V64.778C213.784 64.799 213.724 64.811 213.646 64.811C213.52 64.811 213.451 64.736 213.451 64.583V63.641H213.817V63.431H213.451V63.074H213.202V63.431H212.977V63.641H213.202V64.607C213.202 64.853 213.34 65.021 213.625 65.021ZM214.7 65.027C215.081 65.027 215.276 64.835 215.276 64.55C215.276 64.217 215.048 64.145 214.724 64.085C214.436 64.034 214.358 63.977 214.358 63.836C214.358 63.701 214.475 63.611 214.655 63.611C214.853 63.611 214.949 63.686 214.985 63.857H215.225C215.183 63.518 214.94 63.404 214.658 63.404C214.412 63.404 214.127 63.554 214.127 63.845C214.127 64.118 214.265 64.232 214.673 64.307C214.916 64.352 215.039 64.406 215.039 64.571C215.039 64.739 214.934 64.82 214.697 64.82C214.445 64.82 214.346 64.703 214.328 64.517H214.085C214.1 64.838 214.325 65.027 214.7 65.027ZM216.926 65.021C217.028 65.021 217.088 65.006 217.139 64.988V64.778C217.085 64.799 217.025 64.811 216.947 64.811C216.821 64.811 216.752 64.736 216.752 64.583V63.641H217.118V63.431H216.752V63.074H216.503V63.431H216.278V63.641H216.503V64.607C216.503 64.853 216.641 65.021 216.926 65.021ZM217.516 65H217.765V64.049C217.765 63.767 217.972 63.62 218.203 63.62C218.455 63.62 218.572 63.743 218.572 64.019V65H218.821V64.037C218.821 63.581 218.593 63.404 218.269 63.404C218.011 63.404 217.837 63.533 217.765 63.68V62.681H217.516V65ZM219.912 64.82C219.666 64.82 219.45 64.631 219.45 64.235V64.211C219.45 63.83 219.645 63.611 219.933 63.611C220.215 63.611 220.41 63.8 220.41 64.202V64.226C220.41 64.628 220.179 64.82 219.912 64.82ZM219.885 65.027C220.095 65.027 220.311 64.889 220.401 64.736V65H220.65V63.431H220.401V63.677C220.311 63.524 220.152 63.404 219.909 63.404C219.513 63.404 219.192 63.743 219.192 64.223V64.247C219.192 64.736 219.51 65.027 219.885 65.027ZM221.631 65.021C221.733 65.021 221.793 65.006 221.844 64.988V64.778C221.79 64.799 221.73 64.811 221.652 64.811C221.526 64.811 221.457 64.736 221.457 64.583V63.641H221.823V63.431H221.457V63.074H221.208V63.431H220.983V63.641H221.208V64.607C221.208 64.853 221.346 65.021 221.631 65.021ZM151.252 70H151.501V69.049C151.501 68.767 151.708 68.62 151.939 68.62C152.191 68.62 152.308 68.743 152.308 69.019V70H152.557V69.037C152.557 68.581 152.329 68.404 152.005 68.404C151.747 68.404 151.573 68.533 151.501 68.68V67.681H151.252V70ZM153.687 70.027C154.041 70.027 154.302 69.862 154.356 69.547H154.107C154.074 69.73 153.933 69.82 153.69 69.82C153.369 69.82 153.198 69.622 153.186 69.265H154.368V69.184C154.368 68.623 154.026 68.404 153.663 68.404C153.231 68.404 152.928 68.734 152.928 69.208V69.232C152.928 69.715 153.243 70.027 153.687 70.027ZM153.195 69.064C153.237 68.785 153.408 68.611 153.663 68.611C153.921 68.611 154.089 68.74 154.113 69.064H153.195ZM154.756 70H155.008V67.681H154.756V70ZM156.274 69.82C155.968 69.82 155.758 69.631 155.758 69.229V69.205C155.758 68.803 155.98 68.611 156.271 68.611C156.535 68.611 156.754 68.809 156.754 69.205V69.229C156.754 69.61 156.586 69.82 156.274 69.82ZM155.518 70.546H155.767V69.742C155.857 69.898 156.04 70.027 156.298 70.027C156.73 70.027 157.012 69.697 157.012 69.217V69.193C157.012 68.704 156.709 68.404 156.298 68.404C156.07 68.404 155.857 68.542 155.767 68.695V68.431H155.518V70.546ZM158.04 70.027C158.394 70.027 158.655 69.862 158.709 69.547H158.46C158.427 69.73 158.286 69.82 158.043 69.82C157.722 69.82 157.551 69.622 157.539 69.265H158.721V69.184C158.721 68.623 158.379 68.404 158.016 68.404C157.584 68.404 157.281 68.734 157.281 69.208V69.232C157.281 69.715 157.596 70.027 158.04 70.027ZM157.548 69.064C157.59 68.785 157.761 68.611 158.016 68.611C158.274 68.611 158.442 68.74 158.466 69.064H157.548ZM159.722 69.82C159.458 69.82 159.245 69.631 159.245 69.235V69.211C159.245 68.83 159.431 68.611 159.743 68.611C160.049 68.611 160.241 68.8 160.241 69.202V69.226C160.241 69.628 160.013 69.82 159.722 69.82ZM159.695 70.027C159.923 70.027 160.142 69.883 160.232 69.73V70H160.481V67.681H160.232V68.683C160.142 68.53 159.98 68.404 159.719 68.404C159.287 68.404 158.987 68.743 158.987 69.223V69.247C158.987 69.736 159.284 70.027 159.695 70.027ZM162.255 70.021C162.357 70.021 162.417 70.006 162.468 69.988V69.778C162.414 69.799 162.354 69.811 162.276 69.811C162.15 69.811 162.081 69.736 162.081 69.583V68.641H162.447V68.431H162.081V68.074H161.832V68.431H161.607V68.641H161.832V69.607C161.832 69.853 161.97 70.021 162.255 70.021ZM163.496 70.027C163.943 70.027 164.27 69.7 164.27 69.226V69.202C164.27 68.731 163.943 68.404 163.499 68.404C163.055 68.404 162.728 68.734 162.728 69.205V69.229C162.728 69.688 163.049 70.027 163.496 70.027ZM163.499 69.82C163.181 69.82 162.986 69.586 162.986 69.229V69.205C162.986 68.845 163.184 68.611 163.499 68.611C163.811 68.611 164.012 68.845 164.012 69.208V69.229C164.012 69.583 163.814 69.82 163.499 69.82ZM166.052 69.82C165.806 69.82 165.59 69.631 165.59 69.235V69.211C165.59 68.83 165.785 68.611 166.073 68.611C166.355 68.611 166.55 68.8 166.55 69.202V69.226C166.55 69.628 166.319 69.82 166.052 69.82ZM166.025 70.027C166.235 70.027 166.451 69.889 166.541 69.736V70H166.79V68.431H166.541V68.677C166.451 68.524 166.292 68.404 166.049 68.404C165.653 68.404 165.332 68.743 165.332 69.223V69.247C165.332 69.736 165.65 70.027 166.025 70.027ZM167.946 70.027C168.324 70.027 168.597 69.775 168.63 69.436H168.399C168.372 69.691 168.171 69.82 167.949 69.82C167.646 69.82 167.436 69.616 167.436 69.232V69.208C167.436 68.839 167.655 68.611 167.94 68.611C168.156 68.611 168.336 68.704 168.375 68.953H168.621C168.573 68.554 168.267 68.404 167.94 68.404C167.52 68.404 167.178 68.728 167.178 69.208V69.232C167.178 69.718 167.508 70.027 167.946 70.027ZM169.006 70H169.255V69.049C169.255 68.767 169.462 68.62 169.693 68.62C169.945 68.62 170.062 68.743 170.062 69.019V70H170.311V69.037C170.311 68.581 170.083 68.404 169.759 68.404C169.501 68.404 169.327 68.533 169.255 68.68V67.681H169.006V70ZM170.925 68.104C171.015 68.104 171.09 68.029 171.09 67.939C171.09 67.849 171.015 67.774 170.925 67.774C170.835 67.774 170.76 67.849 170.76 67.939C170.76 68.029 170.835 68.104 170.925 68.104ZM170.805 70H171.054V68.431H170.805V70ZM172.206 70.027C172.56 70.027 172.821 69.862 172.875 69.547H172.626C172.593 69.73 172.452 69.82 172.209 69.82C171.888 69.82 171.717 69.622 171.705 69.265H172.887V69.184C172.887 68.623 172.545 68.404 172.182 68.404C171.75 68.404 171.447 68.734 171.447 69.208V69.232C171.447 69.715 171.762 70.027 172.206 70.027ZM171.714 69.064C171.756 68.785 171.927 68.611 172.182 68.611C172.44 68.611 172.608 68.74 172.632 69.064H171.714ZM173.647 70H173.965L174.529 68.431H174.271L173.812 69.748L173.347 68.431H173.077L173.647 70ZM175.455 70.027C175.809 70.027 176.07 69.862 176.124 69.547H175.875C175.842 69.73 175.701 69.82 175.458 69.82C175.137 69.82 174.966 69.622 174.954 69.265H176.136V69.184C176.136 68.623 175.794 68.404 175.431 68.404C174.999 68.404 174.696 68.734 174.696 69.208V69.232C174.696 69.715 175.011 70.027 175.455 70.027ZM174.963 69.064C175.005 68.785 175.176 68.611 175.431 68.611C175.689 68.611 175.857 68.74 175.881 69.064H174.963ZM178.068 69.82C177.762 69.82 177.552 69.631 177.552 69.229V69.205C177.552 68.803 177.774 68.611 178.065 68.611C178.329 68.611 178.548 68.809 178.548 69.205V69.229C178.548 69.61 178.38 69.82 178.068 69.82ZM177.312 70.546H177.561V69.742C177.651 69.898 177.834 70.027 178.092 70.027C178.524 70.027 178.806 69.697 178.806 69.217V69.193C178.806 68.704 178.503 68.404 178.092 68.404C177.864 68.404 177.651 68.542 177.561 68.695V68.431H177.312V70.546ZM179.834 70.027C180.188 70.027 180.449 69.862 180.503 69.547H180.254C180.221 69.73 180.08 69.82 179.837 69.82C179.516 69.82 179.345 69.622 179.333 69.265H180.515V69.184C180.515 68.623 180.173 68.404 179.81 68.404C179.378 68.404 179.075 68.734 179.075 69.208V69.232C179.075 69.715 179.39 70.027 179.834 70.027ZM179.342 69.064C179.384 68.785 179.555 68.611 179.81 68.611C180.068 68.611 180.236 68.74 180.26 69.064H179.342ZM180.898 70H181.147V69.139C181.147 68.752 181.348 68.653 181.663 68.638V68.404C181.381 68.413 181.246 68.536 181.147 68.713V68.431H180.898V70ZM182.109 70H182.358V68.641H182.742V68.431H182.358V68.149C182.358 67.99 182.424 67.879 182.586 67.879C182.655 67.879 182.718 67.894 182.763 67.912V67.702C182.7 67.681 182.658 67.672 182.577 67.672C182.265 67.672 182.109 67.858 182.109 68.176V68.431H181.884V68.641H182.109V70ZM183.658 70.027C184.012 70.027 184.273 69.862 184.327 69.547H184.078C184.045 69.73 183.904 69.82 183.661 69.82C183.34 69.82 183.169 69.622 183.157 69.265H184.339V69.184C184.339 68.623 183.997 68.404 183.634 68.404C183.202 68.404 182.899 68.734 182.899 69.208V69.232C182.899 69.715 183.214 70.027 183.658 70.027ZM183.166 69.064C183.208 68.785 183.379 68.611 183.634 68.611C183.892 68.611 184.06 68.74 184.084 69.064H183.166ZM185.372 70.027C185.75 70.027 186.023 69.775 186.056 69.436H185.825C185.798 69.691 185.597 69.82 185.375 69.82C185.072 69.82 184.862 69.616 184.862 69.232V69.208C184.862 68.839 185.081 68.611 185.366 68.611C185.582 68.611 185.762 68.704 185.801 68.953H186.047C185.999 68.554 185.693 68.404 185.366 68.404C184.946 68.404 184.604 68.728 184.604 69.208V69.232C184.604 69.718 184.934 70.027 185.372 70.027ZM186.909 70.021C187.011 70.021 187.071 70.006 187.122 69.988V69.778C187.068 69.799 187.008 69.811 186.93 69.811C186.804 69.811 186.735 69.736 186.735 69.583V68.641H187.101V68.431H186.735V68.074H186.486V68.431H186.261V68.641H186.486V69.607C186.486 69.853 186.624 70.021 186.909 70.021ZM188.916 69.742C188.652 69.742 188.433 69.538 188.433 69.196V69.172C188.433 68.842 188.619 68.611 188.931 68.611C189.237 68.611 189.429 68.815 189.429 69.166V69.187C189.429 69.538 189.207 69.742 188.916 69.742ZM188.919 70.573C189.357 70.573 189.666 70.351 189.669 69.895V68.431H189.42V68.683C189.33 68.53 189.168 68.404 188.907 68.404C188.475 68.404 188.175 68.758 188.175 69.184V69.205C188.175 69.637 188.478 69.949 188.889 69.949C189.117 69.949 189.33 69.805 189.42 69.652V69.88C189.42 70.216 189.225 70.363 188.916 70.363C188.649 70.363 188.499 70.27 188.463 70.09H188.208C188.25 70.354 188.454 70.573 188.919 70.573ZM190.173 70H190.422V69.139C190.422 68.752 190.623 68.653 190.938 68.638V68.404C190.656 68.413 190.521 68.536 190.422 68.713V68.431H190.173V70ZM191.908 70.027C192.355 70.027 192.682 69.7 192.682 69.226V69.202C192.682 68.731 192.355 68.404 191.911 68.404C191.467 68.404 191.14 68.734 191.14 69.205V69.229C191.14 69.688 191.461 70.027 191.908 70.027ZM191.911 69.82C191.593 69.82 191.398 69.586 191.398 69.229V69.205C191.398 68.845 191.596 68.611 191.911 68.611C192.223 68.611 192.424 68.845 192.424 69.208V69.229C192.424 69.583 192.226 69.82 191.911 69.82ZM193.598 70.027C193.85 70.027 194.024 69.898 194.096 69.751V70H194.345V68.431H194.096V69.382C194.096 69.664 193.886 69.811 193.664 69.811C193.418 69.811 193.301 69.688 193.301 69.412V68.431H193.052V69.424C193.052 69.856 193.286 70.027 193.598 70.027ZM195.605 69.82C195.299 69.82 195.089 69.631 195.089 69.229V69.205C195.089 68.803 195.311 68.611 195.602 68.611C195.866 68.611 196.085 68.809 196.085 69.205V69.229C196.085 69.61 195.917 69.82 195.605 69.82ZM194.849 70.546H195.098V69.742C195.188 69.898 195.371 70.027 195.629 70.027C196.061 70.027 196.343 69.697 196.343 69.217V69.193C196.343 68.704 196.04 68.404 195.629 68.404C195.401 68.404 195.188 68.542 195.098 68.695V68.431H194.849V70.546ZM196.856 68.104C196.946 68.104 197.021 68.029 197.021 67.939C197.021 67.849 196.946 67.774 196.856 67.774C196.766 67.774 196.691 67.849 196.691 67.939C196.691 68.029 196.766 68.104 196.856 68.104ZM196.736 70H196.985V68.431H196.736V70ZM197.494 70H197.743V69.049C197.743 68.767 197.95 68.62 198.181 68.62C198.433 68.62 198.55 68.743 198.55 69.019V70H198.799V69.037C198.799 68.581 198.571 68.404 198.247 68.404C197.989 68.404 197.815 68.533 197.743 68.68V68.431H197.494V70ZM199.911 69.742C199.647 69.742 199.428 69.538 199.428 69.196V69.172C199.428 68.842 199.614 68.611 199.926 68.611C200.232 68.611 200.424 68.815 200.424 69.166V69.187C200.424 69.538 200.202 69.742 199.911 69.742ZM199.914 70.573C200.352 70.573 200.661 70.351 200.664 69.895V68.431H200.415V68.683C200.325 68.53 200.163 68.404 199.902 68.404C199.47 68.404 199.17 68.758 199.17 69.184V69.205C199.17 69.637 199.473 69.949 199.884 69.949C200.112 69.949 200.325 69.805 200.415 69.652V69.88C200.415 70.216 200.22 70.363 199.911 70.363C199.644 70.363 199.494 70.27 199.458 70.09H199.203C199.245 70.354 199.449 70.573 199.914 70.573ZM202.742 70.027C203.174 70.027 203.456 69.697 203.456 69.217V69.193C203.456 68.704 203.153 68.404 202.742 68.404C202.514 68.404 202.301 68.542 202.211 68.695V67.681H201.962V70H202.211V69.742C202.301 69.898 202.487 70.027 202.742 70.027ZM202.718 69.82C202.412 69.82 202.202 69.631 202.202 69.229V69.205C202.202 68.803 202.424 68.611 202.715 68.611C202.979 68.611 203.198 68.809 203.198 69.205V69.229C203.198 69.61 203.03 69.82 202.718 69.82ZM204.446 69.82C204.2 69.82 203.984 69.631 203.984 69.235V69.211C203.984 68.83 204.179 68.611 204.467 68.611C204.749 68.611 204.944 68.8 204.944 69.202V69.226C204.944 69.628 204.713 69.82 204.446 69.82ZM204.419 70.027C204.629 70.027 204.845 69.889 204.935 69.736V70H205.184V68.431H204.935V68.677C204.845 68.524 204.686 68.404 204.443 68.404C204.047 68.404 203.726 68.743 203.726 69.223V69.247C203.726 69.736 204.044 70.027 204.419 70.027ZM206.175 70.027C206.556 70.027 206.751 69.835 206.751 69.55C206.751 69.217 206.523 69.145 206.199 69.085C205.911 69.034 205.833 68.977 205.833 68.836C205.833 68.701 205.95 68.611 206.13 68.611C206.328 68.611 206.424 68.686 206.46 68.857H206.7C206.658 68.518 206.415 68.404 206.133 68.404C205.887 68.404 205.602 68.554 205.602 68.845C205.602 69.118 205.74 69.232 206.148 69.307C206.391 69.352 206.514 69.406 206.514 69.571C206.514 69.739 206.409 69.82 206.172 69.82C205.92 69.82 205.821 69.703 205.803 69.517H205.56C205.575 69.838 205.8 70.027 206.175 70.027ZM207.772 70.027C208.126 70.027 208.387 69.862 208.441 69.547H208.192C208.159 69.73 208.018 69.82 207.775 69.82C207.454 69.82 207.283 69.622 207.271 69.265H208.453V69.184C208.453 68.623 208.111 68.404 207.748 68.404C207.316 68.404 207.013 68.734 207.013 69.208V69.232C207.013 69.715 207.328 70.027 207.772 70.027ZM207.28 69.064C207.322 68.785 207.493 68.611 207.748 68.611C208.006 68.611 208.174 68.74 208.198 69.064H207.28ZM209.453 69.82C209.189 69.82 208.976 69.631 208.976 69.235V69.211C208.976 68.83 209.162 68.611 209.474 68.611C209.78 68.611 209.972 68.8 209.972 69.202V69.226C209.972 69.628 209.744 69.82 209.453 69.82ZM209.426 70.027C209.654 70.027 209.873 69.883 209.963 69.73V70H210.212V67.681H209.963V68.683C209.873 68.53 209.711 68.404 209.45 68.404C209.018 68.404 208.718 68.743 208.718 69.223V69.247C208.718 69.736 209.015 70.027 209.426 70.027ZM151.903 75.027C152.35 75.027 152.677 74.7 152.677 74.226V74.202C152.677 73.731 152.35 73.404 151.906 73.404C151.462 73.404 151.135 73.734 151.135 74.205V74.229C151.135 74.688 151.456 75.027 151.903 75.027ZM151.906 74.82C151.588 74.82 151.393 74.586 151.393 74.229V74.205C151.393 73.845 151.591 73.611 151.906 73.611C152.218 73.611 152.419 73.845 152.419 74.208V74.229C152.419 74.583 152.221 74.82 151.906 74.82ZM153.063 75H153.312V74.049C153.312 73.767 153.519 73.62 153.75 73.62C154.002 73.62 154.119 73.743 154.119 74.019V75H154.368V74.037C154.368 73.581 154.14 73.404 153.816 73.404C153.558 73.404 153.384 73.533 153.312 73.68V73.431H153.063V75ZM156.3 75.027C156.678 75.027 156.951 74.775 156.984 74.436H156.753C156.726 74.691 156.525 74.82 156.303 74.82C156 74.82 155.79 74.616 155.79 74.232V74.208C155.79 73.839 156.009 73.611 156.294 73.611C156.51 73.611 156.69 73.704 156.729 73.953H156.975C156.927 73.554 156.621 73.404 156.294 73.404C155.874 73.404 155.532 73.728 155.532 74.208V74.232C155.532 74.718 155.862 75.027 156.3 75.027ZM158.011 75.027C158.458 75.027 158.785 74.7 158.785 74.226V74.202C158.785 73.731 158.458 73.404 158.014 73.404C157.57 73.404 157.243 73.734 157.243 74.205V74.229C157.243 74.688 157.564 75.027 158.011 75.027ZM158.014 74.82C157.696 74.82 157.501 74.586 157.501 74.229V74.205C157.501 73.845 157.699 73.611 158.014 73.611C158.326 73.611 158.527 73.845 158.527 74.208V74.229C158.527 74.583 158.329 74.82 158.014 74.82ZM159.171 75H159.42V74.049C159.42 73.767 159.627 73.62 159.858 73.62C160.11 73.62 160.227 73.743 160.227 74.019V75H160.476V74.037C160.476 73.581 160.248 73.404 159.924 73.404C159.666 73.404 159.492 73.533 159.42 73.68V73.431H159.171V75ZM161.441 75.021C161.543 75.021 161.603 75.006 161.654 74.988V74.778C161.6 74.799 161.54 74.811 161.462 74.811C161.336 74.811 161.267 74.736 161.267 74.583V73.641H161.633V73.431H161.267V73.074H161.018V73.431H160.793V73.641H161.018V74.607C161.018 74.853 161.156 75.021 161.441 75.021ZM162.672 75.027C163.026 75.027 163.287 74.862 163.341 74.547H163.092C163.059 74.73 162.918 74.82 162.675 74.82C162.354 74.82 162.183 74.622 162.171 74.265H163.353V74.184C163.353 73.623 163.011 73.404 162.648 73.404C162.216 73.404 161.913 73.734 161.913 74.208V74.232C161.913 74.715 162.228 75.027 162.672 75.027ZM162.18 74.064C162.222 73.785 162.393 73.611 162.648 73.611C162.906 73.611 163.074 73.74 163.098 74.064H162.18ZM163.523 75H163.79L164.222 74.367L164.645 75H164.939L164.366 74.175L164.885 73.431H164.615L164.234 74.001L163.85 73.431H163.559L164.084 74.193L163.523 75ZM165.753 75.021C165.855 75.021 165.915 75.006 165.966 74.988V74.778C165.912 74.799 165.852 74.811 165.774 74.811C165.648 74.811 165.579 74.736 165.579 74.583V73.641H165.945V73.431H165.579V73.074H165.33V73.431H165.105V73.641H165.33V74.607C165.33 74.853 165.468 75.021 165.753 75.021ZM166.514 75.015C166.619 75.015 166.706 74.931 166.706 74.823C166.706 74.715 166.619 74.631 166.514 74.631C166.409 74.631 166.322 74.715 166.322 74.823C166.322 74.931 166.409 75.015 166.514 75.015ZM168.55 75H168.862L169.603 72.855H169.357L168.718 74.748L168.079 72.855H167.821L168.55 75ZM170.043 73.104C170.133 73.104 170.208 73.029 170.208 72.939C170.208 72.849 170.133 72.774 170.043 72.774C169.953 72.774 169.878 72.849 169.878 72.939C169.878 73.029 169.953 73.104 170.043 73.104ZM169.923 75H170.172V73.431H169.923V75ZM171.168 75.027C171.549 75.027 171.744 74.835 171.744 74.55C171.744 74.217 171.516 74.145 171.192 74.085C170.904 74.034 170.826 73.977 170.826 73.836C170.826 73.701 170.943 73.611 171.123 73.611C171.321 73.611 171.417 73.686 171.453 73.857H171.693C171.651 73.518 171.408 73.404 171.126 73.404C170.88 73.404 170.595 73.554 170.595 73.845C170.595 74.118 170.733 74.232 171.141 74.307C171.384 74.352 171.507 74.406 171.507 74.571C171.507 74.739 171.402 74.82 171.165 74.82C170.913 74.82 170.814 74.703 170.796 74.517H170.553C170.568 74.838 170.793 75.027 171.168 75.027ZM172.654 75.027C172.906 75.027 173.08 74.898 173.152 74.751V75H173.401V73.431H173.152V74.382C173.152 74.664 172.942 74.811 172.72 74.811C172.474 74.811 172.357 74.688 172.357 74.412V73.431H172.108V74.424C172.108 74.856 172.342 75.027 172.654 75.027ZM174.507 74.82C174.261 74.82 174.045 74.631 174.045 74.235V74.211C174.045 73.83 174.24 73.611 174.528 73.611C174.81 73.611 175.005 73.8 175.005 74.202V74.226C175.005 74.628 174.774 74.82 174.507 74.82ZM174.48 75.027C174.69 75.027 174.906 74.889 174.996 74.736V75H175.245V73.431H174.996V73.677C174.906 73.524 174.747 73.404 174.504 73.404C174.108 73.404 173.787 73.743 173.787 74.223V74.247C173.787 74.736 174.105 75.027 174.48 75.027ZM175.756 75H176.008V72.681H175.756V75ZM176.536 75.369L176.905 74.742L176.662 74.628L176.374 75.285L176.536 75.369ZM178.8 75.027C179.154 75.027 179.415 74.862 179.469 74.547H179.22C179.187 74.73 179.046 74.82 178.803 74.82C178.482 74.82 178.311 74.622 178.299 74.265H179.481V74.184C179.481 73.623 179.139 73.404 178.776 73.404C178.344 73.404 178.041 73.734 178.041 74.208V74.232C178.041 74.715 178.356 75.027 178.8 75.027ZM178.308 74.064C178.35 73.785 178.521 73.611 178.776 73.611C179.034 73.611 179.202 73.74 179.226 74.064H178.308ZM180.466 74.82C180.22 74.82 180.004 74.631 180.004 74.235V74.211C180.004 73.83 180.199 73.611 180.487 73.611C180.769 73.611 180.964 73.8 180.964 74.202V74.226C180.964 74.628 180.733 74.82 180.466 74.82ZM180.439 75.027C180.649 75.027 180.865 74.889 180.955 74.736V75H181.204V73.431H180.955V73.677C180.865 73.524 180.706 73.404 180.463 73.404C180.067 73.404 179.746 73.743 179.746 74.223V74.247C179.746 74.736 180.064 75.027 180.439 75.027ZM182.195 75.027C182.576 75.027 182.771 74.835 182.771 74.55C182.771 74.217 182.543 74.145 182.219 74.085C181.931 74.034 181.853 73.977 181.853 73.836C181.853 73.701 181.97 73.611 182.15 73.611C182.348 73.611 182.444 73.686 182.48 73.857H182.72C182.678 73.518 182.435 73.404 182.153 73.404C181.907 73.404 181.622 73.554 181.622 73.845C181.622 74.118 181.76 74.232 182.168 74.307C182.411 74.352 182.534 74.406 182.534 74.571C182.534 74.739 182.429 74.82 182.192 74.82C181.94 74.82 181.841 74.703 181.823 74.517H181.58C181.595 74.838 181.82 75.027 182.195 75.027ZM183.262 75.546H183.514L184.381 73.431H184.126L183.691 74.556L183.211 73.431H182.944L183.559 74.838L183.262 75.546ZM184.578 74.292H185.22V74.058H184.578V74.292ZM186.129 75.021C186.231 75.021 186.291 75.006 186.342 74.988V74.778C186.288 74.799 186.228 74.811 186.15 74.811C186.024 74.811 185.955 74.736 185.955 74.583V73.641H186.321V73.431H185.955V73.074H185.706V73.431H185.481V73.641H185.706V74.607C185.706 74.853 185.844 75.021 186.129 75.021ZM187.37 75.027C187.817 75.027 188.144 74.7 188.144 74.226V74.202C188.144 73.731 187.817 73.404 187.373 73.404C186.929 73.404 186.602 73.734 186.602 74.205V74.229C186.602 74.688 186.923 75.027 187.37 75.027ZM187.373 74.82C187.055 74.82 186.86 74.586 186.86 74.229V74.205C186.86 73.845 187.058 73.611 187.373 73.611C187.685 73.611 187.886 73.845 187.886 74.208V74.229C187.886 74.583 187.688 74.82 187.373 74.82ZM188.457 74.292H189.099V74.058H188.457V74.292ZM189.531 75H189.78V74.049C189.78 73.767 189.987 73.62 190.218 73.62C190.47 73.62 190.587 73.743 190.587 74.019V75H190.836V74.037C190.836 73.581 190.608 73.404 190.284 73.404C190.026 73.404 189.852 73.533 189.78 73.68V73.431H189.531V75ZM191.927 74.82C191.681 74.82 191.465 74.631 191.465 74.235V74.211C191.465 73.83 191.66 73.611 191.948 73.611C192.23 73.611 192.425 73.8 192.425 74.202V74.226C192.425 74.628 192.194 74.82 191.927 74.82ZM191.9 75.027C192.11 75.027 192.326 74.889 192.416 74.736V75H192.665V73.431H192.416V73.677C192.326 73.524 192.167 73.404 191.924 73.404C191.528 73.404 191.207 73.743 191.207 74.223V74.247C191.207 74.736 191.525 75.027 191.9 75.027ZM193.563 75H193.881L194.445 73.431H194.187L193.728 74.748L193.263 73.431H192.993L193.563 75ZM194.899 73.104C194.989 73.104 195.064 73.029 195.064 72.939C195.064 72.849 194.989 72.774 194.899 72.774C194.809 72.774 194.734 72.849 194.734 72.939C194.734 73.029 194.809 73.104 194.899 73.104ZM194.779 75H195.028V73.431H194.779V75ZM196.161 74.742C195.897 74.742 195.678 74.538 195.678 74.196V74.172C195.678 73.842 195.864 73.611 196.176 73.611C196.482 73.611 196.674 73.815 196.674 74.166V74.187C196.674 74.538 196.452 74.742 196.161 74.742ZM196.164 75.573C196.602 75.573 196.911 75.351 196.914 74.895V73.431H196.665V73.683C196.575 73.53 196.413 73.404 196.152 73.404C195.72 73.404 195.42 73.758 195.42 74.184V74.205C195.42 74.637 195.723 74.949 196.134 74.949C196.362 74.949 196.575 74.805 196.665 74.652V74.88C196.665 75.216 196.47 75.363 196.161 75.363C195.894 75.363 195.744 75.27 195.708 75.09H195.453C195.495 75.354 195.699 75.573 196.164 75.573ZM198.021 74.82C197.775 74.82 197.559 74.631 197.559 74.235V74.211C197.559 73.83 197.754 73.611 198.042 73.611C198.324 73.611 198.519 73.8 198.519 74.202V74.226C198.519 74.628 198.288 74.82 198.021 74.82ZM197.994 75.027C198.204 75.027 198.42 74.889 198.51 74.736V75H198.759V73.431H198.51V73.677C198.42 73.524 198.261 73.404 198.018 73.404C197.622 73.404 197.301 73.743 197.301 74.223V74.247C197.301 74.736 197.619 75.027 197.994 75.027ZM199.741 75.021C199.843 75.021 199.903 75.006 199.954 74.988V74.778C199.9 74.799 199.84 74.811 199.762 74.811C199.636 74.811 199.567 74.736 199.567 74.583V73.641H199.933V73.431H199.567V73.074H199.318V73.431H199.093V73.641H199.318V74.607C199.318 74.853 199.456 75.021 199.741 75.021ZM200.972 75.027C201.326 75.027 201.587 74.862 201.641 74.547H201.392C201.359 74.73 201.218 74.82 200.975 74.82C200.654 74.82 200.483 74.622 200.471 74.265H201.653V74.184C201.653 73.623 201.311 73.404 200.948 73.404C200.516 73.404 200.213 73.734 200.213 74.208V74.232C200.213 74.715 200.528 75.027 200.972 75.027ZM200.48 74.064C200.522 73.785 200.693 73.611 200.948 73.611C201.206 73.611 201.374 73.74 201.398 74.064H200.48ZM203.315 75.027C203.696 75.027 203.891 74.835 203.891 74.55C203.891 74.217 203.663 74.145 203.339 74.085C203.051 74.034 202.973 73.977 202.973 73.836C202.973 73.701 203.09 73.611 203.27 73.611C203.468 73.611 203.564 73.686 203.6 73.857H203.84C203.798 73.518 203.555 73.404 203.273 73.404C203.027 73.404 202.742 73.554 202.742 73.845C202.742 74.118 202.88 74.232 203.288 74.307C203.531 74.352 203.654 74.406 203.654 74.571C203.654 74.739 203.549 74.82 203.312 74.82C203.06 74.82 202.961 74.703 202.943 74.517H202.7C202.715 74.838 202.94 75.027 203.315 75.027ZM204.748 75.021C204.85 75.021 204.91 75.006 204.961 74.988V74.778C204.907 74.799 204.847 74.811 204.769 74.811C204.643 74.811 204.574 74.736 204.574 74.583V73.641H204.94V73.431H204.574V73.074H204.325V73.431H204.1V73.641H204.325V74.607C204.325 74.853 204.463 75.021 204.748 75.021ZM205.337 75H205.586V74.139C205.586 73.752 205.787 73.653 206.102 73.638V73.404C205.82 73.413 205.685 73.536 205.586 73.713V73.431H205.337V75ZM206.996 75.027C207.248 75.027 207.422 74.898 207.494 74.751V75H207.743V73.431H207.494V74.382C207.494 74.664 207.284 74.811 207.062 74.811C206.816 74.811 206.699 74.688 206.699 74.412V73.431H206.45V74.424C206.45 74.856 206.684 75.027 206.996 75.027ZM208.897 75.027C209.275 75.027 209.548 74.775 209.581 74.436H209.35C209.323 74.691 209.122 74.82 208.9 74.82C208.597 74.82 208.387 74.616 208.387 74.232V74.208C208.387 73.839 208.606 73.611 208.891 73.611C209.107 73.611 209.287 73.704 209.326 73.953H209.572C209.524 73.554 209.218 73.404 208.891 73.404C208.471 73.404 208.129 73.728 208.129 74.208V74.232C208.129 74.718 208.459 75.027 208.897 75.027ZM210.434 75.021C210.536 75.021 210.596 75.006 210.647 74.988V74.778C210.593 74.799 210.533 74.811 210.455 74.811C210.329 74.811 210.26 74.736 210.26 74.583V73.641H210.626V73.431H210.26V73.074H210.011V73.431H209.786V73.641H210.011V74.607C210.011 74.853 210.149 75.021 210.434 75.021ZM211.554 75.027C211.806 75.027 211.98 74.898 212.052 74.751V75H212.301V73.431H212.052V74.382C212.052 74.664 211.842 74.811 211.62 74.811C211.374 74.811 211.257 74.688 211.257 74.412V73.431H211.008V74.424C211.008 74.856 211.242 75.027 211.554 75.027ZM212.805 75H213.054V74.139C213.054 73.752 213.255 73.653 213.57 73.638V73.404C213.288 73.413 213.153 73.536 213.054 73.713V73.431H212.805V75ZM214.531 75.027C214.885 75.027 215.146 74.862 215.2 74.547H214.951C214.918 74.73 214.777 74.82 214.534 74.82C214.213 74.82 214.042 74.622 214.03 74.265H215.212V74.184C215.212 73.623 214.87 73.404 214.507 73.404C214.075 73.404 213.772 73.734 213.772 74.208V74.232C213.772 74.715 214.087 75.027 214.531 75.027ZM214.039 74.064C214.081 73.785 214.252 73.611 214.507 73.611C214.765 73.611 214.933 73.74 214.957 74.064H214.039ZM216.832 73.338C216.832 73.128 216.958 73.038 217.108 73.038C217.252 73.038 217.351 73.14 217.351 73.278C217.351 73.485 217.258 73.593 217.018 73.701C216.901 73.554 216.832 73.446 216.832 73.338ZM216.976 74.817C216.706 74.817 216.541 74.667 216.541 74.409C216.541 74.157 216.688 74.034 216.898 73.932L217.432 74.583C217.303 74.739 217.147 74.817 216.976 74.817ZM218.068 73.893H217.837L217.576 74.388L217.126 73.839C217.399 73.722 217.585 73.545 217.585 73.284C217.585 73.026 217.381 72.843 217.117 72.843C216.847 72.843 216.592 73.011 216.592 73.335C216.592 73.479 216.655 73.626 216.781 73.788C216.505 73.923 216.289 74.094 216.289 74.433C216.289 74.787 216.574 75.021 216.967 75.021C217.237 75.021 217.426 74.898 217.561 74.742L217.774 75H218.077L217.717 74.562L218.068 73.893ZM151.252 80H151.501V79.049C151.501 78.767 151.708 78.62 151.939 78.62C152.191 78.62 152.308 78.743 152.308 79.019V80H152.557V79.037C152.557 78.581 152.329 78.404 152.005 78.404C151.747 78.404 151.573 78.533 151.501 78.68V77.681H151.252V80ZM153.576 80.027C153.828 80.027 154.002 79.898 154.074 79.751V80H154.323V78.431H154.074V79.382C154.074 79.664 153.864 79.811 153.642 79.811C153.396 79.811 153.279 79.688 153.279 79.412V78.431H153.03V79.424C153.03 79.856 153.264 80.027 153.576 80.027ZM154.826 80H155.075V79.04C155.075 78.758 155.285 78.62 155.489 78.62C155.705 78.62 155.822 78.734 155.822 79.01V80H156.071V79.04C156.071 78.758 156.281 78.62 156.485 78.62C156.701 78.62 156.818 78.734 156.818 79.01V80H157.067V79.028C157.067 78.572 156.821 78.404 156.539 78.404C156.344 78.404 156.11 78.494 156.002 78.698C155.921 78.488 155.744 78.404 155.543 78.404C155.318 78.404 155.147 78.524 155.075 78.671V78.431H154.826V80ZM158.16 79.82C157.914 79.82 157.698 79.631 157.698 79.235V79.211C157.698 78.83 157.893 78.611 158.181 78.611C158.463 78.611 158.658 78.8 158.658 79.202V79.226C158.658 79.628 158.427 79.82 158.16 79.82ZM158.133 80.027C158.343 80.027 158.559 79.889 158.649 79.736V80H158.898V78.431H158.649V78.677C158.559 78.524 158.4 78.404 158.157 78.404C157.761 78.404 157.44 78.743 157.44 79.223V79.247C157.44 79.736 157.758 80.027 158.133 80.027ZM159.402 80H159.651V79.049C159.651 78.767 159.858 78.62 160.089 78.62C160.341 78.62 160.458 78.743 160.458 79.019V80H160.707V79.037C160.707 78.581 160.479 78.404 160.155 78.404C159.897 78.404 159.723 78.533 159.651 78.68V78.431H159.402V80ZM162.64 80.027C163.087 80.027 163.414 79.7 163.414 79.226V79.202C163.414 78.731 163.087 78.404 162.643 78.404C162.199 78.404 161.872 78.734 161.872 79.205V79.229C161.872 79.688 162.193 80.027 162.64 80.027ZM162.643 79.82C162.325 79.82 162.13 79.586 162.13 79.229V79.205C162.13 78.845 162.328 78.611 162.643 78.611C162.955 78.611 163.156 78.845 163.156 79.208V79.229C163.156 79.583 162.958 79.82 162.643 79.82ZM163.8 80H164.049V79.139C164.049 78.752 164.25 78.653 164.565 78.638V78.404C164.283 78.413 164.148 78.536 164.049 78.713V78.431H163.8V80ZM165.054 78.104C165.144 78.104 165.219 78.029 165.219 77.939C165.219 77.849 165.144 77.774 165.054 77.774C164.964 77.774 164.889 77.849 164.889 77.939C164.889 78.029 164.964 78.104 165.054 78.104ZM164.934 80H165.183V78.431H164.934V80ZM166.334 80.027C166.688 80.027 166.949 79.862 167.003 79.547H166.754C166.721 79.73 166.58 79.82 166.337 79.82C166.016 79.82 165.845 79.622 165.833 79.265H167.015V79.184C167.015 78.623 166.673 78.404 166.31 78.404C165.878 78.404 165.575 78.734 165.575 79.208V79.232C165.575 79.715 165.89 80.027 166.334 80.027ZM165.842 79.064C165.884 78.785 166.055 78.611 166.31 78.611C166.568 78.611 166.736 78.74 166.76 79.064H165.842ZM167.398 80H167.647V79.049C167.647 78.767 167.854 78.62 168.085 78.62C168.337 78.62 168.454 78.743 168.454 79.019V80H168.703V79.037C168.703 78.581 168.475 78.404 168.151 78.404C167.893 78.404 167.719 78.533 167.647 78.68V78.431H167.398V80ZM169.667 80.021C169.769 80.021 169.829 80.006 169.88 79.988V79.778C169.826 79.799 169.766 79.811 169.688 79.811C169.562 79.811 169.493 79.736 169.493 79.583V78.641H169.859V78.431H169.493V78.074H169.244V78.431H169.019V78.641H169.244V79.607C169.244 79.853 169.382 80.021 169.667 80.021ZM170.899 80.027C171.253 80.027 171.514 79.862 171.568 79.547H171.319C171.286 79.73 171.145 79.82 170.902 79.82C170.581 79.82 170.41 79.622 170.398 79.265H171.58V79.184C171.58 78.623 171.238 78.404 170.875 78.404C170.443 78.404 170.14 78.734 170.14 79.208V79.232C170.14 79.715 170.455 80.027 170.899 80.027ZM170.407 79.064C170.449 78.785 170.62 78.611 170.875 78.611C171.133 78.611 171.301 78.74 171.325 79.064H170.407ZM172.58 79.82C172.316 79.82 172.103 79.631 172.103 79.235V79.211C172.103 78.83 172.289 78.611 172.601 78.611C172.907 78.611 173.099 78.8 173.099 79.202V79.226C173.099 79.628 172.871 79.82 172.58 79.82ZM172.553 80.027C172.781 80.027 173 79.883 173.09 79.73V80H173.339V77.681H173.09V78.683C173 78.53 172.838 78.404 172.577 78.404C172.145 78.404 171.845 78.743 171.845 79.223V79.247C171.845 79.736 172.142 80.027 172.553 80.027ZM175.255 79.82C174.991 79.82 174.778 79.631 174.778 79.235V79.211C174.778 78.83 174.964 78.611 175.276 78.611C175.582 78.611 175.774 78.8 175.774 79.202V79.226C175.774 79.628 175.546 79.82 175.255 79.82ZM175.228 80.027C175.456 80.027 175.675 79.883 175.765 79.73V80H176.014V77.681H175.765V78.683C175.675 78.53 175.513 78.404 175.252 78.404C174.82 78.404 174.52 78.743 174.52 79.223V79.247C174.52 79.736 174.817 80.027 175.228 80.027ZM177.16 80.027C177.514 80.027 177.775 79.862 177.829 79.547H177.58C177.547 79.73 177.406 79.82 177.163 79.82C176.842 79.82 176.671 79.622 176.659 79.265H177.841V79.184C177.841 78.623 177.499 78.404 177.136 78.404C176.704 78.404 176.401 78.734 176.401 79.208V79.232C176.401 79.715 176.716 80.027 177.16 80.027ZM176.668 79.064C176.71 78.785 176.881 78.611 177.136 78.611C177.394 78.611 177.562 78.74 177.586 79.064H176.668ZM178.723 80.027C179.104 80.027 179.299 79.835 179.299 79.55C179.299 79.217 179.071 79.145 178.747 79.085C178.459 79.034 178.381 78.977 178.381 78.836C178.381 78.701 178.498 78.611 178.678 78.611C178.876 78.611 178.972 78.686 179.008 78.857H179.248C179.206 78.518 178.963 78.404 178.681 78.404C178.435 78.404 178.15 78.554 178.15 78.845C178.15 79.118 178.288 79.232 178.696 79.307C178.939 79.352 179.062 79.406 179.062 79.571C179.062 79.739 178.957 79.82 178.72 79.82C178.468 79.82 178.369 79.703 178.351 79.517H178.108C178.123 79.838 178.348 80.027 178.723 80.027ZM179.805 78.104C179.895 78.104 179.97 78.029 179.97 77.939C179.97 77.849 179.895 77.774 179.805 77.774C179.715 77.774 179.64 77.849 179.64 77.939C179.64 78.029 179.715 78.104 179.805 78.104ZM179.685 80H179.934V78.431H179.685V80ZM181.067 79.742C180.803 79.742 180.584 79.538 180.584 79.196V79.172C180.584 78.842 180.77 78.611 181.082 78.611C181.388 78.611 181.58 78.815 181.58 79.166V79.187C181.58 79.538 181.358 79.742 181.067 79.742ZM181.07 80.573C181.508 80.573 181.817 80.351 181.82 79.895V78.431H181.571V78.683C181.481 78.53 181.319 78.404 181.058 78.404C180.626 78.404 180.326 78.758 180.326 79.184V79.205C180.326 79.637 180.629 79.949 181.04 79.949C181.268 79.949 181.481 79.805 181.571 79.652V79.88C181.571 80.216 181.376 80.363 181.067 80.363C180.8 80.363 180.65 80.27 180.614 80.09H180.359C180.401 80.354 180.605 80.573 181.07 80.573ZM182.324 80H182.573V79.049C182.573 78.767 182.78 78.62 183.011 78.62C183.263 78.62 183.38 78.743 183.38 79.019V80H183.629V79.037C183.629 78.581 183.401 78.404 183.077 78.404C182.819 78.404 182.645 78.533 182.573 78.68V78.431H182.324V80ZM185.562 80.027C185.94 80.027 186.213 79.775 186.246 79.436H186.015C185.988 79.691 185.787 79.82 185.565 79.82C185.262 79.82 185.052 79.616 185.052 79.232V79.208C185.052 78.839 185.271 78.611 185.556 78.611C185.772 78.611 185.952 78.704 185.991 78.953H186.237C186.189 78.554 185.883 78.404 185.556 78.404C185.136 78.404 184.794 78.728 184.794 79.208V79.232C184.794 79.718 185.124 80.027 185.562 80.027ZM186.622 80H186.871V79.139C186.871 78.752 187.072 78.653 187.387 78.638V78.404C187.105 78.413 186.97 78.536 186.871 78.713V78.431H186.622V80ZM188.348 80.027C188.702 80.027 188.963 79.862 189.017 79.547H188.768C188.735 79.73 188.594 79.82 188.351 79.82C188.03 79.82 187.859 79.622 187.847 79.265H189.029V79.184C189.029 78.623 188.687 78.404 188.324 78.404C187.892 78.404 187.589 78.734 187.589 79.208V79.232C187.589 79.715 187.904 80.027 188.348 80.027ZM187.856 79.064C187.898 78.785 188.069 78.611 188.324 78.611C188.582 78.611 188.75 78.74 188.774 79.064H187.856ZM190.014 79.82C189.768 79.82 189.552 79.631 189.552 79.235V79.211C189.552 78.83 189.747 78.611 190.035 78.611C190.317 78.611 190.512 78.8 190.512 79.202V79.226C190.512 79.628 190.281 79.82 190.014 79.82ZM189.987 80.027C190.197 80.027 190.413 79.889 190.503 79.736V80H190.752V78.431H190.503V78.677C190.413 78.524 190.254 78.404 190.011 78.404C189.615 78.404 189.294 78.743 189.294 79.223V79.247C189.294 79.736 189.612 80.027 189.987 80.027ZM191.734 80.021C191.836 80.021 191.896 80.006 191.947 79.988V79.778C191.893 79.799 191.833 79.811 191.755 79.811C191.629 79.811 191.56 79.736 191.56 79.583V78.641H191.926V78.431H191.56V78.074H191.311V78.431H191.086V78.641H191.311V79.607C191.311 79.853 191.449 80.021 191.734 80.021ZM192.965 80.027C193.319 80.027 193.58 79.862 193.634 79.547H193.385C193.352 79.73 193.211 79.82 192.968 79.82C192.647 79.82 192.476 79.622 192.464 79.265H193.646V79.184C193.646 78.623 193.304 78.404 192.941 78.404C192.509 78.404 192.206 78.734 192.206 79.208V79.232C192.206 79.715 192.521 80.027 192.965 80.027ZM192.473 79.064C192.515 78.785 192.686 78.611 192.941 78.611C193.199 78.611 193.367 78.74 193.391 79.064H192.473ZM194.529 80.027C194.91 80.027 195.105 79.835 195.105 79.55C195.105 79.217 194.877 79.145 194.553 79.085C194.265 79.034 194.187 78.977 194.187 78.836C194.187 78.701 194.304 78.611 194.484 78.611C194.682 78.611 194.778 78.686 194.814 78.857H195.054C195.012 78.518 194.769 78.404 194.487 78.404C194.241 78.404 193.956 78.554 193.956 78.845C193.956 79.118 194.094 79.232 194.502 79.307C194.745 79.352 194.868 79.406 194.868 79.571C194.868 79.739 194.763 79.82 194.526 79.82C194.274 79.82 194.175 79.703 194.157 79.517H193.914C193.929 79.838 194.154 80.027 194.529 80.027ZM196.92 80.027C197.274 80.027 197.535 79.862 197.589 79.547H197.34C197.307 79.73 197.166 79.82 196.923 79.82C196.602 79.82 196.431 79.622 196.419 79.265H197.601V79.184C197.601 78.623 197.259 78.404 196.896 78.404C196.464 78.404 196.161 78.734 196.161 79.208V79.232C196.161 79.715 196.476 80.027 196.92 80.027ZM196.428 79.064C196.47 78.785 196.641 78.611 196.896 78.611C197.154 78.611 197.322 78.74 197.346 79.064H196.428ZM197.983 80H198.232V79.049C198.232 78.767 198.439 78.62 198.67 78.62C198.922 78.62 199.039 78.743 199.039 79.019V80H199.288V79.037C199.288 78.581 199.06 78.404 198.736 78.404C198.478 78.404 198.304 78.533 198.232 78.68V78.431H197.983V80ZM199.902 78.104C199.992 78.104 200.067 78.029 200.067 77.939C200.067 77.849 199.992 77.774 199.902 77.774C199.812 77.774 199.737 77.849 199.737 77.939C199.737 78.029 199.812 78.104 199.902 78.104ZM199.551 80.573C199.899 80.561 200.031 80.399 200.031 80.099V78.431H199.782V80.12C199.782 80.258 199.728 80.348 199.551 80.363V80.573ZM201.192 80.027C201.639 80.027 201.966 79.7 201.966 79.226V79.202C201.966 78.731 201.639 78.404 201.195 78.404C200.751 78.404 200.424 78.734 200.424 79.205V79.229C200.424 79.688 200.745 80.027 201.192 80.027ZM201.195 79.82C200.877 79.82 200.682 79.586 200.682 79.229V79.205C200.682 78.845 200.88 78.611 201.195 78.611C201.507 78.611 201.708 78.845 201.708 79.208V79.229C201.708 79.583 201.51 79.82 201.195 79.82ZM202.449 80.546H202.701L203.568 78.431H203.313L202.878 79.556L202.398 78.431H202.131L202.746 79.838L202.449 80.546ZM204.469 79.82C204.223 79.82 204.007 79.631 204.007 79.235V79.211C204.007 78.83 204.202 78.611 204.49 78.611C204.772 78.611 204.967 78.8 204.967 79.202V79.226C204.967 79.628 204.736 79.82 204.469 79.82ZM204.442 80.027C204.652 80.027 204.868 79.889 204.958 79.736V80H205.207V78.431H204.958V78.677C204.868 78.524 204.709 78.404 204.466 78.404C204.07 78.404 203.749 78.743 203.749 79.223V79.247C203.749 79.736 204.067 80.027 204.442 80.027ZM206.492 80.027C206.924 80.027 207.206 79.697 207.206 79.217V79.193C207.206 78.704 206.903 78.404 206.492 78.404C206.264 78.404 206.051 78.542 205.961 78.695V77.681H205.712V80H205.961V79.742C206.051 79.898 206.237 80.027 206.492 80.027ZM206.468 79.82C206.162 79.82 205.952 79.631 205.952 79.229V79.205C205.952 78.803 206.174 78.611 206.465 78.611C206.729 78.611 206.948 78.809 206.948 79.205V79.229C206.948 79.61 206.78 79.82 206.468 79.82ZM207.599 80H207.851V77.681H207.599V80ZM209.002 80.027C209.356 80.027 209.617 79.862 209.671 79.547H209.422C209.389 79.73 209.248 79.82 209.005 79.82C208.684 79.82 208.513 79.622 208.501 79.265H209.683V79.184C209.683 78.623 209.341 78.404 208.978 78.404C208.546 78.404 208.243 78.734 208.243 79.208V79.232C208.243 79.715 208.558 80.027 209.002 80.027ZM208.51 79.064C208.552 78.785 208.723 78.611 208.978 78.611C209.236 78.611 209.404 78.74 209.428 79.064H208.51ZM210.985 78.104C211.075 78.104 211.15 78.029 211.15 77.939C211.15 77.849 211.075 77.774 210.985 77.774C210.895 77.774 210.82 77.849 210.82 77.939C210.82 78.029 210.895 78.104 210.985 78.104ZM210.634 80.573C210.982 80.561 211.114 80.399 211.114 80.099V78.431H210.865V80.12C210.865 80.258 210.811 80.348 210.634 80.363V80.573ZM212.275 80.027C212.722 80.027 213.049 79.7 213.049 79.226V79.202C213.049 78.731 212.722 78.404 212.278 78.404C211.834 78.404 211.507 78.734 211.507 79.205V79.229C211.507 79.688 211.828 80.027 212.275 80.027ZM212.278 79.82C211.96 79.82 211.765 79.586 211.765 79.229V79.205C211.765 78.845 211.963 78.611 212.278 78.611C212.59 78.611 212.791 78.845 212.791 79.208V79.229C212.791 79.583 212.593 79.82 212.278 79.82ZM213.966 80.027C214.218 80.027 214.392 79.898 214.464 79.751V80H214.713V78.431H214.464V79.382C214.464 79.664 214.254 79.811 214.032 79.811C213.786 79.811 213.669 79.688 213.669 79.412V78.431H213.42V79.424C213.42 79.856 213.654 80.027 213.966 80.027ZM215.216 80H215.465V79.139C215.465 78.752 215.666 78.653 215.981 78.638V78.404C215.699 78.413 215.564 78.536 215.465 78.713V78.431H215.216V80ZM216.344 80H216.593V79.049C216.593 78.767 216.8 78.62 217.031 78.62C217.283 78.62 217.4 78.743 217.4 79.019V80H217.649V79.037C217.649 78.581 217.421 78.404 217.097 78.404C216.839 78.404 216.665 78.533 216.593 78.68V78.431H216.344V80ZM218.779 80.027C219.133 80.027 219.394 79.862 219.448 79.547H219.199C219.166 79.73 219.025 79.82 218.782 79.82C218.461 79.82 218.29 79.622 218.278 79.265H219.46V79.184C219.46 78.623 219.118 78.404 218.755 78.404C218.323 78.404 218.02 78.734 218.02 79.208V79.232C218.02 79.715 218.335 80.027 218.779 80.027ZM218.287 79.064C218.329 78.785 218.5 78.611 218.755 78.611C219.013 78.611 219.181 78.74 219.205 79.064H218.287ZM219.968 80.546H220.22L221.087 78.431H220.832L220.397 79.556L219.917 78.431H219.65L220.265 79.838L219.968 80.546ZM151.855 84.82C151.609 84.82 151.393 84.631 151.393 84.235V84.211C151.393 83.83 151.588 83.611 151.876 83.611C152.158 83.611 152.353 83.8 152.353 84.202V84.226C152.353 84.628 152.122 84.82 151.855 84.82ZM151.828 85.027C152.038 85.027 152.254 84.889 152.344 84.736V85H152.593V83.431H152.344V83.677C152.254 83.524 152.095 83.404 151.852 83.404C151.456 83.404 151.135 83.743 151.135 84.223V84.247C151.135 84.736 151.453 85.027 151.828 85.027ZM153.749 85.027C154.127 85.027 154.4 84.775 154.433 84.436H154.202C154.175 84.691 153.974 84.82 153.752 84.82C153.449 84.82 153.239 84.616 153.239 84.232V84.208C153.239 83.839 153.458 83.611 153.743 83.611C153.959 83.611 154.139 83.704 154.178 83.953H154.424C154.376 83.554 154.07 83.404 153.743 83.404C153.323 83.404 152.981 83.728 152.981 84.208V84.232C152.981 84.718 153.311 85.027 153.749 85.027ZM154.809 85H155.058V84.139C155.058 83.752 155.259 83.653 155.574 83.638V83.404C155.292 83.413 155.157 83.536 155.058 83.713V83.431H154.809V85ZM156.544 85.027C156.991 85.027 157.318 84.7 157.318 84.226V84.202C157.318 83.731 156.991 83.404 156.547 83.404C156.103 83.404 155.776 83.734 155.776 84.205V84.229C155.776 84.688 156.097 85.027 156.544 85.027ZM156.547 84.82C156.229 84.82 156.034 84.586 156.034 84.229V84.205C156.034 83.845 156.232 83.611 156.547 83.611C156.859 83.611 157.06 83.845 157.06 84.208V84.229C157.06 84.583 156.862 84.82 156.547 84.82ZM158.189 85.027C158.57 85.027 158.765 84.835 158.765 84.55C158.765 84.217 158.537 84.145 158.213 84.085C157.925 84.034 157.847 83.977 157.847 83.836C157.847 83.701 157.964 83.611 158.144 83.611C158.342 83.611 158.438 83.686 158.474 83.857H158.714C158.672 83.518 158.429 83.404 158.147 83.404C157.901 83.404 157.616 83.554 157.616 83.845C157.616 84.118 157.754 84.232 158.162 84.307C158.405 84.352 158.528 84.406 158.528 84.571C158.528 84.739 158.423 84.82 158.186 84.82C157.934 84.82 157.835 84.703 157.817 84.517H157.574C157.589 84.838 157.814 85.027 158.189 85.027ZM159.631 85.027C160.012 85.027 160.207 84.835 160.207 84.55C160.207 84.217 159.979 84.145 159.655 84.085C159.367 84.034 159.289 83.977 159.289 83.836C159.289 83.701 159.406 83.611 159.586 83.611C159.784 83.611 159.88 83.686 159.916 83.857H160.156C160.114 83.518 159.871 83.404 159.589 83.404C159.343 83.404 159.058 83.554 159.058 83.845C159.058 84.118 159.196 84.232 159.604 84.307C159.847 84.352 159.97 84.406 159.97 84.571C159.97 84.739 159.865 84.82 159.628 84.82C159.376 84.82 159.277 84.703 159.259 84.517H159.016C159.031 84.838 159.256 85.027 159.631 85.027ZM161.857 85.021C161.959 85.021 162.019 85.006 162.07 84.988V84.778C162.016 84.799 161.956 84.811 161.878 84.811C161.752 84.811 161.683 84.736 161.683 84.583V83.641H162.049V83.431H161.683V83.074H161.434V83.431H161.209V83.641H161.434V84.607C161.434 84.853 161.572 85.021 161.857 85.021ZM162.446 85H162.695V84.049C162.695 83.767 162.902 83.62 163.133 83.62C163.385 83.62 163.502 83.743 163.502 84.019V85H163.751V84.037C163.751 83.581 163.523 83.404 163.199 83.404C162.941 83.404 162.767 83.533 162.695 83.68V82.681H162.446V85ZM164.881 85.027C165.235 85.027 165.496 84.862 165.55 84.547H165.301C165.268 84.73 165.127 84.82 164.884 84.82C164.563 84.82 164.392 84.622 164.38 84.265H165.562V84.184C165.562 83.623 165.22 83.404 164.857 83.404C164.425 83.404 164.122 83.734 164.122 84.208V84.232C164.122 84.715 164.437 85.027 164.881 85.027ZM164.389 84.064C164.431 83.785 164.602 83.611 164.857 83.611C165.115 83.611 165.283 83.74 165.307 84.064H164.389ZM167.053 85H167.326L167.692 83.824L168.019 85H168.295L168.784 83.431H168.529L168.16 84.694L167.803 83.431H167.587L167.206 84.694L166.84 83.431H166.57L167.053 85ZM169.733 85.027C170.087 85.027 170.348 84.862 170.402 84.547H170.153C170.12 84.73 169.979 84.82 169.736 84.82C169.415 84.82 169.244 84.622 169.232 84.265H170.414V84.184C170.414 83.623 170.072 83.404 169.709 83.404C169.277 83.404 168.974 83.734 168.974 84.208V84.232C168.974 84.715 169.289 85.027 169.733 85.027ZM169.241 84.064C169.283 83.785 169.454 83.611 169.709 83.611C169.967 83.611 170.135 83.74 170.159 84.064H169.241ZM171.576 85.027C172.008 85.027 172.29 84.697 172.29 84.217V84.193C172.29 83.704 171.987 83.404 171.576 83.404C171.348 83.404 171.135 83.542 171.045 83.695V82.681H170.796V85H171.045V84.742C171.135 84.898 171.321 85.027 171.576 85.027ZM171.552 84.82C171.246 84.82 171.036 84.631 171.036 84.229V84.205C171.036 83.803 171.258 83.611 171.549 83.611C171.813 83.611 172.032 83.809 172.032 84.205V84.229C172.032 84.61 171.864 84.82 171.552 84.82ZM173.163 85.027C173.544 85.027 173.739 84.835 173.739 84.55C173.739 84.217 173.511 84.145 173.187 84.085C172.899 84.034 172.821 83.977 172.821 83.836C172.821 83.701 172.938 83.611 173.118 83.611C173.316 83.611 173.412 83.686 173.448 83.857H173.688C173.646 83.518 173.403 83.404 173.121 83.404C172.875 83.404 172.59 83.554 172.59 83.845C172.59 84.118 172.728 84.232 173.136 84.307C173.379 84.352 173.502 84.406 173.502 84.571C173.502 84.739 173.397 84.82 173.16 84.82C172.908 84.82 172.809 84.703 172.791 84.517H172.548C172.563 84.838 172.788 85.027 173.163 85.027ZM174.244 83.104C174.334 83.104 174.409 83.029 174.409 82.939C174.409 82.849 174.334 82.774 174.244 82.774C174.154 82.774 174.079 82.849 174.079 82.939C174.079 83.029 174.154 83.104 174.244 83.104ZM174.124 85H174.373V83.431H174.124V85ZM175.36 85.021C175.462 85.021 175.522 85.006 175.573 84.988V84.778C175.519 84.799 175.459 84.811 175.381 84.811C175.255 84.811 175.186 84.736 175.186 84.583V83.641H175.552V83.431H175.186V83.074H174.937V83.431H174.712V83.641H174.937V84.607C174.937 84.853 175.075 85.021 175.36 85.021ZM176.591 85.027C176.945 85.027 177.206 84.862 177.26 84.547H177.011C176.978 84.73 176.837 84.82 176.594 84.82C176.273 84.82 176.102 84.622 176.09 84.265H177.272V84.184C177.272 83.623 176.93 83.404 176.567 83.404C176.135 83.404 175.832 83.734 175.832 84.208V84.232C175.832 84.715 176.147 85.027 176.591 85.027ZM176.099 84.064C176.141 83.785 176.312 83.611 176.567 83.611C176.825 83.611 176.993 83.74 177.017 84.064H176.099ZM179.051 84.82C178.805 84.82 178.589 84.631 178.589 84.235V84.211C178.589 83.83 178.784 83.611 179.072 83.611C179.354 83.611 179.549 83.8 179.549 84.202V84.226C179.549 84.628 179.318 84.82 179.051 84.82ZM179.024 85.027C179.234 85.027 179.45 84.889 179.54 84.736V85H179.789V83.431H179.54V83.677C179.45 83.524 179.291 83.404 179.048 83.404C178.652 83.404 178.331 83.743 178.331 84.223V84.247C178.331 84.736 178.649 85.027 179.024 85.027ZM180.294 85H180.543V84.049C180.543 83.767 180.75 83.62 180.981 83.62C181.233 83.62 181.35 83.743 181.35 84.019V85H181.599V84.037C181.599 83.581 181.371 83.404 181.047 83.404C180.789 83.404 180.615 83.533 180.543 83.68V83.431H180.294V85ZM182.705 84.82C182.441 84.82 182.228 84.631 182.228 84.235V84.211C182.228 83.83 182.414 83.611 182.726 83.611C183.032 83.611 183.224 83.8 183.224 84.202V84.226C183.224 84.628 182.996 84.82 182.705 84.82ZM182.678 85.027C182.906 85.027 183.125 84.883 183.215 84.73V85H183.464V82.681H183.215V83.683C183.125 83.53 182.963 83.404 182.702 83.404C182.27 83.404 181.97 83.743 181.97 84.223V84.247C181.97 84.736 182.267 85.027 182.678 85.027ZM185.38 84.82C185.116 84.82 184.903 84.631 184.903 84.235V84.211C184.903 83.83 185.089 83.611 185.401 83.611C185.707 83.611 185.899 83.8 185.899 84.202V84.226C185.899 84.628 185.671 84.82 185.38 84.82ZM185.353 85.027C185.581 85.027 185.8 84.883 185.89 84.73V85H186.139V82.681H185.89V83.683C185.8 83.53 185.638 83.404 185.377 83.404C184.945 83.404 184.645 83.743 184.645 84.223V84.247C184.645 84.736 184.942 85.027 185.353 85.027ZM187.285 85.027C187.639 85.027 187.9 84.862 187.954 84.547H187.705C187.672 84.73 187.531 84.82 187.288 84.82C186.967 84.82 186.796 84.622 186.784 84.265H187.966V84.184C187.966 83.623 187.624 83.404 187.261 83.404C186.829 83.404 186.526 83.734 186.526 84.208V84.232C186.526 84.715 186.841 85.027 187.285 85.027ZM186.793 84.064C186.835 83.785 187.006 83.611 187.261 83.611C187.519 83.611 187.687 83.74 187.711 84.064H186.793ZM188.354 85H188.606V82.681H188.354V85ZM189.241 83.104C189.331 83.104 189.406 83.029 189.406 82.939C189.406 82.849 189.331 82.774 189.241 82.774C189.151 82.774 189.076 82.849 189.076 82.939C189.076 83.029 189.151 83.104 189.241 83.104ZM189.121 85H189.37V83.431H189.121V85ZM190.273 85H190.591L191.155 83.431H190.897L190.438 84.748L189.973 83.431H189.703L190.273 85ZM192.081 85.027C192.435 85.027 192.696 84.862 192.75 84.547H192.501C192.468 84.73 192.327 84.82 192.084 84.82C191.763 84.82 191.592 84.622 191.58 84.265H192.762V84.184C192.762 83.623 192.42 83.404 192.057 83.404C191.625 83.404 191.322 83.734 191.322 84.208V84.232C191.322 84.715 191.637 85.027 192.081 85.027ZM191.589 84.064C191.631 83.785 191.802 83.611 192.057 83.611C192.315 83.611 192.483 83.74 192.507 84.064H191.589ZM193.144 85H193.393V84.139C193.393 83.752 193.594 83.653 193.909 83.638V83.404C193.627 83.413 193.492 83.536 193.393 83.713V83.431H193.144V85ZM194.87 85.027C195.224 85.027 195.485 84.862 195.539 84.547H195.29C195.257 84.73 195.116 84.82 194.873 84.82C194.552 84.82 194.381 84.622 194.369 84.265H195.551V84.184C195.551 83.623 195.209 83.404 194.846 83.404C194.414 83.404 194.111 83.734 194.111 84.208V84.232C194.111 84.715 194.426 85.027 194.87 85.027ZM194.378 84.064C194.42 83.785 194.591 83.611 194.846 83.611C195.104 83.611 195.272 83.74 195.296 84.064H194.378ZM196.433 85.027C196.814 85.027 197.009 84.835 197.009 84.55C197.009 84.217 196.781 84.145 196.457 84.085C196.169 84.034 196.091 83.977 196.091 83.836C196.091 83.701 196.208 83.611 196.388 83.611C196.586 83.611 196.682 83.686 196.718 83.857H196.958C196.916 83.518 196.673 83.404 196.391 83.404C196.145 83.404 195.86 83.554 195.86 83.845C195.86 84.118 195.998 84.232 196.406 84.307C196.649 84.352 196.772 84.406 196.772 84.571C196.772 84.739 196.667 84.82 196.43 84.82C196.178 84.82 196.079 84.703 196.061 84.517H195.818C195.833 84.838 196.058 85.027 196.433 85.027ZM198.786 84.82C198.54 84.82 198.324 84.631 198.324 84.235V84.211C198.324 83.83 198.519 83.611 198.807 83.611C199.089 83.611 199.284 83.8 199.284 84.202V84.226C199.284 84.628 199.053 84.82 198.786 84.82ZM198.759 85.027C198.969 85.027 199.185 84.889 199.275 84.736V85H199.524V83.431H199.275V83.677C199.185 83.524 199.026 83.404 198.783 83.404C198.387 83.404 198.066 83.743 198.066 84.223V84.247C198.066 84.736 198.384 85.027 198.759 85.027ZM200.646 84.82C200.382 84.82 200.169 84.631 200.169 84.235V84.211C200.169 83.83 200.355 83.611 200.667 83.611C200.973 83.611 201.165 83.8 201.165 84.202V84.226C201.165 84.628 200.937 84.82 200.646 84.82ZM200.619 85.027C200.847 85.027 201.066 84.883 201.156 84.73V85H201.405V82.681H201.156V83.683C201.066 83.53 200.904 83.404 200.643 83.404C200.211 83.404 199.911 83.743 199.911 84.223V84.247C199.911 84.736 200.208 85.027 200.619 85.027ZM202.302 85H202.62L203.184 83.431H202.926L202.467 84.748L202.002 83.431H201.732L202.302 85ZM204.085 84.82C203.839 84.82 203.623 84.631 203.623 84.235V84.211C203.623 83.83 203.818 83.611 204.106 83.611C204.388 83.611 204.583 83.8 204.583 84.202V84.226C204.583 84.628 204.352 84.82 204.085 84.82ZM204.058 85.027C204.268 85.027 204.484 84.889 204.574 84.736V85H204.823V83.431H204.574V83.677C204.484 83.524 204.325 83.404 204.082 83.404C203.686 83.404 203.365 83.743 203.365 84.223V84.247C203.365 84.736 203.683 85.027 204.058 85.027ZM205.328 85H205.577V84.049C205.577 83.767 205.784 83.62 206.015 83.62C206.267 83.62 206.384 83.743 206.384 84.019V85H206.633V84.037C206.633 83.581 206.405 83.404 206.081 83.404C205.823 83.404 205.649 83.533 205.577 83.68V83.431H205.328V85ZM207.772 85.027C208.15 85.027 208.423 84.775 208.456 84.436H208.225C208.198 84.691 207.997 84.82 207.775 84.82C207.472 84.82 207.262 84.616 207.262 84.232V84.208C207.262 83.839 207.481 83.611 207.766 83.611C207.982 83.611 208.162 83.704 208.201 83.953H208.447C208.399 83.554 208.093 83.404 207.766 83.404C207.346 83.404 207.004 83.728 207.004 84.208V84.232C207.004 84.718 207.334 85.027 207.772 85.027ZM209.474 85.027C209.828 85.027 210.089 84.862 210.143 84.547H209.894C209.861 84.73 209.72 84.82 209.477 84.82C209.156 84.82 208.985 84.622 208.973 84.265H210.155V84.184C210.155 83.623 209.813 83.404 209.45 83.404C209.018 83.404 208.715 83.734 208.715 84.208V84.232C208.715 84.715 209.03 85.027 209.474 85.027ZM208.982 84.064C209.024 83.785 209.195 83.611 209.45 83.611C209.708 83.611 209.876 83.74 209.9 84.064H208.982ZM211.155 84.82C210.891 84.82 210.678 84.631 210.678 84.235V84.211C210.678 83.83 210.864 83.611 211.176 83.611C211.482 83.611 211.674 83.8 211.674 84.202V84.226C211.674 84.628 211.446 84.82 211.155 84.82ZM211.128 85.027C211.356 85.027 211.575 84.883 211.665 84.73V85H211.914V82.681H211.665V83.683C211.575 83.53 211.413 83.404 211.152 83.404C210.72 83.404 210.42 83.743 210.42 84.223V84.247C210.42 84.736 210.717 85.027 211.128 85.027ZM213.743 85.027C213.995 85.027 214.169 84.898 214.241 84.751V85H214.49V83.431H214.241V84.382C214.241 84.664 214.031 84.811 213.809 84.811C213.563 84.811 213.446 84.688 213.446 84.412V83.431H213.197V84.424C213.197 84.856 213.431 85.027 213.743 85.027ZM215.479 85.027C215.86 85.027 216.055 84.835 216.055 84.55C216.055 84.217 215.827 84.145 215.503 84.085C215.215 84.034 215.137 83.977 215.137 83.836C215.137 83.701 215.254 83.611 215.434 83.611C215.632 83.611 215.728 83.686 215.764 83.857H216.004C215.962 83.518 215.719 83.404 215.437 83.404C215.191 83.404 214.906 83.554 214.906 83.845C214.906 84.118 215.044 84.232 215.452 84.307C215.695 84.352 215.818 84.406 215.818 84.571C215.818 84.739 215.713 84.82 215.476 84.82C215.224 84.82 215.125 84.703 215.107 84.517H214.864C214.879 84.838 215.104 85.027 215.479 85.027ZM217.077 85.027C217.431 85.027 217.692 84.862 217.746 84.547H217.497C217.464 84.73 217.323 84.82 217.08 84.82C216.759 84.82 216.588 84.622 216.576 84.265H217.758V84.184C217.758 83.623 217.416 83.404 217.053 83.404C216.621 83.404 216.318 83.734 216.318 84.208V84.232C216.318 84.715 216.633 85.027 217.077 85.027ZM216.585 84.064C216.627 83.785 216.798 83.611 217.053 83.611C217.311 83.611 217.479 83.74 217.503 84.064H216.585ZM218.14 85H218.389V84.139C218.389 83.752 218.59 83.653 218.905 83.638V83.404C218.623 83.413 218.488 83.536 218.389 83.713V83.431H218.14V85ZM151.894 90.027C152.248 90.027 152.509 89.862 152.563 89.547H152.314C152.281 89.73 152.14 89.82 151.897 89.82C151.576 89.82 151.405 89.622 151.393 89.265H152.575V89.184C152.575 88.623 152.233 88.404 151.87 88.404C151.438 88.404 151.135 88.734 151.135 89.208V89.232C151.135 89.715 151.45 90.027 151.894 90.027ZM151.402 89.064C151.444 88.785 151.615 88.611 151.87 88.611C152.128 88.611 152.296 88.74 152.32 89.064H151.402ZM152.745 90H153.012L153.444 89.367L153.867 90H154.161L153.588 89.175L154.107 88.431H153.837L153.456 89.001L153.072 88.431H152.781L153.306 89.193L152.745 90ZM155.254 89.82C154.948 89.82 154.738 89.631 154.738 89.229V89.205C154.738 88.803 154.96 88.611 155.251 88.611C155.515 88.611 155.734 88.809 155.734 89.205V89.229C155.734 89.61 155.566 89.82 155.254 89.82ZM154.498 90.546H154.747V89.742C154.837 89.898 155.02 90.027 155.278 90.027C155.71 90.027 155.992 89.697 155.992 89.217V89.193C155.992 88.704 155.689 88.404 155.278 88.404C155.05 88.404 154.837 88.542 154.747 88.695V88.431H154.498V90.546ZM157.021 90.027C157.375 90.027 157.636 89.862 157.69 89.547H157.441C157.408 89.73 157.267 89.82 157.024 89.82C156.703 89.82 156.532 89.622 156.52 89.265H157.702V89.184C157.702 88.623 157.36 88.404 156.997 88.404C156.565 88.404 156.262 88.734 156.262 89.208V89.232C156.262 89.715 156.577 90.027 157.021 90.027ZM156.529 89.064C156.571 88.785 156.742 88.611 156.997 88.611C157.255 88.611 157.423 88.74 157.447 89.064H156.529ZM158.084 90H158.333V89.139C158.333 88.752 158.534 88.653 158.849 88.638V88.404C158.567 88.413 158.432 88.536 158.333 88.713V88.431H158.084V90ZM159.338 88.104C159.428 88.104 159.503 88.029 159.503 87.939C159.503 87.849 159.428 87.774 159.338 87.774C159.248 87.774 159.173 87.849 159.173 87.939C159.173 88.029 159.248 88.104 159.338 88.104ZM159.218 90H159.467V88.431H159.218V90ZM160.619 90.027C160.973 90.027 161.234 89.862 161.288 89.547H161.039C161.006 89.73 160.865 89.82 160.622 89.82C160.301 89.82 160.13 89.622 160.118 89.265H161.3V89.184C161.3 88.623 160.958 88.404 160.595 88.404C160.163 88.404 159.86 88.734 159.86 89.208V89.232C159.86 89.715 160.175 90.027 160.619 90.027ZM160.127 89.064C160.169 88.785 160.34 88.611 160.595 88.611C160.853 88.611 161.021 88.74 161.045 89.064H160.127ZM161.682 90H161.931V89.049C161.931 88.767 162.138 88.62 162.369 88.62C162.621 88.62 162.738 88.743 162.738 89.019V90H162.987V89.037C162.987 88.581 162.759 88.404 162.435 88.404C162.177 88.404 162.003 88.533 161.931 88.68V88.431H161.682V90ZM164.126 90.027C164.504 90.027 164.777 89.775 164.81 89.436H164.579C164.552 89.691 164.351 89.82 164.129 89.82C163.826 89.82 163.616 89.616 163.616 89.232V89.208C163.616 88.839 163.835 88.611 164.12 88.611C164.336 88.611 164.516 88.704 164.555 88.953H164.801C164.753 88.554 164.447 88.404 164.12 88.404C163.7 88.404 163.358 88.728 163.358 89.208V89.232C163.358 89.718 163.688 90.027 164.126 90.027ZM165.828 90.027C166.182 90.027 166.443 89.862 166.497 89.547H166.248C166.215 89.73 166.074 89.82 165.831 89.82C165.51 89.82 165.339 89.622 165.327 89.265H166.509V89.184C166.509 88.623 166.167 88.404 165.804 88.404C165.372 88.404 165.069 88.734 165.069 89.208V89.232C165.069 89.715 165.384 90.027 165.828 90.027ZM165.336 89.064C165.378 88.785 165.549 88.611 165.804 88.611C166.062 88.611 166.23 88.74 166.254 89.064H165.336ZM167.047 90.015C167.152 90.015 167.239 89.931 167.239 89.823C167.239 89.715 167.152 89.631 167.047 89.631C166.942 89.631 166.855 89.715 166.855 89.823C166.855 89.931 166.942 90.015 167.047 90.015Z" fill="white"/>
</svg>
