<svg width="253" height="144" viewBox="0 0 253 144" fill="none" xmlns="http://www.w3.org/2000/svg">
<rect width="253" height="144" rx="3" fill="white" fill-opacity="0.05"/>
<rect x="30" y="30" width="192" height="84" fill="white" fill-opacity="0.08"/>
<path opacity="0.3" fill-rule="evenodd" clip-rule="evenodd" d="M110 85C108.352 85 107.411 83.1185 108.4 81.8L117.9 69.1333C118.7 68.0667 120.3 68.0667 121.1 69.1333L130.6 81.8C131.589 83.1185 130.648 85 129 85H110Z" fill="white"/>
<path opacity="0.3" fill-rule="evenodd" clip-rule="evenodd" d="M139 76C143.971 76 148 71.9706 148 67C148 62.0294 143.971 58 139 58C134.029 58 130 62.0294 130 67C130 71.9706 134.029 76 139 76Z" fill="white"/>
</svg>
