<svg width="253" height="144" viewBox="0 0 253 144" fill="none" xmlns="http://www.w3.org/2000/svg">
<rect width="253" height="144" rx="3" fill="white" fill-opacity="0.05"/>
<rect x="31" y="30" width="90" height="84" fill="white" fill-opacity="0.08"/>
<path opacity="0.3" fill-rule="evenodd" clip-rule="evenodd" d="M59 83C57.3519 83 56.4111 81.1185 57.4 79.8L66.9 67.1333C67.7 66.0667 69.3 66.0667 70.1 67.1333L79.6 79.8C80.5889 81.1185 79.6481 83 78 83H59Z" fill="white"/>
<path opacity="0.3" fill-rule="evenodd" clip-rule="evenodd" d="M88 74C92.9706 74 97 69.9706 97 65C97 60.0294 92.9706 56 88 56C83.0294 56 79 60.0294 79 65C79 69.9706 83.0294 74 88 74Z" fill="white"/>
<path opacity="0.6" d="M139.448 34.06C140.75 34.06 141.608 33.118 141.608 31.864V31.816C141.608 30.556 140.726 29.65 139.448 29.65C138.176 29.65 137.276 30.58 137.276 31.834V31.882C137.276 33.118 138.134 34.06 139.448 34.06ZM139.46 33.418C138.68 33.418 138.11 32.812 138.11 31.876V31.828C138.11 30.904 138.608 30.286 139.448 30.286C140.288 30.286 140.78 30.94 140.78 31.822V31.87C140.78 32.8 140.27 33.418 139.46 33.418ZM143.369 34.06C143.879 34.06 144.209 33.814 144.365 33.508V34H145.091V30.862H144.365V32.728C144.365 33.226 144.023 33.478 143.633 33.478C143.213 33.478 143.015 33.262 143.015 32.788V30.862H142.289V32.872C142.289 33.706 142.751 34.06 143.369 34.06ZM145.952 34H146.678V32.368C146.678 31.702 147.062 31.498 147.698 31.492V30.814C147.17 30.82 146.876 31.054 146.678 31.45V30.862H145.952V34ZM149.766 34H150.492V32.122C150.492 31.642 150.822 31.402 151.182 31.402C151.536 31.402 151.74 31.6 151.74 32.062V34H152.466V32.122C152.466 31.642 152.796 31.402 153.156 31.402C153.516 31.402 153.714 31.6 153.714 32.062V34H154.44V32.014C154.44 31.15 153.972 30.796 153.396 30.796C153.006 30.796 152.574 30.97 152.334 31.36C152.178 30.97 151.854 30.796 151.446 30.796C150.984 30.796 150.642 31.048 150.492 31.342V30.862H149.766V34ZM156.6 33.484C156.162 33.484 155.814 33.154 155.814 32.464V32.416C155.814 31.738 156.138 31.366 156.636 31.366C157.122 31.366 157.446 31.702 157.446 32.398V32.446C157.446 33.148 157.068 33.484 156.6 33.484ZM156.426 34.06C156.858 34.06 157.248 33.79 157.422 33.484V34H158.148V30.862H157.422V31.336C157.242 31.024 156.936 30.796 156.456 30.796C155.7 30.796 155.07 31.432 155.07 32.434V32.482C155.07 33.502 155.694 34.06 156.426 34.06ZM159.384 30.346C159.624 30.346 159.816 30.166 159.816 29.932C159.816 29.692 159.624 29.512 159.384 29.512C159.144 29.512 158.952 29.692 158.952 29.932C158.952 30.166 159.144 30.346 159.384 30.346ZM159.03 34H159.756V30.862H159.03V34ZM160.641 34H161.367V32.152C161.367 31.654 161.697 31.402 162.105 31.402C162.537 31.402 162.729 31.618 162.729 32.092V34H163.455V32.026C163.455 31.162 163.011 30.796 162.381 30.796C161.865 30.796 161.517 31.054 161.367 31.36V30.862H160.641V34ZM167.083 33.316C166.615 33.316 166.255 32.956 166.255 32.374V32.326C166.255 31.756 166.567 31.366 167.107 31.366C167.629 31.366 167.953 31.72 167.953 32.314V32.356C167.953 32.956 167.587 33.316 167.083 33.316ZM167.059 35.152C168.031 35.152 168.649 34.69 168.655 33.766V30.862H167.929V31.342C167.749 31.03 167.437 30.796 166.921 30.796C166.111 30.796 165.511 31.456 165.511 32.338V32.38C165.511 33.286 166.117 33.874 166.903 33.874C167.365 33.874 167.755 33.592 167.929 33.292V33.754C167.929 34.318 167.617 34.6 167.053 34.6C166.579 34.6 166.339 34.42 166.279 34.108H165.547C165.631 34.708 166.075 35.152 167.059 35.152ZM170.916 34.06C171.84 34.06 172.53 33.424 172.53 32.446V32.398C172.53 31.438 171.84 30.796 170.922 30.796C169.998 30.796 169.308 31.444 169.308 32.416V32.464C169.308 33.418 169.992 34.06 170.916 34.06ZM170.922 33.496C170.37 33.496 170.052 33.094 170.052 32.452V32.404C170.052 31.756 170.382 31.366 170.922 31.366C171.462 31.366 171.786 31.762 171.786 32.41V32.452C171.786 33.094 171.462 33.496 170.922 33.496ZM174.512 33.484C174.074 33.484 173.726 33.154 173.726 32.464V32.416C173.726 31.738 174.05 31.366 174.548 31.366C175.034 31.366 175.358 31.702 175.358 32.398V32.446C175.358 33.148 174.98 33.484 174.512 33.484ZM174.338 34.06C174.77 34.06 175.16 33.79 175.334 33.484V34H176.06V30.862H175.334V31.336C175.154 31.024 174.848 30.796 174.368 30.796C173.612 30.796 172.982 31.432 172.982 32.434V32.482C172.982 33.502 173.606 34.06 174.338 34.06ZM176.942 34H177.668V29.41H176.942V34ZM180.631 34H181.375L182.011 31.888L182.593 34H183.331L184.315 30.862H183.607L182.953 33.13L182.341 30.862H181.735L181.069 33.13L180.445 30.862H179.671L180.631 34ZM186.137 33.484C185.699 33.484 185.351 33.154 185.351 32.464V32.416C185.351 31.738 185.675 31.366 186.173 31.366C186.659 31.366 186.983 31.702 186.983 32.398V32.446C186.983 33.148 186.605 33.484 186.137 33.484ZM185.963 34.06C186.395 34.06 186.785 33.79 186.959 33.484V34H187.685V30.862H186.959V31.336C186.779 31.024 186.473 30.796 185.993 30.796C185.237 30.796 184.607 31.432 184.607 32.434V32.482C184.607 33.502 185.231 34.06 185.963 34.06ZM189.623 34.06C190.427 34.06 190.877 33.694 190.877 33.058C190.877 32.392 190.439 32.212 189.701 32.098C189.203 32.014 189.053 31.924 189.053 31.696C189.053 31.474 189.239 31.324 189.551 31.324C189.887 31.324 190.049 31.456 190.109 31.744H190.781C190.703 31.036 190.193 30.796 189.551 30.796C188.963 30.796 188.375 31.108 188.375 31.738C188.375 32.326 188.681 32.56 189.509 32.692C189.971 32.77 190.181 32.866 190.181 33.124C190.181 33.388 190.007 33.526 189.617 33.526C189.191 33.526 189.029 33.34 188.993 33.022H188.309C188.339 33.688 188.813 34.06 189.623 34.06ZM194.012 34.054C194.234 34.054 194.39 34.018 194.504 33.976V33.4C194.402 33.442 194.294 33.46 194.15 33.46C193.922 33.46 193.79 33.334 193.79 33.058V31.408H194.48V30.862H193.79V30.172H193.064V30.862H192.644V31.408H193.064V33.124C193.064 33.718 193.388 34.054 194.012 34.054ZM196.557 34.06C197.481 34.06 198.171 33.424 198.171 32.446V32.398C198.171 31.438 197.481 30.796 196.563 30.796C195.639 30.796 194.949 31.444 194.949 32.416V32.464C194.949 33.418 195.633 34.06 196.557 34.06ZM196.563 33.496C196.011 33.496 195.693 33.094 195.693 32.452V32.404C195.693 31.756 196.023 31.366 196.563 31.366C197.103 31.366 197.427 31.762 197.427 32.41V32.452C197.427 33.094 197.103 33.496 196.563 33.496ZM201.636 34.06C202.44 34.06 202.974 33.7 203.076 33.04H202.374C202.32 33.346 202.092 33.52 201.654 33.52C201.114 33.52 200.814 33.184 200.79 32.59H203.088V32.38C203.088 31.258 202.386 30.796 201.606 30.796C200.712 30.796 200.046 31.444 200.046 32.416V32.464C200.046 33.454 200.712 34.06 201.636 34.06ZM200.802 32.104C200.874 31.618 201.168 31.324 201.606 31.324C202.056 31.324 202.332 31.564 202.368 32.104H200.802ZM203.737 34H204.463V32.152C204.463 31.654 204.793 31.402 205.201 31.402C205.633 31.402 205.825 31.618 205.825 32.092V34H206.551V32.026C206.551 31.162 206.107 30.796 205.477 30.796C204.961 30.796 204.613 31.054 204.463 31.36V30.862H203.737V34ZM208.461 34.06C209.265 34.06 209.715 33.694 209.715 33.058C209.715 32.392 209.277 32.212 208.539 32.098C208.041 32.014 207.891 31.924 207.891 31.696C207.891 31.474 208.077 31.324 208.389 31.324C208.725 31.324 208.887 31.456 208.947 31.744H209.619C209.541 31.036 209.031 30.796 208.389 30.796C207.801 30.796 207.213 31.108 207.213 31.738C207.213 32.326 207.519 32.56 208.347 32.692C208.809 32.77 209.019 32.866 209.019 33.124C209.019 33.388 208.845 33.526 208.455 33.526C208.029 33.526 207.867 33.34 207.831 33.022H207.147C207.177 33.688 207.651 34.06 208.461 34.06ZM211.402 34.06C211.912 34.06 212.242 33.814 212.398 33.508V34H213.124V30.862H212.398V32.728C212.398 33.226 212.056 33.478 211.666 33.478C211.246 33.478 211.048 33.262 211.048 32.788V30.862H210.322V32.872C210.322 33.706 210.784 34.06 211.402 34.06ZM213.985 34H214.711V32.368C214.711 31.702 215.095 31.498 215.731 31.492V30.814C215.203 30.82 214.909 31.054 214.711 31.45V30.862H213.985V34ZM217.691 34.06C218.495 34.06 219.029 33.7 219.131 33.04H218.429C218.375 33.346 218.147 33.52 217.709 33.52C217.169 33.52 216.869 33.184 216.845 32.59H219.143V32.38C219.143 31.258 218.441 30.796 217.661 30.796C216.767 30.796 216.101 31.444 216.101 32.416V32.464C216.101 33.454 216.767 34.06 217.691 34.06ZM216.857 32.104C216.929 31.618 217.223 31.324 217.661 31.324C218.111 31.324 218.387 31.564 218.423 32.104H216.857ZM138.5 42.054C138.722 42.054 138.878 42.018 138.992 41.976V41.4C138.89 41.442 138.782 41.46 138.638 41.46C138.41 41.46 138.278 41.334 138.278 41.058V39.408H138.968V38.862H138.278V38.172H137.552V38.862H137.132V39.408H137.552V41.124C137.552 41.718 137.876 42.054 138.5 42.054ZM139.647 42H140.373V40.152C140.373 39.654 140.703 39.402 141.111 39.402C141.543 39.402 141.735 39.618 141.735 40.092V42H142.461V40.026C142.461 39.162 142.017 38.796 141.387 38.796C140.871 38.796 140.523 39.054 140.373 39.36V37.41H139.647V42ZM144.623 41.484C144.185 41.484 143.837 41.154 143.837 40.464V40.416C143.837 39.738 144.161 39.366 144.659 39.366C145.145 39.366 145.469 39.702 145.469 40.398V40.446C145.469 41.148 145.091 41.484 144.623 41.484ZM144.449 42.06C144.881 42.06 145.271 41.79 145.445 41.484V42H146.171V38.862H145.445V39.336C145.265 39.024 144.959 38.796 144.479 38.796C143.723 38.796 143.093 39.432 143.093 40.434V40.482C143.093 41.502 143.717 42.06 144.449 42.06ZM148.104 42.054C148.326 42.054 148.482 42.018 148.596 41.976V41.4C148.494 41.442 148.386 41.46 148.242 41.46C148.014 41.46 147.882 41.334 147.882 41.058V39.408H148.572V38.862H147.882V38.172H147.156V38.862H146.736V39.408H147.156V41.124C147.156 41.718 147.48 42.054 148.104 42.054ZM152.06 42.06C152.864 42.06 153.398 41.7 153.5 41.04H152.798C152.744 41.346 152.516 41.52 152.078 41.52C151.538 41.52 151.238 41.184 151.214 40.59H153.512V40.38C153.512 39.258 152.81 38.796 152.03 38.796C151.136 38.796 150.47 39.444 150.47 40.416V40.464C150.47 41.454 151.136 42.06 152.06 42.06ZM151.226 40.104C151.298 39.618 151.592 39.324 152.03 39.324C152.48 39.324 152.756 39.564 152.792 40.104H151.226ZM154.924 42H155.77L156.904 38.862H156.19L155.38 41.256L154.558 38.862H153.778L154.924 42ZM158.705 42.06C159.509 42.06 160.043 41.7 160.145 41.04H159.443C159.389 41.346 159.161 41.52 158.723 41.52C158.183 41.52 157.883 41.184 157.859 40.59H160.157V40.38C160.157 39.258 159.455 38.796 158.675 38.796C157.781 38.796 157.115 39.444 157.115 40.416V40.464C157.115 41.454 157.781 42.06 158.705 42.06ZM157.871 40.104C157.943 39.618 158.237 39.324 158.675 39.324C159.125 39.324 159.401 39.564 159.437 40.104H157.871ZM160.805 42H161.531V40.368C161.531 39.702 161.915 39.498 162.551 39.492V38.814C162.023 38.82 161.729 39.054 161.531 39.45V38.862H160.805V42ZM163.567 43.074H164.281L165.991 38.862H165.283L164.515 40.884L163.681 38.862H162.895L164.137 41.682L163.567 43.074ZM169.015 42.06C169.525 42.06 169.855 41.814 170.011 41.508V42H170.737V38.862H170.011V40.728C170.011 41.226 169.669 41.478 169.279 41.478C168.859 41.478 168.661 41.262 168.661 40.788V38.862H167.935V40.872C167.935 41.706 168.397 42.06 169.015 42.06ZM172.672 42.06C173.476 42.06 173.926 41.694 173.926 41.058C173.926 40.392 173.488 40.212 172.75 40.098C172.252 40.014 172.102 39.924 172.102 39.696C172.102 39.474 172.288 39.324 172.6 39.324C172.936 39.324 173.098 39.456 173.158 39.744H173.83C173.752 39.036 173.242 38.796 172.6 38.796C172.012 38.796 171.424 39.108 171.424 39.738C171.424 40.326 171.73 40.56 172.558 40.692C173.02 40.77 173.23 40.866 173.23 41.124C173.23 41.388 173.056 41.526 172.666 41.526C172.24 41.526 172.078 41.34 172.042 41.022H171.358C171.388 41.688 171.862 42.06 172.672 42.06ZM175.943 42.06C176.747 42.06 177.281 41.7 177.383 41.04H176.681C176.627 41.346 176.399 41.52 175.961 41.52C175.421 41.52 175.121 41.184 175.097 40.59H177.395V40.38C177.395 39.258 176.693 38.796 175.913 38.796C175.019 38.796 174.353 39.444 174.353 40.416V40.464C174.353 41.454 175.019 42.06 175.943 42.06ZM175.109 40.104C175.181 39.618 175.475 39.324 175.913 39.324C176.363 39.324 176.639 39.564 176.675 40.104H175.109ZM178.043 42H178.769V40.368C178.769 39.702 179.153 39.498 179.789 39.492V38.814C179.261 38.82 178.967 39.054 178.769 39.45V38.862H178.043V42ZM183.232 42.06C184.084 42.06 184.63 41.55 184.684 40.83H184.018C183.976 41.274 183.646 41.502 183.262 41.502C182.728 41.502 182.392 41.142 182.392 40.458V40.41C182.392 39.762 182.746 39.378 183.244 39.378C183.628 39.378 183.904 39.552 183.964 39.972H184.666C184.582 39.108 183.928 38.796 183.232 38.796C182.356 38.796 181.648 39.426 181.648 40.422V40.47C181.648 41.472 182.332 42.06 183.232 42.06ZM186.635 41.484C186.197 41.484 185.849 41.154 185.849 40.464V40.416C185.849 39.738 186.173 39.366 186.671 39.366C187.157 39.366 187.481 39.702 187.481 40.398V40.446C187.481 41.148 187.103 41.484 186.635 41.484ZM186.461 42.06C186.893 42.06 187.283 41.79 187.457 41.484V42H188.183V38.862H187.457V39.336C187.277 39.024 186.971 38.796 186.491 38.796C185.735 38.796 185.105 39.432 185.105 40.434V40.482C185.105 41.502 185.729 42.06 186.461 42.06ZM189.047 42H189.773V40.152C189.773 39.654 190.103 39.402 190.511 39.402C190.943 39.402 191.135 39.618 191.135 40.092V42H191.861V40.026C191.861 39.162 191.417 38.796 190.787 38.796C190.271 38.796 189.923 39.054 189.773 39.36V38.862H189.047V42ZM196.335 43.074H197.061V38.862H196.335V39.342C196.161 39.03 195.843 38.796 195.333 38.796C194.517 38.796 193.923 39.432 193.923 40.434V40.482C193.923 41.502 194.517 42.06 195.303 42.06C195.765 42.06 196.167 41.784 196.335 41.484V43.074ZM195.483 41.484C195.015 41.484 194.667 41.154 194.667 40.464V40.416C194.667 39.738 194.979 39.366 195.513 39.366C196.041 39.366 196.359 39.708 196.359 40.398V40.446C196.359 41.148 195.987 41.484 195.483 41.484ZM198.974 42.06C199.484 42.06 199.814 41.814 199.97 41.508V42H200.696V38.862H199.97V40.728C199.97 41.226 199.628 41.478 199.238 41.478C198.818 41.478 198.62 41.262 198.62 40.788V38.862H197.894V40.872C197.894 41.706 198.356 42.06 198.974 42.06ZM201.929 38.346C202.169 38.346 202.361 38.166 202.361 37.932C202.361 37.692 202.169 37.512 201.929 37.512C201.689 37.512 201.497 37.692 201.497 37.932C201.497 38.166 201.689 38.346 201.929 38.346ZM201.575 42H202.301V38.862H201.575V42ZM204.56 42.06C205.412 42.06 205.958 41.55 206.012 40.83H205.346C205.304 41.274 204.974 41.502 204.59 41.502C204.056 41.502 203.72 41.142 203.72 40.458V40.41C203.72 39.762 204.074 39.378 204.572 39.378C204.956 39.378 205.232 39.552 205.292 39.972H205.994C205.91 39.108 205.256 38.796 204.56 38.796C203.684 38.796 202.976 39.426 202.976 40.422V40.47C202.976 41.472 203.66 42.06 204.56 42.06ZM206.637 42H207.363V40.458L208.539 42H209.379L208.059 40.302L209.277 38.862H208.485L207.363 40.242V37.41H206.637V42ZM209.895 42H210.621V37.41H209.895V42ZM211.854 43.074H212.568L214.278 38.862H213.57L212.802 40.884L211.968 38.862H211.182L212.424 41.682L211.854 43.074ZM137.558 50H138.284V47.408H138.998V46.862H138.284V46.412C138.284 46.142 138.404 45.95 138.692 45.95C138.824 45.95 138.914 45.962 138.998 45.998V45.434C138.884 45.398 138.782 45.38 138.602 45.38C137.936 45.38 137.558 45.752 137.558 46.442V46.862H137.132V47.408H137.558V50ZM139.896 46.346C140.136 46.346 140.328 46.166 140.328 45.932C140.328 45.692 140.136 45.512 139.896 45.512C139.656 45.512 139.464 45.692 139.464 45.932C139.464 46.166 139.656 46.346 139.896 46.346ZM139.542 50H140.268V46.862H139.542V50ZM141.153 50H141.879V48.152C141.879 47.654 142.209 47.402 142.617 47.402C143.049 47.402 143.241 47.618 143.241 48.092V50H143.967V48.026C143.967 47.162 143.523 46.796 142.893 46.796C142.377 46.796 142.029 47.054 141.879 47.36V46.862H141.153V50ZM146.159 49.484C145.691 49.484 145.343 49.154 145.343 48.464V48.416C145.343 47.738 145.655 47.366 146.189 47.366C146.717 47.366 147.035 47.708 147.035 48.398V48.446C147.035 49.148 146.663 49.484 146.159 49.484ZM145.979 50.06C146.441 50.06 146.843 49.784 147.011 49.472V50H147.737V45.41H147.011V47.342C146.837 47.03 146.519 46.796 146.009 46.796C145.193 46.796 144.599 47.432 144.599 48.434V48.482C144.599 49.502 145.193 50.06 145.979 50.06ZM150.03 50H150.756V48.368C150.756 47.702 151.14 47.498 151.776 47.492V46.814C151.248 46.82 150.954 47.054 150.756 47.45V46.862H150.03V50ZM152.786 46.346C153.026 46.346 153.218 46.166 153.218 45.932C153.218 45.692 153.026 45.512 152.786 45.512C152.546 45.512 152.354 45.692 152.354 45.932C152.354 46.166 152.546 46.346 152.786 46.346ZM152.432 50H153.158V46.862H152.432V50ZM155.405 49.316C154.937 49.316 154.577 48.956 154.577 48.374V48.326C154.577 47.756 154.889 47.366 155.429 47.366C155.951 47.366 156.275 47.72 156.275 48.314V48.356C156.275 48.956 155.909 49.316 155.405 49.316ZM155.381 51.152C156.353 51.152 156.971 50.69 156.977 49.766V46.862H156.251V47.342C156.071 47.03 155.759 46.796 155.243 46.796C154.433 46.796 153.833 47.456 153.833 48.338V48.38C153.833 49.286 154.439 49.874 155.225 49.874C155.687 49.874 156.077 49.592 156.251 49.292V49.754C156.251 50.318 155.939 50.6 155.375 50.6C154.901 50.6 154.661 50.42 154.601 50.108H153.869C153.953 50.708 154.397 51.152 155.381 51.152ZM157.84 50H158.566V48.152C158.566 47.654 158.896 47.402 159.304 47.402C159.736 47.402 159.928 47.618 159.928 48.092V50H160.654V48.026C160.654 47.162 160.21 46.796 159.58 46.796C159.064 46.796 158.716 47.054 158.566 47.36V45.41H157.84V50ZM162.559 50.054C162.781 50.054 162.937 50.018 163.051 49.976V49.4C162.949 49.442 162.841 49.46 162.697 49.46C162.469 49.46 162.337 49.334 162.337 49.058V47.408H163.027V46.862H162.337V46.172H161.611V46.862H161.191V47.408H161.611V49.124C161.611 49.718 161.935 50.054 162.559 50.054ZM165.507 46.346C165.747 46.346 165.939 46.166 165.939 45.932C165.939 45.692 165.747 45.512 165.507 45.512C165.267 45.512 165.075 45.692 165.075 45.932C165.075 46.166 165.267 46.346 165.507 46.346ZM165.153 50H165.879V46.862H165.153V50ZM166.764 50H167.49V48.152C167.49 47.654 167.82 47.402 168.228 47.402C168.66 47.402 168.852 47.618 168.852 48.092V50H169.578V48.026C169.578 47.162 169.134 46.796 168.504 46.796C167.988 46.796 167.64 47.054 167.49 47.36V46.862H166.764V50ZM170.54 50H171.266V47.408H171.98V46.862H171.266V46.412C171.266 46.142 171.386 45.95 171.68 45.95C171.812 45.95 171.926 45.974 172.01 46.004V45.44C171.878 45.398 171.77 45.38 171.596 45.38C170.924 45.38 170.54 45.752 170.54 46.442V46.862H170.114V47.408H170.54V50ZM173.869 50.06C174.793 50.06 175.483 49.424 175.483 48.446V48.398C175.483 47.438 174.793 46.796 173.875 46.796C172.951 46.796 172.261 47.444 172.261 48.416V48.464C172.261 49.418 172.945 50.06 173.869 50.06ZM173.875 49.496C173.323 49.496 173.005 49.094 173.005 48.452V48.404C173.005 47.756 173.335 47.366 173.875 47.366C174.415 47.366 174.739 47.762 174.739 48.41V48.452C174.739 49.094 174.415 49.496 173.875 49.496ZM176.139 50H176.865V48.368C176.865 47.702 177.249 47.498 177.885 47.492V46.814C177.357 46.82 177.063 47.054 176.865 47.45V46.862H176.139V50ZM178.524 50H179.25V48.122C179.25 47.642 179.58 47.402 179.94 47.402C180.294 47.402 180.498 47.6 180.498 48.062V50H181.224V48.122C181.224 47.642 181.554 47.402 181.914 47.402C182.274 47.402 182.472 47.6 182.472 48.062V50H183.198V48.014C183.198 47.15 182.73 46.796 182.154 46.796C181.764 46.796 181.332 46.97 181.092 47.36C180.936 46.97 180.612 46.796 180.204 46.796C179.742 46.796 179.4 47.048 179.25 47.342V46.862H178.524V50ZM185.358 49.484C184.92 49.484 184.572 49.154 184.572 48.464V48.416C184.572 47.738 184.896 47.366 185.394 47.366C185.88 47.366 186.204 47.702 186.204 48.398V48.446C186.204 49.148 185.826 49.484 185.358 49.484ZM185.184 50.06C185.616 50.06 186.006 49.79 186.18 49.484V50H186.906V46.862H186.18V47.336C186 47.024 185.694 46.796 185.214 46.796C184.458 46.796 183.828 47.432 183.828 48.434V48.482C183.828 49.502 184.452 50.06 185.184 50.06ZM188.838 50.054C189.06 50.054 189.216 50.018 189.33 49.976V49.4C189.228 49.442 189.12 49.46 188.976 49.46C188.748 49.46 188.616 49.334 188.616 49.058V47.408H189.306V46.862H188.616V46.172H187.89V46.862H187.47V47.408H187.89V49.124C187.89 49.718 188.214 50.054 188.838 50.054ZM190.357 46.346C190.597 46.346 190.789 46.166 190.789 45.932C190.789 45.692 190.597 45.512 190.357 45.512C190.117 45.512 189.925 45.692 189.925 45.932C189.925 46.166 190.117 46.346 190.357 46.346ZM190.003 50H190.729V46.862H190.003V50ZM193.012 50.06C193.936 50.06 194.626 49.424 194.626 48.446V48.398C194.626 47.438 193.936 46.796 193.018 46.796C192.094 46.796 191.404 47.444 191.404 48.416V48.464C191.404 49.418 192.088 50.06 193.012 50.06ZM193.018 49.496C192.466 49.496 192.148 49.094 192.148 48.452V48.404C192.148 47.756 192.478 47.366 193.018 47.366C193.558 47.366 193.882 47.762 193.882 48.41V48.452C193.882 49.094 193.558 49.496 193.018 49.496ZM195.282 50H196.008V48.152C196.008 47.654 196.338 47.402 196.746 47.402C197.178 47.402 197.37 47.618 197.37 48.092V50H198.096V48.026C198.096 47.162 197.652 46.796 197.022 46.796C196.506 46.796 196.158 47.054 196.008 47.36V46.862H195.282V50Z" fill="white"/>
<path opacity="0.6" d="M137.66 61H137.897L138.398 59.305L138.884 61H139.124L139.682 58.855H139.439L138.998 60.592L138.494 58.855H138.308L137.804 60.586L137.369 58.855H137.102L137.66 61ZM140.557 61.027C140.911 61.027 141.172 60.862 141.226 60.547H140.977C140.944 60.73 140.803 60.82 140.56 60.82C140.239 60.82 140.068 60.622 140.056 60.265H141.238V60.184C141.238 59.623 140.896 59.404 140.533 59.404C140.101 59.404 139.798 59.734 139.798 60.208V60.232C139.798 60.715 140.113 61.027 140.557 61.027ZM140.065 60.064C140.107 59.785 140.278 59.611 140.533 59.611C140.791 59.611 140.959 59.74 140.983 60.064H140.065ZM142.468 61H142.717V59.641H143.101V59.431H142.717V59.149C142.717 58.99 142.783 58.879 142.945 58.879C143.014 58.879 143.077 58.894 143.122 58.912V58.702C143.059 58.681 143.017 58.672 142.936 58.672C142.624 58.672 142.468 58.858 142.468 59.176V59.431H142.243V59.641H142.468V61ZM144.026 61.027C144.473 61.027 144.8 60.7 144.8 60.226V60.202C144.8 59.731 144.473 59.404 144.029 59.404C143.585 59.404 143.258 59.734 143.258 60.205V60.229C143.258 60.688 143.579 61.027 144.026 61.027ZM144.029 60.82C143.711 60.82 143.516 60.586 143.516 60.229V60.205C143.516 59.845 143.714 59.611 144.029 59.611C144.341 59.611 144.542 59.845 144.542 60.208V60.229C144.542 60.583 144.344 60.82 144.029 60.82ZM145.837 61.027C146.215 61.027 146.488 60.775 146.521 60.436H146.29C146.263 60.691 146.062 60.82 145.84 60.82C145.537 60.82 145.327 60.616 145.327 60.232V60.208C145.327 59.839 145.546 59.611 145.831 59.611C146.047 59.611 146.227 59.704 146.266 59.953H146.512C146.464 59.554 146.158 59.404 145.831 59.404C145.411 59.404 145.069 59.728 145.069 60.208V60.232C145.069 60.718 145.399 61.027 145.837 61.027ZM147.428 61.027C147.68 61.027 147.854 60.898 147.926 60.751V61H148.175V59.431H147.926V60.382C147.926 60.664 147.716 60.811 147.494 60.811C147.248 60.811 147.131 60.688 147.131 60.412V59.431H146.882V60.424C146.882 60.856 147.116 61.027 147.428 61.027ZM149.164 61.027C149.545 61.027 149.74 60.835 149.74 60.55C149.74 60.217 149.512 60.145 149.188 60.085C148.9 60.034 148.822 59.977 148.822 59.836C148.822 59.701 148.939 59.611 149.119 59.611C149.317 59.611 149.413 59.686 149.449 59.857H149.689C149.647 59.518 149.404 59.404 149.122 59.404C148.876 59.404 148.591 59.554 148.591 59.845C148.591 60.118 148.729 60.232 149.137 60.307C149.38 60.352 149.503 60.406 149.503 60.571C149.503 60.739 149.398 60.82 149.161 60.82C148.909 60.82 148.81 60.703 148.792 60.517H148.549C148.564 60.838 148.789 61.027 149.164 61.027ZM150.761 61.027C151.115 61.027 151.376 60.862 151.43 60.547H151.181C151.148 60.73 151.007 60.82 150.764 60.82C150.443 60.82 150.272 60.622 150.26 60.265H151.442V60.184C151.442 59.623 151.1 59.404 150.737 59.404C150.305 59.404 150.002 59.734 150.002 60.208V60.232C150.002 60.715 150.317 61.027 150.761 61.027ZM150.269 60.064C150.311 59.785 150.482 59.611 150.737 59.611C150.995 59.611 151.163 59.74 151.187 60.064H150.269ZM152.442 60.82C152.178 60.82 151.965 60.631 151.965 60.235V60.211C151.965 59.83 152.151 59.611 152.463 59.611C152.769 59.611 152.961 59.8 152.961 60.202V60.226C152.961 60.628 152.733 60.82 152.442 60.82ZM152.415 61.027C152.643 61.027 152.862 60.883 152.952 60.73V61H153.201V58.681H152.952V59.683C152.862 59.53 152.7 59.404 152.439 59.404C152.007 59.404 151.707 59.743 151.707 60.223V60.247C151.707 60.736 152.004 61.027 152.415 61.027ZM155.15 61.027C155.597 61.027 155.924 60.7 155.924 60.226V60.202C155.924 59.731 155.597 59.404 155.153 59.404C154.709 59.404 154.382 59.734 154.382 60.205V60.229C154.382 60.688 154.703 61.027 155.15 61.027ZM155.153 60.82C154.835 60.82 154.64 60.586 154.64 60.229V60.205C154.64 59.845 154.838 59.611 155.153 59.611C155.465 59.611 155.666 59.845 155.666 60.208V60.229C155.666 60.583 155.468 60.82 155.153 60.82ZM156.31 61H156.559V60.049C156.559 59.767 156.766 59.62 156.997 59.62C157.249 59.62 157.366 59.743 157.366 60.019V61H157.615V60.037C157.615 59.581 157.387 59.404 157.063 59.404C156.805 59.404 156.631 59.533 156.559 59.68V59.431H156.31V61ZM159.383 61.027C159.764 61.027 159.959 60.835 159.959 60.55C159.959 60.217 159.731 60.145 159.407 60.085C159.119 60.034 159.041 59.977 159.041 59.836C159.041 59.701 159.158 59.611 159.338 59.611C159.536 59.611 159.632 59.686 159.668 59.857H159.908C159.866 59.518 159.623 59.404 159.341 59.404C159.095 59.404 158.81 59.554 158.81 59.845C158.81 60.118 158.948 60.232 159.356 60.307C159.599 60.352 159.722 60.406 159.722 60.571C159.722 60.739 159.617 60.82 159.38 60.82C159.128 60.82 159.029 60.703 159.011 60.517H158.768C158.783 60.838 159.008 61.027 159.383 61.027ZM160.464 59.104C160.554 59.104 160.629 59.029 160.629 58.939C160.629 58.849 160.554 58.774 160.464 58.774C160.374 58.774 160.299 58.849 160.299 58.939C160.299 59.029 160.374 59.104 160.464 59.104ZM160.344 61H160.593V59.431H160.344V61ZM161.103 61H161.352V60.04C161.352 59.758 161.562 59.62 161.766 59.62C161.982 59.62 162.099 59.734 162.099 60.01V61H162.348V60.04C162.348 59.758 162.558 59.62 162.762 59.62C162.978 59.62 163.095 59.734 163.095 60.01V61H163.344V60.028C163.344 59.572 163.098 59.404 162.816 59.404C162.621 59.404 162.387 59.494 162.279 59.698C162.198 59.488 162.021 59.404 161.82 59.404C161.595 59.404 161.424 59.524 161.352 59.671V59.431H161.103V61ZM163.959 59.104C164.049 59.104 164.124 59.029 164.124 58.939C164.124 58.849 164.049 58.774 163.959 58.774C163.869 58.774 163.794 58.849 163.794 58.939C163.794 59.029 163.869 59.104 163.959 59.104ZM163.839 61H164.088V59.431H163.839V61ZM164.604 61H164.856V58.681H164.604V61ZM165.968 60.82C165.722 60.82 165.506 60.631 165.506 60.235V60.211C165.506 59.83 165.701 59.611 165.989 59.611C166.271 59.611 166.466 59.8 166.466 60.202V60.226C166.466 60.628 166.235 60.82 165.968 60.82ZM165.941 61.027C166.151 61.027 166.367 60.889 166.457 60.736V61H166.706V59.431H166.457V59.677C166.367 59.524 166.208 59.404 165.965 59.404C165.569 59.404 165.248 59.743 165.248 60.223V60.247C165.248 60.736 165.566 61.027 165.941 61.027ZM167.211 61H167.46V60.139C167.46 59.752 167.661 59.653 167.976 59.638V59.404C167.694 59.413 167.559 59.536 167.46 59.713V59.431H167.211V61ZM168.465 59.104C168.555 59.104 168.63 59.029 168.63 58.939C168.63 58.849 168.555 58.774 168.465 58.774C168.375 58.774 168.3 58.849 168.3 58.939C168.3 59.029 168.375 59.104 168.465 59.104ZM168.345 61H168.594V59.431H168.345V61ZM169.581 61.021C169.683 61.021 169.743 61.006 169.794 60.988V60.778C169.74 60.799 169.68 60.811 169.602 60.811C169.476 60.811 169.407 60.736 169.407 60.583V59.641H169.773V59.431H169.407V59.074H169.158V59.431H168.933V59.641H169.158V60.607C169.158 60.853 169.296 61.021 169.581 61.021ZM170.296 59.104C170.386 59.104 170.461 59.029 170.461 58.939C170.461 58.849 170.386 58.774 170.296 58.774C170.206 58.774 170.131 58.849 170.131 58.939C170.131 59.029 170.206 59.104 170.296 59.104ZM170.176 61H170.425V59.431H170.176V61ZM171.577 61.027C171.931 61.027 172.192 60.862 172.246 60.547H171.997C171.964 60.73 171.823 60.82 171.58 60.82C171.259 60.82 171.088 60.622 171.076 60.265H172.258V60.184C172.258 59.623 171.916 59.404 171.553 59.404C171.121 59.404 170.818 59.734 170.818 60.208V60.232C170.818 60.715 171.133 61.027 171.577 61.027ZM171.085 60.064C171.127 59.785 171.298 59.611 171.553 59.611C171.811 59.611 171.979 59.74 172.003 60.064H171.085ZM173.14 61.027C173.521 61.027 173.716 60.835 173.716 60.55C173.716 60.217 173.488 60.145 173.164 60.085C172.876 60.034 172.798 59.977 172.798 59.836C172.798 59.701 172.915 59.611 173.095 59.611C173.293 59.611 173.389 59.686 173.425 59.857H173.665C173.623 59.518 173.38 59.404 173.098 59.404C172.852 59.404 172.567 59.554 172.567 59.845C172.567 60.118 172.705 60.232 173.113 60.307C173.356 60.352 173.479 60.406 173.479 60.571C173.479 60.739 173.374 60.82 173.137 60.82C172.885 60.82 172.786 60.703 172.768 60.517H172.525C172.54 60.838 172.765 61.027 173.14 61.027ZM175.67 61.027C176.102 61.027 176.384 60.697 176.384 60.217V60.193C176.384 59.704 176.081 59.404 175.67 59.404C175.442 59.404 175.229 59.542 175.139 59.695V58.681H174.89V61H175.139V60.742C175.229 60.898 175.415 61.027 175.67 61.027ZM175.646 60.82C175.34 60.82 175.13 60.631 175.13 60.229V60.205C175.13 59.803 175.352 59.611 175.643 59.611C175.907 59.611 176.126 59.809 176.126 60.205V60.229C176.126 60.61 175.958 60.82 175.646 60.82ZM177.413 61.027C177.767 61.027 178.028 60.862 178.082 60.547H177.833C177.8 60.73 177.659 60.82 177.416 60.82C177.095 60.82 176.924 60.622 176.912 60.265H178.094V60.184C178.094 59.623 177.752 59.404 177.389 59.404C176.957 59.404 176.654 59.734 176.654 60.208V60.232C176.654 60.715 176.969 61.027 177.413 61.027ZM176.921 60.064C176.963 59.785 177.134 59.611 177.389 59.611C177.647 59.611 177.815 59.74 177.839 60.064H176.921ZM178.953 61.021C179.055 61.021 179.115 61.006 179.166 60.988V60.778C179.112 60.799 179.052 60.811 178.974 60.811C178.848 60.811 178.779 60.736 178.779 60.583V59.641H179.145V59.431H178.779V59.074H178.53V59.431H178.305V59.641H178.53V60.607C178.53 60.853 178.668 61.021 178.953 61.021ZM179.857 61H180.13L180.496 59.824L180.823 61H181.099L181.588 59.431H181.333L180.964 60.694L180.607 59.431H180.391L180.01 60.694L179.644 59.431H179.374L179.857 61ZM182.537 61.027C182.891 61.027 183.152 60.862 183.206 60.547H182.957C182.924 60.73 182.783 60.82 182.54 60.82C182.219 60.82 182.048 60.622 182.036 60.265H183.218V60.184C183.218 59.623 182.876 59.404 182.513 59.404C182.081 59.404 181.778 59.734 181.778 60.208V60.232C181.778 60.715 182.093 61.027 182.537 61.027ZM182.045 60.064C182.087 59.785 182.258 59.611 182.513 59.611C182.771 59.611 182.939 59.74 182.963 60.064H182.045ZM184.242 61.027C184.596 61.027 184.857 60.862 184.911 60.547H184.662C184.629 60.73 184.488 60.82 184.245 60.82C183.924 60.82 183.753 60.622 183.741 60.265H184.923V60.184C184.923 59.623 184.581 59.404 184.218 59.404C183.786 59.404 183.483 59.734 183.483 60.208V60.232C183.483 60.715 183.798 61.027 184.242 61.027ZM183.75 60.064C183.792 59.785 183.963 59.611 184.218 59.611C184.476 59.611 184.644 59.74 184.668 60.064H183.75ZM185.305 61H185.554V60.049C185.554 59.767 185.761 59.62 185.992 59.62C186.244 59.62 186.361 59.743 186.361 60.019V61H186.61V60.037C186.61 59.581 186.382 59.404 186.058 59.404C185.8 59.404 185.626 59.533 185.554 59.68V59.431H185.305V61ZM188.378 61.027C188.759 61.027 188.954 60.835 188.954 60.55C188.954 60.217 188.726 60.145 188.402 60.085C188.114 60.034 188.036 59.977 188.036 59.836C188.036 59.701 188.153 59.611 188.333 59.611C188.531 59.611 188.627 59.686 188.663 59.857H188.903C188.861 59.518 188.618 59.404 188.336 59.404C188.09 59.404 187.805 59.554 187.805 59.845C187.805 60.118 187.943 60.232 188.351 60.307C188.594 60.352 188.717 60.406 188.717 60.571C188.717 60.739 188.612 60.82 188.375 60.82C188.123 60.82 188.024 60.703 188.006 60.517H187.763C187.778 60.838 188.003 61.027 188.378 61.027ZM189.975 61.027C190.329 61.027 190.59 60.862 190.644 60.547H190.395C190.362 60.73 190.221 60.82 189.978 60.82C189.657 60.82 189.486 60.622 189.474 60.265H190.656V60.184C190.656 59.623 190.314 59.404 189.951 59.404C189.519 59.404 189.216 59.734 189.216 60.208V60.232C189.216 60.715 189.531 61.027 189.975 61.027ZM189.483 60.064C189.525 59.785 189.696 59.611 189.951 59.611C190.209 59.611 190.377 59.74 190.401 60.064H189.483ZM191.662 60.742C191.398 60.742 191.179 60.538 191.179 60.196V60.172C191.179 59.842 191.365 59.611 191.677 59.611C191.983 59.611 192.175 59.815 192.175 60.166V60.187C192.175 60.538 191.953 60.742 191.662 60.742ZM191.665 61.573C192.103 61.573 192.412 61.351 192.415 60.895V59.431H192.166V59.683C192.076 59.53 191.914 59.404 191.653 59.404C191.221 59.404 190.921 59.758 190.921 60.184V60.205C190.921 60.637 191.224 60.949 191.635 60.949C191.863 60.949 192.076 60.805 192.166 60.652V60.88C192.166 61.216 191.971 61.363 191.662 61.363C191.395 61.363 191.245 61.27 191.209 61.09H190.954C190.996 61.354 191.2 61.573 191.665 61.573ZM192.919 61H193.168V60.04C193.168 59.758 193.378 59.62 193.582 59.62C193.798 59.62 193.915 59.734 193.915 60.01V61H194.164V60.04C194.164 59.758 194.374 59.62 194.578 59.62C194.794 59.62 194.911 59.734 194.911 60.01V61H195.16V60.028C195.16 59.572 194.914 59.404 194.632 59.404C194.437 59.404 194.203 59.494 194.095 59.698C194.014 59.488 193.837 59.404 193.636 59.404C193.411 59.404 193.24 59.524 193.168 59.671V59.431H192.919V61ZM196.291 61.027C196.645 61.027 196.906 60.862 196.96 60.547H196.711C196.678 60.73 196.537 60.82 196.294 60.82C195.973 60.82 195.802 60.622 195.79 60.265H196.972V60.184C196.972 59.623 196.63 59.404 196.267 59.404C195.835 59.404 195.532 59.734 195.532 60.208V60.232C195.532 60.715 195.847 61.027 196.291 61.027ZM195.799 60.064C195.841 59.785 196.012 59.611 196.267 59.611C196.525 59.611 196.693 59.74 196.717 60.064H195.799ZM197.355 61H197.604V60.049C197.604 59.767 197.811 59.62 198.042 59.62C198.294 59.62 198.411 59.743 198.411 60.019V61H198.66V60.037C198.66 59.581 198.432 59.404 198.108 59.404C197.85 59.404 197.676 59.533 197.604 59.68V59.431H197.355V61ZM199.625 61.021C199.727 61.021 199.787 61.006 199.838 60.988V60.778C199.784 60.799 199.724 60.811 199.646 60.811C199.52 60.811 199.451 60.736 199.451 60.583V59.641H199.817V59.431H199.451V59.074H199.202V59.431H198.977V59.641H199.202V60.607C199.202 60.853 199.34 61.021 199.625 61.021ZM200.7 61.027C201.081 61.027 201.276 60.835 201.276 60.55C201.276 60.217 201.048 60.145 200.724 60.085C200.436 60.034 200.358 59.977 200.358 59.836C200.358 59.701 200.475 59.611 200.655 59.611C200.853 59.611 200.949 59.686 200.985 59.857H201.225C201.183 59.518 200.94 59.404 200.658 59.404C200.412 59.404 200.127 59.554 200.127 59.845C200.127 60.118 200.265 60.232 200.673 60.307C200.916 60.352 201.039 60.406 201.039 60.571C201.039 60.739 200.934 60.82 200.697 60.82C200.445 60.82 200.346 60.703 200.328 60.517H200.085C200.1 60.838 200.325 61.027 200.7 61.027ZM202.926 61.021C203.028 61.021 203.088 61.006 203.139 60.988V60.778C203.085 60.799 203.025 60.811 202.947 60.811C202.821 60.811 202.752 60.736 202.752 60.583V59.641H203.118V59.431H202.752V59.074H202.503V59.431H202.278V59.641H202.503V60.607C202.503 60.853 202.641 61.021 202.926 61.021ZM203.516 61H203.765V60.049C203.765 59.767 203.972 59.62 204.203 59.62C204.455 59.62 204.572 59.743 204.572 60.019V61H204.821V60.037C204.821 59.581 204.593 59.404 204.269 59.404C204.011 59.404 203.837 59.533 203.765 59.68V58.681H203.516V61ZM205.912 60.82C205.666 60.82 205.45 60.631 205.45 60.235V60.211C205.45 59.83 205.645 59.611 205.933 59.611C206.215 59.611 206.41 59.8 206.41 60.202V60.226C206.41 60.628 206.179 60.82 205.912 60.82ZM205.885 61.027C206.095 61.027 206.311 60.889 206.401 60.736V61H206.65V59.431H206.401V59.677C206.311 59.524 206.152 59.404 205.909 59.404C205.513 59.404 205.192 59.743 205.192 60.223V60.247C205.192 60.736 205.51 61.027 205.885 61.027ZM207.631 61.021C207.733 61.021 207.793 61.006 207.844 60.988V60.778C207.79 60.799 207.73 60.811 207.652 60.811C207.526 60.811 207.457 60.736 207.457 60.583V59.641H207.823V59.431H207.457V59.074H207.208V59.431H206.983V59.641H207.208V60.607C207.208 60.853 207.346 61.021 207.631 61.021ZM137.252 66H137.501V65.049C137.501 64.767 137.708 64.62 137.939 64.62C138.191 64.62 138.308 64.743 138.308 65.019V66H138.557V65.037C138.557 64.581 138.329 64.404 138.005 64.404C137.747 64.404 137.573 64.533 137.501 64.68V63.681H137.252V66ZM139.687 66.027C140.041 66.027 140.302 65.862 140.356 65.547H140.107C140.074 65.73 139.933 65.82 139.69 65.82C139.369 65.82 139.198 65.622 139.186 65.265H140.368V65.184C140.368 64.623 140.026 64.404 139.663 64.404C139.231 64.404 138.928 64.734 138.928 65.208V65.232C138.928 65.715 139.243 66.027 139.687 66.027ZM139.195 65.064C139.237 64.785 139.408 64.611 139.663 64.611C139.921 64.611 140.089 64.74 140.113 65.064H139.195ZM140.756 66H141.008V63.681H140.756V66ZM142.274 65.82C141.968 65.82 141.758 65.631 141.758 65.229V65.205C141.758 64.803 141.98 64.611 142.271 64.611C142.535 64.611 142.754 64.809 142.754 65.205V65.229C142.754 65.61 142.586 65.82 142.274 65.82ZM141.518 66.546H141.767V65.742C141.857 65.898 142.04 66.027 142.298 66.027C142.73 66.027 143.012 65.697 143.012 65.217V65.193C143.012 64.704 142.709 64.404 142.298 64.404C142.07 64.404 141.857 64.542 141.767 64.695V64.431H141.518V66.546ZM144.04 66.027C144.394 66.027 144.655 65.862 144.709 65.547H144.46C144.427 65.73 144.286 65.82 144.043 65.82C143.722 65.82 143.551 65.622 143.539 65.265H144.721V65.184C144.721 64.623 144.379 64.404 144.016 64.404C143.584 64.404 143.281 64.734 143.281 65.208V65.232C143.281 65.715 143.596 66.027 144.04 66.027ZM143.548 65.064C143.59 64.785 143.761 64.611 144.016 64.611C144.274 64.611 144.442 64.74 144.466 65.064H143.548ZM145.722 65.82C145.458 65.82 145.245 65.631 145.245 65.235V65.211C145.245 64.83 145.431 64.611 145.743 64.611C146.049 64.611 146.241 64.8 146.241 65.202V65.226C146.241 65.628 146.013 65.82 145.722 65.82ZM145.695 66.027C145.923 66.027 146.142 65.883 146.232 65.73V66H146.481V63.681H146.232V64.683C146.142 64.53 145.98 64.404 145.719 64.404C145.287 64.404 144.987 64.743 144.987 65.223V65.247C144.987 65.736 145.284 66.027 145.695 66.027ZM148.255 66.021C148.357 66.021 148.417 66.006 148.468 65.988V65.778C148.414 65.799 148.354 65.811 148.276 65.811C148.15 65.811 148.081 65.736 148.081 65.583V64.641H148.447V64.431H148.081V64.074H147.832V64.431H147.607V64.641H147.832V65.607C147.832 65.853 147.97 66.021 148.255 66.021ZM149.496 66.027C149.943 66.027 150.27 65.7 150.27 65.226V65.202C150.27 64.731 149.943 64.404 149.499 64.404C149.055 64.404 148.728 64.734 148.728 65.205V65.229C148.728 65.688 149.049 66.027 149.496 66.027ZM149.499 65.82C149.181 65.82 148.986 65.586 148.986 65.229V65.205C148.986 64.845 149.184 64.611 149.499 64.611C149.811 64.611 150.012 64.845 150.012 65.208V65.229C150.012 65.583 149.814 65.82 149.499 65.82ZM152.052 65.82C151.806 65.82 151.59 65.631 151.59 65.235V65.211C151.59 64.83 151.785 64.611 152.073 64.611C152.355 64.611 152.55 64.8 152.55 65.202V65.226C152.55 65.628 152.319 65.82 152.052 65.82ZM152.025 66.027C152.235 66.027 152.451 65.889 152.541 65.736V66H152.79V64.431H152.541V64.677C152.451 64.524 152.292 64.404 152.049 64.404C151.653 64.404 151.332 64.743 151.332 65.223V65.247C151.332 65.736 151.65 66.027 152.025 66.027ZM153.946 66.027C154.324 66.027 154.597 65.775 154.63 65.436H154.399C154.372 65.691 154.171 65.82 153.949 65.82C153.646 65.82 153.436 65.616 153.436 65.232V65.208C153.436 64.839 153.655 64.611 153.94 64.611C154.156 64.611 154.336 64.704 154.375 64.953H154.621C154.573 64.554 154.267 64.404 153.94 64.404C153.52 64.404 153.178 64.728 153.178 65.208V65.232C153.178 65.718 153.508 66.027 153.946 66.027ZM155.006 66H155.255V65.049C155.255 64.767 155.462 64.62 155.693 64.62C155.945 64.62 156.062 64.743 156.062 65.019V66H156.311V65.037C156.311 64.581 156.083 64.404 155.759 64.404C155.501 64.404 155.327 64.533 155.255 64.68V63.681H155.006V66ZM156.925 64.104C157.015 64.104 157.09 64.029 157.09 63.939C157.09 63.849 157.015 63.774 156.925 63.774C156.835 63.774 156.76 63.849 156.76 63.939C156.76 64.029 156.835 64.104 156.925 64.104ZM156.805 66H157.054V64.431H156.805V66ZM158.206 66.027C158.56 66.027 158.821 65.862 158.875 65.547H158.626C158.593 65.73 158.452 65.82 158.209 65.82C157.888 65.82 157.717 65.622 157.705 65.265H158.887V65.184C158.887 64.623 158.545 64.404 158.182 64.404C157.75 64.404 157.447 64.734 157.447 65.208V65.232C157.447 65.715 157.762 66.027 158.206 66.027ZM157.714 65.064C157.756 64.785 157.927 64.611 158.182 64.611C158.44 64.611 158.608 64.74 158.632 65.064H157.714ZM159.647 66H159.965L160.529 64.431H160.271L159.812 65.748L159.347 64.431H159.077L159.647 66ZM161.455 66.027C161.809 66.027 162.07 65.862 162.124 65.547H161.875C161.842 65.73 161.701 65.82 161.458 65.82C161.137 65.82 160.966 65.622 160.954 65.265H162.136V65.184C162.136 64.623 161.794 64.404 161.431 64.404C160.999 64.404 160.696 64.734 160.696 65.208V65.232C160.696 65.715 161.011 66.027 161.455 66.027ZM160.963 65.064C161.005 64.785 161.176 64.611 161.431 64.611C161.689 64.611 161.857 64.74 161.881 65.064H160.963ZM164.068 65.82C163.762 65.82 163.552 65.631 163.552 65.229V65.205C163.552 64.803 163.774 64.611 164.065 64.611C164.329 64.611 164.548 64.809 164.548 65.205V65.229C164.548 65.61 164.38 65.82 164.068 65.82ZM163.312 66.546H163.561V65.742C163.651 65.898 163.834 66.027 164.092 66.027C164.524 66.027 164.806 65.697 164.806 65.217V65.193C164.806 64.704 164.503 64.404 164.092 64.404C163.864 64.404 163.651 64.542 163.561 64.695V64.431H163.312V66.546ZM165.834 66.027C166.188 66.027 166.449 65.862 166.503 65.547H166.254C166.221 65.73 166.08 65.82 165.837 65.82C165.516 65.82 165.345 65.622 165.333 65.265H166.515V65.184C166.515 64.623 166.173 64.404 165.81 64.404C165.378 64.404 165.075 64.734 165.075 65.208V65.232C165.075 65.715 165.39 66.027 165.834 66.027ZM165.342 65.064C165.384 64.785 165.555 64.611 165.81 64.611C166.068 64.611 166.236 64.74 166.26 65.064H165.342ZM166.898 66H167.147V65.139C167.147 64.752 167.348 64.653 167.663 64.638V64.404C167.381 64.413 167.246 64.536 167.147 64.713V64.431H166.898V66ZM168.109 66H168.358V64.641H168.742V64.431H168.358V64.149C168.358 63.99 168.424 63.879 168.586 63.879C168.655 63.879 168.718 63.894 168.763 63.912V63.702C168.7 63.681 168.658 63.672 168.577 63.672C168.265 63.672 168.109 63.858 168.109 64.176V64.431H167.884V64.641H168.109V66ZM169.658 66.027C170.012 66.027 170.273 65.862 170.327 65.547H170.078C170.045 65.73 169.904 65.82 169.661 65.82C169.34 65.82 169.169 65.622 169.157 65.265H170.339V65.184C170.339 64.623 169.997 64.404 169.634 64.404C169.202 64.404 168.899 64.734 168.899 65.208V65.232C168.899 65.715 169.214 66.027 169.658 66.027ZM169.166 65.064C169.208 64.785 169.379 64.611 169.634 64.611C169.892 64.611 170.06 64.74 170.084 65.064H169.166ZM171.372 66.027C171.75 66.027 172.023 65.775 172.056 65.436H171.825C171.798 65.691 171.597 65.82 171.375 65.82C171.072 65.82 170.862 65.616 170.862 65.232V65.208C170.862 64.839 171.081 64.611 171.366 64.611C171.582 64.611 171.762 64.704 171.801 64.953H172.047C171.999 64.554 171.693 64.404 171.366 64.404C170.946 64.404 170.604 64.728 170.604 65.208V65.232C170.604 65.718 170.934 66.027 171.372 66.027ZM172.909 66.021C173.011 66.021 173.071 66.006 173.122 65.988V65.778C173.068 65.799 173.008 65.811 172.93 65.811C172.804 65.811 172.735 65.736 172.735 65.583V64.641H173.101V64.431H172.735V64.074H172.486V64.431H172.261V64.641H172.486V65.607C172.486 65.853 172.624 66.021 172.909 66.021ZM174.916 65.742C174.652 65.742 174.433 65.538 174.433 65.196V65.172C174.433 64.842 174.619 64.611 174.931 64.611C175.237 64.611 175.429 64.815 175.429 65.166V65.187C175.429 65.538 175.207 65.742 174.916 65.742ZM174.919 66.573C175.357 66.573 175.666 66.351 175.669 65.895V64.431H175.42V64.683C175.33 64.53 175.168 64.404 174.907 64.404C174.475 64.404 174.175 64.758 174.175 65.184V65.205C174.175 65.637 174.478 65.949 174.889 65.949C175.117 65.949 175.33 65.805 175.42 65.652V65.88C175.42 66.216 175.225 66.363 174.916 66.363C174.649 66.363 174.499 66.27 174.463 66.09H174.208C174.25 66.354 174.454 66.573 174.919 66.573ZM176.173 66H176.422V65.139C176.422 64.752 176.623 64.653 176.938 64.638V64.404C176.656 64.413 176.521 64.536 176.422 64.713V64.431H176.173V66ZM177.908 66.027C178.355 66.027 178.682 65.7 178.682 65.226V65.202C178.682 64.731 178.355 64.404 177.911 64.404C177.467 64.404 177.14 64.734 177.14 65.205V65.229C177.14 65.688 177.461 66.027 177.908 66.027ZM177.911 65.82C177.593 65.82 177.398 65.586 177.398 65.229V65.205C177.398 64.845 177.596 64.611 177.911 64.611C178.223 64.611 178.424 64.845 178.424 65.208V65.229C178.424 65.583 178.226 65.82 177.911 65.82ZM179.598 66.027C179.85 66.027 180.024 65.898 180.096 65.751V66H180.345V64.431H180.096V65.382C180.096 65.664 179.886 65.811 179.664 65.811C179.418 65.811 179.301 65.688 179.301 65.412V64.431H179.052V65.424C179.052 65.856 179.286 66.027 179.598 66.027ZM181.605 65.82C181.299 65.82 181.089 65.631 181.089 65.229V65.205C181.089 64.803 181.311 64.611 181.602 64.611C181.866 64.611 182.085 64.809 182.085 65.205V65.229C182.085 65.61 181.917 65.82 181.605 65.82ZM180.849 66.546H181.098V65.742C181.188 65.898 181.371 66.027 181.629 66.027C182.061 66.027 182.343 65.697 182.343 65.217V65.193C182.343 64.704 182.04 64.404 181.629 64.404C181.401 64.404 181.188 64.542 181.098 64.695V64.431H180.849V66.546ZM182.856 64.104C182.946 64.104 183.021 64.029 183.021 63.939C183.021 63.849 182.946 63.774 182.856 63.774C182.766 63.774 182.691 63.849 182.691 63.939C182.691 64.029 182.766 64.104 182.856 64.104ZM182.736 66H182.985V64.431H182.736V66ZM183.494 66H183.743V65.049C183.743 64.767 183.95 64.62 184.181 64.62C184.433 64.62 184.55 64.743 184.55 65.019V66H184.799V65.037C184.799 64.581 184.571 64.404 184.247 64.404C183.989 64.404 183.815 64.533 183.743 64.68V64.431H183.494V66ZM185.911 65.742C185.647 65.742 185.428 65.538 185.428 65.196V65.172C185.428 64.842 185.614 64.611 185.926 64.611C186.232 64.611 186.424 64.815 186.424 65.166V65.187C186.424 65.538 186.202 65.742 185.911 65.742ZM185.914 66.573C186.352 66.573 186.661 66.351 186.664 65.895V64.431H186.415V64.683C186.325 64.53 186.163 64.404 185.902 64.404C185.47 64.404 185.17 64.758 185.17 65.184V65.205C185.17 65.637 185.473 65.949 185.884 65.949C186.112 65.949 186.325 65.805 186.415 65.652V65.88C186.415 66.216 186.22 66.363 185.911 66.363C185.644 66.363 185.494 66.27 185.458 66.09H185.203C185.245 66.354 185.449 66.573 185.914 66.573ZM188.742 66.027C189.174 66.027 189.456 65.697 189.456 65.217V65.193C189.456 64.704 189.153 64.404 188.742 64.404C188.514 64.404 188.301 64.542 188.211 64.695V63.681H187.962V66H188.211V65.742C188.301 65.898 188.487 66.027 188.742 66.027ZM188.718 65.82C188.412 65.82 188.202 65.631 188.202 65.229V65.205C188.202 64.803 188.424 64.611 188.715 64.611C188.979 64.611 189.198 64.809 189.198 65.205V65.229C189.198 65.61 189.03 65.82 188.718 65.82ZM190.446 65.82C190.2 65.82 189.984 65.631 189.984 65.235V65.211C189.984 64.83 190.179 64.611 190.467 64.611C190.749 64.611 190.944 64.8 190.944 65.202V65.226C190.944 65.628 190.713 65.82 190.446 65.82ZM190.419 66.027C190.629 66.027 190.845 65.889 190.935 65.736V66H191.184V64.431H190.935V64.677C190.845 64.524 190.686 64.404 190.443 64.404C190.047 64.404 189.726 64.743 189.726 65.223V65.247C189.726 65.736 190.044 66.027 190.419 66.027ZM192.175 66.027C192.556 66.027 192.751 65.835 192.751 65.55C192.751 65.217 192.523 65.145 192.199 65.085C191.911 65.034 191.833 64.977 191.833 64.836C191.833 64.701 191.95 64.611 192.13 64.611C192.328 64.611 192.424 64.686 192.46 64.857H192.7C192.658 64.518 192.415 64.404 192.133 64.404C191.887 64.404 191.602 64.554 191.602 64.845C191.602 65.118 191.74 65.232 192.148 65.307C192.391 65.352 192.514 65.406 192.514 65.571C192.514 65.739 192.409 65.82 192.172 65.82C191.92 65.82 191.821 65.703 191.803 65.517H191.56C191.575 65.838 191.8 66.027 192.175 66.027ZM193.772 66.027C194.126 66.027 194.387 65.862 194.441 65.547H194.192C194.159 65.73 194.018 65.82 193.775 65.82C193.454 65.82 193.283 65.622 193.271 65.265H194.453V65.184C194.453 64.623 194.111 64.404 193.748 64.404C193.316 64.404 193.013 64.734 193.013 65.208V65.232C193.013 65.715 193.328 66.027 193.772 66.027ZM193.28 65.064C193.322 64.785 193.493 64.611 193.748 64.611C194.006 64.611 194.174 64.74 194.198 65.064H193.28ZM195.453 65.82C195.189 65.82 194.976 65.631 194.976 65.235V65.211C194.976 64.83 195.162 64.611 195.474 64.611C195.78 64.611 195.972 64.8 195.972 65.202V65.226C195.972 65.628 195.744 65.82 195.453 65.82ZM195.426 66.027C195.654 66.027 195.873 65.883 195.963 65.73V66H196.212V63.681H195.963V64.683C195.873 64.53 195.711 64.404 195.45 64.404C195.018 64.404 194.718 64.743 194.718 65.223V65.247C194.718 65.736 195.015 66.027 195.426 66.027ZM137.903 71.027C138.35 71.027 138.677 70.7 138.677 70.226V70.202C138.677 69.731 138.35 69.404 137.906 69.404C137.462 69.404 137.135 69.734 137.135 70.205V70.229C137.135 70.688 137.456 71.027 137.903 71.027ZM137.906 70.82C137.588 70.82 137.393 70.586 137.393 70.229V70.205C137.393 69.845 137.591 69.611 137.906 69.611C138.218 69.611 138.419 69.845 138.419 70.208V70.229C138.419 70.583 138.221 70.82 137.906 70.82ZM139.063 71H139.312V70.049C139.312 69.767 139.519 69.62 139.75 69.62C140.002 69.62 140.119 69.743 140.119 70.019V71H140.368V70.037C140.368 69.581 140.14 69.404 139.816 69.404C139.558 69.404 139.384 69.533 139.312 69.68V69.431H139.063V71ZM142.3 71.027C142.678 71.027 142.951 70.775 142.984 70.436H142.753C142.726 70.691 142.525 70.82 142.303 70.82C142 70.82 141.79 70.616 141.79 70.232V70.208C141.79 69.839 142.009 69.611 142.294 69.611C142.51 69.611 142.69 69.704 142.729 69.953H142.975C142.927 69.554 142.621 69.404 142.294 69.404C141.874 69.404 141.532 69.728 141.532 70.208V70.232C141.532 70.718 141.862 71.027 142.3 71.027ZM144.011 71.027C144.458 71.027 144.785 70.7 144.785 70.226V70.202C144.785 69.731 144.458 69.404 144.014 69.404C143.57 69.404 143.243 69.734 143.243 70.205V70.229C143.243 70.688 143.564 71.027 144.011 71.027ZM144.014 70.82C143.696 70.82 143.501 70.586 143.501 70.229V70.205C143.501 69.845 143.699 69.611 144.014 69.611C144.326 69.611 144.527 69.845 144.527 70.208V70.229C144.527 70.583 144.329 70.82 144.014 70.82ZM145.171 71H145.42V70.049C145.42 69.767 145.627 69.62 145.858 69.62C146.11 69.62 146.227 69.743 146.227 70.019V71H146.476V70.037C146.476 69.581 146.248 69.404 145.924 69.404C145.666 69.404 145.492 69.533 145.42 69.68V69.431H145.171V71ZM147.441 71.021C147.543 71.021 147.603 71.006 147.654 70.988V70.778C147.6 70.799 147.54 70.811 147.462 70.811C147.336 70.811 147.267 70.736 147.267 70.583V69.641H147.633V69.431H147.267V69.074H147.018V69.431H146.793V69.641H147.018V70.607C147.018 70.853 147.156 71.021 147.441 71.021ZM148.672 71.027C149.026 71.027 149.287 70.862 149.341 70.547H149.092C149.059 70.73 148.918 70.82 148.675 70.82C148.354 70.82 148.183 70.622 148.171 70.265H149.353V70.184C149.353 69.623 149.011 69.404 148.648 69.404C148.216 69.404 147.913 69.734 147.913 70.208V70.232C147.913 70.715 148.228 71.027 148.672 71.027ZM148.18 70.064C148.222 69.785 148.393 69.611 148.648 69.611C148.906 69.611 149.074 69.74 149.098 70.064H148.18ZM149.523 71H149.79L150.222 70.367L150.645 71H150.939L150.366 70.175L150.885 69.431H150.615L150.234 70.001L149.85 69.431H149.559L150.084 70.193L149.523 71ZM151.753 71.021C151.855 71.021 151.915 71.006 151.966 70.988V70.778C151.912 70.799 151.852 70.811 151.774 70.811C151.648 70.811 151.579 70.736 151.579 70.583V69.641H151.945V69.431H151.579V69.074H151.33V69.431H151.105V69.641H151.33V70.607C151.33 70.853 151.468 71.021 151.753 71.021ZM152.514 71.015C152.619 71.015 152.706 70.931 152.706 70.823C152.706 70.715 152.619 70.631 152.514 70.631C152.409 70.631 152.322 70.715 152.322 70.823C152.322 70.931 152.409 71.015 152.514 71.015ZM154.55 71H154.862L155.603 68.855H155.357L154.718 70.748L154.079 68.855H153.821L154.55 71ZM156.043 69.104C156.133 69.104 156.208 69.029 156.208 68.939C156.208 68.849 156.133 68.774 156.043 68.774C155.953 68.774 155.878 68.849 155.878 68.939C155.878 69.029 155.953 69.104 156.043 69.104ZM155.923 71H156.172V69.431H155.923V71ZM157.168 71.027C157.549 71.027 157.744 70.835 157.744 70.55C157.744 70.217 157.516 70.145 157.192 70.085C156.904 70.034 156.826 69.977 156.826 69.836C156.826 69.701 156.943 69.611 157.123 69.611C157.321 69.611 157.417 69.686 157.453 69.857H157.693C157.651 69.518 157.408 69.404 157.126 69.404C156.88 69.404 156.595 69.554 156.595 69.845C156.595 70.118 156.733 70.232 157.141 70.307C157.384 70.352 157.507 70.406 157.507 70.571C157.507 70.739 157.402 70.82 157.165 70.82C156.913 70.82 156.814 70.703 156.796 70.517H156.553C156.568 70.838 156.793 71.027 157.168 71.027ZM158.654 71.027C158.906 71.027 159.08 70.898 159.152 70.751V71H159.401V69.431H159.152V70.382C159.152 70.664 158.942 70.811 158.72 70.811C158.474 70.811 158.357 70.688 158.357 70.412V69.431H158.108V70.424C158.108 70.856 158.342 71.027 158.654 71.027ZM160.507 70.82C160.261 70.82 160.045 70.631 160.045 70.235V70.211C160.045 69.83 160.24 69.611 160.528 69.611C160.81 69.611 161.005 69.8 161.005 70.202V70.226C161.005 70.628 160.774 70.82 160.507 70.82ZM160.48 71.027C160.69 71.027 160.906 70.889 160.996 70.736V71H161.245V69.431H160.996V69.677C160.906 69.524 160.747 69.404 160.504 69.404C160.108 69.404 159.787 69.743 159.787 70.223V70.247C159.787 70.736 160.105 71.027 160.48 71.027ZM161.756 71H162.008V68.681H161.756V71ZM162.536 71.369L162.905 70.742L162.662 70.628L162.374 71.285L162.536 71.369ZM164.8 71.027C165.154 71.027 165.415 70.862 165.469 70.547H165.22C165.187 70.73 165.046 70.82 164.803 70.82C164.482 70.82 164.311 70.622 164.299 70.265H165.481V70.184C165.481 69.623 165.139 69.404 164.776 69.404C164.344 69.404 164.041 69.734 164.041 70.208V70.232C164.041 70.715 164.356 71.027 164.8 71.027ZM164.308 70.064C164.35 69.785 164.521 69.611 164.776 69.611C165.034 69.611 165.202 69.74 165.226 70.064H164.308ZM166.466 70.82C166.22 70.82 166.004 70.631 166.004 70.235V70.211C166.004 69.83 166.199 69.611 166.487 69.611C166.769 69.611 166.964 69.8 166.964 70.202V70.226C166.964 70.628 166.733 70.82 166.466 70.82ZM166.439 71.027C166.649 71.027 166.865 70.889 166.955 70.736V71H167.204V69.431H166.955V69.677C166.865 69.524 166.706 69.404 166.463 69.404C166.067 69.404 165.746 69.743 165.746 70.223V70.247C165.746 70.736 166.064 71.027 166.439 71.027ZM168.195 71.027C168.576 71.027 168.771 70.835 168.771 70.55C168.771 70.217 168.543 70.145 168.219 70.085C167.931 70.034 167.853 69.977 167.853 69.836C167.853 69.701 167.97 69.611 168.15 69.611C168.348 69.611 168.444 69.686 168.48 69.857H168.72C168.678 69.518 168.435 69.404 168.153 69.404C167.907 69.404 167.622 69.554 167.622 69.845C167.622 70.118 167.76 70.232 168.168 70.307C168.411 70.352 168.534 70.406 168.534 70.571C168.534 70.739 168.429 70.82 168.192 70.82C167.94 70.82 167.841 70.703 167.823 70.517H167.58C167.595 70.838 167.82 71.027 168.195 71.027ZM169.262 71.546H169.514L170.381 69.431H170.126L169.691 70.556L169.211 69.431H168.944L169.559 70.838L169.262 71.546ZM170.578 70.292H171.22V70.058H170.578V70.292ZM172.129 71.021C172.231 71.021 172.291 71.006 172.342 70.988V70.778C172.288 70.799 172.228 70.811 172.15 70.811C172.024 70.811 171.955 70.736 171.955 70.583V69.641H172.321V69.431H171.955V69.074H171.706V69.431H171.481V69.641H171.706V70.607C171.706 70.853 171.844 71.021 172.129 71.021ZM173.37 71.027C173.817 71.027 174.144 70.7 174.144 70.226V70.202C174.144 69.731 173.817 69.404 173.373 69.404C172.929 69.404 172.602 69.734 172.602 70.205V70.229C172.602 70.688 172.923 71.027 173.37 71.027ZM173.373 70.82C173.055 70.82 172.86 70.586 172.86 70.229V70.205C172.86 69.845 173.058 69.611 173.373 69.611C173.685 69.611 173.886 69.845 173.886 70.208V70.229C173.886 70.583 173.688 70.82 173.373 70.82ZM174.457 70.292H175.099V70.058H174.457V70.292ZM175.531 71H175.78V70.049C175.78 69.767 175.987 69.62 176.218 69.62C176.47 69.62 176.587 69.743 176.587 70.019V71H176.836V70.037C176.836 69.581 176.608 69.404 176.284 69.404C176.026 69.404 175.852 69.533 175.78 69.68V69.431H175.531V71ZM177.927 70.82C177.681 70.82 177.465 70.631 177.465 70.235V70.211C177.465 69.83 177.66 69.611 177.948 69.611C178.23 69.611 178.425 69.8 178.425 70.202V70.226C178.425 70.628 178.194 70.82 177.927 70.82ZM177.9 71.027C178.11 71.027 178.326 70.889 178.416 70.736V71H178.665V69.431H178.416V69.677C178.326 69.524 178.167 69.404 177.924 69.404C177.528 69.404 177.207 69.743 177.207 70.223V70.247C177.207 70.736 177.525 71.027 177.9 71.027ZM179.563 71H179.881L180.445 69.431H180.187L179.728 70.748L179.263 69.431H178.993L179.563 71ZM180.899 69.104C180.989 69.104 181.064 69.029 181.064 68.939C181.064 68.849 180.989 68.774 180.899 68.774C180.809 68.774 180.734 68.849 180.734 68.939C180.734 69.029 180.809 69.104 180.899 69.104ZM180.779 71H181.028V69.431H180.779V71ZM182.161 70.742C181.897 70.742 181.678 70.538 181.678 70.196V70.172C181.678 69.842 181.864 69.611 182.176 69.611C182.482 69.611 182.674 69.815 182.674 70.166V70.187C182.674 70.538 182.452 70.742 182.161 70.742ZM182.164 71.573C182.602 71.573 182.911 71.351 182.914 70.895V69.431H182.665V69.683C182.575 69.53 182.413 69.404 182.152 69.404C181.72 69.404 181.42 69.758 181.42 70.184V70.205C181.42 70.637 181.723 70.949 182.134 70.949C182.362 70.949 182.575 70.805 182.665 70.652V70.88C182.665 71.216 182.47 71.363 182.161 71.363C181.894 71.363 181.744 71.27 181.708 71.09H181.453C181.495 71.354 181.699 71.573 182.164 71.573ZM184.021 70.82C183.775 70.82 183.559 70.631 183.559 70.235V70.211C183.559 69.83 183.754 69.611 184.042 69.611C184.324 69.611 184.519 69.8 184.519 70.202V70.226C184.519 70.628 184.288 70.82 184.021 70.82ZM183.994 71.027C184.204 71.027 184.42 70.889 184.51 70.736V71H184.759V69.431H184.51V69.677C184.42 69.524 184.261 69.404 184.018 69.404C183.622 69.404 183.301 69.743 183.301 70.223V70.247C183.301 70.736 183.619 71.027 183.994 71.027ZM185.741 71.021C185.843 71.021 185.903 71.006 185.954 70.988V70.778C185.9 70.799 185.84 70.811 185.762 70.811C185.636 70.811 185.567 70.736 185.567 70.583V69.641H185.933V69.431H185.567V69.074H185.318V69.431H185.093V69.641H185.318V70.607C185.318 70.853 185.456 71.021 185.741 71.021ZM186.972 71.027C187.326 71.027 187.587 70.862 187.641 70.547H187.392C187.359 70.73 187.218 70.82 186.975 70.82C186.654 70.82 186.483 70.622 186.471 70.265H187.653V70.184C187.653 69.623 187.311 69.404 186.948 69.404C186.516 69.404 186.213 69.734 186.213 70.208V70.232C186.213 70.715 186.528 71.027 186.972 71.027ZM186.48 70.064C186.522 69.785 186.693 69.611 186.948 69.611C187.206 69.611 187.374 69.74 187.398 70.064H186.48ZM189.315 71.027C189.696 71.027 189.891 70.835 189.891 70.55C189.891 70.217 189.663 70.145 189.339 70.085C189.051 70.034 188.973 69.977 188.973 69.836C188.973 69.701 189.09 69.611 189.27 69.611C189.468 69.611 189.564 69.686 189.6 69.857H189.84C189.798 69.518 189.555 69.404 189.273 69.404C189.027 69.404 188.742 69.554 188.742 69.845C188.742 70.118 188.88 70.232 189.288 70.307C189.531 70.352 189.654 70.406 189.654 70.571C189.654 70.739 189.549 70.82 189.312 70.82C189.06 70.82 188.961 70.703 188.943 70.517H188.7C188.715 70.838 188.94 71.027 189.315 71.027ZM190.748 71.021C190.85 71.021 190.91 71.006 190.961 70.988V70.778C190.907 70.799 190.847 70.811 190.769 70.811C190.643 70.811 190.574 70.736 190.574 70.583V69.641H190.94V69.431H190.574V69.074H190.325V69.431H190.1V69.641H190.325V70.607C190.325 70.853 190.463 71.021 190.748 71.021ZM191.337 71H191.586V70.139C191.586 69.752 191.787 69.653 192.102 69.638V69.404C191.82 69.413 191.685 69.536 191.586 69.713V69.431H191.337V71ZM192.996 71.027C193.248 71.027 193.422 70.898 193.494 70.751V71H193.743V69.431H193.494V70.382C193.494 70.664 193.284 70.811 193.062 70.811C192.816 70.811 192.699 70.688 192.699 70.412V69.431H192.45V70.424C192.45 70.856 192.684 71.027 192.996 71.027ZM194.897 71.027C195.275 71.027 195.548 70.775 195.581 70.436H195.35C195.323 70.691 195.122 70.82 194.9 70.82C194.597 70.82 194.387 70.616 194.387 70.232V70.208C194.387 69.839 194.606 69.611 194.891 69.611C195.107 69.611 195.287 69.704 195.326 69.953H195.572C195.524 69.554 195.218 69.404 194.891 69.404C194.471 69.404 194.129 69.728 194.129 70.208V70.232C194.129 70.718 194.459 71.027 194.897 71.027ZM196.434 71.021C196.536 71.021 196.596 71.006 196.647 70.988V70.778C196.593 70.799 196.533 70.811 196.455 70.811C196.329 70.811 196.26 70.736 196.26 70.583V69.641H196.626V69.431H196.26V69.074H196.011V69.431H195.786V69.641H196.011V70.607C196.011 70.853 196.149 71.021 196.434 71.021ZM197.554 71.027C197.806 71.027 197.98 70.898 198.052 70.751V71H198.301V69.431H198.052V70.382C198.052 70.664 197.842 70.811 197.62 70.811C197.374 70.811 197.257 70.688 197.257 70.412V69.431H197.008V70.424C197.008 70.856 197.242 71.027 197.554 71.027ZM198.805 71H199.054V70.139C199.054 69.752 199.255 69.653 199.57 69.638V69.404C199.288 69.413 199.153 69.536 199.054 69.713V69.431H198.805V71ZM200.531 71.027C200.885 71.027 201.146 70.862 201.2 70.547H200.951C200.918 70.73 200.777 70.82 200.534 70.82C200.213 70.82 200.042 70.622 200.03 70.265H201.212V70.184C201.212 69.623 200.87 69.404 200.507 69.404C200.075 69.404 199.772 69.734 199.772 70.208V70.232C199.772 70.715 200.087 71.027 200.531 71.027ZM200.039 70.064C200.081 69.785 200.252 69.611 200.507 69.611C200.765 69.611 200.933 69.74 200.957 70.064H200.039ZM202.832 69.338C202.832 69.128 202.958 69.038 203.108 69.038C203.252 69.038 203.351 69.14 203.351 69.278C203.351 69.485 203.258 69.593 203.018 69.701C202.901 69.554 202.832 69.446 202.832 69.338ZM202.976 70.817C202.706 70.817 202.541 70.667 202.541 70.409C202.541 70.157 202.688 70.034 202.898 69.932L203.432 70.583C203.303 70.739 203.147 70.817 202.976 70.817ZM204.068 69.893H203.837L203.576 70.388L203.126 69.839C203.399 69.722 203.585 69.545 203.585 69.284C203.585 69.026 203.381 68.843 203.117 68.843C202.847 68.843 202.592 69.011 202.592 69.335C202.592 69.479 202.655 69.626 202.781 69.788C202.505 69.923 202.289 70.094 202.289 70.433C202.289 70.787 202.574 71.021 202.967 71.021C203.237 71.021 203.426 70.898 203.561 70.742L203.774 71H204.077L203.717 70.562L204.068 69.893ZM137.252 76H137.501V75.049C137.501 74.767 137.708 74.62 137.939 74.62C138.191 74.62 138.308 74.743 138.308 75.019V76H138.557V75.037C138.557 74.581 138.329 74.404 138.005 74.404C137.747 74.404 137.573 74.533 137.501 74.68V73.681H137.252V76ZM139.576 76.027C139.828 76.027 140.002 75.898 140.074 75.751V76H140.323V74.431H140.074V75.382C140.074 75.664 139.864 75.811 139.642 75.811C139.396 75.811 139.279 75.688 139.279 75.412V74.431H139.03V75.424C139.03 75.856 139.264 76.027 139.576 76.027ZM140.826 76H141.075V75.04C141.075 74.758 141.285 74.62 141.489 74.62C141.705 74.62 141.822 74.734 141.822 75.01V76H142.071V75.04C142.071 74.758 142.281 74.62 142.485 74.62C142.701 74.62 142.818 74.734 142.818 75.01V76H143.067V75.028C143.067 74.572 142.821 74.404 142.539 74.404C142.344 74.404 142.11 74.494 142.002 74.698C141.921 74.488 141.744 74.404 141.543 74.404C141.318 74.404 141.147 74.524 141.075 74.671V74.431H140.826V76ZM144.16 75.82C143.914 75.82 143.698 75.631 143.698 75.235V75.211C143.698 74.83 143.893 74.611 144.181 74.611C144.463 74.611 144.658 74.8 144.658 75.202V75.226C144.658 75.628 144.427 75.82 144.16 75.82ZM144.133 76.027C144.343 76.027 144.559 75.889 144.649 75.736V76H144.898V74.431H144.649V74.677C144.559 74.524 144.4 74.404 144.157 74.404C143.761 74.404 143.44 74.743 143.44 75.223V75.247C143.44 75.736 143.758 76.027 144.133 76.027ZM145.402 76H145.651V75.049C145.651 74.767 145.858 74.62 146.089 74.62C146.341 74.62 146.458 74.743 146.458 75.019V76H146.707V75.037C146.707 74.581 146.479 74.404 146.155 74.404C145.897 74.404 145.723 74.533 145.651 74.68V74.431H145.402V76ZM148.64 76.027C149.087 76.027 149.414 75.7 149.414 75.226V75.202C149.414 74.731 149.087 74.404 148.643 74.404C148.199 74.404 147.872 74.734 147.872 75.205V75.229C147.872 75.688 148.193 76.027 148.64 76.027ZM148.643 75.82C148.325 75.82 148.13 75.586 148.13 75.229V75.205C148.13 74.845 148.328 74.611 148.643 74.611C148.955 74.611 149.156 74.845 149.156 75.208V75.229C149.156 75.583 148.958 75.82 148.643 75.82ZM149.8 76H150.049V75.139C150.049 74.752 150.25 74.653 150.565 74.638V74.404C150.283 74.413 150.148 74.536 150.049 74.713V74.431H149.8V76ZM151.054 74.104C151.144 74.104 151.219 74.029 151.219 73.939C151.219 73.849 151.144 73.774 151.054 73.774C150.964 73.774 150.889 73.849 150.889 73.939C150.889 74.029 150.964 74.104 151.054 74.104ZM150.934 76H151.183V74.431H150.934V76ZM152.334 76.027C152.688 76.027 152.949 75.862 153.003 75.547H152.754C152.721 75.73 152.58 75.82 152.337 75.82C152.016 75.82 151.845 75.622 151.833 75.265H153.015V75.184C153.015 74.623 152.673 74.404 152.31 74.404C151.878 74.404 151.575 74.734 151.575 75.208V75.232C151.575 75.715 151.89 76.027 152.334 76.027ZM151.842 75.064C151.884 74.785 152.055 74.611 152.31 74.611C152.568 74.611 152.736 74.74 152.76 75.064H151.842ZM153.398 76H153.647V75.049C153.647 74.767 153.854 74.62 154.085 74.62C154.337 74.62 154.454 74.743 154.454 75.019V76H154.703V75.037C154.703 74.581 154.475 74.404 154.151 74.404C153.893 74.404 153.719 74.533 153.647 74.68V74.431H153.398V76ZM155.667 76.021C155.769 76.021 155.829 76.006 155.88 75.988V75.778C155.826 75.799 155.766 75.811 155.688 75.811C155.562 75.811 155.493 75.736 155.493 75.583V74.641H155.859V74.431H155.493V74.074H155.244V74.431H155.019V74.641H155.244V75.607C155.244 75.853 155.382 76.021 155.667 76.021ZM156.899 76.027C157.253 76.027 157.514 75.862 157.568 75.547H157.319C157.286 75.73 157.145 75.82 156.902 75.82C156.581 75.82 156.41 75.622 156.398 75.265H157.58V75.184C157.58 74.623 157.238 74.404 156.875 74.404C156.443 74.404 156.14 74.734 156.14 75.208V75.232C156.14 75.715 156.455 76.027 156.899 76.027ZM156.407 75.064C156.449 74.785 156.62 74.611 156.875 74.611C157.133 74.611 157.301 74.74 157.325 75.064H156.407ZM158.58 75.82C158.316 75.82 158.103 75.631 158.103 75.235V75.211C158.103 74.83 158.289 74.611 158.601 74.611C158.907 74.611 159.099 74.8 159.099 75.202V75.226C159.099 75.628 158.871 75.82 158.58 75.82ZM158.553 76.027C158.781 76.027 159 75.883 159.09 75.73V76H159.339V73.681H159.09V74.683C159 74.53 158.838 74.404 158.577 74.404C158.145 74.404 157.845 74.743 157.845 75.223V75.247C157.845 75.736 158.142 76.027 158.553 76.027ZM161.255 75.82C160.991 75.82 160.778 75.631 160.778 75.235V75.211C160.778 74.83 160.964 74.611 161.276 74.611C161.582 74.611 161.774 74.8 161.774 75.202V75.226C161.774 75.628 161.546 75.82 161.255 75.82ZM161.228 76.027C161.456 76.027 161.675 75.883 161.765 75.73V76H162.014V73.681H161.765V74.683C161.675 74.53 161.513 74.404 161.252 74.404C160.82 74.404 160.52 74.743 160.52 75.223V75.247C160.52 75.736 160.817 76.027 161.228 76.027ZM163.16 76.027C163.514 76.027 163.775 75.862 163.829 75.547H163.58C163.547 75.73 163.406 75.82 163.163 75.82C162.842 75.82 162.671 75.622 162.659 75.265H163.841V75.184C163.841 74.623 163.499 74.404 163.136 74.404C162.704 74.404 162.401 74.734 162.401 75.208V75.232C162.401 75.715 162.716 76.027 163.16 76.027ZM162.668 75.064C162.71 74.785 162.881 74.611 163.136 74.611C163.394 74.611 163.562 74.74 163.586 75.064H162.668ZM164.723 76.027C165.104 76.027 165.299 75.835 165.299 75.55C165.299 75.217 165.071 75.145 164.747 75.085C164.459 75.034 164.381 74.977 164.381 74.836C164.381 74.701 164.498 74.611 164.678 74.611C164.876 74.611 164.972 74.686 165.008 74.857H165.248C165.206 74.518 164.963 74.404 164.681 74.404C164.435 74.404 164.15 74.554 164.15 74.845C164.15 75.118 164.288 75.232 164.696 75.307C164.939 75.352 165.062 75.406 165.062 75.571C165.062 75.739 164.957 75.82 164.72 75.82C164.468 75.82 164.369 75.703 164.351 75.517H164.108C164.123 75.838 164.348 76.027 164.723 76.027ZM165.805 74.104C165.895 74.104 165.97 74.029 165.97 73.939C165.97 73.849 165.895 73.774 165.805 73.774C165.715 73.774 165.64 73.849 165.64 73.939C165.64 74.029 165.715 74.104 165.805 74.104ZM165.685 76H165.934V74.431H165.685V76ZM167.067 75.742C166.803 75.742 166.584 75.538 166.584 75.196V75.172C166.584 74.842 166.77 74.611 167.082 74.611C167.388 74.611 167.58 74.815 167.58 75.166V75.187C167.58 75.538 167.358 75.742 167.067 75.742ZM167.07 76.573C167.508 76.573 167.817 76.351 167.82 75.895V74.431H167.571V74.683C167.481 74.53 167.319 74.404 167.058 74.404C166.626 74.404 166.326 74.758 166.326 75.184V75.205C166.326 75.637 166.629 75.949 167.04 75.949C167.268 75.949 167.481 75.805 167.571 75.652V75.88C167.571 76.216 167.376 76.363 167.067 76.363C166.8 76.363 166.65 76.27 166.614 76.09H166.359C166.401 76.354 166.605 76.573 167.07 76.573ZM168.324 76H168.573V75.049C168.573 74.767 168.78 74.62 169.011 74.62C169.263 74.62 169.38 74.743 169.38 75.019V76H169.629V75.037C169.629 74.581 169.401 74.404 169.077 74.404C168.819 74.404 168.645 74.533 168.573 74.68V74.431H168.324V76ZM171.562 76.027C171.94 76.027 172.213 75.775 172.246 75.436H172.015C171.988 75.691 171.787 75.82 171.565 75.82C171.262 75.82 171.052 75.616 171.052 75.232V75.208C171.052 74.839 171.271 74.611 171.556 74.611C171.772 74.611 171.952 74.704 171.991 74.953H172.237C172.189 74.554 171.883 74.404 171.556 74.404C171.136 74.404 170.794 74.728 170.794 75.208V75.232C170.794 75.718 171.124 76.027 171.562 76.027ZM172.622 76H172.871V75.139C172.871 74.752 173.072 74.653 173.387 74.638V74.404C173.105 74.413 172.97 74.536 172.871 74.713V74.431H172.622V76ZM174.348 76.027C174.702 76.027 174.963 75.862 175.017 75.547H174.768C174.735 75.73 174.594 75.82 174.351 75.82C174.03 75.82 173.859 75.622 173.847 75.265H175.029V75.184C175.029 74.623 174.687 74.404 174.324 74.404C173.892 74.404 173.589 74.734 173.589 75.208V75.232C173.589 75.715 173.904 76.027 174.348 76.027ZM173.856 75.064C173.898 74.785 174.069 74.611 174.324 74.611C174.582 74.611 174.75 74.74 174.774 75.064H173.856ZM176.014 75.82C175.768 75.82 175.552 75.631 175.552 75.235V75.211C175.552 74.83 175.747 74.611 176.035 74.611C176.317 74.611 176.512 74.8 176.512 75.202V75.226C176.512 75.628 176.281 75.82 176.014 75.82ZM175.987 76.027C176.197 76.027 176.413 75.889 176.503 75.736V76H176.752V74.431H176.503V74.677C176.413 74.524 176.254 74.404 176.011 74.404C175.615 74.404 175.294 74.743 175.294 75.223V75.247C175.294 75.736 175.612 76.027 175.987 76.027ZM177.734 76.021C177.836 76.021 177.896 76.006 177.947 75.988V75.778C177.893 75.799 177.833 75.811 177.755 75.811C177.629 75.811 177.56 75.736 177.56 75.583V74.641H177.926V74.431H177.56V74.074H177.311V74.431H177.086V74.641H177.311V75.607C177.311 75.853 177.449 76.021 177.734 76.021ZM178.965 76.027C179.319 76.027 179.58 75.862 179.634 75.547H179.385C179.352 75.73 179.211 75.82 178.968 75.82C178.647 75.82 178.476 75.622 178.464 75.265H179.646V75.184C179.646 74.623 179.304 74.404 178.941 74.404C178.509 74.404 178.206 74.734 178.206 75.208V75.232C178.206 75.715 178.521 76.027 178.965 76.027ZM178.473 75.064C178.515 74.785 178.686 74.611 178.941 74.611C179.199 74.611 179.367 74.74 179.391 75.064H178.473ZM180.529 76.027C180.91 76.027 181.105 75.835 181.105 75.55C181.105 75.217 180.877 75.145 180.553 75.085C180.265 75.034 180.187 74.977 180.187 74.836C180.187 74.701 180.304 74.611 180.484 74.611C180.682 74.611 180.778 74.686 180.814 74.857H181.054C181.012 74.518 180.769 74.404 180.487 74.404C180.241 74.404 179.956 74.554 179.956 74.845C179.956 75.118 180.094 75.232 180.502 75.307C180.745 75.352 180.868 75.406 180.868 75.571C180.868 75.739 180.763 75.82 180.526 75.82C180.274 75.82 180.175 75.703 180.157 75.517H179.914C179.929 75.838 180.154 76.027 180.529 76.027ZM182.92 76.027C183.274 76.027 183.535 75.862 183.589 75.547H183.34C183.307 75.73 183.166 75.82 182.923 75.82C182.602 75.82 182.431 75.622 182.419 75.265H183.601V75.184C183.601 74.623 183.259 74.404 182.896 74.404C182.464 74.404 182.161 74.734 182.161 75.208V75.232C182.161 75.715 182.476 76.027 182.92 76.027ZM182.428 75.064C182.47 74.785 182.641 74.611 182.896 74.611C183.154 74.611 183.322 74.74 183.346 75.064H182.428ZM183.983 76H184.232V75.049C184.232 74.767 184.439 74.62 184.67 74.62C184.922 74.62 185.039 74.743 185.039 75.019V76H185.288V75.037C185.288 74.581 185.06 74.404 184.736 74.404C184.478 74.404 184.304 74.533 184.232 74.68V74.431H183.983V76ZM185.902 74.104C185.992 74.104 186.067 74.029 186.067 73.939C186.067 73.849 185.992 73.774 185.902 73.774C185.812 73.774 185.737 73.849 185.737 73.939C185.737 74.029 185.812 74.104 185.902 74.104ZM185.551 76.573C185.899 76.561 186.031 76.399 186.031 76.099V74.431H185.782V76.12C185.782 76.258 185.728 76.348 185.551 76.363V76.573ZM187.192 76.027C187.639 76.027 187.966 75.7 187.966 75.226V75.202C187.966 74.731 187.639 74.404 187.195 74.404C186.751 74.404 186.424 74.734 186.424 75.205V75.229C186.424 75.688 186.745 76.027 187.192 76.027ZM187.195 75.82C186.877 75.82 186.682 75.586 186.682 75.229V75.205C186.682 74.845 186.88 74.611 187.195 74.611C187.507 74.611 187.708 74.845 187.708 75.208V75.229C187.708 75.583 187.51 75.82 187.195 75.82ZM188.449 76.546H188.701L189.568 74.431H189.313L188.878 75.556L188.398 74.431H188.131L188.746 75.838L188.449 76.546ZM190.469 75.82C190.223 75.82 190.007 75.631 190.007 75.235V75.211C190.007 74.83 190.202 74.611 190.49 74.611C190.772 74.611 190.967 74.8 190.967 75.202V75.226C190.967 75.628 190.736 75.82 190.469 75.82ZM190.442 76.027C190.652 76.027 190.868 75.889 190.958 75.736V76H191.207V74.431H190.958V74.677C190.868 74.524 190.709 74.404 190.466 74.404C190.07 74.404 189.749 74.743 189.749 75.223V75.247C189.749 75.736 190.067 76.027 190.442 76.027ZM192.492 76.027C192.924 76.027 193.206 75.697 193.206 75.217V75.193C193.206 74.704 192.903 74.404 192.492 74.404C192.264 74.404 192.051 74.542 191.961 74.695V73.681H191.712V76H191.961V75.742C192.051 75.898 192.237 76.027 192.492 76.027ZM192.468 75.82C192.162 75.82 191.952 75.631 191.952 75.229V75.205C191.952 74.803 192.174 74.611 192.465 74.611C192.729 74.611 192.948 74.809 192.948 75.205V75.229C192.948 75.61 192.78 75.82 192.468 75.82ZM193.599 76H193.851V73.681H193.599V76ZM195.002 76.027C195.356 76.027 195.617 75.862 195.671 75.547H195.422C195.389 75.73 195.248 75.82 195.005 75.82C194.684 75.82 194.513 75.622 194.501 75.265H195.683V75.184C195.683 74.623 195.341 74.404 194.978 74.404C194.546 74.404 194.243 74.734 194.243 75.208V75.232C194.243 75.715 194.558 76.027 195.002 76.027ZM194.51 75.064C194.552 74.785 194.723 74.611 194.978 74.611C195.236 74.611 195.404 74.74 195.428 75.064H194.51ZM196.985 74.104C197.075 74.104 197.15 74.029 197.15 73.939C197.15 73.849 197.075 73.774 196.985 73.774C196.895 73.774 196.82 73.849 196.82 73.939C196.82 74.029 196.895 74.104 196.985 74.104ZM196.634 76.573C196.982 76.561 197.114 76.399 197.114 76.099V74.431H196.865V76.12C196.865 76.258 196.811 76.348 196.634 76.363V76.573ZM198.275 76.027C198.722 76.027 199.049 75.7 199.049 75.226V75.202C199.049 74.731 198.722 74.404 198.278 74.404C197.834 74.404 197.507 74.734 197.507 75.205V75.229C197.507 75.688 197.828 76.027 198.275 76.027ZM198.278 75.82C197.96 75.82 197.765 75.586 197.765 75.229V75.205C197.765 74.845 197.963 74.611 198.278 74.611C198.59 74.611 198.791 74.845 198.791 75.208V75.229C198.791 75.583 198.593 75.82 198.278 75.82ZM199.966 76.027C200.218 76.027 200.392 75.898 200.464 75.751V76H200.713V74.431H200.464V75.382C200.464 75.664 200.254 75.811 200.032 75.811C199.786 75.811 199.669 75.688 199.669 75.412V74.431H199.42V75.424C199.42 75.856 199.654 76.027 199.966 76.027ZM201.216 76H201.465V75.139C201.465 74.752 201.666 74.653 201.981 74.638V74.404C201.699 74.413 201.564 74.536 201.465 74.713V74.431H201.216V76ZM202.344 76H202.593V75.049C202.593 74.767 202.8 74.62 203.031 74.62C203.283 74.62 203.4 74.743 203.4 75.019V76H203.649V75.037C203.649 74.581 203.421 74.404 203.097 74.404C202.839 74.404 202.665 74.533 202.593 74.68V74.431H202.344V76ZM204.779 76.027C205.133 76.027 205.394 75.862 205.448 75.547H205.199C205.166 75.73 205.025 75.82 204.782 75.82C204.461 75.82 204.29 75.622 204.278 75.265H205.46V75.184C205.46 74.623 205.118 74.404 204.755 74.404C204.323 74.404 204.02 74.734 204.02 75.208V75.232C204.02 75.715 204.335 76.027 204.779 76.027ZM204.287 75.064C204.329 74.785 204.5 74.611 204.755 74.611C205.013 74.611 205.181 74.74 205.205 75.064H204.287ZM205.968 76.546H206.22L207.087 74.431H206.832L206.397 75.556L205.917 74.431H205.65L206.265 75.838L205.968 76.546ZM137.855 80.82C137.609 80.82 137.393 80.631 137.393 80.235V80.211C137.393 79.83 137.588 79.611 137.876 79.611C138.158 79.611 138.353 79.8 138.353 80.202V80.226C138.353 80.628 138.122 80.82 137.855 80.82ZM137.828 81.027C138.038 81.027 138.254 80.889 138.344 80.736V81H138.593V79.431H138.344V79.677C138.254 79.524 138.095 79.404 137.852 79.404C137.456 79.404 137.135 79.743 137.135 80.223V80.247C137.135 80.736 137.453 81.027 137.828 81.027ZM139.749 81.027C140.127 81.027 140.4 80.775 140.433 80.436H140.202C140.175 80.691 139.974 80.82 139.752 80.82C139.449 80.82 139.239 80.616 139.239 80.232V80.208C139.239 79.839 139.458 79.611 139.743 79.611C139.959 79.611 140.139 79.704 140.178 79.953H140.424C140.376 79.554 140.07 79.404 139.743 79.404C139.323 79.404 138.981 79.728 138.981 80.208V80.232C138.981 80.718 139.311 81.027 139.749 81.027ZM140.809 81H141.058V80.139C141.058 79.752 141.259 79.653 141.574 79.638V79.404C141.292 79.413 141.157 79.536 141.058 79.713V79.431H140.809V81ZM142.544 81.027C142.991 81.027 143.318 80.7 143.318 80.226V80.202C143.318 79.731 142.991 79.404 142.547 79.404C142.103 79.404 141.776 79.734 141.776 80.205V80.229C141.776 80.688 142.097 81.027 142.544 81.027ZM142.547 80.82C142.229 80.82 142.034 80.586 142.034 80.229V80.205C142.034 79.845 142.232 79.611 142.547 79.611C142.859 79.611 143.06 79.845 143.06 80.208V80.229C143.06 80.583 142.862 80.82 142.547 80.82ZM144.189 81.027C144.57 81.027 144.765 80.835 144.765 80.55C144.765 80.217 144.537 80.145 144.213 80.085C143.925 80.034 143.847 79.977 143.847 79.836C143.847 79.701 143.964 79.611 144.144 79.611C144.342 79.611 144.438 79.686 144.474 79.857H144.714C144.672 79.518 144.429 79.404 144.147 79.404C143.901 79.404 143.616 79.554 143.616 79.845C143.616 80.118 143.754 80.232 144.162 80.307C144.405 80.352 144.528 80.406 144.528 80.571C144.528 80.739 144.423 80.82 144.186 80.82C143.934 80.82 143.835 80.703 143.817 80.517H143.574C143.589 80.838 143.814 81.027 144.189 81.027ZM145.631 81.027C146.012 81.027 146.207 80.835 146.207 80.55C146.207 80.217 145.979 80.145 145.655 80.085C145.367 80.034 145.289 79.977 145.289 79.836C145.289 79.701 145.406 79.611 145.586 79.611C145.784 79.611 145.88 79.686 145.916 79.857H146.156C146.114 79.518 145.871 79.404 145.589 79.404C145.343 79.404 145.058 79.554 145.058 79.845C145.058 80.118 145.196 80.232 145.604 80.307C145.847 80.352 145.97 80.406 145.97 80.571C145.97 80.739 145.865 80.82 145.628 80.82C145.376 80.82 145.277 80.703 145.259 80.517H145.016C145.031 80.838 145.256 81.027 145.631 81.027ZM147.857 81.021C147.959 81.021 148.019 81.006 148.07 80.988V80.778C148.016 80.799 147.956 80.811 147.878 80.811C147.752 80.811 147.683 80.736 147.683 80.583V79.641H148.049V79.431H147.683V79.074H147.434V79.431H147.209V79.641H147.434V80.607C147.434 80.853 147.572 81.021 147.857 81.021ZM148.446 81H148.695V80.049C148.695 79.767 148.902 79.62 149.133 79.62C149.385 79.62 149.502 79.743 149.502 80.019V81H149.751V80.037C149.751 79.581 149.523 79.404 149.199 79.404C148.941 79.404 148.767 79.533 148.695 79.68V78.681H148.446V81ZM150.881 81.027C151.235 81.027 151.496 80.862 151.55 80.547H151.301C151.268 80.73 151.127 80.82 150.884 80.82C150.563 80.82 150.392 80.622 150.38 80.265H151.562V80.184C151.562 79.623 151.22 79.404 150.857 79.404C150.425 79.404 150.122 79.734 150.122 80.208V80.232C150.122 80.715 150.437 81.027 150.881 81.027ZM150.389 80.064C150.431 79.785 150.602 79.611 150.857 79.611C151.115 79.611 151.283 79.74 151.307 80.064H150.389ZM153.053 81H153.326L153.692 79.824L154.019 81H154.295L154.784 79.431H154.529L154.16 80.694L153.803 79.431H153.587L153.206 80.694L152.84 79.431H152.57L153.053 81ZM155.733 81.027C156.087 81.027 156.348 80.862 156.402 80.547H156.153C156.12 80.73 155.979 80.82 155.736 80.82C155.415 80.82 155.244 80.622 155.232 80.265H156.414V80.184C156.414 79.623 156.072 79.404 155.709 79.404C155.277 79.404 154.974 79.734 154.974 80.208V80.232C154.974 80.715 155.289 81.027 155.733 81.027ZM155.241 80.064C155.283 79.785 155.454 79.611 155.709 79.611C155.967 79.611 156.135 79.74 156.159 80.064H155.241ZM157.576 81.027C158.008 81.027 158.29 80.697 158.29 80.217V80.193C158.29 79.704 157.987 79.404 157.576 79.404C157.348 79.404 157.135 79.542 157.045 79.695V78.681H156.796V81H157.045V80.742C157.135 80.898 157.321 81.027 157.576 81.027ZM157.552 80.82C157.246 80.82 157.036 80.631 157.036 80.229V80.205C157.036 79.803 157.258 79.611 157.549 79.611C157.813 79.611 158.032 79.809 158.032 80.205V80.229C158.032 80.61 157.864 80.82 157.552 80.82ZM159.163 81.027C159.544 81.027 159.739 80.835 159.739 80.55C159.739 80.217 159.511 80.145 159.187 80.085C158.899 80.034 158.821 79.977 158.821 79.836C158.821 79.701 158.938 79.611 159.118 79.611C159.316 79.611 159.412 79.686 159.448 79.857H159.688C159.646 79.518 159.403 79.404 159.121 79.404C158.875 79.404 158.59 79.554 158.59 79.845C158.59 80.118 158.728 80.232 159.136 80.307C159.379 80.352 159.502 80.406 159.502 80.571C159.502 80.739 159.397 80.82 159.16 80.82C158.908 80.82 158.809 80.703 158.791 80.517H158.548C158.563 80.838 158.788 81.027 159.163 81.027ZM160.244 79.104C160.334 79.104 160.409 79.029 160.409 78.939C160.409 78.849 160.334 78.774 160.244 78.774C160.154 78.774 160.079 78.849 160.079 78.939C160.079 79.029 160.154 79.104 160.244 79.104ZM160.124 81H160.373V79.431H160.124V81ZM161.36 81.021C161.462 81.021 161.522 81.006 161.573 80.988V80.778C161.519 80.799 161.459 80.811 161.381 80.811C161.255 80.811 161.186 80.736 161.186 80.583V79.641H161.552V79.431H161.186V79.074H160.937V79.431H160.712V79.641H160.937V80.607C160.937 80.853 161.075 81.021 161.36 81.021ZM162.591 81.027C162.945 81.027 163.206 80.862 163.26 80.547H163.011C162.978 80.73 162.837 80.82 162.594 80.82C162.273 80.82 162.102 80.622 162.09 80.265H163.272V80.184C163.272 79.623 162.93 79.404 162.567 79.404C162.135 79.404 161.832 79.734 161.832 80.208V80.232C161.832 80.715 162.147 81.027 162.591 81.027ZM162.099 80.064C162.141 79.785 162.312 79.611 162.567 79.611C162.825 79.611 162.993 79.74 163.017 80.064H162.099ZM165.051 80.82C164.805 80.82 164.589 80.631 164.589 80.235V80.211C164.589 79.83 164.784 79.611 165.072 79.611C165.354 79.611 165.549 79.8 165.549 80.202V80.226C165.549 80.628 165.318 80.82 165.051 80.82ZM165.024 81.027C165.234 81.027 165.45 80.889 165.54 80.736V81H165.789V79.431H165.54V79.677C165.45 79.524 165.291 79.404 165.048 79.404C164.652 79.404 164.331 79.743 164.331 80.223V80.247C164.331 80.736 164.649 81.027 165.024 81.027ZM166.294 81H166.543V80.049C166.543 79.767 166.75 79.62 166.981 79.62C167.233 79.62 167.35 79.743 167.35 80.019V81H167.599V80.037C167.599 79.581 167.371 79.404 167.047 79.404C166.789 79.404 166.615 79.533 166.543 79.68V79.431H166.294V81ZM168.705 80.82C168.441 80.82 168.228 80.631 168.228 80.235V80.211C168.228 79.83 168.414 79.611 168.726 79.611C169.032 79.611 169.224 79.8 169.224 80.202V80.226C169.224 80.628 168.996 80.82 168.705 80.82ZM168.678 81.027C168.906 81.027 169.125 80.883 169.215 80.73V81H169.464V78.681H169.215V79.683C169.125 79.53 168.963 79.404 168.702 79.404C168.27 79.404 167.97 79.743 167.97 80.223V80.247C167.97 80.736 168.267 81.027 168.678 81.027ZM171.38 80.82C171.116 80.82 170.903 80.631 170.903 80.235V80.211C170.903 79.83 171.089 79.611 171.401 79.611C171.707 79.611 171.899 79.8 171.899 80.202V80.226C171.899 80.628 171.671 80.82 171.38 80.82ZM171.353 81.027C171.581 81.027 171.8 80.883 171.89 80.73V81H172.139V78.681H171.89V79.683C171.8 79.53 171.638 79.404 171.377 79.404C170.945 79.404 170.645 79.743 170.645 80.223V80.247C170.645 80.736 170.942 81.027 171.353 81.027ZM173.285 81.027C173.639 81.027 173.9 80.862 173.954 80.547H173.705C173.672 80.73 173.531 80.82 173.288 80.82C172.967 80.82 172.796 80.622 172.784 80.265H173.966V80.184C173.966 79.623 173.624 79.404 173.261 79.404C172.829 79.404 172.526 79.734 172.526 80.208V80.232C172.526 80.715 172.841 81.027 173.285 81.027ZM172.793 80.064C172.835 79.785 173.006 79.611 173.261 79.611C173.519 79.611 173.687 79.74 173.711 80.064H172.793ZM174.354 81H174.606V78.681H174.354V81ZM175.241 79.104C175.331 79.104 175.406 79.029 175.406 78.939C175.406 78.849 175.331 78.774 175.241 78.774C175.151 78.774 175.076 78.849 175.076 78.939C175.076 79.029 175.151 79.104 175.241 79.104ZM175.121 81H175.37V79.431H175.121V81ZM176.273 81H176.591L177.155 79.431H176.897L176.438 80.748L175.973 79.431H175.703L176.273 81ZM178.081 81.027C178.435 81.027 178.696 80.862 178.75 80.547H178.501C178.468 80.73 178.327 80.82 178.084 80.82C177.763 80.82 177.592 80.622 177.58 80.265H178.762V80.184C178.762 79.623 178.42 79.404 178.057 79.404C177.625 79.404 177.322 79.734 177.322 80.208V80.232C177.322 80.715 177.637 81.027 178.081 81.027ZM177.589 80.064C177.631 79.785 177.802 79.611 178.057 79.611C178.315 79.611 178.483 79.74 178.507 80.064H177.589ZM179.144 81H179.393V80.139C179.393 79.752 179.594 79.653 179.909 79.638V79.404C179.627 79.413 179.492 79.536 179.393 79.713V79.431H179.144V81ZM180.87 81.027C181.224 81.027 181.485 80.862 181.539 80.547H181.29C181.257 80.73 181.116 80.82 180.873 80.82C180.552 80.82 180.381 80.622 180.369 80.265H181.551V80.184C181.551 79.623 181.209 79.404 180.846 79.404C180.414 79.404 180.111 79.734 180.111 80.208V80.232C180.111 80.715 180.426 81.027 180.87 81.027ZM180.378 80.064C180.42 79.785 180.591 79.611 180.846 79.611C181.104 79.611 181.272 79.74 181.296 80.064H180.378ZM182.433 81.027C182.814 81.027 183.009 80.835 183.009 80.55C183.009 80.217 182.781 80.145 182.457 80.085C182.169 80.034 182.091 79.977 182.091 79.836C182.091 79.701 182.208 79.611 182.388 79.611C182.586 79.611 182.682 79.686 182.718 79.857H182.958C182.916 79.518 182.673 79.404 182.391 79.404C182.145 79.404 181.86 79.554 181.86 79.845C181.86 80.118 181.998 80.232 182.406 80.307C182.649 80.352 182.772 80.406 182.772 80.571C182.772 80.739 182.667 80.82 182.43 80.82C182.178 80.82 182.079 80.703 182.061 80.517H181.818C181.833 80.838 182.058 81.027 182.433 81.027ZM184.786 80.82C184.54 80.82 184.324 80.631 184.324 80.235V80.211C184.324 79.83 184.519 79.611 184.807 79.611C185.089 79.611 185.284 79.8 185.284 80.202V80.226C185.284 80.628 185.053 80.82 184.786 80.82ZM184.759 81.027C184.969 81.027 185.185 80.889 185.275 80.736V81H185.524V79.431H185.275V79.677C185.185 79.524 185.026 79.404 184.783 79.404C184.387 79.404 184.066 79.743 184.066 80.223V80.247C184.066 80.736 184.384 81.027 184.759 81.027ZM186.646 80.82C186.382 80.82 186.169 80.631 186.169 80.235V80.211C186.169 79.83 186.355 79.611 186.667 79.611C186.973 79.611 187.165 79.8 187.165 80.202V80.226C187.165 80.628 186.937 80.82 186.646 80.82ZM186.619 81.027C186.847 81.027 187.066 80.883 187.156 80.73V81H187.405V78.681H187.156V79.683C187.066 79.53 186.904 79.404 186.643 79.404C186.211 79.404 185.911 79.743 185.911 80.223V80.247C185.911 80.736 186.208 81.027 186.619 81.027ZM188.302 81H188.62L189.184 79.431H188.926L188.467 80.748L188.002 79.431H187.732L188.302 81ZM190.085 80.82C189.839 80.82 189.623 80.631 189.623 80.235V80.211C189.623 79.83 189.818 79.611 190.106 79.611C190.388 79.611 190.583 79.8 190.583 80.202V80.226C190.583 80.628 190.352 80.82 190.085 80.82ZM190.058 81.027C190.268 81.027 190.484 80.889 190.574 80.736V81H190.823V79.431H190.574V79.677C190.484 79.524 190.325 79.404 190.082 79.404C189.686 79.404 189.365 79.743 189.365 80.223V80.247C189.365 80.736 189.683 81.027 190.058 81.027ZM191.328 81H191.577V80.049C191.577 79.767 191.784 79.62 192.015 79.62C192.267 79.62 192.384 79.743 192.384 80.019V81H192.633V80.037C192.633 79.581 192.405 79.404 192.081 79.404C191.823 79.404 191.649 79.533 191.577 79.68V79.431H191.328V81ZM193.772 81.027C194.15 81.027 194.423 80.775 194.456 80.436H194.225C194.198 80.691 193.997 80.82 193.775 80.82C193.472 80.82 193.262 80.616 193.262 80.232V80.208C193.262 79.839 193.481 79.611 193.766 79.611C193.982 79.611 194.162 79.704 194.201 79.953H194.447C194.399 79.554 194.093 79.404 193.766 79.404C193.346 79.404 193.004 79.728 193.004 80.208V80.232C193.004 80.718 193.334 81.027 193.772 81.027ZM195.474 81.027C195.828 81.027 196.089 80.862 196.143 80.547H195.894C195.861 80.73 195.72 80.82 195.477 80.82C195.156 80.82 194.985 80.622 194.973 80.265H196.155V80.184C196.155 79.623 195.813 79.404 195.45 79.404C195.018 79.404 194.715 79.734 194.715 80.208V80.232C194.715 80.715 195.03 81.027 195.474 81.027ZM194.982 80.064C195.024 79.785 195.195 79.611 195.45 79.611C195.708 79.611 195.876 79.74 195.9 80.064H194.982ZM197.155 80.82C196.891 80.82 196.678 80.631 196.678 80.235V80.211C196.678 79.83 196.864 79.611 197.176 79.611C197.482 79.611 197.674 79.8 197.674 80.202V80.226C197.674 80.628 197.446 80.82 197.155 80.82ZM197.128 81.027C197.356 81.027 197.575 80.883 197.665 80.73V81H197.914V78.681H197.665V79.683C197.575 79.53 197.413 79.404 197.152 79.404C196.72 79.404 196.42 79.743 196.42 80.223V80.247C196.42 80.736 196.717 81.027 197.128 81.027ZM199.743 81.027C199.995 81.027 200.169 80.898 200.241 80.751V81H200.49V79.431H200.241V80.382C200.241 80.664 200.031 80.811 199.809 80.811C199.563 80.811 199.446 80.688 199.446 80.412V79.431H199.197V80.424C199.197 80.856 199.431 81.027 199.743 81.027ZM201.479 81.027C201.86 81.027 202.055 80.835 202.055 80.55C202.055 80.217 201.827 80.145 201.503 80.085C201.215 80.034 201.137 79.977 201.137 79.836C201.137 79.701 201.254 79.611 201.434 79.611C201.632 79.611 201.728 79.686 201.764 79.857H202.004C201.962 79.518 201.719 79.404 201.437 79.404C201.191 79.404 200.906 79.554 200.906 79.845C200.906 80.118 201.044 80.232 201.452 80.307C201.695 80.352 201.818 80.406 201.818 80.571C201.818 80.739 201.713 80.82 201.476 80.82C201.224 80.82 201.125 80.703 201.107 80.517H200.864C200.879 80.838 201.104 81.027 201.479 81.027ZM203.077 81.027C203.431 81.027 203.692 80.862 203.746 80.547H203.497C203.464 80.73 203.323 80.82 203.08 80.82C202.759 80.82 202.588 80.622 202.576 80.265H203.758V80.184C203.758 79.623 203.416 79.404 203.053 79.404C202.621 79.404 202.318 79.734 202.318 80.208V80.232C202.318 80.715 202.633 81.027 203.077 81.027ZM202.585 80.064C202.627 79.785 202.798 79.611 203.053 79.611C203.311 79.611 203.479 79.74 203.503 80.064H202.585ZM204.14 81H204.389V80.139C204.389 79.752 204.59 79.653 204.905 79.638V79.404C204.623 79.413 204.488 79.536 204.389 79.713V79.431H204.14V81ZM137.894 86.027C138.248 86.027 138.509 85.862 138.563 85.547H138.314C138.281 85.73 138.14 85.82 137.897 85.82C137.576 85.82 137.405 85.622 137.393 85.265H138.575V85.184C138.575 84.623 138.233 84.404 137.87 84.404C137.438 84.404 137.135 84.734 137.135 85.208V85.232C137.135 85.715 137.45 86.027 137.894 86.027ZM137.402 85.064C137.444 84.785 137.615 84.611 137.87 84.611C138.128 84.611 138.296 84.74 138.32 85.064H137.402ZM138.745 86H139.012L139.444 85.367L139.867 86H140.161L139.588 85.175L140.107 84.431H139.837L139.456 85.001L139.072 84.431H138.781L139.306 85.193L138.745 86ZM141.254 85.82C140.948 85.82 140.738 85.631 140.738 85.229V85.205C140.738 84.803 140.96 84.611 141.251 84.611C141.515 84.611 141.734 84.809 141.734 85.205V85.229C141.734 85.61 141.566 85.82 141.254 85.82ZM140.498 86.546H140.747V85.742C140.837 85.898 141.02 86.027 141.278 86.027C141.71 86.027 141.992 85.697 141.992 85.217V85.193C141.992 84.704 141.689 84.404 141.278 84.404C141.05 84.404 140.837 84.542 140.747 84.695V84.431H140.498V86.546ZM143.021 86.027C143.375 86.027 143.636 85.862 143.69 85.547H143.441C143.408 85.73 143.267 85.82 143.024 85.82C142.703 85.82 142.532 85.622 142.52 85.265H143.702V85.184C143.702 84.623 143.36 84.404 142.997 84.404C142.565 84.404 142.262 84.734 142.262 85.208V85.232C142.262 85.715 142.577 86.027 143.021 86.027ZM142.529 85.064C142.571 84.785 142.742 84.611 142.997 84.611C143.255 84.611 143.423 84.74 143.447 85.064H142.529ZM144.084 86H144.333V85.139C144.333 84.752 144.534 84.653 144.849 84.638V84.404C144.567 84.413 144.432 84.536 144.333 84.713V84.431H144.084V86ZM145.338 84.104C145.428 84.104 145.503 84.029 145.503 83.939C145.503 83.849 145.428 83.774 145.338 83.774C145.248 83.774 145.173 83.849 145.173 83.939C145.173 84.029 145.248 84.104 145.338 84.104ZM145.218 86H145.467V84.431H145.218V86ZM146.619 86.027C146.973 86.027 147.234 85.862 147.288 85.547H147.039C147.006 85.73 146.865 85.82 146.622 85.82C146.301 85.82 146.13 85.622 146.118 85.265H147.3V85.184C147.3 84.623 146.958 84.404 146.595 84.404C146.163 84.404 145.86 84.734 145.86 85.208V85.232C145.86 85.715 146.175 86.027 146.619 86.027ZM146.127 85.064C146.169 84.785 146.34 84.611 146.595 84.611C146.853 84.611 147.021 84.74 147.045 85.064H146.127ZM147.682 86H147.931V85.049C147.931 84.767 148.138 84.62 148.369 84.62C148.621 84.62 148.738 84.743 148.738 85.019V86H148.987V85.037C148.987 84.581 148.759 84.404 148.435 84.404C148.177 84.404 148.003 84.533 147.931 84.68V84.431H147.682V86ZM150.126 86.027C150.504 86.027 150.777 85.775 150.81 85.436H150.579C150.552 85.691 150.351 85.82 150.129 85.82C149.826 85.82 149.616 85.616 149.616 85.232V85.208C149.616 84.839 149.835 84.611 150.12 84.611C150.336 84.611 150.516 84.704 150.555 84.953H150.801C150.753 84.554 150.447 84.404 150.12 84.404C149.7 84.404 149.358 84.728 149.358 85.208V85.232C149.358 85.718 149.688 86.027 150.126 86.027ZM151.828 86.027C152.182 86.027 152.443 85.862 152.497 85.547H152.248C152.215 85.73 152.074 85.82 151.831 85.82C151.51 85.82 151.339 85.622 151.327 85.265H152.509V85.184C152.509 84.623 152.167 84.404 151.804 84.404C151.372 84.404 151.069 84.734 151.069 85.208V85.232C151.069 85.715 151.384 86.027 151.828 86.027ZM151.336 85.064C151.378 84.785 151.549 84.611 151.804 84.611C152.062 84.611 152.23 84.74 152.254 85.064H151.336ZM153.047 86.015C153.152 86.015 153.239 85.931 153.239 85.823C153.239 85.715 153.152 85.631 153.047 85.631C152.942 85.631 152.855 85.715 152.855 85.823C152.855 85.931 152.942 86.015 153.047 86.015Z" fill="white"/>
</svg>
