<svg width="30" height="30" viewBox="0 0 30 30" fill="none" xmlns="http://www.w3.org/2000/svg">
<circle cx="15" cy="15" r="15" fill="white" fill-opacity="0.12"/>
<path opacity="0.6" d="M10.2621 20.5261C10.2621 21.3945 10.9727 22.1051 11.8411 22.1051H18.1569C19.0253 22.1051 19.7358 21.3945 19.7358 20.5261V12.6314C19.7358 11.763 19.0253 11.0524 18.1569 11.0524H11.8411C10.9727 11.0524 10.2621 11.763 10.2621 12.6314V20.5261ZM19.7358 8.68401H17.7621L17.2016 8.12348C17.0595 7.98137 16.8542 7.89453 16.649 7.89453H13.349C13.1437 7.89453 12.9384 7.98137 12.7963 8.12348L12.2358 8.68401H10.2621C9.82792 8.68401 9.47266 9.03927 9.47266 9.47348C9.47266 9.90769 9.82792 10.263 10.2621 10.263H19.7358C20.17 10.263 20.5253 9.90769 20.5253 9.47348C20.5253 9.03927 20.17 8.68401 19.7358 8.68401Z" fill="white"/>
</svg>
