<svg width="253" height="144" viewBox="0 0 253 144" fill="none" xmlns="http://www.w3.org/2000/svg">
<rect width="253" height="144" rx="3" fill="white" fill-opacity="0.05"/>
<rect x="30" y="30" width="192" height="84" fill="white" fill-opacity="0.08"/>
<path opacity="0.3" fill-rule="evenodd" clip-rule="evenodd" d="M123 79C126.866 79 130 75.866 130 72C130 68.134 126.866 65 123 65C119.134 65 116 68.134 116 72C116 75.866 119.134 79 123 79Z" fill="white"/>
<path fill-rule="evenodd" clip-rule="evenodd" d="M121.725 74.3732C121.725 74.8033 122.232 75.0327 122.555 74.7486L125.245 72.3828C125.471 72.1841 125.472 71.8323 125.246 71.6329L122.556 69.2522C122.233 68.9666 121.725 69.1957 121.725 69.6266V74.3732Z" fill="white"/>
</svg>
