<?xml version="1.0" standalone="no"?>
<!DOCTYPE svg PUBLIC "-//W3C//DTD SVG 20010904//EN"
 "http://www.w3.org/TR/2001/REC-SVG-20010904/DTD/svg10.dtd">
<svg version="1.0" xmlns="http://www.w3.org/2000/svg"
 width="490.000000pt" height="490.000000pt" viewBox="0 0 490.000000 490.000000"
 preserveAspectRatio="xMidYMid meet">
<metadata>
Created by potrace 1.11, written by Peter Selinger 2001-2013
</metadata>
<g transform="translate(0.000000,490.000000) scale(0.100000,-0.100000)"
fill="#000000" stroke="none">
<path d="M2229 4736 c-759 -97 -1394 -517 -1769 -1169 -285 -496 -378 -1092
-260 -1657 73 -348 241 -701 466 -980 555 -688 1422 -1003 2295 -834 1062 205
1850 1134 1886 2224 29 879 -418 1682 -1180 2120 -246 141 -500 231 -797 282
-151 26 -490 33 -641 14z m626 -1254 c193 -300 350 -551 349 -557 -1 -13 -693
-1089 -702 -1092 -4 -2 -166 244 -360 546 l-353 549 353 550 c194 303 355 551
358 551 3 0 163 -246 355 -547z m-2139 -1000 c34 -27 44 -56 44 -129 0 -223
71 -506 183 -729 391 -780 1281 -1149 2109 -874 563 187 990 649 1139 1233 26
103 49 270 49 365 0 107 30 151 103 152 101 0 123 -68 97 -305 -41 -364 -175
-697 -399 -990 -65 -85 -223 -247 -311 -318 -481 -389 -1118 -528 -1715 -376
-251 64 -496 184 -710 348 -85 65 -247 223 -318 311 -272 336 -437 789 -437
1195 0 71 2 79 29 106 24 23 38 29 73 29 26 0 52 -7 64 -18z"/>
</g>
</svg>
