<svg width="30" height="30" viewBox="0 0 30 30" fill="none" xmlns="http://www.w3.org/2000/svg">
<circle opacity="0.12" cx="15" cy="15" r="15" fill="white"/>
<path opacity="0.3" fill-rule="evenodd" clip-rule="evenodd" d="M9.75 10C9.33579 10 9 10.3358 9 10.75C9 11.1642 9.33579 11.5 9.75 11.5H20.25C20.6642 11.5 21 11.1642 21 10.75C21 10.3358 20.6642 10 20.25 10H9.75ZM9.75 16.0003C9.33579 16.0003 9 16.3361 9 16.7503C9 17.1646 9.33579 17.5003 9.75 17.5003H20.25C20.6642 17.5003 21 17.1646 21 16.7503C21 16.3361 20.6642 16.0003 20.25 16.0003H9.75Z" fill="white"/>
<path fill-rule="evenodd" clip-rule="evenodd" d="M12 13C11.5858 13 11.25 13.3358 11.25 13.75C11.25 14.1642 11.5858 14.5 12 14.5H18C18.4142 14.5 18.75 14.1642 18.75 13.75C18.75 13.3358 18.4142 13 18 13H12ZM12 19C11.5858 19 11.25 19.3358 11.25 19.75C11.25 20.1642 11.5858 20.5 12 20.5H18C18.4142 20.5 18.75 20.1642 18.75 19.75C18.75 19.3358 18.4142 19 18 19H12Z" fill="white" fill-opacity="0.87"/>
</svg>
