<svg width="30" height="30" viewBox="0 0 30 30" fill="none" xmlns="http://www.w3.org/2000/svg">
<circle opacity="0.12" cx="15" cy="15" r="15" fill="white"/>
<path opacity="0.3" fill-rule="evenodd" clip-rule="evenodd" d="M6.98438 17.9961C6.98438 20.7575 9.22295 22.9961 11.9844 22.9961C13.1066 22.9961 14.1425 22.6264 14.9769 22.0021C15.8112 22.6264 16.8471 22.9961 17.9694 22.9961C20.7308 22.9961 22.9694 20.7575 22.9694 17.9961C22.9694 15.2347 20.7308 12.9961 17.9694 12.9961C16.8471 12.9961 15.8112 13.3658 14.9769 13.9901C14.1425 13.3658 13.1066 12.9961 11.9844 12.9961C9.22295 12.9961 6.98438 15.2347 6.98438 17.9961ZM16.3138 15.4932C16.7403 16.2293 16.9844 17.0842 16.9844 17.9961C16.9844 18.908 16.7403 19.7628 16.3138 20.4989C16.7968 20.8194 17.3677 20.9961 17.9694 20.9961C19.6262 20.9961 20.9694 19.6529 20.9694 17.9961C20.9694 16.3392 19.6262 14.9961 17.9694 14.9961C17.367 14.9961 16.7955 15.1739 16.3138 15.4932Z" fill="#79FF39"/>
<path fill-rule="evenodd" clip-rule="evenodd" d="M15.0039 17.001C17.7653 17.001 20.0039 14.7624 20.0039 12.001C20.0039 9.23955 17.7653 7.00098 15.0039 7.00098C12.2425 7.00098 10.0039 9.23955 10.0039 12.001C10.0039 14.7624 12.2425 17.001 15.0039 17.001Z" fill="#33FF00"/>
</svg>
