<svg width="30" height="30" viewBox="0 0 30 30" fill="none" xmlns="http://www.w3.org/2000/svg">
<circle opacity="0.12" cx="15" cy="15" r="15" fill="white"/>
<rect opacity="0.3" x="9" y="10" width="12" height="1.5" rx="0.75" fill="white"/>
<rect opacity="0.3" x="9" y="16" width="12" height="1.5" rx="0.75" fill="white"/>
<path fill-rule="evenodd" clip-rule="evenodd" d="M9.75 13C9.33579 13 9 13.3358 9 13.75C9 14.1642 9.33579 14.5 9.75 14.5H15.75C16.1642 14.5 16.5 14.1642 16.5 13.75C16.5 13.3358 16.1642 13 15.75 13H9.75ZM9.75 19C9.33579 19 9 19.3358 9 19.75C9 20.1642 9.33579 20.5 9.75 20.5H15.75C16.1642 20.5 16.5 20.1642 16.5 19.75C16.5 19.3358 16.1642 19 15.75 19H9.75Z" fill="white" fill-opacity="0.87"/>
</svg>
