<svg width="21" height="21" viewBox="0 0 21 21" fill="none" xmlns="http://www.w3.org/2000/svg">
<path opacity="0.38" d="M2.625 7.5C1.18125 7.5 0 8.85 0 10.5C0 12.15 1.18125 13.5 2.625 13.5C4.06875 13.5 5.25 12.15 5.25 10.5C5.25 8.85 4.06875 7.5 2.625 7.5ZM18.375 7.5C16.9312 7.5 15.75 8.85 15.75 10.5C15.75 12.15 16.9312 13.5 18.375 13.5C19.8188 13.5 21 12.15 21 10.5C21 8.85 19.8188 7.5 18.375 7.5ZM10.5 7.5C9.05625 7.5 7.875 8.85 7.875 10.5C7.875 12.15 9.05625 13.5 10.5 13.5C11.9438 13.5 13.125 12.15 13.125 10.5C13.125 8.85 11.9438 7.5 10.5 7.5Z" fill="#8E8E9A"/>
</svg>
