<svg width="16" height="16" viewBox="0 0 16 16" fill="none" xmlns="http://www.w3.org/2000/svg">
<path d="M1.92 5.75977C0.864 5.75977 0 6.62377 0 7.67977C0 8.73577 0.864 9.59977 1.92 9.59977C2.976 9.59977 3.84 8.73577 3.84 7.67977C3.84 6.62377 2.976 5.75977 1.92 5.75977ZM13.44 5.75977C12.384 5.75977 11.52 6.62377 11.52 7.67977C11.52 8.73577 12.384 9.59977 13.44 9.59977C14.496 9.59977 15.36 8.73577 15.36 7.67977C15.36 6.62377 14.496 5.75977 13.44 5.75977ZM7.68 5.75977C6.624 5.75977 5.76 6.62377 5.76 7.67977C5.76 8.73577 6.624 9.59977 7.68 9.59977C8.736 9.59977 9.6 8.73577 9.6 7.67977C9.6 6.62377 8.736 5.75977 7.68 5.75977Z" fill="#33FF00"/>
</svg>
