<svg width="30" height="30" viewBox="0 0 30 30" fill="none" xmlns="http://www.w3.org/2000/svg">
<circle opacity="0.12" cx="15" cy="15" r="15" fill="white"/>
<path opacity="0.3" fill-rule="evenodd" clip-rule="evenodd" d="M9.75039 10C9.33619 10 9.00042 10.3358 9.00042 10.75C9.00042 11.1642 9.33619 11.4999 9.75039 11.4999H20.2499C20.6641 11.4999 20.9999 11.1642 20.9999 10.75C20.9999 10.3358 20.6641 10 20.2499 10H9.75039ZM9.74997 15.9976C9.33577 15.9976 9 16.3334 9 16.7476C9 17.1618 9.33577 17.4976 9.74997 17.4976H20.2495C20.6637 17.4976 20.9995 17.1618 20.9995 16.7476C20.9995 16.3334 20.6637 15.9976 20.2495 15.9976H9.74997Z" fill="white"/>
<path opacity="0.87" fill-rule="evenodd" clip-rule="evenodd" d="M14.2496 13C13.8354 13 13.4997 13.3357 13.4997 13.7499C13.4997 14.164 13.8354 14.4998 14.2496 14.4998H20.2487C20.6628 14.4998 20.9986 14.164 20.9986 13.7499C20.9986 13.3357 20.6628 13 20.2487 13H14.2496ZM14.2489 19C13.8348 19 13.499 19.3357 13.499 19.7498C13.499 20.164 13.8348 20.4997 14.2489 20.4997H20.248C20.6622 20.4997 20.9979 20.164 20.9979 19.7498C20.9979 19.3357 20.6622 19 20.248 19H14.2489Z" fill="white"/>
</svg>
